<svg width="82" height="72" viewBox="0 0 82 72" fill="none" xmlns="http://www.w3.org/2000/svg">
<path d="M78.215 42.71C79.35 40.555 80 38.105 80 35.5C80 28.879 75.841 23.243 69.999 21.022C69.999 21.015 70 21.008 70 21C70 9.402 60.598 0 49 0C39.216 0 31.019 6.701 28.687 15.757C27.211 15.272 25.638 15 24 15C16.308 15 9.977 20.793 9.11 28.252C3.906 29.353 0 33.969 0 39.5C0 45.851 5.149 51 11.5 51C11.677 51 11.852 50.988 12.026 50.978C12.022 51.153 12 51.324 12 51.5C12 62.822 21.178 72 32.5 72C38.937 72 44.675 69.028 48.434 64.386C50.612 66.611 53.64 68 57 68C61.65 68 65.674 65.35 67.666 61.482C68.718 61.817 69.837 62 71 62C77.075 62 82 57.075 82 51C82 47.689 80.53 44.727 78.215 42.71Z" fill="#C7EDE6"/>
<path d="M70.875 46.5C70.875 46.5 74.515 46.5 77 46.5C79.485 46.5 81.5 44.485 81.5 42C81.5 39.667 79.718 37.771 77.445 37.545C77.467 37.364 77.5 37.187 77.5 37C77.5 34.515 75.485 32.5 73 32.5C71.562 32.5 70.297 33.186 69.473 34.236C69.333 31.6 67.171 29.5 64.5 29.5C61.739 29.5 59.5 31.739 59.5 34.5C59.5 34.946 59.577 35.37 59.687 35.782C59.045 35.005 58.086 34.5 57 34.5C55.219 34.5 53.766 35.835 53.545 37.555C53.364 37.533 53.187 37.5 53 37.5C50.515 37.5 48.5 39.515 48.5 42C48.5 44.485 50.515 46.5 53 46.5C55.485 46.5 62.5 46.5 62.5 46.5H67.875V47H70.875V46.5Z" fill="white"/>
<path d="M64.5 29C61.467 29 59 31.467 59 34.5C59 34.516 59 34.531 59 34.547C58.398 34.192 57.71 34 57 34C55.169 34 53.589 35.261 53.142 37.005C53.095 37.002 53.048 37 53 37C50.243 37 48 39.243 48 42C48 44.757 50.243 47 53 47H67.875C68.151 47 68.375 46.776 68.375 46.5C68.375 46.224 68.151 46 67.875 46H53C50.794 46 49 44.206 49 42C49 39.794 50.794 38 53 38C53.117 38 53.23 38.017 53.343 38.032L53.484 38.051C53.505 38.054 53.525 38.055 53.546 38.055C53.792 38.055 54.008 37.87 54.041 37.618C54.232 36.125 55.504 35 57 35C57.885 35 58.723 35.401 59.301 36.1C59.399 36.218 59.542 36.282 59.687 36.282C59.765 36.282 59.843 36.264 59.915 36.226C60.124 36.119 60.229 35.88 60.169 35.653C60.054 35.218 60 34.852 60 34.5C60 32.019 62.019 30 64.5 30C66.881 30 68.847 31.872 68.974 34.263C68.985 34.471 69.124 34.65 69.323 34.713C69.373 34.729 69.424 34.737 69.475 34.737C69.625 34.737 69.771 34.668 69.867 34.545C70.638 33.563 71.779 33 73 33C75.206 33 77 34.794 77 37C77 37.117 76.983 37.23 76.968 37.343L76.949 37.484C76.933 37.618 76.971 37.752 77.055 37.857C77.139 37.962 77.262 38.029 77.395 38.042C79.451 38.247 81 39.949 81 42C81 44.206 79.206 46 77 46H70.875C70.599 46 70.375 46.224 70.375 46.5C70.375 46.776 70.599 47 70.875 47H77C79.757 47 82 44.757 82 42C82 39.603 80.311 37.587 77.997 37.123C77.999 37.082 78 37.041 78 37C78 34.243 75.757 32 73 32C71.824 32 70.707 32.416 69.817 33.164C69.219 30.76 67.055 29 64.5 29Z" fill="#2C333F"/>
<path d="M63 36C61.597 36 60.3909 36.999 60.0869 38.341C59.7199 38.119 59.301 38 58.875 38C57.673 38 56.677 38.897 56.522 40.068C56.319 40.022 56.126 40 55.938 40C54.409 40 53.127 41.2 53.02 42.732C53.01 42.87 53.114 42.99 53.251 43C53.257 43 53.263 43 53.269 43C53.399 43 53.509 42.899 53.518 42.768C53.607 41.497 54.6689 40.5 55.9369 40.5C56.1659 40.5 56.407 40.542 56.675 40.627C56.697 40.634 56.7199 40.637 56.7419 40.637C56.7969 40.637 56.852 40.617 56.898 40.583C56.962 40.537 57 40.455 57 40.375C57 39.341 57.841 38.5 58.875 38.5C59.322 38.5 59.76 38.668 60.106 38.973C60.153 39.014 60.212 39.036 60.271 39.036C60.303 39.036 60.3339 39.03 60.3639 39.017C60.4519 38.982 60.5119 38.9 60.5189 38.805C60.6229 37.512 61.712 36.5 63 36.5C63.208 36.5 63.425 36.534 63.682 36.607C63.705 36.614 63.729 36.617 63.752 36.617C63.861 36.617 63.9589 36.544 63.9909 36.435C64.0289 36.302 63.952 36.164 63.819 36.126C63.517 36.04 63.256 36 63 36ZM76.883 37.5C75.557 37.5 74.375 38.397 74.009 39.682C73.971 39.815 74.048 39.953 74.181 39.991C74.205 39.997 74.228 40 74.25 40C74.359 40 74.459 39.928 74.49 39.818C74.795 38.748 75.779 38 76.883 38C77 38 77.113 38.014 77.225 38.029C77.2369 38.031 77.248 38.032 77.26 38.032C77.381 38.032 77.4889 37.94 77.5059 37.815C77.5249 37.678 77.429 37.552 77.292 37.534C77.158 37.516 77.022 37.5 76.883 37.5Z" fill="#2C333F"/>
<path d="M39.405 67H29.5C29.224 67 29 66.776 29 66.5C29 66.224 29.224 66 29.5 66H39.405C39.681 66 39.905 66.224 39.905 66.5C39.905 66.776 39.682 67 39.405 67ZM42.5 67H41.5C41.224 67 41 66.776 41 66.5C41 66.224 41.224 66 41.5 66H42.5C42.776 66 43 66.224 43 66.5C43 66.776 42.777 67 42.5 67ZM47.491 69H38.5C38.224 69 38 68.776 38 68.5C38 68.224 38.224 68 38.5 68H47.491C47.767 68 47.991 68.224 47.991 68.5C47.991 68.776 47.767 69 47.491 69ZM36.5 69H35.5C35.224 69 35 68.776 35 68.5C35 68.224 35.224 68 35.5 68H36.5C36.776 68 37 68.224 37 68.5C37 68.776 36.777 69 36.5 69ZM33.5 69H31.5C31.224 69 31 68.776 31 68.5C31 68.224 31.224 68 31.5 68H33.5C33.776 68 34 68.224 34 68.5C34 68.776 33.777 69 33.5 69ZM39.5 71H37.5C37.224 71 37 70.776 37 70.5C37 70.224 37.224 70 37.5 70H39.5C39.776 70 40 70.224 40 70.5C40 70.776 39.776 71 39.5 71ZM42.5 62C42.323 62 41.677 62 41.5 62C41.224 62 41 62.224 41 62.5C41 62.776 41.224 63 41.5 63C41.677 63 42.323 63 42.5 63C42.776 63 43 62.776 43 62.5C43 62.224 42.776 62 42.5 62ZM42.5 64C42.323 64 37.677 64 37.5 64C37.224 64 37 64.224 37 64.5C37 64.776 37.224 65 37.5 65C37.677 65 42.323 65 42.5 65C42.776 65 43 64.776 43 64.5C43 64.224 42.776 64 42.5 64ZM47.5 66C47.323 66 44.677 66 44.5 66C44.224 66 44 66.224 44 66.5C44 66.776 44.224 67 44.5 67C44.677 67 47.323 67 47.5 67C47.776 67 48 66.776 48 66.5C48 66.224 47.776 66 47.5 66Z" fill="white"/>
<path d="M63.5 10H53.5C53.224 10 53 9.776 53 9.5C53 9.224 53.224 9 53.5 9H63.5C63.776 9 64 9.224 64 9.5C64 9.776 63.776 10 63.5 10ZM67.5 10H65.5C65.224 10 65 9.776 65 9.5C65 9.224 65.224 9 65.5 9H67.5C67.776 9 68 9.224 68 9.5C68 9.776 67.776 10 67.5 10ZM72.5 12H62.5C62.224 12 62 11.776 62 11.5C62 11.224 62.224 11 62.5 11H72.5C72.776 11 73 11.224 73 11.5C73 11.776 72.777 12 72.5 12ZM60.5 12H59.5C59.224 12 59 11.776 59 11.5C59 11.224 59.224 11 59.5 11H60.5C60.776 11 61 11.224 61 11.5C61 11.776 60.776 12 60.5 12ZM57.375 12H55.5C55.224 12 55 11.776 55 11.5C55 11.224 55.224 11 55.5 11H57.375C57.651 11 57.875 11.224 57.875 11.5C57.875 11.776 57.651 12 57.375 12ZM66.5 8H61.5C61.224 8 61 7.776 61 7.5C61 7.224 61.224 7 61.5 7H66.5C66.776 7 67 7.224 67 7.5C67 7.776 66.777 8 66.5 8ZM63.5 14H61.5C61.224 14 61 13.776 61 13.5C61 13.224 61.224 13 61.5 13H63.5C63.776 13 64 13.224 64 13.5C64 13.776 63.776 14 63.5 14Z" fill="white"/>
<path d="M28 57.3C23.975 57.3 20.7 54.026 20.7 50V22C20.7 17.975 23.974 14.7 28 14.7H56C60.025 14.7 63.3 17.974 63.3 22V50C63.3 54.025 60.026 57.3 56 57.3H28Z" fill="#EA5167"/>
<path d="M56 15.4C59.639 15.4 62.6 18.361 62.6 22V50C62.6 53.639 59.639 56.6 56 56.6H28C24.361 56.6 21.4 53.639 21.4 50V22C21.4 18.361 24.361 15.4 28 15.4H56ZM56 14H28C23.582 14 20 17.582 20 22V50C20 54.418 23.582 58 28 58H56C60.418 58 64 54.418 64 50V22C64 17.582 60.418 14 56 14Z" fill="#2C333F"/>
<path d="M59.446 33.5111C59.17 33.5111 58.946 33.2871 58.946 33.0111V29.3051C58.946 29.0291 59.17 28.8051 59.446 28.8051C59.722 28.8051 59.946 29.0291 59.946 29.3051V33.0111C59.946 33.2871 59.722 33.5111 59.446 33.5111Z" fill="#2C333F"/>
<path d="M59.5081 27.06C59.2321 27.06 59.0081 26.836 59.0081 26.56V24.647C59.0081 24.371 59.2321 24.147 59.5081 24.147C59.7841 24.147 60.0081 24.371 60.0081 24.647V26.56C60.0081 26.836 59.7851 27.06 59.5081 27.06Z" fill="#2C333F"/>
<path d="M55.251 53.938H28.812C26.193 53.938 24.063 51.807 24.063 49.189V22.749C24.063 20.131 26.193 18 28.812 18H52.772C53.048 18 53.272 18.224 53.272 18.5C53.272 18.776 53.048 19 52.772 19H28.812C26.745 19 25.063 20.682 25.063 22.749V49.188C25.063 51.255 26.745 52.937 28.812 52.937H55.251C57.318 52.937 59 51.255 59 49.188V35.614C59 35.338 59.224 35.114 59.5 35.114C59.776 35.114 60 35.338 60 35.614V49.188C60 51.807 57.87 53.938 55.251 53.938Z" fill="#2C333F"/>
<path d="M27.5 60.5C27.5 60.5 29.067 60.5 31 60.5C32.933 60.5 34.5 58.933 34.5 57C34.5 55.219 33.165 53.766 31.445 53.545C31.473 53.366 31.5 53.187 31.5 53C31.5 51.067 29.933 49.5 28 49.5C26.968 49.5 26.05 49.955 25.41 50.665C25.026 48.857 23.423 47.5 21.5 47.5C19.291 47.5 17.5 49.291 17.5 51.5C17.5 51.691 17.53 51.874 17.556 52.058C17.128 51.714 16.592 51.5 16 51.5C14.772 51.5 13.755 52.387 13.545 53.555C13.366 53.527 13.187 53.5 13 53.5C11.067 53.5 9.5 55.067 9.5 57C9.5 58.933 11.067 60.5 13 60.5C14.933 60.5 20.5 60.5 20.5 60.5V61H27.5V60.5Z" fill="white"/>
<path d="M29.25 56C29.112 56 29 55.888 29 55.75C29 54.527 29.995 53.532 31.218 53.532C31.252 53.541 31.955 53.531 32.462 53.668C32.595 53.704 32.674 53.841 32.638 53.974C32.602 54.108 32.465 54.187 32.332 54.15C31.888 54.03 31.232 54.03 31.219 54.032C30.271 54.032 29.5 54.803 29.5 55.75C29.5 55.888 29.388 56 29.25 56ZM22.5 60C22.3674 60 22.2402 60.0527 22.1464 60.1464C22.0527 60.2402 22 60.3674 22 60.5C22 60.6326 22.0527 60.7598 22.1464 60.8535C22.2402 60.9473 22.3674 61 22.5 61C22.6326 61 22.7598 60.9473 22.8536 60.8535C22.9473 60.7598 23 60.6326 23 60.5C23 60.3674 22.9473 60.2402 22.8536 60.1464C22.7598 60.0527 22.6326 60 22.5 60Z" fill="#2C333F"/>
<path d="M31 61H27.5C27.224 61 27 60.776 27 60.5C27 60.224 27.224 60 27.5 60H31C32.654 60 34 58.654 34 57C34 55.504 32.875 54.232 31.382 54.041C31.248 54.023 31.127 53.953 31.046 53.845C30.965 53.737 30.931 53.601 30.952 53.468C30.975 53.314 31 53.16 31 53C31 51.346 29.654 50 28 50C27.15 50 26.362 50.355 25.781 51C25.656 51.139 25.46 51.198 25.281 51.148C25.099 51.099 24.96 50.953 24.921 50.769C24.58 49.165 23.141 48 21.5 48C19.57 48 18 49.57 18 51.5C18 51.643 18.021 51.78 18.041 51.918C18.07 52.121 17.978 52.356 17.799 52.458C17.62 52.56 17.403 52.576 17.243 52.448C16.878 52.155 16.449 52 16 52C15.034 52 14.208 52.691 14.037 53.644C13.989 53.911 13.741 54.09 13.468 54.049C13.314 54.025 13.16 54 13 54C11.346 54 10 55.346 10 57C10 58.654 11.346 60 13 60H20.5C20.776 60 21 60.224 21 60.5C21 60.776 20.776 61 20.5 61H13C10.794 61 9 59.206 9 57C9 54.794 10.794 53 13 53C13.059 53 13.116 53.002 13.174 53.006C13.588 51.82 14.711 51 16 51C16.349 51 16.689 51.061 17.011 51.18C17.176 48.847 19.126 47 21.5 47C23.331 47 24.966 48.127 25.653 49.774C26.333 49.276 27.155 49 28 49C30.206 49 32 50.794 32 53C32 53.048 31.999 53.095 31.996 53.142C33.739 53.59 35 55.169 35 57C35 59.206 33.206 61 31 61Z" fill="#2C333F"/>
<path d="M25.5 60C25.341 60 24.659 60 24.5 60C24.224 60 24 60.224 24 60.5C24 60.776 24.224 61 24.5 61C24.659 61 25.341 61 25.5 61C25.776 61 26 60.776 26 60.5C26 60.224 25.776 60 25.5 60Z" fill="#2C333F"/>
<path d="M36.5215 37.2539H37.6494V38.8467H36.5215V41H34.5459V38.8467H30.4648L30.376 37.6025L34.5254 31.0469H36.5215V37.2539ZM32.3447 37.2539H34.5459V33.7402L34.416 33.9658L32.3447 37.2539Z" fill="white"/>
<path d="M45.415 36.8848C45.415 38.2611 45.1302 39.3138 44.5605 40.043C43.9909 40.7721 43.1569 41.1367 42.0586 41.1367C40.974 41.1367 40.1445 40.779 39.5703 40.0635C38.9961 39.348 38.7021 38.3226 38.6885 36.9873V35.1553C38.6885 33.7653 38.9756 32.7103 39.5498 31.9902C40.1286 31.2702 40.9603 30.9102 42.0449 30.9102C43.1296 30.9102 43.959 31.2679 44.5332 31.9834C45.1074 32.6943 45.4014 33.7174 45.415 35.0527V36.8848ZM43.4395 34.875C43.4395 34.0501 43.3255 33.4508 43.0977 33.0771C42.8743 32.6989 42.5234 32.5098 42.0449 32.5098C41.5801 32.5098 41.236 32.6898 41.0127 33.0498C40.7939 33.4053 40.6777 33.9635 40.6641 34.7246V37.1445C40.6641 37.9557 40.7734 38.5596 40.9922 38.9561C41.2155 39.348 41.571 39.5439 42.0586 39.5439C42.5417 39.5439 42.8903 39.3548 43.1045 38.9766C43.3187 38.5983 43.4303 38.0195 43.4395 37.2402V34.875Z" fill="white"/>
<path d="M52.5996 37.2539H53.7275V38.8467H52.5996V41H50.624V38.8467H46.543L46.4541 37.6025L50.6035 31.0469H52.5996V37.2539ZM48.4229 37.2539H50.624V33.7402L50.4941 33.9658L48.4229 37.2539Z" fill="white"/>
<path fill-rule="evenodd" clip-rule="evenodd" d="M34.5459 37.2539V33.7402L34.416 33.9658L32.3447 37.2539H34.5459ZM30.376 37.6025L30.4649 38.8467H34.5459V41H36.5215V38.8467H37.6494V37.2539H36.5215V31.0469H34.5254L30.376 37.6025ZM35.5185 30.0469H33.9749L29.3551 37.3457L29.5337 39.8467H33.5459V42H37.5215V39.8467H38.2637C38.4086 40.1494 38.5832 40.4312 38.7904 40.6894C39.59 41.6856 40.7324 42.1367 42.0586 42.1367C43.4003 42.1367 44.553 41.677 45.3486 40.6586C45.5435 40.4091 45.7086 40.1377 45.8464 39.8467H49.624V42H53.5996V39.8467H54.7276V36.2539H53.5996V30.0469H51.624V29.9992L51.5966 30.0469H50.053L46.4151 35.7945V35.0527L46.415 35.0425C46.4001 33.5831 46.0794 32.3071 45.3123 31.3564C44.5128 30.3609 43.3707 29.9102 42.0449 29.9102C40.7163 29.9102 39.5731 30.3651 38.7704 31.3637L38.768 31.3667C37.9965 32.3342 37.6885 33.649 37.6885 35.1553V36.2539H37.5215V30.0469H35.5459V29.9992L35.5185 30.0469ZM44.5332 31.9834C43.959 31.2679 43.1296 30.9102 42.0449 30.9102C40.9603 30.9102 40.1286 31.2702 39.5498 31.9902C38.9756 32.7103 38.6885 33.7653 38.6885 35.1553V36.9873C38.7022 38.3226 38.9961 39.348 39.5703 40.0635C40.1446 40.779 40.974 41.1367 42.0586 41.1367C43.1569 41.1367 43.9909 40.7721 44.5606 40.043C45.1302 39.3138 45.4151 38.2611 45.4151 36.8848V35.0527C45.4014 33.7174 45.1074 32.6943 44.5332 31.9834ZM43.0977 33.0771C42.8744 32.6989 42.5235 32.5098 42.0449 32.5098C41.5801 32.5098 41.236 32.6898 41.0127 33.0498C40.794 33.4053 40.6778 33.9635 40.6641 34.7246V37.1445C40.6641 37.9557 40.7735 38.5596 40.9922 38.9561C41.2155 39.348 41.571 39.5439 42.0586 39.5439C42.5417 39.5439 42.8903 39.3548 43.1045 38.9766C43.3187 38.5983 43.4304 38.0195 43.4395 37.2402V34.875C43.4395 34.0501 43.3255 33.4508 43.0977 33.0771ZM42.4395 37.2342V34.875C42.4395 34.0968 42.3237 33.7287 42.2439 33.5978L42.2402 33.5917L42.2365 33.5855C42.2207 33.5587 42.2088 33.5455 42.2034 33.5402C42.1985 33.5354 42.1955 33.5335 42.1926 33.5319C42.1895 33.5302 42.1516 33.5098 42.0449 33.5098C41.9424 33.5098 41.9052 33.5291 41.9018 33.5308C41.899 33.5323 41.8964 33.534 41.8923 33.5379C41.8879 33.5421 41.8776 33.5529 41.8634 33.5755C41.788 33.6993 41.6775 34.0348 41.6641 34.7339V37.1445C41.6641 37.8921 41.7696 38.2901 41.8643 38.4666C41.8796 38.4925 41.8913 38.5059 41.8971 38.5117C41.9027 38.5175 41.9062 38.5197 41.9091 38.5212C41.9122 38.5229 41.9503 38.5439 42.0586 38.5439C42.1144 38.5439 42.1516 38.5385 42.174 38.5334C42.1956 38.5285 42.2044 38.5237 42.2056 38.5231C42.2061 38.5228 42.2068 38.5224 42.2087 38.5205C42.2113 38.518 42.2208 38.5078 42.2343 38.4838C42.3228 38.3277 42.4305 37.9555 42.4395 37.2342ZM50.6035 31.0469L46.4541 37.6025L46.543 38.8467H50.624V41H52.5996V38.8467H53.7276V37.2539H52.5996V31.0469H50.6035ZM48.4229 37.2539L50.4942 33.9658L50.624 33.7402V37.2539H48.4229Z" fill="#2C333F"/>
</svg>
