<svg width="25" height="30" viewBox="0 0 25 30" fill="none" xmlns="http://www.w3.org/2000/svg">
<path d="M20.4529 10.5882H17.6471V1.76471C17.6471 0.794118 16.8529 0 15.8824 0H8.82353C7.85294 0 7.05882 0.794118 7.05882 1.76471V10.5882H4.25294C2.68235 10.5882 1.88823 12.4941 3 13.6059L11.1 21.7059C11.7882 22.3941 12.9 22.3941 13.5882 21.7059L21.6882 13.6059C22.8 12.4941 22.0235 10.5882 20.4529 10.5882ZM0 28.2353C0 29.2059 0.794118 30 1.76471 30H22.9412C23.9118 30 24.7059 29.2059 24.7059 28.2353C24.7059 27.2647 23.9118 26.4706 22.9412 26.4706H1.76471C0.794118 26.4706 0 27.2647 0 28.2353Z" fill="#CCCCCC"/>
</svg>
