<svg width="32" height="37" viewBox="0 0 32 37" fill="none" xmlns="http://www.w3.org/2000/svg">
<path d="M11.2155 10.2849L11.3155 12.5849L9.71545 15.5849L7.21545 20.4849L6.71545 24.5849L8.51545 30.3849L12.6155 32.6849H18.8155L24.6155 28.2849L27.2155 21.3849L21.2155 14.0849L19.5155 9.98486L11.2155 10.2849Z" fill="#ECEFF1"/>
<path d="M25.4155 15.985C23.8155 13.685 22.5155 12.285 21.8155 9.38501C21.1155 6.48501 22.0155 7.28501 21.4155 4.78501C21.1155 3.48501 20.6155 2.58501 20.1155 1.88501C19.5155 1.18501 18.8155 0.785012 18.4155 0.685012C17.5155 0.185012 15.4155 -0.614988 12.8155 0.785012C10.1155 2.18501 10.4155 5.18501 10.9155 11.285C10.9155 11.685 10.8155 12.185 10.6155 12.585C10.2155 13.485 9.51546 14.285 8.91546 14.985C8.21546 15.985 7.51546 16.985 7.01546 18.085C5.81546 20.385 4.71546 23.285 5.01546 24.385C5.51546 24.285 11.8155 33.885 11.8155 34.085C12.2155 33.985 13.9155 33.985 15.4155 33.985C17.5155 33.885 18.7155 33.785 20.4155 34.185C20.4155 33.885 20.3155 33.585 20.3155 33.285C20.3155 32.685 20.4155 32.185 20.5155 31.485C20.6155 30.985 20.7155 30.485 20.8155 29.885C19.8155 30.785 18.0155 31.785 16.3155 32.085C14.8155 32.385 12.3155 31.885 11.1155 30.385C11.2155 30.385 11.4155 30.385 11.5155 30.285C11.8155 30.185 12.1155 30.085 12.2155 29.885C12.5155 29.385 12.3155 28.885 12.1155 28.585C11.9155 28.285 10.4155 27.185 9.71546 26.585C9.01546 25.985 8.61546 25.685 8.21546 25.285L7.41546 24.485C7.21546 24.285 7.11546 24.085 7.01546 23.985C6.81546 23.485 6.71546 22.885 6.81546 22.085C6.91546 20.985 7.31546 20.085 7.81546 19.085C8.01546 18.685 8.51546 17.885 8.51546 17.885C8.51546 17.885 6.81546 22.085 7.71546 23.385C7.71546 23.385 7.81546 22.085 8.21546 20.785C8.51546 19.885 9.01546 18.585 9.61546 17.885C10.2155 17.185 11.7155 14.585 11.8155 12.985C11.8155 12.285 11.9155 11.585 11.9155 11.085C11.5155 10.685 18.5155 9.68501 18.9155 10.785C19.0155 11.185 20.4155 14.785 21.2155 16.685C21.6155 17.585 22.1155 18.385 22.4155 19.385C22.7155 20.485 22.9155 21.985 22.9155 23.485C22.9155 23.785 22.9155 24.285 22.8155 24.785C23.0155 24.785 26.9155 20.585 22.3155 17.085C22.3155 17.085 25.1155 18.385 25.2155 20.985C25.3155 23.085 24.4155 24.785 24.2155 25.085C24.3155 25.085 26.3155 25.985 26.4155 25.985C26.8155 25.985 27.6155 25.685 27.6155 25.685C27.7155 25.385 28.0155 24.585 28.0155 24.285C28.7155 21.985 27.0155 18.285 25.4155 15.985Z" fill="#263238"/>
<path d="M12.7155 9.38476C13.4334 9.38476 14.0155 8.48934 14.0155 7.38477C14.0155 6.2802 13.4334 5.38477 12.7155 5.38477C11.9975 5.38477 11.4155 6.2802 11.4155 7.38477C11.4155 8.48934 11.9975 9.38476 12.7155 9.38476Z" fill="#ECEFF1"/>
<path d="M17.2154 9.58486C18.1543 9.58486 18.9154 8.55512 18.9154 7.28486C18.9154 6.01461 18.1543 4.98486 17.2154 4.98486C16.2766 4.98486 15.5154 6.01461 15.5154 7.28486C15.5154 8.55512 16.2766 9.58486 17.2154 9.58486Z" fill="#ECEFF1"/>
<path d="M13.4424 7.5216C13.3593 6.86409 12.981 6.37038 12.5974 6.41886C12.2139 6.46734 11.9703 7.03966 12.0534 7.69717C12.1365 8.35468 12.5148 8.84839 12.8984 8.79991C13.2819 8.75143 13.5255 8.17911 13.4424 7.5216Z" fill="#212121"/>
<path d="M17.1155 8.98477C17.6678 8.98477 18.1155 8.40274 18.1155 7.68477C18.1155 6.9668 17.6678 6.38477 17.1155 6.38477C16.5632 6.38477 16.1155 6.9668 16.1155 7.68477C16.1155 8.40274 16.5632 8.98477 17.1155 8.98477Z" fill="#212121"/>
<path d="M30.4155 29.685C30.0155 29.485 29.3155 29.185 28.7155 28.285C28.4155 27.785 28.5155 26.385 28.0155 25.785C27.7155 25.385 27.3155 25.585 27.2155 25.585C26.3155 25.785 24.2155 27.185 22.8155 25.585C22.6155 25.385 22.3155 25.085 21.8155 25.085C21.3155 25.085 21.1155 25.285 20.9155 25.685C20.7155 26.085 20.7155 26.385 20.7155 27.385C20.7155 28.185 20.7155 29.085 20.6155 29.785C20.4155 31.485 20.1155 32.485 20.1155 33.485C20.1155 34.585 20.4155 35.285 20.8155 35.585C21.1155 35.885 21.6155 36.085 22.7155 36.085C23.8155 36.085 24.5155 35.685 25.2155 34.985C25.7155 34.485 26.1155 34.285 27.5155 33.285C28.6155 32.585 30.3155 31.685 30.6155 31.385C30.8155 31.185 31.1155 31.085 31.1155 30.485C31.1155 29.985 30.7155 29.785 30.4155 29.685V29.685ZM10.3155 29.985C9.31547 28.385 9.21547 28.085 8.51547 27.085C7.91547 26.085 6.61547 24.185 5.81547 24.185C5.21547 24.185 4.91547 24.485 4.51547 24.885C4.11547 25.285 3.71547 26.185 3.01547 26.685C2.41547 27.185 0.71547 27.085 0.31547 27.685C-0.0845301 28.285 0.71547 29.185 0.71547 30.685C0.71547 31.285 0.21547 31.685 0.11547 32.085C0.0154701 32.585 -0.0845299 32.885 0.11547 33.285C0.51547 33.885 1.01547 34.085 4.41547 34.785C6.21547 35.185 7.91547 36.185 9.01547 36.285C10.1155 36.385 12.0155 36.285 12.0155 33.585C12.1155 31.985 11.2155 31.585 10.3155 29.985V29.985ZM12.2155 11.885C11.6155 11.485 11.1155 11.085 11.1155 10.485C11.1155 9.88496 11.5155 9.68496 12.1155 9.18496C12.2155 9.08496 13.3155 8.08496 14.4155 8.08496C15.5155 8.08496 16.8155 8.78496 17.3155 8.98496C18.2155 9.18496 19.1155 9.38496 19.0155 10.085C18.9155 11.085 18.8155 11.285 17.8155 11.785C17.1155 11.985 15.8155 13.085 14.9155 13.085C14.5155 13.085 13.9155 13.085 13.5155 12.985C13.2155 12.885 12.7155 12.385 12.2155 11.885Z" fill="#FFC107"/>
<path d="M12.0155 11.0852C12.2155 11.2852 12.5155 11.4852 12.8155 11.5852C13.0155 11.6852 13.3155 11.7852 13.3155 11.7852H14.2155C14.7155 11.7852 15.4155 11.5852 16.1155 11.1852C16.8155 10.8852 16.9155 10.6852 17.4155 10.4852C17.9155 10.1852 18.4155 9.88516 18.2155 9.78516C18.0155 9.68516 17.8155 9.78516 17.1155 10.1852C16.5155 10.5852 16.0155 10.7852 15.4155 11.0852C15.1155 11.1852 14.7155 11.3852 14.4155 11.3852H13.5155C13.2155 11.3852 13.0155 11.2852 12.7155 11.1852C12.5155 11.0852 12.4155 10.9852 12.3155 10.9852C12.1155 10.8852 11.7155 10.4852 11.5155 10.3852C11.5155 10.3852 11.3155 10.3852 11.4155 10.4852L12.0155 11.0852ZM15.0155 8.88516C15.1155 9.08516 15.3155 9.08516 15.4155 9.18516C15.5155 9.28516 15.6155 9.28516 15.6155 9.28516C15.7155 9.18516 15.6155 8.98516 15.5155 8.98516C15.5155 8.78516 15.0155 8.78516 15.0155 8.88516V8.88516ZM13.4155 9.08516C13.4155 9.18516 13.6155 9.28516 13.6155 9.18516C13.7155 9.08516 13.8155 8.98516 13.9155 8.98516C14.1155 8.88516 14.0155 8.78516 13.7155 8.78516C13.5155 8.88516 13.5155 8.98516 13.4155 9.08516V9.08516Z" fill="#634703"/>
<path d="M23.1155 26.7849V27.0849C23.3155 27.4849 23.8155 27.5849 24.2155 27.5849C24.8155 27.5849 25.4155 27.1849 25.7155 26.7849C25.7155 26.6849 25.8155 26.5849 25.9155 26.4849C26.1155 26.1849 26.2155 25.9849 26.3155 25.8849C26.3155 25.8849 26.2155 25.7849 26.2155 25.6849C26.1155 25.4849 25.8155 25.2849 25.4155 25.1849C25.1155 25.0849 24.6155 24.9849 24.4155 24.9849C23.5155 24.8849 23.0155 25.1849 22.7155 25.4849C22.7155 25.4849 22.8155 25.4849 22.8155 25.5849C23.0155 25.7849 23.1155 25.9849 23.1155 26.2849C23.2155 26.4849 23.1155 26.5849 23.1155 26.7849V26.7849Z" fill="#455A64"/>
</svg>
