<svg width="105" height="42" viewBox="0 0 105 42" fill="none" xmlns="http://www.w3.org/2000/svg">
    <path d="M87.6043 25.8862C87.6043 24.2407 88.7647 22.2397 90.1962 21.4169L102.408 14.3975C103.84 13.5747 105 14.2417 105 15.8873V30.1589C105 31.8044 103.84 33.8054 102.408 34.6282L90.1962 41.6476C88.7647 42.4704 87.6043 41.8034 87.6043 40.1578V25.8862Z" fill="#333333"/>
    <path d="M66 15.8873C66 14.2417 67.1604 13.5747 68.5918 14.3975L80.8038 21.4169C82.2353 22.2397 83.3957 24.2407 83.3957 25.8862V40.1578C83.3957 41.8034 82.2353 42.4704 80.8038 41.6476L68.5918 34.6282C67.1604 33.8054 66 31.8044 66 30.1589L66 15.8873Z" fill="#333333"/>
    <path d="M70.4623 10.616C69.0309 9.79323 69.0309 8.45924 70.4623 7.63646L82.6743 0.617085C84.1058 -0.205695 86.4266 -0.205695 87.858 0.617086L100.273 7.75288C101.704 8.57566 101.704 9.90965 100.273 10.7324L88.0606 17.7518C86.6291 18.5746 84.3083 18.5746 82.8769 17.7518L70.4623 10.616Z" fill="#333333"/>
    <path fill-rule="evenodd" clip-rule="evenodd" d="M7.71429 30.4444H0V11.5556C0 7.38266 3.45372 4 7.71429 4V30.4444ZM54 4C49.7394 4 46.2857 7.38266 46.2857 11.5556V22.8889H42.4286V11.5556H34.7143V22.8889H30.8571V4C26.5966 4 23.1429 7.38266 23.1429 11.5556V22.8889C23.1429 27.0618 26.5966 30.4444 30.8571 30.4444H34.7143C36.4413 30.4444 37.9032 29.3327 38.3948 27.8H38.7481C39.2396 29.3327 40.7015 30.4444 42.4286 30.4444H46.2857C50.5463 30.4444 54 27.0618 54 22.8889V4ZM19.2857 11.5556H11.5714V38C15.832 38 19.2857 34.6173 19.2857 30.4444V11.5556ZM41.85 38C43.4479 38 44.7429 36.7315 44.7429 35.1667C44.7429 33.6019 43.4479 32.3333 41.85 32.3333C40.2521 32.3333 38.9571 33.6019 38.9571 35.1667C38.9571 36.7315 40.2521 38 41.85 38ZM38.1857 35.1667C38.1857 36.7315 36.8907 38 35.2929 38C33.695 38 32.4 36.7315 32.4 35.1667C32.4 33.6019 33.695 32.3333 35.2929 32.3333C36.8907 32.3333 38.1857 33.6019 38.1857 35.1667Z" fill="#333333"/>
    </svg>
    