<svg width="61" height="27" viewBox="0 0 61 27" fill="none" xmlns="http://www.w3.org/2000/svg">
<path d="M49.5069 16.6411C49.5069 15.5833 50.2516 14.2969 51.1704 13.768L59.0084 9.25555C59.9271 8.72662 60.6719 9.1554 60.6719 10.2133V19.3878C60.6719 20.4457 59.9271 21.7321 59.0084 22.261L51.1704 26.7734C50.2516 27.3024 49.5069 26.8736 49.5069 25.8157V16.6411Z" fill="url(#paint0_linear_2283_43)"/>
<path d="M35.6406 10.2133C35.6406 9.1554 36.3854 8.72662 37.3041 9.25555L45.1421 13.768C46.0609 14.2969 46.8056 15.5833 46.8056 16.6411V25.8157C46.8056 26.8736 46.0609 27.3024 45.1421 26.7734L37.3041 22.261C36.3854 21.7321 35.6406 20.4457 35.6406 19.3878L35.6406 10.2133Z" fill="url(#paint1_linear_2283_43)"/>
<path d="M38.5047 6.82458C37.5859 6.29565 37.5859 5.43808 38.5047 4.90915L46.3427 0.396698C47.2614 -0.132233 48.751 -0.132232 49.6697 0.396698L57.6377 4.98399C58.5564 5.51292 58.5564 6.37049 57.6377 6.89942L49.7997 11.4119C48.881 11.9408 47.3914 11.9408 46.4727 11.4119L38.5047 6.82458Z" fill="url(#paint2_linear_2283_43)"/>
<path fill-rule="evenodd" clip-rule="evenodd" d="M4.48197 18.6947H0.328125V8.3101C0.328125 6.01595 2.18782 4.15625 4.48197 4.15625V18.6947ZM29.405 4.15625C27.1109 4.15625 25.2512 6.01595 25.2512 8.3101V14.5409H23.1743V8.3101H19.0204V14.5409H16.9435V4.15625C14.6494 4.15625 12.7897 6.01595 12.7897 8.3101V14.5409C12.7897 16.835 14.6494 18.6947 16.9435 18.6947H19.0204C19.9504 18.6947 20.7375 18.0835 21.0022 17.2409H21.1925C21.4572 18.0835 22.2443 18.6947 23.1743 18.6947H25.2512C27.5453 18.6947 29.405 16.835 29.405 14.5409V4.15625ZM10.7127 8.3101H6.55889V22.8486C8.85304 22.8486 10.7127 20.9889 10.7127 18.6947V8.3101ZM22.8627 22.8486C23.7231 22.8486 24.4204 22.1511 24.4204 21.2909C24.4204 20.4306 23.7231 19.7332 22.8627 19.7332C22.0024 19.7332 21.305 20.4306 21.305 21.2909C21.305 22.1511 22.0024 22.8486 22.8627 22.8486ZM20.8897 21.2909C20.8897 22.1511 20.1924 22.8486 19.332 22.8486C18.4716 22.8486 17.7743 22.1511 17.7743 21.2909C17.7743 20.4306 18.4716 19.7332 19.332 19.7332C20.1924 19.7332 20.8897 20.4306 20.8897 21.2909Z" fill="url(#paint3_linear_2283_43)"/>
<defs>
<linearGradient id="paint0_linear_2283_43" x1="35.6406" y1="0" x2="61.1993" y2="0.825449" gradientUnits="userSpaceOnUse">
<stop stop-color="#87FCC4"/>
<stop offset="1" stop-color="#28C1F5"/>
</linearGradient>
<linearGradient id="paint1_linear_2283_43" x1="35.6406" y1="0" x2="61.1993" y2="0.825449" gradientUnits="userSpaceOnUse">
<stop stop-color="#87FCC4"/>
<stop offset="1" stop-color="#28C1F5"/>
</linearGradient>
<linearGradient id="paint2_linear_2283_43" x1="35.6406" y1="0" x2="61.1993" y2="0.825449" gradientUnits="userSpaceOnUse">
<stop stop-color="#87FCC4"/>
<stop offset="1" stop-color="#28C1F5"/>
</linearGradient>
<linearGradient id="paint3_linear_2283_43" x1="0.328125" y1="4.15625" x2="29.9617" y2="5.76209" gradientUnits="userSpaceOnUse">
<stop stop-color="#87FCC4"/>
<stop offset="1" stop-color="#28C1F5"/>
</linearGradient>
</defs>
</svg>
