<svg width="74" height="85" viewBox="0 0 74 85" fill="none" xmlns="http://www.w3.org/2000/svg">
<path d="M52.6197 84.4893H52.6192C50.1624 84.51 48.5648 83.7794 46.7436 82.9466C46.5968 82.8794 46.4485 82.8116 46.2982 82.7435C44.2656 81.8221 41.9429 80.8876 38.0654 80.9184C34.1927 80.9375 31.8393 81.8757 29.7758 82.7865C29.641 82.846 29.5077 82.9053 29.3756 82.964C27.5016 83.7966 25.8631 84.5247 23.3768 84.4993H23.3762C20.4194 84.4725 17.7714 83.0099 15.3913 80.8316C13.011 78.6531 10.9443 75.8002 9.15538 73.0835C4.18351 65.5089 1.43899 57.2879 0.70338 49.7905C-0.033093 42.2843 1.2471 35.5483 4.26632 30.9073L4.2666 30.9068C8.57638 24.2665 15.3713 20.4087 21.6915 20.4087C24.9166 20.4087 27.5479 21.2927 30.1034 22.2035C30.2318 22.2493 30.3601 22.2952 30.4884 22.341C32.8953 23.2016 35.2862 24.0564 37.9892 24.0564C40.5051 24.0564 42.5798 23.2682 44.7404 22.4472C44.9609 22.3635 45.1823 22.2793 45.4052 22.1957C47.8212 21.2887 50.4847 20.3987 54.2335 20.3987C59.7007 20.3987 65.5229 23.2982 69.8005 28.3784C55.7946 36.5732 58.1203 56.8087 72.3711 62.6377C70.5235 66.7166 69.5583 68.6644 67.107 72.3988C65.3178 75.1235 63.1822 78.1503 60.7304 80.4995C58.2741 82.8531 55.562 84.4673 52.6197 84.4893ZM48.0135 13.4918L48.013 13.4924C45.1859 17.1323 40.384 19.9372 35.7316 19.9526C35.052 15.3487 37.2463 10.5822 39.9381 7.30635C42.8673 3.76136 47.8164 0.999301 52.1168 0.539811C52.6689 5.35967 50.6668 10.0863 48.0135 13.4918Z" fill="#848484" fill-opacity="0.33" stroke="#A9A9A9"/>
</svg>
