<svg width="74" height="85" viewBox="0 0 74 85" fill="none" xmlns="http://www.w3.org/2000/svg">
<path d="M73.0432 62.3649C71.0456 66.7876 70.0903 68.7651 67.5249 72.6733C63.9407 78.1315 58.88 84.9425 52.6234 84.9893C47.0584 85.0361 45.622 81.3583 38.0694 81.4184C30.5168 81.4552 28.9435 85.0561 23.3717 84.9993C17.1152 84.9425 12.3251 78.8063 8.73752 73.3581C-1.29364 58.0759 -2.35254 40.1647 3.8472 30.6346C8.23312 23.877 15.1744 19.9087 21.6915 19.9087C28.3289 19.9087 32.501 23.5564 37.9892 23.5564C43.3138 23.5564 46.5573 19.8987 54.2335 19.8987C60.0391 19.8987 66.1787 23.062 70.5646 28.5202C56.2144 36.3834 58.5459 56.88 73.0432 62.3649ZM48.4079 13.7991C51.2004 10.2149 53.3182 5.15755 52.55 0C47.9937 0.310655 42.6658 3.22013 39.5525 6.98808C36.7333 10.4186 34.395 15.5161 35.3069 20.4465C40.2774 20.6068 45.4216 17.6439 48.4079 13.7991Z" fill="#686868" fill-opacity="0.33"/>
</svg>
