<svg width="30" height="30" viewBox="0 0 30 30" fill="none" xmlns="http://www.w3.org/2000/svg">
<rect opacity="0.1" width="30" height="30" rx="6" fill="url(#paint0_linear_939_1405)"/>
<path fill-rule="evenodd" clip-rule="evenodd" d="M6.59961 8.9998C6.59961 8.68154 6.72604 8.37632 6.95108 8.15128C7.17612 7.92623 7.48135 7.7998 7.79961 7.7998H22.1996C22.5179 7.7998 22.8231 7.92623 23.0481 8.15128C23.2732 8.37632 23.3996 8.68154 23.3996 8.9998C23.3996 9.31806 23.2732 9.62329 23.0481 9.84833C22.8231 10.0734 22.5179 10.1998 22.1996 10.1998H7.79961C7.48135 10.1998 7.17612 10.0734 6.95108 9.84833C6.72604 9.62329 6.59961 9.31806 6.59961 8.9998ZM6.59961 14.9998C6.59961 14.6815 6.72604 14.3763 6.95108 14.1513C7.17612 13.9262 7.48135 13.7998 7.79961 13.7998H22.1996C22.5179 13.7998 22.8231 13.9262 23.0481 14.1513C23.2732 14.3763 23.3996 14.6815 23.3996 14.9998C23.3996 15.3181 23.2732 15.6233 23.0481 15.8483C22.8231 16.0734 22.5179 16.1998 22.1996 16.1998H7.79961C7.48135 16.1998 7.17612 16.0734 6.95108 15.8483C6.72604 15.6233 6.59961 15.3181 6.59961 14.9998ZM6.59961 20.9998C6.59961 20.6815 6.72604 20.3763 6.95108 20.1513C7.17612 19.9262 7.48135 19.7998 7.79961 19.7998H14.9996C15.3179 19.7998 15.6231 19.9262 15.8481 20.1513C16.0732 20.3763 16.1996 20.6815 16.1996 20.9998C16.1996 21.3181 16.0732 21.6233 15.8481 21.8483C15.6231 22.0734 15.3179 22.1998 14.9996 22.1998H7.79961C7.48135 22.1998 7.17612 22.0734 6.95108 21.8483C6.72604 21.6233 6.59961 21.3181 6.59961 20.9998Z" fill="url(#paint1_linear_939_1405)"/>
<defs>
<linearGradient id="paint0_linear_939_1405" x1="0" y1="0" x2="30.6269" y2="1.06693" gradientUnits="userSpaceOnUse">
<stop stop-color="#87FCC4"/>
<stop offset="1" stop-color="#28C1F5"/>
</linearGradient>
<linearGradient id="paint1_linear_939_1405" x1="6.59961" y1="7.7998" x2="23.7432" y2="8.49656" gradientUnits="userSpaceOnUse">
<stop stop-color="#87FCC4"/>
<stop offset="1" stop-color="#28C1F5"/>
</linearGradient>
</defs>
</svg>
