<svg width="30" height="30" viewBox="0 0 30 30" fill="none" xmlns="http://www.w3.org/2000/svg">
<rect opacity="0.1" width="30" height="30" rx="6" fill="url(#paint0_linear_939_1409)"/>
<path d="M8.1936 8.1936C8.45145 7.93582 8.80112 7.79102 9.16572 7.79102C9.53032 7.79102 9.88 7.93582 10.1378 8.1936L14.9998 13.0556L19.8618 8.1936C20.1212 7.94313 20.4685 7.80454 20.829 7.80767C21.1895 7.8108 21.5344 7.95541 21.7893 8.21035C22.0443 8.46528 22.1889 8.81015 22.192 9.17067C22.1952 9.53119 22.0566 9.87852 21.8061 10.1378L16.9441 14.9998L21.8061 19.8618C22.0566 20.1212 22.1952 20.4685 22.192 20.829C22.1889 21.1895 22.0443 21.5344 21.7893 21.7893C21.5344 22.0443 21.1895 22.1889 20.829 22.192C20.4685 22.1952 20.1212 22.0566 19.8618 21.8061L14.9998 16.9441L10.1378 21.8061C9.87852 22.0566 9.53119 22.1952 9.17067 22.192C8.81015 22.1889 8.46528 22.0443 8.21035 21.7893C7.95541 21.5344 7.8108 21.1895 7.80767 20.829C7.80454 20.4685 7.94313 20.1212 8.1936 19.8618L13.0556 14.9998L8.1936 10.1378C7.93582 9.88 7.79102 9.53032 7.79102 9.16572C7.79102 8.80112 7.93582 8.45145 8.1936 8.1936V8.1936Z" fill="url(#paint1_linear_939_1409)"/>
<defs>
<linearGradient id="paint0_linear_939_1409" x1="-1.91869e-08" y1="8.48901" x2="30" y2="8.48901" gradientUnits="userSpaceOnUse">
<stop stop-color="#2B5589"/>
<stop offset="1" stop-color="#1A2129"/>
</linearGradient>
<linearGradient id="paint1_linear_939_1409" x1="7.79102" y1="11.866" x2="22.1921" y2="11.866" gradientUnits="userSpaceOnUse">
<stop stop-color="#2B5589"/>
<stop offset="1" stop-color="#1A2129"/>
</linearGradient>
</defs>
</svg>
