<svg width="30" height="30" viewBox="0 0 30 30" fill="none" xmlns="http://www.w3.org/2000/svg">
<path d="M15 0C11.0227 0 7.20469 1.58133 4.39453 4.39336C1.58148 7.20651 0.000779226 11.0217 0 15C0 18.9766 1.58203 22.7946 4.39453 25.6066C7.20469 28.4187 11.0227 30 15 30C18.9773 30 22.7953 28.4187 25.6055 25.6066C28.418 22.7946 30 18.9766 30 15C30 11.0234 28.418 7.20539 25.6055 4.39336C22.7953 1.58133 18.9773 0 15 0Z" fill="url(#paint0_linear_872_1068)"/>
<path d="M6.7898 14.843C11.1632 12.938 14.0789 11.682 15.5367 11.0752C19.7039 9.34247 20.5687 9.04153 21.1336 9.03134C21.2578 9.02935 21.5343 9.06005 21.7148 9.20595C21.8648 9.32899 21.907 9.4954 21.9281 9.61224C21.9468 9.72896 21.9726 9.99497 21.9515 10.2026C21.7265 12.5745 20.7492 18.3303 20.2523 20.9869C20.0437 22.111 19.6289 22.4879 19.2281 22.5247C18.3562 22.6048 17.6953 21.949 16.8515 21.3961C15.532 20.5306 14.7867 19.992 13.5046 19.1475C12.0234 18.1716 12.9843 17.6351 13.8281 16.7586C14.0484 16.5291 17.8875 13.0381 17.9601 12.7215C17.9695 12.6818 17.9789 12.5342 17.8898 12.4564C17.8031 12.3783 17.6742 12.405 17.5804 12.4261C17.4468 12.4561 15.3398 13.8502 11.2523 16.6081C10.6546 17.0192 10.1132 17.2196 9.62574 17.209C9.09137 17.1975 8.06012 16.9062 7.29371 16.6573C6.35621 16.3519 5.60855 16.1904 5.67418 15.6718C5.70699 15.4018 6.07965 15.1254 6.7898 14.843Z" fill="white"/>
<defs>
<linearGradient id="paint0_linear_872_1068" x1="1500" y1="0" x2="1500" y2="3000" gradientUnits="userSpaceOnUse">
<stop stop-color="#2AABEE"/>
<stop offset="1" stop-color="#229ED9"/>
</linearGradient>
</defs>
</svg>
