<svg viewBox="0 0 20 20" fill="none" xmlns="http://www.w3.org/2000/svg">
<rect width="20" height="20" fill="#621EE5"/>
<path d="M2.77065 10.152C2.72969 10.1084 2.67977 10.0739 2.62473 10.0496C2.56969 10.0253 2.51081 10.0137 2.45065 10.0137C2.39049 10.0125 2.33161 10.0253 2.27657 10.0483C2.22153 10.0726 2.17162 10.1072 2.13066 10.1507C2.08842 10.1929 2.05514 10.2428 2.03338 10.2979C2.01162 10.3542 2.0001 10.4131 2.0001 10.472C1.99882 10.5321 2.01034 10.591 2.03338 10.646C2.05642 10.7011 2.0897 10.751 2.13194 10.7932C2.17291 10.8368 2.22256 10.8712 2.27768 10.8944C2.3328 10.9175 2.39216 10.9289 2.45193 10.9276C2.51158 10.928 2.57067 10.9162 2.62566 10.8931C2.68066 10.87 2.73041 10.8361 2.77193 10.7932C2.81545 10.7523 2.84873 10.7024 2.87177 10.6473C2.89481 10.5923 2.90633 10.5334 2.90633 10.4732C2.90633 10.4131 2.89481 10.3542 2.87177 10.2992C2.84745 10.2428 2.81417 10.1929 2.77065 10.152V10.152ZM8.12742 9.11262C8.12102 9.39933 8.1351 9.68733 8.16838 9.97277H8.15302C8.11718 9.90237 8.03782 9.77181 7.91622 9.58109L4.99784 5H4.11208V10.8483H4.79304V6.62047C4.80072 6.35295 4.7892 6.08543 4.76104 5.81792H4.78664C4.83528 5.94591 4.898 6.06879 4.97224 6.18399L7.96998 10.8483H8.80838V5H8.12742V9.11262ZM13.4253 10.2057H11.0189V8.1795H13.1245V7.56254H11.0189V5.61952H13.2781V5H10.3213V10.8483H13.4215L13.4253 10.2057ZM13.9463 5V5.61952H15.6231V10.8483H16.304V5.61952H18V5H13.9463ZM7.27238 12.3024C7.1023 12.3702 6.94868 12.4736 6.82183 12.6057C6.69127 12.7452 6.58887 12.9091 6.52231 13.0896C6.45575 13.27 6.42631 13.4607 6.43399 13.6515C6.42119 14.0047 6.54407 14.3503 6.77959 14.614C6.89735 14.7382 7.04071 14.8342 7.19942 14.8982C7.35814 14.9622 7.52838 14.9903 7.69862 14.9827C7.95462 14.9916 8.20934 14.9379 8.44102 14.8252L8.44358 14.527C8.2311 14.6511 7.98918 14.7126 7.74342 14.7062C7.61158 14.7113 7.47974 14.6883 7.35814 14.6383C7.23654 14.5884 7.12647 14.5116 7.03687 14.4143C6.8495 14.1967 6.75322 13.9152 6.76807 13.6284C6.75271 13.3251 6.85639 13.0281 7.05607 12.8003C7.15079 12.6953 7.26726 12.6134 7.39654 12.5571C7.52632 12.5019 7.66645 12.4752 7.80742 12.479C8.03142 12.4752 8.25158 12.5302 8.44742 12.639V12.3177C8.24431 12.2358 8.02628 12.1974 7.80742 12.2051C7.62438 12.2025 7.44134 12.2345 7.27238 12.3024V12.3024ZM10.4634 13.2188C10.3779 13.1289 10.2738 13.0585 10.1585 13.0125C10.0432 12.9666 9.91924 12.9461 9.79525 12.9526C9.66341 12.9462 9.53285 12.968 9.40997 13.0153C9.28709 13.0627 9.17573 13.1344 9.08101 13.2252C8.98885 13.3276 8.91845 13.4467 8.87237 13.5772C8.8263 13.7078 8.8071 13.8447 8.81606 13.983C8.80326 14.2454 8.89413 14.5027 9.06821 14.6985C9.15525 14.7919 9.26021 14.8662 9.37797 14.9161C9.49573 14.9647 9.62245 14.9891 9.74917 14.9839C9.87845 14.9878 10.0077 14.9635 10.128 14.9135C10.2484 14.8636 10.3559 14.7881 10.4442 14.6921C10.6237 14.4897 10.7166 14.225 10.7028 13.9548C10.7181 13.686 10.6324 13.4236 10.4634 13.2188ZM10.2292 14.5334C10.1728 14.5984 10.1024 14.6496 10.0232 14.6831C9.94393 14.7166 9.85809 14.7315 9.77221 14.7267C9.68389 14.7305 9.59685 14.7139 9.51621 14.6806C9.43557 14.646 9.36389 14.5948 9.30501 14.5283C9.18234 14.3764 9.12073 14.1843 9.13221 13.9894C9.12069 13.7884 9.18213 13.59 9.30501 13.4313C9.36261 13.3648 9.43429 13.3123 9.51493 13.2764C9.59557 13.2419 9.68389 13.2252 9.77093 13.2291C9.85797 13.224 9.94373 13.2406 10.0231 13.2752C10.1024 13.3097 10.1728 13.3622 10.2292 13.4288C10.3455 13.5897 10.4021 13.7861 10.3892 13.9843C10.402 14.1788 10.3456 14.3747 10.2292 14.5334V14.5334ZM11.7127 13.0934C11.6167 13.1792 11.5463 13.2905 11.5117 13.4147V13.0128H11.1917V14.9379H11.5117V13.9561C11.5015 13.7782 11.5476 13.6003 11.6423 13.4492C11.6768 13.3942 11.7229 13.3481 11.7792 13.3161C11.8356 13.2841 11.8983 13.2649 11.9623 13.2636C12.0442 13.2572 12.1261 13.279 12.1952 13.3251V13.0076C12.1364 12.9884 12.0749 12.9795 12.0135 12.982C11.9034 12.9808 11.7972 13.0204 11.7127 13.0934V13.0934ZM14.0679 13.8883C14.0832 13.6438 14.0103 13.4032 13.8631 13.2086C13.7901 13.1267 13.7005 13.0614 13.5994 13.0192C13.4983 12.9769 13.3895 12.9577 13.2807 12.9641C13.1603 12.9603 13.04 12.9846 12.9287 13.0332C12.8186 13.0819 12.72 13.1548 12.6407 13.247C12.4669 13.4498 12.3767 13.7111 12.3885 13.9779C12.3719 14.2441 12.4551 14.5078 12.6215 14.7151C12.7021 14.8035 12.802 14.8726 12.912 14.9187C13.0221 14.9647 13.1424 14.9839 13.2615 14.9788C13.4983 14.9903 13.7325 14.9263 13.9296 14.7958V14.5065C13.7612 14.6433 13.5514 14.7191 13.3344 14.7215C13.2512 14.7267 13.1667 14.7139 13.0887 14.6831C13.0106 14.6524 12.9389 14.6076 12.88 14.5475C12.7657 14.4091 12.7076 14.2327 12.7175 14.0534H14.0704L14.0679 13.8883ZM12.7149 13.7987C12.7316 13.6463 12.7981 13.503 12.9031 13.3916C12.9501 13.3411 13.0072 13.301 13.0707 13.2738C13.1342 13.2467 13.2027 13.2332 13.2717 13.2342C13.3383 13.2304 13.4035 13.2419 13.465 13.2675C13.5264 13.2931 13.5802 13.3315 13.6237 13.3814C13.7133 13.5004 13.7581 13.6463 13.7517 13.7948L12.7149 13.7987Z" fill="white"/>
</svg>
