<svg width="20" height="20" viewBox="0 0 20 20" fill="none" xmlns="http://www.w3.org/2000/svg">
<path d="M10 2.5H6.66667C4.36548 2.5 2.5 4.36548 2.5 6.66667V13.3333C2.5 15.6345 4.36548 17.5 6.66667 17.5H13.3333C15.6345 17.5 17.5 15.6345 17.5 13.3333V6.66667C17.5 4.36548 15.6345 2.5 13.3333 2.5H10Z" stroke="#D0E0EF" stroke-width="1.66667" stroke-linecap="round" stroke-linejoin="round"/>
<path d="M9.99935 6.66699C11.8403 6.66699 13.3327 8.15938 13.3327 10.0003C13.3327 11.8413 11.8403 13.3337 9.99935 13.3337C8.1584 13.3337 6.66602 11.8412 6.66602 10.0003C6.66602 8.15938 8.1584 6.66699 9.99935 6.66699Z" stroke="#D0E0EF" stroke-width="1.66667" stroke-linecap="round" stroke-linejoin="round"/>
<path d="M14.166 7.08301C14.8564 7.08301 15.416 6.52336 15.416 5.83301C15.416 5.14265 14.8564 4.58301 14.166 4.58301C13.4757 4.58301 12.916 5.14265 12.916 5.83301C12.916 6.52336 13.4757 7.08301 14.166 7.08301Z" fill="#D0E0EF"/>
</svg>
