<svg width="16" height="16" viewBox="0 0 16 16" fill="none" xmlns="http://www.w3.org/2000/svg">
    <path fill-rule="evenodd" clip-rule="evenodd" d="M2.14634 0C1.5771 0 1.03117 0.226132 0.628649 0.628649C0.226132 1.03117 0 1.5771 0 2.14634C0 2.71559 0.226132 3.26152 0.628649 3.66403C1.03117 4.06655 1.5771 4.29268 2.14634 4.29268C2.71559 4.29268 3.26152 4.06655 3.66403 3.66403C4.06655 3.26152 4.29268 2.71559 4.29268 2.14634C4.29268 1.5771 4.06655 1.03117 3.66403 0.628649C3.26152 0.226132 2.71559 0 2.14634 0ZM1.17073 2.14634C1.17073 1.88759 1.27352 1.63944 1.45648 1.45648C1.63944 1.27352 1.88759 1.17073 2.14634 1.17073C2.40509 1.17073 2.65324 1.27352 2.8362 1.45648C3.01916 1.63944 3.12195 1.88759 3.12195 2.14634C3.12195 2.40509 3.01916 2.65324 2.8362 2.8362C2.65324 3.01916 2.40509 3.12195 2.14634 3.12195C1.88759 3.12195 1.63944 3.01916 1.45648 2.8362C1.27352 2.65324 1.17073 2.40509 1.17073 2.14634ZM0 5.26829C0 5.11304 0.0616722 4.96415 0.17145 4.85438C0.281227 4.7446 0.430117 4.68293 0.585366 4.68293H3.70732C3.86257 4.68293 4.01146 4.7446 4.12123 4.85438C4.23101 4.96415 4.29268 5.11304 4.29268 5.26829V15.4146C4.29268 15.5699 4.23101 15.7188 4.12123 15.8286C4.01146 15.9383 3.86257 16 3.70732 16H0.585366C0.430117 16 0.281227 15.9383 0.17145 15.8286C0.0616722 15.7188 0 15.5699 0 15.4146V5.26829ZM1.17073 5.85366V14.8293H3.12195V5.85366H1.17073ZM5.46342 5.26829C5.46342 5.11304 5.52509 4.96415 5.63487 4.85438C5.74464 4.7446 5.89353 4.68293 6.04878 4.68293H9.17073C9.32598 4.68293 9.47487 4.7446 9.58465 4.85438C9.69443 4.96415 9.7561 5.11304 9.7561 5.26829V5.60703L10.0956 5.46107C10.681 5.21091 11.302 5.0542 11.936 4.99668C14.1019 4.8 16 6.50146 16 8.68683V15.4146C16 15.5699 15.9383 15.7188 15.8286 15.8286C15.7188 15.9383 15.5699 16 15.4146 16H12.2927C12.1374 16 11.9885 15.9383 11.8788 15.8286C11.769 15.7188 11.7073 15.5699 11.7073 15.4146V9.95122C11.7073 9.69247 11.6045 9.44432 11.4216 9.26136C11.2386 9.0784 10.9905 8.97561 10.7317 8.97561C10.473 8.97561 10.2248 9.0784 10.0418 9.26136C9.85888 9.44432 9.7561 9.69247 9.7561 9.95122V15.4146C9.7561 15.5699 9.69443 15.7188 9.58465 15.8286C9.47487 15.9383 9.32598 16 9.17073 16H6.04878C5.89353 16 5.74464 15.9383 5.63487 15.8286C5.52509 15.7188 5.46342 15.5699 5.46342 15.4146V5.26829ZM6.63415 5.85366V14.8293H8.58537V9.95122C8.58537 9.38197 8.8115 8.83604 9.21402 8.43353C9.61653 8.03101 10.1625 7.80488 10.7317 7.80488C11.301 7.80488 11.8469 8.03101 12.2494 8.43353C12.6519 8.83604 12.878 9.38197 12.878 9.95122V14.8293H14.8293V8.68683C14.8293 7.20078 13.5329 6.02693 12.0429 6.16273C11.5311 6.2093 11.0296 6.33571 10.5569 6.53737L9.40176 7.03298C9.31266 7.07125 9.21545 7.08678 9.11887 7.07819C9.02228 7.0696 8.92935 7.03715 8.8484 6.98376C8.76746 6.93036 8.70105 6.8577 8.65514 6.77229C8.60923 6.68688 8.58525 6.59141 8.58537 6.49444V5.85366H6.63415Z" fill="#D0E0EF"/>
    </svg>
    