<svg width="21" height="20" viewBox="0 0 21 20" fill="none" xmlns="http://www.w3.org/2000/svg">
<path fill-rule="evenodd" clip-rule="evenodd" d="M1.66127 18.8389C1.27075 18.4484 1.27075 17.8153 1.66127 17.4247L17.9247 1.16127C18.3152 0.77075 18.9484 0.770749 19.3389 1.16127C19.7295 1.5518 19.7295 2.18496 19.3389 2.57549L3.07548 18.8389C2.68496 19.2295 2.05179 19.2295 1.66127 18.8389Z" fill="#303030"/>
<path fill-rule="evenodd" clip-rule="evenodd" d="M19.3389 18.839C18.9484 19.2296 18.3152 19.2296 17.9247 18.839L1.66121 2.57558C1.27069 2.18506 1.27069 1.55189 1.66121 1.16137C2.05174 0.770842 2.6849 0.770843 3.07543 1.16137L19.3389 17.4248C19.7294 17.8153 19.7294 18.4485 19.3389 18.839Z" fill="#303030"/>
</svg>
