<svg width="18" height="18" viewBox="0 0 18 18" fill="none" xmlns="http://www.w3.org/2000/svg">
<path d="M9 0.225098C4.02171 0.225098 0 4.24681 0 9.2251C0 13.1902 2.58814 16.5665 6.15857 17.7751C6.60857 17.86 6.77829 17.5784 6.77829 17.3534V15.835C4.275 16.3685 3.74014 14.6251 3.74014 14.6251C3.31843 13.5837 2.72829 13.3034 2.72829 13.3034C1.91314 12.7402 2.78486 12.7685 2.78486 12.7685C3.68486 12.8251 4.16186 13.6968 4.16186 13.6968C4.97829 15.0751 6.27171 14.6817 6.77829 14.4554C6.86314 13.8652 7.08686 13.4718 7.34014 13.2468C5.34343 13.0218 3.23486 12.235 3.23486 8.80338C3.23486 7.81853 3.57171 7.03167 4.16186 6.38495C4.07829 6.15995 3.76843 5.23167 4.24671 3.99353C4.24671 3.99353 5.00529 3.74024 6.72171 4.92181C7.45497 4.7209 8.21144 4.61716 8.97171 4.61324C9.73029 4.61324 10.5184 4.7251 11.2217 4.92181C12.9381 3.76853 13.6967 3.99353 13.6967 3.99353C14.175 5.23167 13.8651 6.15995 13.7816 6.38495C14.373 7.0021 14.7099 7.81853 14.7099 8.8021C14.7099 12.262 12.6 13.0218 10.6033 13.2468C10.9119 13.5284 11.2217 14.062 11.2217 14.9054V17.3817C11.2217 17.635 11.3901 17.9152 11.8401 17.8034C15.4131 16.5652 18 13.1902 18 9.2251C18 4.24681 13.9783 0.225098 9 0.225098V0.225098Z" fill="black"/>
</svg>
