<svg width="18" height="18" viewBox="0 0 18 18" fill="none" xmlns="http://www.w3.org/2000/svg">
<path d="M6.00048 9C6.00048 7.34321 7.34321 5.99976 9 5.99976C10.6568 5.99976 12.0002 7.34321 12.0002 9C12.0002 10.6568 10.6568 12.0002 9 12.0002C7.34321 12.0002 6.00048 10.6568 6.00048 9ZM4.37859 9C4.37859 11.5524 6.44758 13.6214 9 13.6214C11.5524 13.6214 13.6214 11.5524 13.6214 9C13.6214 6.44758 11.5524 4.37859 9 4.37859C6.44758 4.37859 4.37859 6.44758 4.37859 9ZM12.7243 4.1954C12.7243 4.79152 13.2078 5.27569 13.8046 5.27569C14.4007 5.27569 14.8849 4.79152 14.8849 4.1954C14.8849 3.59927 14.4015 3.11583 13.8046 3.11583C13.2078 3.11583 12.7243 3.59927 12.7243 4.1954ZM5.36365 16.3258C4.48619 16.2858 4.00929 16.1397 3.69233 16.0161C3.27213 15.8525 2.97262 15.6577 2.65711 15.3429C2.34233 15.0281 2.14677 14.7286 1.98393 14.3084C1.86034 13.9914 1.71422 13.5145 1.67423 12.6371C1.63061 11.6884 1.62189 11.4034 1.62189 9C1.62189 6.59661 1.63134 6.31236 1.67423 5.36292C1.71422 4.48546 1.86107 4.00929 1.98393 3.6916C2.1475 3.27141 2.34233 2.97189 2.65711 2.65638C2.97189 2.3416 3.27141 2.14604 3.69233 1.9832C4.00929 1.85961 4.48619 1.71349 5.36365 1.67351C6.31236 1.62989 6.59733 1.62116 9 1.62116C11.4034 1.62116 11.6876 1.63061 12.6371 1.67351C13.5145 1.71349 13.9907 1.86034 14.3084 1.9832C14.7286 2.14604 15.0281 2.3416 15.3436 2.65638C15.6584 2.97116 15.8532 3.27141 16.0168 3.6916C16.1404 4.00856 16.2865 4.48546 16.3265 5.36292C16.3701 6.31236 16.3788 6.59661 16.3788 9C16.3788 11.4027 16.3701 11.6876 16.3265 12.6371C16.2865 13.5145 16.1397 13.9914 16.0168 14.3084C15.8532 14.7286 15.6584 15.0281 15.3436 15.3429C15.0288 15.6577 14.7286 15.8525 14.3084 16.0161C13.9914 16.1397 13.5145 16.2858 12.6371 16.3258C11.6884 16.3694 11.4034 16.3781 9 16.3781C6.59733 16.3781 6.31236 16.3694 5.36365 16.3258V16.3258ZM5.2895 0.0545234C4.33134 0.0981422 3.67706 0.250081 3.10493 0.472536C2.51317 0.702262 2.01155 1.0105 1.51066 1.51066C1.0105 2.01082 0.702262 2.51244 0.472536 3.10493C0.250081 3.67706 0.0981422 4.33134 0.0545234 5.2895C0.0101777 6.24911 0 6.5559 0 9C0 11.4441 0.0101777 11.7509 0.0545234 12.7105C0.0981422 13.6687 0.250081 14.3229 0.472536 14.8951C0.702262 15.4868 1.00977 15.9892 1.51066 16.4893C2.01082 16.9895 2.51244 17.297 3.10493 17.5275C3.67779 17.7499 4.33134 17.9019 5.2895 17.9455C6.24984 17.9891 6.5559 18 9 18C11.4448 18 11.7509 17.9898 12.7105 17.9455C13.6687 17.9019 14.3229 17.7499 14.8951 17.5275C15.4868 17.297 15.9884 16.9895 16.4893 16.4893C16.9895 15.9892 17.297 15.4868 17.5275 14.8951C17.7499 14.3229 17.9026 13.6687 17.9455 12.7105C17.9891 11.7502 17.9993 11.4441 17.9993 9C17.9993 6.5559 17.9891 6.24911 17.9455 5.2895C17.9019 4.33134 17.7499 3.67706 17.5275 3.10493C17.297 2.51317 16.9895 2.01155 16.4893 1.51066C15.9892 1.0105 15.4868 0.702262 14.8958 0.472536C14.3229 0.250081 13.6687 0.0974152 12.7112 0.0545234C11.7516 0.0109047 11.4448 0 9.00073 0C6.5559 0 6.24984 0.0101777 5.2895 0.0545234" fill="black"/>
</svg>
