<svg width="45" height="45" viewBox="0 0 45 45" fill="none" xmlns="http://www.w3.org/2000/svg">
<path d="M44.4884 10.4632C44.4868 10.4508 44.4847 10.4385 44.4827 10.4263C44.4755 10.3807 44.466 10.3358 44.4537 10.292C44.452 10.2852 44.4505 10.2786 44.4486 10.2719C44.4334 10.2213 44.415 10.1719 44.3936 10.1242C44.3901 10.1162 44.3859 10.1084 44.3822 10.1004C44.3627 10.0591 44.3409 10.0191 44.3171 9.98062C44.3124 9.97288 44.3079 9.96498 44.303 9.95741C44.2752 9.91454 44.2447 9.8736 44.2116 9.83476C44.2052 9.82718 44.1983 9.82009 44.1915 9.81251C44.1625 9.78012 44.1319 9.74933 44.0996 9.72016C44.0914 9.71275 44.0835 9.70501 44.0751 9.69792C44.036 9.6644 43.9947 9.63329 43.9515 9.60492C43.9447 9.60057 43.9378 9.5967 43.931 9.59251C43.8899 9.56672 43.8472 9.54352 43.8031 9.52272C43.7986 9.52063 43.7945 9.51773 43.79 9.51563L23.062 0.107936C22.7446 -0.0363143 22.3802 -0.0363143 22.0629 0.107936L7.74066 6.60855C7.13271 6.88448 6.86371 7.60089 7.13964 8.20884C7.41541 8.81678 8.13215 9.08659 8.73993 8.80985L22.5625 2.53601L40.3266 10.5987L22.5625 18.4055L2.32088 9.50999C2.31943 9.50935 2.31798 9.50902 2.31653 9.50838C2.28687 9.49549 2.25625 9.48437 2.22546 9.47373C2.21773 9.47099 2.20999 9.46776 2.20225 9.46519C2.17695 9.45713 2.15084 9.45084 2.12489 9.44439C2.11119 9.44101 2.09749 9.43682 2.08363 9.43392C2.06703 9.43037 2.04994 9.42844 2.03302 9.42554C2.00949 9.42167 1.98596 9.41732 1.96243 9.41474C1.95147 9.41361 1.94002 9.41345 1.9289 9.41264C1.89941 9.41039 1.87007 9.40845 1.84074 9.40829C1.83865 9.40829 1.83671 9.40797 1.83462 9.40797C1.82317 9.40797 1.81205 9.40942 1.80077 9.40974C1.77466 9.41039 1.74855 9.41119 1.72276 9.41361C1.70262 9.41538 1.68295 9.41861 1.66313 9.42151C1.64492 9.42425 1.62654 9.42634 1.60865 9.42989C1.58399 9.43456 1.55998 9.44069 1.5358 9.44665C1.52275 9.45004 1.50969 9.45294 1.4968 9.4568C1.47069 9.46438 1.44522 9.4734 1.41992 9.48259C1.40896 9.48646 1.398 9.49017 1.3872 9.49452C1.36222 9.50451 1.33788 9.51563 1.3137 9.52724C1.30258 9.53272 1.29114 9.53771 1.28018 9.54352C1.25826 9.5548 1.23682 9.56721 1.21571 9.57994C1.20266 9.58768 1.1896 9.59525 1.17703 9.60347C1.15882 9.61524 1.14125 9.62797 1.12368 9.6407C1.10901 9.65134 1.09435 9.66198 1.08016 9.67326C1.06534 9.68519 1.05099 9.69776 1.03681 9.71033C1.02134 9.72387 1.00602 9.73725 0.991357 9.75159C0.978624 9.764 0.966536 9.77722 0.954448 9.79011C0.939943 9.80558 0.925437 9.8209 0.911576 9.83717C0.899327 9.85168 0.887884 9.86715 0.876118 9.8823C0.864191 9.89778 0.852264 9.91293 0.840982 9.9292C0.827605 9.94854 0.815517 9.96869 0.803267 9.98884C0.79537 10.0019 0.786989 10.0146 0.779414 10.028C0.764908 10.0541 0.752014 10.081 0.739282 10.1081C0.735736 10.1158 0.731384 10.1228 0.727999 10.1307C0.727355 10.1321 0.727032 10.1337 0.726388 10.135C0.713494 10.1647 0.702373 10.1951 0.691897 10.2258C0.689157 10.2337 0.685772 10.2414 0.683193 10.2493C0.675296 10.2743 0.66901 10.3001 0.662724 10.3257C0.659178 10.3399 0.654827 10.3539 0.651764 10.3682C0.64838 10.384 0.646607 10.4002 0.643867 10.4161C0.639676 10.4406 0.635163 10.4651 0.632585 10.4898C0.631618 10.4994 0.631618 10.5091 0.630812 10.5188C0.628233 10.5497 0.626299 10.5808 0.626138 10.6118C0.626138 10.6135 0.625977 10.6152 0.625977 10.6171V34.2172C0.625977 34.6887 0.899972 35.1171 1.32789 35.3147L22.0558 44.8881C22.0558 44.8881 22.0587 44.889 22.06 44.8898C22.0688 44.8937 22.0778 44.8966 22.0867 44.9003C22.127 44.9175 22.1675 44.9327 22.2086 44.9453C22.2229 44.9496 22.2374 44.9533 22.2521 44.9572C22.2912 44.9677 22.3304 44.9761 22.3697 44.9825C22.3818 44.9844 22.3939 44.9869 22.4062 44.9885C22.4581 44.9952 22.5101 44.9997 22.5619 44.9997C22.567 44.9997 22.572 44.9988 22.5772 44.9986C22.6228 44.9981 22.6684 44.9948 22.7138 44.989C22.7306 44.9869 22.747 44.9836 22.7635 44.9809C22.7988 44.9749 22.8339 44.9675 22.8687 44.9583C22.885 44.9541 22.901 44.9499 22.9169 44.945C22.9554 44.9332 22.9932 44.9192 23.0307 44.9034C23.0412 44.899 23.0518 44.8955 23.0621 44.8908C23.0646 44.8897 23.0671 44.889 23.0694 44.8879L43.7973 35.3145C44.2252 35.1169 44.4992 34.6885 44.4992 34.2171V10.6166C44.4992 10.5646 44.4948 10.5135 44.4884 10.4632ZM23.7713 41.9004V25.6692C23.7713 25.0015 23.2302 24.4604 22.5625 24.4604C21.8948 24.4604 21.3537 25.0015 21.3537 25.6692V41.9005L3.04342 33.4438V12.4682L22.0762 20.8324C22.2313 20.9006 22.3968 20.9346 22.5627 20.9346C22.7285 20.9346 22.894 20.9006 23.0491 20.8324L42.0816 12.4682V33.4436L23.7713 41.9004Z" fill="#2C333F"/>
</svg>
