<svg width="18" height="17" viewBox="0 0 18 17" fill="none" xmlns="http://www.w3.org/2000/svg">
<path d="M16.6141 0.00141865C16.3704 0.0121734 16.1433 0.0831781 15.9433 0.164001C15.756 0.239342 15.0404 0.546269 13.9132 1.02964C12.7851 1.51344 11.2913 2.15477 9.69781 2.84002C6.51086 4.21052 2.92788 5.75322 1.09267 6.54279C1.02366 6.57247 0.782866 6.64939 0.527294 6.84891C0.271721 7.04843 0 7.46187 0 7.92254C0 8.29401 0.177034 8.66306 0.399864 8.88339C0.622695 9.10372 0.858479 9.21256 1.06045 9.29497C1.79325 9.59398 4.066 10.524 4.49518 10.6996C4.64622 11.1623 5.46885 13.6787 5.65962 14.2955C5.78538 14.7025 5.90509 14.9574 6.06095 15.1596C6.13888 15.2608 6.22947 15.3494 6.33924 15.4189C6.38312 15.4467 6.43123 15.4681 6.47985 15.4877L6.48278 15.4892C6.49399 15.4937 6.50365 15.5013 6.51501 15.5053C6.53644 15.5128 6.55078 15.5137 6.57945 15.52C6.69369 15.5569 6.80902 15.58 6.91194 15.58C7.35077 15.58 7.61939 15.3383 7.61939 15.3383L7.63551 15.3266L9.89262 13.3742L12.6302 15.9638C12.6687 16.0183 13.0282 16.5116 13.821 16.5116C14.2917 16.5116 14.6651 16.2754 14.9048 16.0238C15.1446 15.7723 15.2939 15.508 15.3574 15.1758V15.1743C15.4168 14.8603 17.9397 1.90846 17.9397 1.90846L17.9353 1.92604C18.0092 1.58894 18.0285 1.275 17.947 0.965194C17.8655 0.655392 17.6508 0.358771 17.3846 0.199154C17.1184 0.0395717 16.8579 -0.00933615 16.6141 0.00141865ZM16.4735 1.56865C16.4699 1.59054 16.4762 1.57953 16.4706 1.60527L16.4691 1.61406L16.4677 1.62285C16.4677 1.62285 13.976 14.409 13.8839 14.896C13.8907 14.8592 13.8599 14.9323 13.8283 14.9766C13.7836 14.9458 13.6921 14.9063 13.6921 14.9063L13.6774 14.8901L9.93802 11.3529L7.29423 13.6378L8.08078 10.4887C8.08078 10.4887 12.9974 5.39921 13.2937 5.10299C13.5321 4.86601 13.5822 4.7834 13.5822 4.70166C13.5822 4.59217 13.5251 4.51271 13.3977 4.51271C13.2829 4.51271 13.1286 4.62426 13.0461 4.67676C11.9714 5.36185 7.25318 8.11172 5.13818 9.34184C4.80208 9.20429 2.46701 8.24846 1.67562 7.92547C1.68161 7.92285 1.67964 7.92378 1.68588 7.92108C3.52157 7.1313 7.10305 5.58861 10.2896 4.2183C11.8828 3.53315 13.3777 2.89133 14.505 2.40793C15.6149 1.93197 16.386 1.6044 16.4735 1.56865Z" fill="black"/>
</svg>
