<svg width="18" height="15" viewBox="0 0 18 15" fill="none" xmlns="http://www.w3.org/2000/svg">
<path d="M18 1.684L16.313 3.368V3.648C16.313 3.955 16.263 4.25 16.19 4.534C16.15 6.85 15.413 9.921 12.374 12.344C6.404 17.115 0 12.907 0 12.907C5.063 12.907 5.063 11.223 5.063 11.223C3.937 11.223 1.687 8.98 1.687 8.98C2.25 9.54 3.376 8.98 3.376 8.98C0.56 7.295 0.56 5.61 0.56 5.61C1.123 6.171 2.249 5.61 2.249 5.61C-0.563 3.368 1.124 0.561 1.124 0.561C1.687 3.368 9 4.49 9 4.49L9.093 4.444C9.03282 4.08846 9.00172 3.7286 9 3.368C9 1.353 10.636 0 12.656 0C13.768 0 14.75 0.506 15.421 1.286L15.75 1.123L17.437 0L16.315 2.245L18 1.684Z" fill="black"/>
</svg>
