<svg width="32" height="32" viewBox="0 0 32 32" fill="none" xmlns="http://www.w3.org/2000/svg">
<g clip-path="url(#clip0_986_1517)">
<path d="M16 32C3.09575 32 0 28.9043 0 16C0 3.09575 3.09575 0 16 0C28.9043 0 32 3.09575 32 16C32 28.9043 28.9043 32 16 32ZM11.4705 7.9185L6.45213 19.3239C6.224 19.8779 6.0285 20.5946 6.0285 21.2139C6.0285 24.0489 8.01625 26.0368 10.8512 26.0368C11.7804 26.0368 12.5519 25.7926 13.3363 25.5445L13.3369 25.5441C14.148 25.2875 14.973 25.0265 16 25.0265C17.039 25.0265 17.8442 25.2853 18.6397 25.5408L18.64 25.5409C19.4162 25.7902 20.1831 26.0368 21.1486 26.0368C23.9836 26.0368 25.9715 24.0489 25.9715 21.2139C25.9715 20.5946 25.7759 19.8779 25.5479 19.3239L20.5296 7.9185C19.6821 5.996 18.053 4.95312 16 4.95312C13.947 4.95312 12.3177 5.99588 11.4705 7.9185V7.9185ZM11.0468 21.1161L16 9.90637L20.888 21.1161C19.4868 20.4319 17.7271 20.106 16 20.106C14.2077 20.106 12.5132 20.4319 11.0469 21.1161H11.0468Z" fill="#5A46FF"/>
</g>
<defs>
<clipPath id="clip0_986_1517">
<rect width="32" height="32" fill="white"/>
</clipPath>
</defs>
</svg>
