<svg width="32" height="22" viewBox="0 0 32 22" fill="none" xmlns="http://www.w3.org/2000/svg">
<path d="M31.1742 10.9773C30.8809 10.0032 30.7345 9.51587 30.5219 8.9978C30.1124 7.99576 29.5912 7.18104 28.8105 6.17155C26.9832 3.81267 26.0699 2.631 24.5795 1.6897C21.3458 -0.354798 17.9426 0.00694376 17.5545 0.053928C16.393 0.193765 13.8382 0.703526 11.6487 2.81596C10.4084 4.01424 9.629 5.73233 9.26416 6.60941C8.86076 13.6002 15.7189 16.4007 17.3336 17.5716C17.8524 17.8187 19.0457 18.344 20.0141 18.844C22.2508 19.9984 23.8011 20.2373 24.601 20.3772C26.344 20.6828 29.055 19.9926 30.3416 18.5504C31.5744 17.1682 31.9334 15.3036 31.6393 13.6418C31.5501 13.1308 31.5488 12.2221 31.1732 10.9741L31.1742 10.9773V10.9773Z" fill="#577138"/>
<path d="M30.1881 10.2276C29.721 8.98146 29.1735 8.15459 28.5236 7.17387C27.7279 5.97286 27.0168 5.15404 26.4458 4.50196C25.228 3.11153 24.6185 2.41631 23.791 1.91151C22.3627 1.03988 20.9819 0.88244 20.1971 0.800496C18.3447 0.608468 16.929 1.00133 16.2406 1.19868C15.5325 1.40274 14.1294 1.82089 12.6637 2.97132C11.3364 4.01365 10.5197 5.5831 10.0754 6.42807C9.6675 7.18974 12.1766 13.303 17.9733 16.9164C18.2698 17.0697 19.0956 17.4467 19.6056 17.7048C19.7586 17.7822 19.9123 17.8583 20.0666 17.933C20.297 18.0385 20.5117 18.1394 20.7138 18.2361C21.3649 18.5301 21.768 18.6796 22.3016 18.9587C24.1499 19.9252 26.1015 19.6496 26.3909 19.6046C26.7746 19.5456 29.4424 19.1329 30.5467 17.0099C31.1294 15.8903 31.028 14.7754 30.8895 13.2486C30.8502 12.8157 30.7181 11.6444 30.1859 10.225" fill="#A3B34F"/>
<path d="M21.2376 17.713C23.1804 18.4566 23.8195 18.8452 24.6514 18.9466C24.9249 18.9794 27.5336 19.1434 29.0625 17.6988C30.201 16.6239 30.2557 15.5372 30.3213 15.0247C30.5481 13.2603 30.0463 10.9975 29.4603 9.88672C28.6908 8.42748 28.4921 8.12078 26.428 5.38565C24.8995 3.36248 24.1336 2.98809 23.3359 2.46271C21.9648 1.56617 20.3787 1.54584 19.3023 1.50146C18.5102 1.46922 17.027 1.75931 15.6053 2.25767C13.3837 3.03892 12.0863 4.34791 11.1749 6.20137C10.1633 8.3386 15.2794 15.3044 18.8369 16.7282" fill="#DDE072"/>
<path d="M21.9022 13.5287C23.141 13.312 23.9657 12.0409 24.2181 11.0112C24.5724 9.55466 23.8397 8.33914 23.3514 7.52863C22.8906 6.76585 22.0802 5.6986 20.6129 5.1033C19.2622 4.55437 18.2133 5.2202 17.7244 5.49256C15.5693 8.67907 17.2387 11.9129 20.4093 13.5276C20.8094 13.5672 21.5874 13.5837 21.9015 13.5289" fill="#A3B34F"/>
<path d="M18.3148 16.5299C18.8587 15.8807 19.9041 14.5344 20.3268 13.6972C20.3545 13.6427 20.382 13.5849 20.4096 13.5249C20.8657 12.5338 21.3182 10.8187 21.3613 9.46765C21.3999 8.25771 20.9862 7.44013 20.9862 7.44013C20.5642 6.33978 19.3504 5.96304 18.8182 5.75936C18.3812 5.60105 17.9896 5.52023 17.5922 5.47473C16.8098 5.40456 15.7245 5.48836 13.8481 5.76358C11.9894 6.02391 10.134 6.37883 8.42492 6.79041C6.35278 7.29534 5.2104 7.57352 3.89385 8.2106C2.373 8.94611 0.936567 9.64096 0.314739 11.1678C-0.0658465 12.103 -0.0327468 13.0447 0.0620895 13.6703C0.0620895 13.6703 0.472427 17.7639 3.2895 19.8504C5.64838 21.5999 9.12658 22.2458 11.7191 21.5373C13.7639 21.1485 15.7142 19.2321 17.3353 17.5551C17.6664 17.2197 18.0655 16.826 18.3154 16.5287L18.3148 16.5299V16.5299Z" fill="#577138"/>
<path d="M15.748 15.8426C13.8419 16.9618 11.0454 18.4803 7.54576 18.4416C7.43221 18.4403 7.31868 18.4374 7.20521 18.4329C6.03147 18.3856 2.91415 18.2601 1.31023 16.1749C0.867789 15.5989 0.606338 14.9623 0.464642 14.5295L0.460923 14.5201V14.5199C0.37526 14.2561 0.343648 14.1012 0.342656 14.0956C0.318585 13.9842 0.298078 13.872 0.281167 13.7593L0.27906 13.7516L0.27844 13.748H0.278564L0.277944 13.7461C0.187943 13.1481 0.15695 12.2513 0.517452 11.3659C1.10755 9.91822 2.44269 9.27234 3.98933 8.52456C5.28506 7.89777 6.41888 7.62157 8.4754 7.12011C8.73896 7.05639 8.99235 6.99577 9.23682 6.93974C9.51327 6.87701 9.77881 6.81775 10.0336 6.7637C10.5184 6.66072 11.0048 6.56538 11.4927 6.4777L11.4952 6.47622C12.3813 6.31853 13.1586 6.20262 13.8798 6.09737C15.7384 5.82476 16.8091 5.7412 17.5725 5.81001C17.9913 5.84682 18.3401 5.92802 18.7393 6.08088C19.2844 6.28952 20.2988 6.67804 20.7891 7.65479C20.9366 7.94922 21.0239 8.27538 21.049 8.62584C21.0519 8.65981 21.0539 8.69477 21.0549 8.72973C21.0849 9.60991 20.7221 10.4752 20.5272 10.9406C19.432 13.5482 17.3963 14.8735 15.7473 15.8427" fill="#A3B34F"/>
<path d="M14.547 15.9712C16.3619 15.0371 17.8344 13.9649 18.5936 13.1298C19.8544 11.7422 20.3685 10.3315 20.4798 9.18415C20.6045 7.89859 19.7961 7.41808 19.5219 7.18428C18.5011 6.31302 17.1137 6.32691 15.8528 6.32232C15.2798 6.32046 14.4576 6.36434 11.9371 6.9134C9.93252 7.37048 9.52256 7.46965 7.09933 8.13202C5.48402 8.58153 4.57321 8.88439 3.82903 9.35163C2.78893 10.0049 1.49382 10.8179 1.16568 12.386C0.758066 14.3313 2.19698 15.9521 2.48942 16.2588C3.89771 17.7278 5.83906 17.9043 7.17719 17.9088C7.70282 17.9106 8.20043 17.8828 8.63928 17.8585C11.3583 17.7083 13.2303 16.6478 14.547 15.9723" fill="#DDE072"/>
<path d="M7.50058 8.14511C7.29244 8.30255 6.95314 8.63602 6.77908 8.81454L6.29486 9.35604C5.43625 10.4341 4.82384 12.5125 5.28873 13.0721C5.52724 13.3597 5.65245 13.391 5.73774 13.4483C6.92971 14.0247 8.01729 14.816 9.795 14.92L11.2736 14.9183C11.3933 14.9133 11.5691 14.9061 11.6954 14.8967C12.025 14.8671 11.8812 14.8644 12.1086 14.8401C14.154 14.5042 16.8777 13.0573 16.7727 11.0316C16.7326 10.2746 15.868 9.03471 15.281 8.47536C14.6571 7.88018 13.4906 7.30199 13.1851 7.1929C13.0421 7.14877 12.8712 7.09038 12.5859 7.04042C12.438 7.01335 12.2894 6.99082 12.1401 6.97285C12.07 6.96424 11.9997 6.95672 11.9294 6.95029C11.8583 6.9436 11.7883 6.93988 11.7181 6.93542C10.2331 6.84306 8.90032 7.23009 7.87324 7.88452C7.78794 7.93895 7.70402 7.99448 7.62319 8.0525C7.58129 8.08312 7.5405 8.11263 7.49984 8.14424" fill="#5E3108"/>
</svg>
