<svg width="32" height="32" viewBox="0 0 32 32" fill="none" xmlns="http://www.w3.org/2000/svg">
<path d="M32 0H0V32H32V0Z" fill="url(#paint0_linear_982_1467)"/>
<path d="M7.96399 15.9922H12.049C13.603 15.9922 15.067 16.7362 16.002 18.0012L20.031 23.4552C20.0684 23.5059 20.091 23.5661 20.0963 23.6289C20.1016 23.6918 20.0894 23.7549 20.061 23.8112L17.738 28.3942C17.7131 28.4444 17.6757 28.4873 17.6294 28.519C17.5832 28.5506 17.5296 28.5697 17.4737 28.5746C17.4179 28.5796 17.3618 28.5701 17.3107 28.5471C17.2596 28.524 17.2153 28.4883 17.182 28.4432L7.96399 15.9922Z" fill="url(#paint1_linear_982_1467)"/>
<path d="M24.036 15.9991H19.951C19.1807 15.9971 18.4217 15.8142 17.735 15.4651C17.0484 15.1159 16.4534 14.6104 15.998 13.9891L11.968 8.53612C11.9306 8.48531 11.9081 8.4251 11.903 8.36223C11.8979 8.29936 11.9103 8.23629 11.939 8.1801L14.262 3.59612C14.2868 3.54576 14.3241 3.50265 14.3705 3.47097C14.4168 3.43928 14.4705 3.4201 14.5265 3.41527C14.5824 3.41044 14.6386 3.42013 14.6897 3.44341C14.7407 3.46668 14.7849 3.50275 14.818 3.54811L24.036 15.9991V15.9991Z" fill="#F4F4F4"/>
<defs>
<linearGradient id="paint0_linear_982_1467" x1="16.96" y1="32" x2="16.96" y2="0" gradientUnits="userSpaceOnUse">
<stop stop-color="#5601C5"/>
<stop offset="1" stop-color="#6100DD"/>
</linearGradient>
<linearGradient id="paint1_linear_982_1467" x1="17.738" y1="28.3942" x2="8.384" y2="15.9922" gradientUnits="userSpaceOnUse">
<stop stop-color="#F4F4F4"/>
<stop offset="1" stop-color="#E2DBEA"/>
</linearGradient>
</defs>
</svg>
