<svg width="33" height="13" viewBox="0 0 33 13" fill="none" xmlns="http://www.w3.org/2000/svg">
<path d="M27.7182 6.32419C27.4627 4.48416 29.4857 3.51308 30.5293 3.25753C32.5417 3.06587 32.4992 2.19275 32.5417 1.66036C32.3629 0.229293 31.1255 -0.00069262 30.5293 0.0631809C25.4694 0.523172 24.3535 4.51398 24.4281 6.45193C24.5813 11.4351 28.5593 12.8938 30.5293 13.0004C32.2158 13.0004 32.5736 11.893 32.5417 11.3393C32.644 10.1637 31.2426 9.76339 30.5293 9.71009C28.1271 9.25016 27.6543 7.26113 27.7182 6.32419Z" fill="#DDF4A4"/>
<path d="M5.80504 0H30.1461C27.6672 0.178886 25.8336 2.2467 25.2266 3.25824H0.885742C2.06128 1.0094 4.65509 0.149065 5.80504 0Z" fill="#B6DE64"/>
<path d="M0.853772 3.25781H25.2266C24.4601 4.53555 24.3749 5.94105 24.4282 6.48401H0.0232337C-0.130103 5.00192 0.513025 3.71567 0.853772 3.25781Z" fill="#A9CC54"/>
<path d="M5.83684 12.9681H30.1777C27.699 12.7891 25.8654 10.7214 25.2584 9.70996H0.917542C2.09306 11.9588 4.68687 12.819 5.83684 12.9681Z" fill="#A9CC54"/>
<path d="M0.877438 9.71031H25.2587C24.4918 8.42002 24.4065 7.00057 24.4598 6.45215H0.0466147C-0.106763 7.9489 0.536589 9.24793 0.877438 9.71031Z" fill="#B6DE64"/>
</svg>
