<svg width="28" height="28" viewBox="0 0 28 28" fill="none" xmlns="http://www.w3.org/2000/svg">
<g clip-path="url(#clip0_971_1695)">
<path d="M6.125 14.4375C6.125 10.3306 9.45563 7 13.5625 7C17.6694 7 21 10.3306 21 14.4375C21 18.5445 17.6694 21.875 13.5625 21.875C9.45563 21.8704 6.125 18.5445 6.125 14.4375Z" fill="white"/>
<path d="M13.9245 0.00345093C13.9245 0.00345093 22.1306 -0.364798 26.4812 7.88354H13.2262C13.2262 7.88354 10.7248 7.80292 8.58793 10.8376C7.97411 12.1113 7.31432 13.4234 8.05474 16.0092C6.98812 14.2022 2.39209 6.1994 2.39209 6.1994C2.39209 6.1994 5.63388 0.329537 13.9244 0.00345093H13.9245Z" fill="#EF3F36"/>
<path d="M26.0554 20.9433C26.0554 20.9433 22.2687 28.2364 12.9539 27.8758C14.1048 25.8846 19.5832 16.3971 19.5832 16.3971C19.5832 16.3971 20.9068 14.2717 19.3454 10.9033C18.5511 9.73322 17.7416 8.50939 15.133 7.85711C17.2315 7.83804 26.4582 7.85711 26.4582 7.85711C26.4582 7.85711 29.9148 13.6004 26.0554 20.9433Z" fill="#FCD900"/>
<path d="M1.8512 21.001C1.8512 21.001 -2.57225 14.0762 2.39976 6.18848C3.54689 8.17964 9.0253 17.6672 9.0253 17.6672C9.0253 17.6672 10.207 19.877 13.9014 20.2068C15.3095 20.1033 16.775 20.015 18.6473 18.0853C17.6151 19.9115 12.9844 27.8913 12.9844 27.8913C12.9844 27.8913 6.27836 28.0141 1.85109 21.001H1.8512Z" fill="#61BC5B"/>
<path d="M12.9501 27.9443L14.8145 20.164C14.8145 20.164 16.8632 20.0028 18.582 18.1191C17.5154 19.9952 12.9501 27.9443 12.9501 27.9443Z" fill="#5AB055"/>
<path d="M8.71838 14.0602C8.71838 11.2059 11.0318 8.88867 13.89 8.88867C16.7443 8.88867 19.0615 11.2021 19.0615 14.0602C19.0615 16.9145 16.7482 19.2318 13.89 19.2318C11.0356 19.2318 8.71838 16.9145 8.71838 14.0602Z" fill="url(#paint0_linear_971_1695)"/>
<path d="M26.4543 7.8606L18.7775 10.1126C18.7775 10.1126 17.619 8.41298 15.1292 7.8606C17.2891 7.84905 26.4543 7.8606 26.4543 7.8606Z" fill="#EACA05"/>
<path d="M7.90515 15.7261C6.82698 13.8577 2.39209 6.2002 2.39209 6.2002L8.07772 11.8244C8.07772 11.8244 7.49452 13.0252 7.71329 14.7439L7.90504 15.7261H7.90515Z" fill="#DF3A32"/>
</g>
<defs>
<linearGradient id="paint0_linear_971_1695" x1="13.8897" y1="8.96169" x2="13.8897" y2="18.9205" gradientUnits="userSpaceOnUse">
<stop stop-color="#86BBE5"/>
<stop offset="1" stop-color="#1072BA"/>
</linearGradient>
<clipPath id="clip0_971_1695">
<rect width="27.895" height="28" fill="white"/>
</clipPath>
</defs>
</svg>
