<svg width="46" height="16" viewBox="0 0 46 16" fill="none" xmlns="http://www.w3.org/2000/svg">
<path d="M34.5825 3.7051C35.6552 3.7051 36.6467 3.81878 37.8494 4.0627L36.9924 5.86932C36.326 5.73918 36.939 5.85188 36.4355 5.80313V6.06342L36.4678 7.1203L36.4839 8.48649C36.5002 8.82791 36.5002 9.1695 36.5166 9.511V10.1941C36.5166 12.3409 36.3378 13.3491 35.8015 14.1784C35.0214 15.3983 33.6724 16 31.7547 16C30.7795 16 29.9346 15.8537 29.0568 15.5121V13.2028H29.057C29.9347 13.658 30.8122 13.8694 31.7385 13.8694C33.3799 13.8694 34.0788 13.2028 34.0788 11.6089V11.5601C33.5913 11.8039 33.1036 11.9016 32.4537 11.9016C30.2597 11.9016 28.8618 10.4542 28.8618 8.16118C28.8618 5.31494 30.9259 3.70501 34.5824 3.70501L34.5825 3.7051ZM11.8802 3.86762V9.67343C11.8802 11.6739 11.7339 12.6333 11.2952 13.4628C10.8888 14.2597 10.3524 14.7638 9.24737 15.3168L6.92326 14.2109C8.02842 13.6905 8.56465 13.2353 8.90592 12.5357C9.26355 11.8201 9.37743 10.9907 9.37743 8.81154V3.86771H11.8802V3.86762ZM41.7348 3.65617C44.2376 3.65617 45.7654 5.23381 45.7654 7.78703C45.7654 10.4055 44.1728 12.048 41.6373 12.048C39.1343 12.048 37.5903 10.4705 37.5903 7.93354C37.5905 5.29866 39.1833 3.65626 41.7348 3.65626V3.65617ZM16.7075 3.68882C17.9914 3.68882 18.8365 4.03023 19.2103 4.69705C19.4215 5.07111 19.4865 5.55894 19.4865 6.59991V11.6901C18.365 11.8527 16.9512 11.9666 15.9111 11.9666C13.8146 11.9666 12.8718 11.2345 12.8718 9.60841C12.8718 7.85188 14.1232 7.03882 17.195 6.77853V6.22558C17.195 5.7703 16.9675 5.60778 16.3336 5.60778C15.4073 5.60778 14.3671 5.86789 13.3919 6.37218V4.43685C14.4973 3.91664 15.5535 3.68891 16.7075 3.68891V3.68882ZM7.89855 0V11.5928C6.6147 11.8367 5.67196 11.9343 4.64822 11.9343C1.59267 11.9343 0 10.5519 0 7.90098C0 5.34767 1.69028 3.689 4.30686 3.689C4.71312 3.689 5.02194 3.72138 5.39575 3.81896V0H7.89855ZM24.6385 3.68891C25.9224 3.68891 26.8488 3.98157 27.4016 4.5508C27.9216 5.08739 28.084 5.67281 28.084 6.92522V11.8366H25.5811V7.02281C25.5811 6.06333 25.2561 5.70537 24.3623 5.70537C24.021 5.70537 23.7123 5.73793 23.2083 5.88426V11.8366H20.7055V4.25796C22.1844 3.86771 23.4033 3.68891 24.6385 3.68891ZM17.3088 8.42138C15.6509 8.58399 15.1146 8.84428 15.1146 9.49472C15.1146 9.98256 15.4236 10.2103 16.1061 10.2103C16.4799 10.2103 16.8212 10.1778 17.3088 10.0965V8.42138ZM41.7024 5.6729C40.7109 5.6729 40.1419 6.46986 40.1419 7.85206C40.142 9.23453 40.7109 10.0314 41.6858 10.0314C42.6449 10.0314 43.2138 9.23444 43.2138 7.85206C43.2138 6.48605 42.6611 5.6729 41.7024 5.6729ZM4.5507 5.70537C3.28304 5.70537 2.5516 6.48605 2.5516 7.85206C2.5516 9.18569 3.25059 9.91753 4.53444 9.91753C4.81064 9.91753 5.03821 9.90125 5.39575 9.85259V5.83542C5.1032 5.73792 4.85944 5.70537 4.5507 5.70537ZM32.3237 6.07925C31.7225 6.42093 31.4135 7.039 31.4135 7.91708C31.4135 9.1695 32.0313 9.88497 33.1364 9.88497C33.4776 9.88497 33.754 9.81986 34.0789 9.72236V8.86055C34.0789 8.5678 34.0628 8.2424 34.0628 7.90098L34.0467 6.74633L34.0303 5.9169V5.72165H33.7702C33.2828 5.70537 32.7139 5.83542 32.3238 6.07934L32.3237 6.07925ZM11.8802 0.0134168V2.58301H9.37743V0.0133274H11.8802V0.0134168Z" fill="white"/>
</svg>
