<svg width="39" height="22" viewBox="0 0 39 22" fill="none" xmlns="http://www.w3.org/2000/svg">
<path d="M22.3856 6.94022H25.8543V10.4877H27.6101C28.4303 10.4841 29.2446 10.3478 30.0212 10.0841C30.4294 9.94889 30.8223 9.77142 31.1936 9.55455C30.7184 8.89708 30.4364 8.11993 30.3793 7.31073C30.2337 6.12991 30.5377 4.93754 31.2309 3.97058L31.5959 3.54891L32.03 3.89869C33.1817 4.74325 33.962 6.00061 34.2075 7.40751C35.5467 6.99563 36.9945 7.13032 38.2347 7.78217L38.7117 8.05867L38.4615 8.54808C37.9541 9.40394 37.2037 10.0896 36.3056 10.518C35.4076 10.9463 34.4025 11.098 33.4181 10.9537C30.4139 18.4372 23.8787 21.9806 15.9403 21.9806C13.9634 22.0982 11.9915 21.68 10.2324 20.7702C8.47341 19.8604 6.99257 18.4927 5.94615 16.8114L5.91158 16.7519L5.59913 16.1173C4.89247 14.5141 4.61655 12.7543 4.79866 11.0117L4.84705 10.4864H7.80977V6.94022H11.2799V3.47011H18.2201V0H22.3842V6.94022H22.3856Z" fill="#3A4E55"/>
<path d="M33.6296 8.25358C33.6534 7.49168 33.4866 6.7359 33.1442 6.05483C32.8019 5.37376 32.2949 4.78896 31.6692 4.35352C31.1274 5.14901 30.8718 6.10497 30.9444 7.06474C31.017 8.0245 31.4134 8.93115 32.0688 9.6361C30.7804 10.5908 29.2135 11.0947 27.6102 11.0698H5.36968C5.17877 12.8446 5.49869 14.637 6.29181 16.2362L6.54481 16.6994C6.70487 16.971 6.87979 17.2336 7.06879 17.486C7.98309 17.545 8.82596 17.5657 9.5974 17.5482C10.8475 17.5559 12.0915 17.3746 13.2873 17.0104C13.3542 16.9873 13.4276 16.9917 13.4913 17.0227C13.5549 17.0537 13.6036 17.1087 13.6267 17.1756C13.6498 17.2425 13.6454 17.3159 13.6144 17.3796C13.5834 17.4432 13.5284 17.4919 13.4615 17.515C13.3371 17.5579 13.2071 17.5994 13.073 17.6367C12.2409 17.8694 11.3853 18.0085 10.5223 18.0515C10.5831 18.0515 10.4587 18.0611 10.4587 18.0611L10.3453 18.0708C9.42036 18.1114 8.49398 18.1086 7.56926 18.0625L7.55543 18.0722C8.63376 19.1938 9.93976 20.0714 11.3856 20.6461C12.8314 21.2208 14.3836 21.4793 15.9376 21.404C23.6244 21.404 30.1443 17.9962 33.0324 10.3439C35.0813 10.5541 37.05 10.0315 37.9444 8.284C37.2764 7.94522 36.5389 7.76614 35.7899 7.76086C35.0409 7.75559 34.301 7.92425 33.6282 8.25358" fill="#00AADA"/>
<path d="M33.6294 8.25358C33.6532 7.49168 33.4864 6.7359 33.144 6.05483C32.8017 5.37376 32.2947 4.78896 31.669 4.35352C31.1272 5.14901 30.8716 6.10497 30.9442 7.06474C31.0168 8.0245 31.4132 8.93115 32.0686 9.6361C30.7802 10.5908 29.2133 11.0947 27.61 11.0698H6.68702C6.57294 12.309 6.78107 13.5566 7.2912 14.6917C7.80134 15.8268 8.59617 16.8108 9.59859 17.5482C10.8486 17.5559 12.0927 17.3746 13.2885 17.0104C13.3217 16.999 13.3567 16.9942 13.3917 16.9963C13.4267 16.9984 13.4609 17.0074 13.4924 17.0227C13.524 17.0381 13.5521 17.0595 13.5754 17.0857C13.5986 17.1119 13.6165 17.1425 13.6279 17.1756C13.6394 17.2088 13.6442 17.2438 13.6421 17.2788C13.6399 17.3138 13.631 17.348 13.6156 17.3796C13.6003 17.4111 13.5789 17.4393 13.5526 17.4625C13.5264 17.4857 13.4959 17.5036 13.4627 17.515C13.3383 17.5579 13.2083 17.5994 13.0742 17.6367C12.2198 17.8761 11.3418 18.0217 10.4558 18.0708L10.4295 18.0404C13.0452 19.3828 16.8388 19.3773 21.1882 17.7072C26.151 15.7021 30.4925 12.4155 33.7691 8.18308L33.6308 8.24944" fill="#27B9EC"/>
<path d="M5.41113 13.3833C5.54216 14.3759 5.8399 15.3392 6.29179 16.2327L6.54479 16.6958C6.70485 16.9675 6.87977 17.2301 7.06877 17.4824C7.98307 17.5414 8.82594 17.5622 9.59738 17.5447C10.8474 17.5524 12.0915 17.371 13.2873 17.0069C13.3204 16.9954 13.3555 16.9906 13.3905 16.9927C13.4255 16.9948 13.4597 17.0038 13.4912 17.0192C13.5227 17.0345 13.5509 17.0559 13.5742 17.0821C13.5974 17.1084 13.6153 17.1389 13.6267 17.1721C13.6382 17.2052 13.643 17.2403 13.6408 17.2753C13.6387 17.3102 13.6297 17.3445 13.6144 17.376C13.5991 17.4075 13.5777 17.4357 13.5514 17.4589C13.5252 17.4822 13.4946 17.5 13.4615 17.5115C13.3371 17.5543 13.2071 17.5958 13.073 17.6331C12.2196 17.8691 11.343 18.0114 10.4587 18.0576H10.3204C9.91812 18.0797 9.49093 18.0935 9.04576 18.0935C8.5605 18.0935 8.06556 18.0838 7.52499 18.0576C8.60667 19.18 9.91572 20.0583 11.3644 20.6336C12.8132 21.209 14.3681 21.4681 15.9251 21.3936C22.5059 21.3936 28.2295 18.8954 31.5475 13.375L5.41113 13.3833Z" fill="#088CB9"/>
<path d="M6.88623 13.3852C7.22155 15.0692 8.19242 16.5594 9.59734 17.5465C10.8474 17.5542 12.0914 17.3729 13.2873 17.0087C13.3542 16.9856 13.4275 16.9901 13.4912 17.021C13.5548 17.052 13.6036 17.107 13.6267 17.1739C13.6498 17.2409 13.6453 17.3142 13.6144 17.3779C13.5834 17.4415 13.5284 17.4903 13.4615 17.5134C13.337 17.5562 13.2071 17.5977 13.073 17.635C12.2152 17.8704 11.3345 18.0127 10.4462 18.0594C13.0619 19.4019 16.8445 19.3825 21.1925 17.7111C23.8757 16.6544 26.3824 15.1952 28.6262 13.3838L6.88623 13.3852Z" fill="#039CC7"/>
<path d="M10.9078 7.76958H11.1456V10.2761H10.9078V7.76958ZM10.4516 7.76958H10.6991V10.2761H10.4516V7.76958ZM9.99535 7.76958H10.2428V10.2761H9.99674V7.76958H9.99535ZM9.53912 7.76958H9.78659V10.2761H9.54051V7.76958H9.53912ZM9.0829 7.76958H9.33037V10.2761H9.08428V7.76958H9.0829ZM8.63634 7.76958H8.87414V10.2761H8.63911V7.76958H8.63634ZM8.38611 7.51934H11.3931V10.5277H8.38749V7.51934H8.38611ZM14.3793 4.29947H14.6171V6.80596H14.3793V4.29947ZM13.9231 4.29947H14.1705V6.80596H13.9231V4.29947ZM13.4668 4.29947H13.7143V6.80596H13.4668V4.29947ZM13.0106 4.29947H13.2581V6.80596H13.0106V4.29947ZM12.5544 4.29947H12.8005V6.80596H12.5544V4.29947ZM12.1078 4.29947H12.3456V6.80596H12.1078V4.29947ZM11.8576 4.04923H14.8659V7.05758H11.859V4.04785L11.8576 4.04923Z" fill="#00ACD3"/>
<path d="M14.3796 7.77074H14.6174V10.2772H14.3796V7.77074ZM13.9234 7.77074H14.1709V10.2772H13.9234V7.77074ZM13.4672 7.77074H13.7146V10.2772H13.4672V7.77074ZM13.0109 7.77074H13.2584V10.2772H13.0109V7.77074ZM12.5547 7.77074H12.8008V10.2772H12.5547V7.77074ZM12.1081 7.77074H12.3459V10.2772H12.1081V7.77074ZM11.8579 7.52051H14.8663V10.5289H11.8593V7.52051H11.8579Z" fill="#26C2EE"/>
<path d="M17.8481 7.77074H18.0859V10.2772H17.8481V7.77074ZM17.3919 7.77074H17.6394V10.2772H17.3933V7.77074H17.3919ZM16.9357 7.77074H17.1831V10.2772H16.937V7.77074H16.9357ZM16.4794 7.77074H16.7297V10.2772H16.4822V7.77074H16.4794ZM16.0232 7.77074H16.2707V10.2772H16.0232V7.77074ZM15.5767 7.77074H15.8144V10.2772H15.5767V7.77074ZM15.3264 7.52051H18.3348V10.5289H15.3292V7.52051H15.3264Z" fill="#00ACD3"/>
<path d="M17.8481 4.29947H18.0859V6.80596H17.8481V4.29947ZM17.3919 4.29947H17.6394V6.80596H17.3933V4.29947H17.3919ZM16.9357 4.29947H17.1831V6.80596H16.937V4.29947H16.9357ZM16.4794 4.29947H16.7297V6.80596H16.4822V4.29947H16.4794ZM16.0232 4.29947H16.2707V6.80596H16.0232V4.29947ZM15.5767 4.29947H15.8144V6.80596H15.5767V4.29947ZM15.3264 4.04923H18.3348V7.05758H15.3292V4.04785L15.3264 4.04923ZM21.3196 7.76958H21.5574V10.2761H21.3196V7.76958ZM20.8634 7.76958H21.1108V10.2761H20.8634V7.76958ZM20.4072 7.76958H20.6546V10.2761H20.4072V7.76958ZM19.9509 7.76958H20.1984V10.2761H19.9509V7.76958ZM19.4947 7.76958H19.7422V10.2761H19.4947V7.76958ZM19.0481 7.76958H19.2859V10.2761H19.0481V7.76958ZM18.8034 7.51934H21.8118V10.5277H18.8034V7.51934Z" fill="#26C2EE"/>
<path d="M21.3196 4.29947H21.5573V6.80596H21.3196V4.29947ZM20.8633 4.29947H21.1108V6.80596H20.8633V4.29947ZM20.4071 4.29947H20.6546V6.80596H20.4071V4.29947ZM19.9509 4.29947H20.1983V6.80596H19.9509V4.29947ZM19.4946 4.29947H19.7421V6.80596H19.4946V4.29947ZM19.0481 4.29947H19.2859V6.80596H19.0481V4.29947ZM18.7979 4.04923H21.8062V7.05758H18.8034V4.04785L18.7979 4.04923Z" fill="#00ACD3"/>
<path d="M21.3196 0.828359H21.5574V3.33486H21.3196V0.828359ZM20.8634 0.828359H21.1109V3.33486H20.8634V0.828359ZM20.4072 0.828359H20.6546V3.33486H20.4072V0.828359ZM19.951 0.828359H20.1984V3.33486H19.951V0.828359ZM19.4947 0.828359H19.7422V3.33486H19.4947V0.828359ZM19.0482 0.828359H19.286V3.33486H19.0482V0.828359ZM18.8035 0.578125H21.8118V3.58647H18.8035V0.578125Z" fill="#26C2EE"/>
<path d="M24.7898 7.77074H25.0248V10.2772H24.7898V7.77074ZM24.3335 7.77074H24.5796V10.2772H24.3335V7.77074ZM23.8773 7.77074H24.1248V10.2772H23.8773V7.77074ZM23.4211 7.77074H23.6685V10.2772H23.4211V7.77074ZM22.9649 7.77074H23.2123V10.2772H22.9649V7.77074ZM22.5183 7.77074H22.7561V10.2772H22.5183V7.77074ZM22.2681 7.52051H25.2764V10.5289H22.2694V7.52051H22.2681Z" fill="#00ACD3"/>
<path d="M14.678 15.4043C14.8421 15.4043 15.0025 15.4529 15.1389 15.5441C15.2753 15.6352 15.3816 15.7648 15.4444 15.9164C15.5072 16.0679 15.5236 16.2347 15.4916 16.3956C15.4596 16.5565 15.3806 16.7043 15.2646 16.8204C15.1486 16.9364 15.0008 17.0154 14.8398 17.0474C14.6789 17.0794 14.5122 17.063 14.3606 17.0002C14.209 16.9374 14.0795 16.8311 13.9883 16.6947C13.8972 16.5582 13.8485 16.3979 13.8485 16.2338C13.8485 16.0138 13.9359 15.8028 14.0915 15.6473C14.247 15.4917 14.458 15.4043 14.678 15.4043Z" fill="#D5EEF2"/>
<path d="M14.6781 15.6392C14.7519 15.6391 14.825 15.6527 14.8938 15.6793C14.8616 15.698 14.8341 15.7239 14.8135 15.755C14.7929 15.7861 14.7798 15.8215 14.7752 15.8585C14.7705 15.8955 14.7745 15.9331 14.7868 15.9683C14.7991 16.0035 14.8193 16.0354 14.846 16.0615C14.8726 16.0875 14.9049 16.1071 14.9403 16.1187C14.9758 16.1302 15.0134 16.1334 15.0503 16.128C15.0872 16.1226 15.1223 16.1087 15.153 16.0875C15.1836 16.0663 15.209 16.0382 15.227 16.0056C15.2759 16.1232 15.2857 16.2535 15.2549 16.3771C15.2242 16.5007 15.1546 16.6112 15.0563 16.6923C14.958 16.7734 14.8363 16.8207 14.7091 16.8274C14.5819 16.834 14.4559 16.7996 14.3497 16.7293C14.2435 16.6589 14.1627 16.5563 14.1192 16.4366C14.0758 16.3168 14.0719 16.1863 14.1082 16.0642C14.1445 15.9421 14.2191 15.8349 14.321 15.7584C14.4229 15.6819 14.5466 15.6401 14.674 15.6392M0.00138258 13.6844H38.6011C37.7606 13.4715 35.9426 13.1839 36.2412 12.082C34.7135 13.8503 31.0277 13.3263 30.0973 12.4512C29.0618 13.954 23.0313 13.383 22.611 12.212C21.3128 13.7328 17.2883 13.7328 15.9901 12.212C15.5754 13.383 9.53934 13.954 8.50384 12.4512C7.5734 13.3235 3.88901 13.8503 2.35995 12.082C2.65995 13.188 0.839185 13.4715 0 13.6844" fill="#3A4E55"/>
<path d="M16.8833 21.3837C15.1856 20.6602 13.8245 19.3213 13.0731 17.6357C12.1753 17.8739 11.2541 18.013 10.326 18.0505C9.92417 18.0726 9.50158 18.0841 9.05826 18.0851C8.54765 18.0851 8.00939 18.0699 7.44348 18.0394C8.53538 19.1764 9.85932 20.065 11.3253 20.6447C12.7912 21.2244 14.3648 21.4816 15.939 21.3989C16.2561 21.3989 16.5708 21.393 16.8833 21.381" fill="#C0DBE1"/>
<path d="M13.8361 18.9713C13.5348 18.5546 13.2789 18.1069 13.073 17.6357C12.1752 17.8739 11.254 18.013 10.3259 18.0505C11.4189 18.5985 12.6147 18.9113 13.8361 18.9685" fill="#D5EEF2"/>
</svg>
