<svg width="31" height="31" viewBox="0 0 31 31" fill="none" xmlns="http://www.w3.org/2000/svg">
<path d="M0 5C0 2.23858 2.23858 0 5 0H26C28.7614 0 31 2.23858 31 5V26C31 28.7614 28.7614 31 26 31H5C2.23858 31 0 28.7614 0 26V5Z" fill="#512BD4"/>
<path d="M5.52513 19.8055C5.30595 19.8055 5.11971 19.7325 4.96628 19.5864C4.81286 19.4366 4.73608 19.2586 4.73608 19.0526C4.73608 18.8429 4.81286 18.6632 4.96616 18.5133C5.11971 18.3635 5.30595 18.2885 5.52513 18.2885C5.74794 18.2885 5.93612 18.3635 6.08955 18.5133C6.24673 18.6632 6.3252 18.8429 6.3252 19.0526C6.3252 19.2586 6.24673 19.4365 6.08955 19.5864C5.93612 19.7325 5.74806 19.8056 5.52525 19.8056L5.52513 19.8055ZM14.2876 19.682H12.8629L9.10926 13.7599C9.01555 13.6126 8.93662 13.4565 8.87362 13.2937H8.84068L8.84637 13.3306L8.85158 13.373L8.85642 13.4206L8.86102 13.4734L8.86696 13.5625L8.87204 13.6633L8.87628 13.7759L8.87967 13.9004L8.88209 14.0366L8.8833 14.1341L8.88451 14.4005V19.6819H7.62417V11.625H9.14208L12.7697 17.4064L12.8593 17.5479L12.9171 17.6409L12.9665 17.7227L13.0076 17.7933L13.0306 17.8342L13.05 17.87L13.0658 17.9009H13.0876L13.0834 17.8755L13.0757 17.821L13.0684 17.7613L13.062 17.6963C13.061 17.6848 13.06 17.6733 13.0591 17.6618L13.0535 17.5889L13.0487 17.5108L13.0444 17.4272L13.0394 17.2923L13.0357 17.1455L13.0336 16.9869L13.0328 16.8165V11.625H14.2876V19.682ZM20.4252 19.682H16.014V11.625H20.2499V12.76H17.3182V15.0411H20.0198V16.1704H17.3182V18.5527H20.4252V19.682ZM26.6945 12.76H24.4367V19.682H23.1325V12.76H20.8802V11.625H26.6944V12.76H26.6945Z" fill="white"/>
</svg>
