<svg width="25" height="28" viewBox="0 0 25 28" fill="none" xmlns="http://www.w3.org/2000/svg">
<path d="M0 13.9999C0 15.2109 0.169556 16.3791 0.457917 17.5H17.4783C19.4088 17.5 20.9739 15.9328 20.9739 13.9999C20.9739 12.0662 19.4087 10.5 17.4783 10.5H0.457917C0.169556 11.62 0 12.789 0 13.9999Z" fill="#343741"/>
<path d="M23.529 6.70327C24.0176 6.25268 24.4721 5.76879 24.8889 5.24995C22.3257 2.05188 18.3957 0 13.9825 0C8.45834 0 3.70427 3.21735 1.43646 7.87498H20.5464C21.6528 7.87498 22.7163 7.45407 23.5289 6.70327" fill="#FEC514"/>
<path d="M20.5463 20.125H1.43634C3.70512 24.7818 8.45831 28 13.9824 28C18.3956 28 22.3256 25.9472 24.8888 22.75C24.4724 22.2319 24.0179 21.7458 23.5289 21.2957C22.7161 20.5442 21.6526 20.125 20.5463 20.125Z" fill="#00BFB3"/>
</svg>
