<svg width="28" height="23" viewBox="0 0 28 23" fill="none" xmlns="http://www.w3.org/2000/svg">
<path d="M10.5541 0.498145C10.7841 0.498145 10.9669 0.628344 11.0654 0.839795C11.1345 0.987919 11.1646 1.17619 11.1661 1.41265V18.3411C11.1647 18.6545 11.132 18.8995 11.0602 19.0839C10.9607 19.34 10.7708 19.5053 10.5117 19.5096H10.5015L8.54951 19.5071C8.28568 19.5071 8.0958 19.3382 7.99834 19.0776C7.92976 18.8945 7.89852 18.6511 7.89723 18.3386V4.20166L7.37161 4.33476L7.16187 4.38735L7.10059 4.40238L7.06946 4.40957L7.05486 4.41257L7.04949 4.41343L7.0467 4.41375H7.04381L7.04348 4.41354L7.04338 4.41322V4.4129L7.04381 4.41247L7.04713 4.40925C7.04842 4.40796 7.04896 4.40678 7.04692 4.40603L7.04574 4.4056L7.03962 4.40592C6.81819 4.41418 6.63389 4.29579 6.5331 4.09282C6.46108 3.94792 6.43017 3.76266 6.42877 3.52823V2.28453C6.42877 2.06493 6.46419 1.88052 6.54426 1.73015C6.6355 1.55862 6.7818 1.44088 6.96577 1.39311L6.97683 1.39032L6.9896 1.38732L10.3649 0.518646C10.4169 0.506343 10.4701 0.499614 10.5235 0.498575L10.5393 0.498145H10.5541V0.498145ZM16.1906 0C16.4325 0 16.6251 0.135565 16.731 0.358931C16.8074 0.520471 16.8415 0.728381 16.8429 0.989851V5.97807L16.843 5.98987H18.2949C18.5228 5.98987 18.7102 6.10751 18.8205 6.30812L18.8256 6.31778L18.8307 6.32744C18.9104 6.4834 18.9455 6.6824 18.9471 6.93099V7.63866C18.9471 7.89154 18.9119 8.09376 18.8293 8.25176C18.7216 8.45752 18.5341 8.57913 18.3055 8.58278H16.8407V15.1513L16.8411 15.2024L16.8416 15.2528L16.8425 15.3025L16.843 15.3272L16.8445 15.388L16.8464 15.4476L16.8486 15.5062L16.8513 15.5636L16.8524 15.5863L16.8548 15.6312L16.8576 15.6752L16.8605 15.7188L16.8637 15.7615L16.8654 15.7825L16.8689 15.8243L16.8707 15.8448L16.8727 15.8652L16.8766 15.9056L16.8809 15.9451L16.8831 15.9646L16.8877 16.0031C16.8974 16.0832 16.9089 16.1587 16.9218 16.2294L16.9261 16.2528L16.9293 16.2693L16.9356 16.3002L16.9419 16.3303L16.9451 16.3452L16.9517 16.3743L16.9584 16.4026L16.9618 16.4166L16.9688 16.4438C16.9778 16.4785 16.9873 16.5114 16.9969 16.5423L17.0053 16.5685C17.0463 16.6925 17.0924 16.7848 17.1411 16.8447C17.2315 16.956 17.311 17.0232 17.3722 17.05L17.3908 17.0576C17.4631 17.0865 17.5633 17.1029 17.6921 17.104H18.6127C18.8294 17.104 19.0168 17.1903 19.1397 17.3597C19.2419 17.5005 19.2867 17.6792 19.2887 17.8932L19.2888 17.9082V18.6745C19.2888 18.9114 19.2428 19.1067 19.1356 19.2587C19.0111 19.4353 18.8205 19.5277 18.5989 19.5308H18.5871L17.2866 19.5333C16.9261 19.5333 16.6115 19.508 16.3378 19.4563C16.045 19.4011 15.7473 19.2795 15.4415 19.0934C15.1231 18.8996 14.8619 18.6337 14.6589 18.2987C14.4614 17.9733 14.3071 17.5342 14.1909 16.9802C14.0775 16.4408 14.0197 15.8124 14.0176 15.0969V8.58278H13.4174C13.1912 8.58278 13.0042 8.46815 12.8933 8.27076L12.8881 8.26131L12.883 8.25165C12.8023 8.09741 12.7667 7.90088 12.765 7.65626V6.94838C12.765 6.69174 12.8 6.48695 12.8816 6.32744C12.9885 6.11835 13.1762 5.99384 13.4066 5.99009L13.4174 5.98998H14.0175V5.97045L14.2481 0.992856L14.2494 0.97053C14.2657 0.713246 14.3073 0.510704 14.3835 0.355174C14.4892 0.139429 14.6702 0.0041861 14.9012 0H16.1906V0ZM26.9274 5.98526C27.1421 5.98526 27.3088 6.11224 27.395 6.30834C27.4534 6.44133 27.4779 6.60781 27.4779 6.8155C27.4779 6.82312 27.4779 6.83085 27.4776 6.83879L27.4774 6.85071L27.4766 6.87539L27.476 6.88795L27.4745 6.91382L27.4737 6.92713L27.4715 6.95439C27.4698 6.97661 27.4676 6.99969 27.4651 7.02373L27.4629 7.04198L27.4594 7.07311L27.4553 7.10531L27.4509 7.13869L27.4474 7.16402L25.1711 19.0154L25.1657 19.0445L25.1545 19.1063L25.143 19.1675L25.1258 19.2581L25.1142 19.3178L25.0967 19.4062L25.085 19.4644L25.0732 19.522L25.0614 19.5791L25.0496 19.6356L25.0377 19.6914L25.0197 19.7741L25.0076 19.8286L24.9955 19.8825L24.9833 19.9357L24.971 19.9883L24.9588 20.0404L24.9465 20.092L24.934 20.1428L24.9216 20.1931L24.909 20.2429L24.8964 20.2919L24.8838 20.3406L24.8711 20.3885L24.8583 20.4359L24.8456 20.4827L24.8327 20.5288L24.8198 20.5746L24.8069 20.6196L24.7938 20.664L24.7807 20.7079L24.7675 20.7511L24.7543 20.7938L24.7411 20.8359L24.7278 20.8775L24.7144 20.9182L24.701 20.9587L24.6942 20.9786L24.6807 21.0181L24.6739 21.0376L24.6672 21.0569L24.65 21.1047L24.6329 21.1516L24.6261 21.1701L24.6122 21.2065L24.5984 21.2425L24.5798 21.2895L24.5635 21.3296L24.5466 21.3703C24.5168 21.4412 24.4865 21.5092 24.4557 21.5747L24.4424 21.6026L24.4246 21.6391L24.4067 21.6752C24.2088 22.0685 23.9872 22.3546 23.7325 22.5343C23.4151 22.7601 23.0101 22.8756 22.5206 22.8895L22.4986 22.89H22.3633C21.5959 22.89 21.0351 22.6794 20.7122 22.2342L20.7025 22.2207L20.6941 22.2087L20.6898 22.2034C20.5978 22.0866 20.5523 21.9258 20.5344 21.701L20.5332 21.6859L20.5313 21.657L20.5303 21.6423L20.5296 21.6275L20.5282 21.5974L20.5275 21.582L20.527 21.5664L20.5259 21.5267L20.5252 21.4859L20.525 21.4694L20.5248 21.4356V21.3985L20.5249 21.378L20.5253 21.3374L20.5256 21.3174L20.526 21.2977L20.527 21.2586L20.5275 21.2394L20.5283 21.2204L20.5298 21.1828L20.5316 21.1461L20.5338 21.1101L20.5362 21.0746L20.5375 21.0575L20.5404 21.0231L20.5436 20.9897C20.5587 20.8406 20.5829 20.7137 20.6174 20.6071C20.7068 20.3306 20.8847 20.145 21.1532 20.1406H21.1629L21.1734 20.1407L21.1821 20.1411L21.1911 20.1418L21.2004 20.1427L21.2131 20.1443L21.2268 20.1466L21.2453 20.1501L21.2625 20.1538L21.2777 20.1573L21.3077 20.1649L21.3479 20.1754L21.4021 20.1904L21.4594 20.2067L21.5353 20.2288L21.7171 20.2822L21.7687 20.2978L21.8149 20.3116L21.8589 20.3244L21.9006 20.3362L21.9399 20.3469L21.9678 20.3544L21.9942 20.3614L22.0272 20.3698L22.0576 20.3772L22.0787 20.3821L22.0981 20.3864L22.1159 20.3903L22.1373 20.3946L22.1512 20.397L22.1636 20.399L22.1709 20.4L22.1773 20.4007L22.183 20.4012L22.1856 20.4013L22.1901 20.4015C22.1931 20.4015 22.196 20.4008 22.1987 20.3994C22.2081 20.3952 22.2208 20.3866 22.2367 20.3718C22.2862 20.3253 22.3418 20.2407 22.3974 20.1176C22.4682 19.9612 22.5199 19.7591 22.5513 19.5125L22.5538 19.4912L22.5581 19.4543L22.5621 19.4167L22.564 19.3976L22.5659 19.3784L22.5692 19.3395C22.5802 19.2015 22.5858 19.0631 22.5861 18.9247L22.5862 18.8927L22.586 18.8825L22.5856 18.8746L22.5845 18.861L22.5826 18.84L22.5797 18.8154L22.576 18.7875L22.5739 18.7722L22.5691 18.7391L22.5634 18.7026L22.5552 18.6522L22.5458 18.5967L22.535 18.536L22.5232 18.4702L22.5071 18.3846L22.4895 18.2918L22.4667 18.1746L22.4377 18.029L22.4098 17.8915L22.375 17.723L22.3382 17.5475L19.8304 7.12431L19.8261 7.09307L19.822 7.06334L19.8184 7.03468L19.8149 7.00709L19.8112 6.97393L19.808 6.94226L19.8068 6.93003L19.8046 6.9062L19.8029 6.88312L19.8022 6.87196L19.8008 6.85017L19.7998 6.82924L19.7995 6.81904L19.7989 6.79908L19.7988 6.78942V6.76258C19.8001 6.57754 19.8219 6.42834 19.8725 6.30727C19.9512 6.11857 20.1072 5.9917 20.3133 5.98773L20.3231 5.98762H21.8698C22.0769 5.98762 22.2605 6.06329 22.4023 6.20937C22.5328 6.34376 22.6106 6.54662 22.6613 6.82935L22.6642 6.84545L22.6689 6.87357L24.0296 14.0755L25.0922 6.92369L25.0939 6.91006C25.1326 6.62369 25.1978 6.41084 25.3062 6.2639L25.3128 6.25521L25.3193 6.24673C25.4506 6.08057 25.6345 5.98859 25.8438 5.98526H26.9275H26.9274ZM4.1276 0.519505C4.35762 0.519505 4.54041 0.649703 4.63895 0.861155C4.70796 1.00928 4.73823 1.19755 4.73963 1.43401V18.3424C4.73963 18.6655 4.707 18.9169 4.63379 19.1053C4.53429 19.3613 4.34431 19.5266 4.08552 19.5308H2.12085C1.85691 19.5308 1.66703 19.3619 1.56957 19.1014C1.50098 18.9183 1.46975 18.6748 1.46846 18.3624V4.22538L1.09139 4.32069L0.793963 4.39508L0.723443 4.41204L0.692316 4.41923L0.668702 4.42417L0.655285 4.42631L0.64423 4.42739L0.631135 4.42846C0.400685 4.4451 0.208231 4.32563 0.10433 4.11654C0.0324154 3.97164 0.0015027 3.78638 0 3.55196V2.30826C0 2.08865 0.0354208 1.90424 0.115493 1.75387C0.206729 1.58234 0.353028 1.4646 0.537001 1.41683L0.548057 1.41404L0.560937 1.41104L3.93847 0.540006C3.99049 0.527667 4.04367 0.520902 4.09712 0.519827L4.11289 0.519505H4.12771H4.1276Z" fill="white"/>
</svg>
