<svg width="32" height="20" viewBox="0 0 32 20" fill="none" xmlns="http://www.w3.org/2000/svg">
<path d="M30.2035 2.84004L31.1851 0.297721L31.1425 0.140211L21.4316 2.69873C22.4671 1.20112 22.1114 0 22.1114 0C22.1114 0 19.0103 1.98038 16.665 1.92861C14.3199 1.87671 13.564 1.25082 9.96792 2.39797C6.37188 3.54426 5.35593 7.06295 4.3133 7.81882C3.27079 8.57494 0 11.037 0 11.037L0.00706538 11.0807L2.95589 10.1419C2.95589 10.1419 2.14702 10.9038 0.428796 13.2196L0.348518 13.1454L0.351564 13.1617C0.351564 13.1617 1.73248 15.2721 3.08794 14.8819C3.22413 14.8423 3.3775 14.7773 3.54512 14.6919C4.09086 14.9958 4.80312 15.2945 5.58957 15.3767C5.58957 15.3767 5.05723 14.7579 4.61309 14.0538C4.73295 13.9765 4.85599 13.8963 4.98097 13.815L4.92299 13.8557L6.04578 14.2682L5.92189 13.2125C5.92591 13.2104 5.92895 13.2074 5.93297 13.2053L7.03651 13.6107L6.89935 12.6506C7.03713 12.5784 7.1767 12.5096 7.31791 12.4443L8.46823 8.0934L13.2246 4.84892L12.8466 5.80007C11.8823 8.1716 10.0716 8.73148 10.0716 8.73148L9.31559 9.01799C8.75377 9.6825 8.51695 9.8461 8.324 12.0764C8.77716 11.9627 9.20997 11.9351 9.6021 12.0409C11.6344 12.5886 12.3385 15.0375 11.7908 15.7151C11.6536 15.8848 11.3275 16.1744 10.916 16.5148H10.091L10.0797 17.1834C10.0512 17.2058 10.0229 17.2271 9.99533 17.2494H9.15601L9.1459 17.9017C9.07171 17.9587 8.99752 18.0136 8.9265 18.0674C8.13798 18.0836 7.13908 17.3957 7.13908 17.3957C7.13908 18.0217 7.66046 18.9849 7.66046 18.9849C7.66046 18.9849 7.69493 18.9687 7.7528 18.9402C7.702 18.9779 7.67362 18.9982 7.67362 18.9982C7.67362 18.9982 9.78397 20.4054 11.1131 19.8842C12.2947 19.4208 15.3543 17.0086 17.9952 15.8665L25.9867 13.7612L27.0404 11.0309L20.95 12.6352V10.1835L28.0962 8.30061L29.1499 5.57032L20.952 7.73063V5.2776L30.2035 2.84004V2.84004Z" fill="white"/>
</svg>
