<svg width="28" height="25" viewBox="0 0 28 25" fill="none" xmlns="http://www.w3.org/2000/svg">
<path d="M8.29781 22.0598C7.24081 21.2268 6.11284 20.4298 5.34084 19.3068C3.71784 17.3268 2.4678 15.0318 1.6158 12.6218C1.0978 11.0548 0.922815 9.37475 0.255815 7.86675C-0.439185 6.77175 0.375831 5.57675 1.57283 5.22975C2.10583 5.12675 3.0458 4.62175 1.9128 4.98475C0.897797 5.72975 0.800837 4.30675 1.84084 4.21675C2.55084 4.12175 2.81282 3.54175 2.57082 3.01675C1.80782 2.51975 4.42085 1.97175 3.10585 1.22975C1.73585 -0.248249 5.02083 -0.533249 4.21083 1.14675C4.01783 2.43675 6.50581 0.909752 5.92781 2.39975C6.51581 3.11475 8.12783 2.56175 8.08583 3.56675C8.94083 3.62675 9.23584 4.34475 10.0358 4.39975C10.8678 4.77475 12.3758 5.07175 12.6578 6.00975C11.8328 6.66175 9.92083 4.65975 9.83083 6.46975C10.0808 9.14175 10.0158 11.8948 10.9928 14.4398C11.4558 15.9798 12.5758 17.1917 13.5878 18.3918C14.5578 19.5667 15.8678 20.3948 17.2078 21.0918C18.3808 21.6448 19.6458 22.0118 20.9258 22.2418C21.4428 21.8448 22.3608 20.3717 23.1678 20.9918C23.2078 21.6918 21.5628 22.4518 23.0908 22.3768C23.9878 22.1068 24.6108 23.0698 25.3508 22.1998C26.0308 23.0068 28.1808 21.6848 27.6958 23.3318C27.0408 23.7548 26.0858 23.4998 25.4278 24.0818C24.3458 23.5417 23.4858 24.5648 22.2878 24.4368C20.9563 24.6672 19.6071 24.7793 18.2558 24.7718C16.0428 24.5968 13.7828 24.5248 11.6808 23.7548C10.4958 23.4098 9.33781 22.7348 8.29781 22.0598ZM10.1658 22.8698C11.3228 23.3698 12.4558 23.8968 13.7228 24.0568C15.7358 24.3368 17.8158 24.7668 19.8358 24.3748C18.9208 23.9618 17.9758 24.5347 17.0658 24.0798C15.9728 24.3148 14.8008 24.0198 13.6908 23.8748C12.4278 23.3118 11.0658 22.9247 9.88283 22.1947C8.40583 21.6547 10.6478 22.8867 11.0458 22.9867C11.9678 23.5117 10.0308 22.7167 9.75581 22.4998C8.98281 22.0648 8.88281 22.1567 9.67781 22.5968C9.83781 22.6898 9.99785 22.7898 10.1658 22.8698ZM7.96285 21.3118C9.08585 21.7268 7.95782 20.5218 7.44582 20.5918C7.21782 20.1968 6.57585 19.9468 7.02785 19.7348C6.21285 20.0168 6.17285 18.6598 5.79085 18.8518C4.92785 18.5798 5.45581 17.6148 4.42781 17.0218C4.33581 16.3968 3.40781 15.8568 3.11281 14.9148C2.98281 14.4318 2.06582 13.0498 2.62782 14.3368C3.10782 15.5768 3.95085 16.6398 4.65285 17.6998C5.19785 18.7098 5.84284 19.7648 6.83284 20.3948C7.16784 20.7198 7.49085 21.2118 7.96285 21.3118ZM4.73085 17.7648C4.77085 17.5948 4.93585 18.1298 4.73085 17.7648V17.7648ZM9.3058 21.8098C9.5558 21.6998 8.9478 21.6698 9.3058 21.8098V21.8098ZM9.91585 22.0317C9.85285 21.7248 9.63785 22.2048 9.91585 22.0317V22.0317ZM10.6778 22.3498C11.0408 22.0048 10.1178 22.1318 10.6778 22.3498V22.3498ZM11.9828 23.0767C12.2058 22.7517 11.2778 22.9548 11.9828 23.0767V23.0767ZM9.47585 21.3298C10.0378 20.9648 8.74785 21.3248 9.47585 21.3298V21.3298ZM10.0478 21.6147C10.0308 21.4217 9.84281 21.6997 10.0478 21.6147V21.6147ZM12.9058 23.3968C13.3658 23.6868 15.5878 24.0317 14.1958 23.5168C13.9628 23.5667 11.6128 22.8518 12.9058 23.3968ZM8.36781 19.8647C8.32281 19.6717 7.65581 19.6518 8.36781 19.8647V19.8647ZM9.69783 20.6398C10.0458 20.3998 8.98083 20.4548 9.69783 20.6398V20.6398ZM10.8178 21.3267C11.3128 21.1397 10.0108 21.1397 10.8178 21.3267V21.3267ZM7.82582 19.2747C8.36582 19.6868 10.0008 19.3267 8.65083 19.0268C8.03783 18.6998 6.65284 18.4768 7.59584 19.2248L7.82582 19.2747ZM11.5758 21.5648C11.8008 21.1818 10.6328 21.3448 11.5758 21.5648V21.5648ZM10.4358 20.6567C11.7528 21.0297 9.3278 19.8218 10.1108 20.5198L10.2858 20.5998L10.4358 20.6567ZM12.7208 21.9768C13.9678 21.9898 11.5928 21.8068 12.7208 21.9768V21.9768ZM7.34584 18.5518C7.29784 18.3197 7.03784 18.5718 7.34584 18.5518V18.5518ZM14.8308 23.1618C14.8658 22.7418 14.4258 23.4748 14.8308 23.1618V23.1618ZM9.47585 19.8568C9.40085 19.6368 9.08585 19.8468 9.47585 19.8568V19.8568ZM7.46584 18.4067C8.18084 18.3647 6.48284 18.0917 7.46584 18.4067V18.4067ZM5.08083 16.8668C4.99083 16.5218 4.30083 16.2498 5.08083 16.8668V16.8668ZM11.3378 20.8368C11.2078 20.6868 11.2758 20.8698 11.3378 20.8368V20.8368ZM15.2328 23.2268C15.2208 22.9998 15.0208 23.3148 15.2328 23.2268V23.2268ZM10.9928 20.4818C11.0628 20.1868 10.3828 20.3918 10.9928 20.4818V20.4818ZM8.09285 18.6418C8.62585 18.5848 7.23785 18.2817 8.09285 18.6418V18.6418ZM13.0008 21.6918C13.8308 21.3618 12.1908 21.5318 13.0008 21.6918V21.6918ZM10.4478 19.9598C11.4058 20.0818 9.30781 19.3068 10.2378 19.8898L10.4478 19.9598ZM13.7758 22.0068C14.6708 21.4718 14.3758 23.2598 15.2928 22.1567C16.1978 21.4967 14.5108 22.9748 15.6258 22.2747C16.4328 21.7347 17.6228 22.5298 18.3758 22.7898C18.9158 22.7618 19.4428 23.2568 19.9978 22.9568C21.0658 22.6698 17.9078 22.5298 18.7358 22.0198C17.7578 22.3048 17.0358 21.6798 16.5558 21.0548C15.4578 20.8018 14.1908 20.2418 13.6428 19.2698C13.4208 18.9048 13.9658 19.3218 13.4508 18.7248C12.7908 18.1368 12.4608 17.4698 12.0178 16.7548C11.4878 16.4718 11.4258 15.6398 11.3728 16.7268C11.3778 16.0418 10.7328 15.5798 10.5758 15.7718C10.5728 15.1118 11.2658 15.4418 10.7808 14.9548C10.6758 14.2698 10.3329 13.5568 10.2309 12.7848C10.0709 12.4118 10.2078 11.6148 9.68282 12.4568C9.49282 13.3498 9.6208 11.3618 9.9178 12.0168C10.3078 11.3498 9.77781 11.4268 9.75581 11.5198C10.0108 10.9548 9.91582 10.1548 9.68782 10.4598C9.82282 9.86175 9.90279 8.25975 9.4858 8.54475C9.73779 7.91975 9.96581 5.68475 8.86781 6.53675C8.42281 6.54475 7.65585 6.69675 7.29085 6.87975C8.43085 7.50675 7.17583 7.10675 6.71083 7.00675C6.65083 7.58975 6.1908 7.33675 5.6158 7.34175C6.5328 7.45475 5.16784 8.27975 4.64284 7.95975C3.95784 8.28675 5.23284 9.10175 4.65584 9.35475C4.72584 9.73475 3.60782 9.21675 3.69582 10.0948C3.03282 9.81475 3.60581 11.1348 3.93581 10.6898C5.06281 10.9948 4.73083 11.6918 4.75783 12.3518C4.57283 12.7368 3.85079 11.4468 4.59779 11.5068C4.00779 10.5498 3.94584 11.1618 3.45784 11.6048C3.34584 11.6368 4.70585 12.2368 3.85085 12.5348C4.60285 12.6518 4.62585 13.3098 4.77785 13.7248C5.23085 14.1948 5.13781 13.2048 5.67781 13.7698C5.33581 13.2648 3.86581 12.3498 5.04781 12.6418C5.04081 12.1348 4.83283 11.7248 5.19783 11.7348C5.55783 11.0848 4.82081 13.3398 5.63081 12.5118C5.85581 12.4148 5.91082 11.8618 6.31282 12.5648C6.89782 13.1398 6.52583 13.5568 5.69783 13.0298C5.84583 13.5318 6.80282 13.7098 6.62282 14.4948C6.81282 15.1848 7.08082 14.9298 7.31282 14.8898C7.49582 15.5598 7.5978 15.0668 7.6078 14.7468C8.4428 14.9268 8.24783 15.4198 8.50783 15.7648C9.08283 16.0248 7.68581 14.0048 8.67281 15.1568C9.71281 16.0948 9.06281 16.4867 8.13081 16.3368C8.72081 16.2897 8.91084 17.1348 9.64784 17.1047C10.3208 17.4247 10.7778 18.6548 9.61781 18.1418C9.21581 17.7798 7.79083 17.3318 8.95583 18.0218C10.0308 18.5198 10.8828 18.8168 11.9208 19.4418C12.6608 19.9718 12.9828 20.5767 13.2628 20.6968C12.6408 20.9948 11.3858 20.4598 12.3178 20.2948C11.7358 20.1898 11.0828 19.8948 11.6408 20.6198C12.1128 21.0148 13.3178 20.9748 13.5358 21.0168C13.3528 21.4198 13.0378 21.4517 13.5428 21.4818C12.9808 21.7868 13.7228 21.8347 13.7758 22.0068ZM12.6258 18.7568C12.2828 18.3997 12.1958 17.7297 12.5658 18.3118C12.7528 18.3868 13.1728 19.4067 12.6258 18.7568ZM16.3728 21.1368C16.5858 21.1218 16.3778 21.2998 16.3728 21.1368V21.1368ZM12.0858 17.8798C12.0708 17.3368 12.2078 18.2968 12.0858 17.8798V17.8798ZM11.7128 17.3768C11.2808 16.5468 12.2558 17.6148 11.7128 17.3768V17.3768ZM7.19783 14.2618C7.45083 14.1948 7.32283 14.6948 7.19783 14.2618V14.2618ZM10.7908 16.2098C10.9458 15.6268 10.9728 16.6998 10.7908 16.2098V16.2098ZM8.25282 14.4448C8.07582 14.1218 8.62782 14.7468 8.25282 14.4448V14.4448ZM10.4308 15.1418C10.0228 14.2298 10.7208 14.6418 10.5208 15.2918L10.4308 15.1418ZM6.6758 12.6398C6.4928 12.3398 6.1928 11.4598 6.2878 11.1918C6.3758 11.6298 7.21782 13.0748 6.70082 11.7898C6.13082 10.7148 7.38283 12.1398 7.51283 12.4068C7.57283 12.6748 7.16081 12.3348 7.44081 12.9598C6.93081 12.2468 7.1408 13.3548 6.6758 12.6398ZM5.51582 11.8398C5.56282 11.1418 5.78082 12.3168 5.51582 11.8398V11.8398ZM6.03584 12.0198C6.28584 11.4918 6.45784 12.7518 6.03584 12.0198V12.0198ZM4.78084 11.0468C4.34784 10.6168 4.0358 10.2218 4.8008 10.7798C5.0958 10.7918 4.1458 9.87975 4.8708 10.4898C5.6358 10.6298 5.24784 11.7418 4.78084 11.0468ZM5.44081 11.0298C5.69081 10.7818 5.57281 11.2748 5.44081 11.0298V11.0298ZM5.84584 11.1598C5.46584 10.4468 6.30784 11.4598 5.84584 11.1598V11.1598ZM5.04085 10.3898C3.78585 9.27175 6.6178 10.9748 5.2458 10.5968L5.04085 10.3898ZM8.63783 12.4798C8.09283 12.1548 8.49281 10.1848 8.67781 11.5318C9.20581 11.3618 8.6478 12.2268 9.0428 12.2198C8.9828 12.7648 8.80583 12.9618 8.63783 12.4798ZM9.97084 13.2668C10.0228 12.6718 10.0828 13.6718 9.97084 13.2668V13.2668ZM9.73781 13.0368C9.79781 12.7848 9.74581 13.3368 9.73781 13.0368V13.0368ZM5.28584 10.0218C4.47784 8.90975 7.63081 11.1498 5.80281 10.3048C5.61081 10.2518 5.38084 10.2348 5.28584 10.0218ZM7.85085 11.3798C7.77285 10.4418 8.02085 11.5348 7.85085 11.3798V11.3798ZM9.79579 12.6298C9.94579 12.0948 9.80779 12.9818 9.79579 12.6298V12.6298ZM5.41084 9.59675C5.89084 9.49475 7.39783 10.4398 6.01283 9.86675C5.85783 9.69475 5.53084 9.77175 5.41084 9.59675ZM9.52785 11.6498C9.57785 10.6898 9.81584 11.0768 9.53084 11.7868L9.52785 11.6498ZM5.76582 9.26175C5.96082 8.97475 5.24581 7.96675 5.86781 8.89975C6.13781 9.11175 6.64582 9.25675 6.19582 9.34675C6.90582 9.97175 6.02582 9.51675 5.76582 9.26175ZM9.32582 11.3498C9.46082 10.2568 9.44282 11.9898 9.32582 11.3498V11.3498ZM5.3578 8.25475C5.5078 8.18975 5.4378 8.45175 5.3578 8.25475V8.25475ZM6.28584 8.80675C6.52584 8.30475 6.72784 9.36475 6.28584 8.80675V8.80675ZM8.90285 10.2618C8.90285 10.0698 8.95285 10.5418 8.90285 10.2618V10.2618ZM8.75282 9.92675C8.39082 9.02975 9.09082 10.4018 8.75282 9.92675V9.92675ZM8.53084 9.33975C8.46784 8.96975 8.73784 9.80475 8.53084 9.33975V9.33975ZM8.89284 8.74975C8.64284 8.30975 9.20783 6.81175 9.27083 7.74175C9.00783 8.46475 9.19582 8.86975 9.37782 7.89975C9.71782 7.13475 9.30584 9.40475 8.89284 8.74975ZM9.26582 6.52175C9.37582 6.38975 9.29082 6.68475 9.26582 6.52175V6.52175ZM8.64284 18.8018C8.49584 18.6718 8.66084 18.8848 8.64284 18.8018V18.8018ZM9.9258 19.4517C10.6408 19.6367 10.6358 19.3418 9.9908 19.2548C9.6428 18.9318 8.54785 18.5898 9.52785 19.2148C9.59585 19.3768 9.8008 19.3717 9.9258 19.4517ZM7.39082 17.7668C7.78282 18.0618 8.87282 18.5968 7.95082 17.8798C8.26082 17.5198 7.35584 17.3268 7.65584 17.0848C6.89084 16.6168 7.05285 16.6598 7.58785 16.6748C6.67085 16.2648 7.72079 16.2948 7.67079 16.0848C7.31579 16.0148 5.91281 15.4598 6.73781 16.1298C5.89781 15.7018 6.53779 16.2898 6.28279 16.2268C5.42279 15.9918 7.04784 16.8818 6.14784 16.6597C6.64084 17.0497 7.47285 17.6597 6.35585 17.0718C6.21285 17.2847 7.15782 17.6068 7.39082 17.7668ZM8.7328 18.5398C10.3658 19.0648 7.9328 17.8948 8.7328 18.5398V18.5398ZM15.6078 22.7017C15.6278 22.3767 15.3828 22.9797 15.6078 22.7017V22.7017ZM16.3128 22.9998C16.6908 22.6348 16.3278 23.5818 16.9378 22.9097C16.9458 22.4298 16.9208 22.1448 16.2378 22.7297C16.0508 22.8347 15.9658 23.2768 16.3128 22.9998ZM5.10085 15.9568C4.98285 15.5018 4.28785 15.5048 5.10085 15.9568V15.9568ZM5.8528 16.4517C5.5728 15.9867 4.8528 16.0317 5.8528 16.4517V16.4517ZM10.1458 19.0398C10.5658 19.4118 12.0708 19.3118 10.6528 19.0848C10.4458 18.7748 9.32283 18.8498 10.1458 19.0398ZM16.0458 22.6818C16.6878 22.1418 15.4208 22.9248 16.0458 22.6818V22.6818ZM17.3858 23.6047C17.3908 23.4317 17.1078 23.6798 17.3858 23.6047V23.6047ZM17.3878 23.3617C18.1028 22.6047 16.6958 23.4067 17.3878 23.3617V23.3617ZM3.24281 14.4048C2.63581 13.5368 2.86585 13.1468 2.27785 12.4368C2.16585 11.8948 1.27081 10.6648 1.81581 11.9668C2.31281 12.7298 2.46081 13.9098 3.24281 14.4048ZM17.1628 23.1217C18.4778 22.2717 16.6258 22.7517 17.1628 23.1217V23.1217ZM18.1658 23.5148C18.8258 22.9498 17.7508 23.3968 18.1658 23.5148V23.5148ZM4.87581 14.9968C5.06581 14.7168 4.39081 14.9618 4.87581 14.9968V14.9968ZM17.9578 23.2448C18.5958 22.8348 17.8109 22.8967 17.8429 23.2817L17.9578 23.2448ZM9.31282 17.7968C9.29082 17.5198 8.97582 17.8198 9.31282 17.7968V17.7968ZM9.84779 18.1047C9.67579 17.7598 9.58579 18.1567 9.84779 18.1047V18.1047ZM18.9809 23.5218C19.7979 22.9318 18.4858 23.4097 18.8108 23.6348L18.9809 23.5218ZM18.6658 23.3717C19.3328 22.8148 17.9658 23.6197 18.6658 23.3717V23.3717ZM20.2628 24.4348C20.7108 24.1368 19.7208 24.3398 20.2628 24.4348V24.4348ZM5.28584 14.7948C5.88284 14.9298 7.67581 16.2668 6.61781 14.8868C6.07581 14.7268 6.40079 13.4018 5.84779 13.6368C6.21779 14.2568 6.15282 14.5198 5.37282 14.1298C4.39582 13.6518 4.82282 14.3648 5.01582 14.5618C4.75582 14.6248 5.36284 14.7898 5.28584 14.7948ZM2.56081 12.6418C2.66781 12.1998 1.5728 10.2048 2.0428 11.6418C2.2128 11.9448 2.19581 12.5148 2.56081 12.6418ZM7.56282 15.7268C7.25582 15.4698 7.54782 15.6898 7.56282 15.7268V15.7268ZM8.32082 15.9048C8.32082 15.4348 7.48282 15.7118 8.32082 15.9048V15.9048ZM14.8958 20.0468C14.7708 19.7268 14.4008 20.0418 14.8958 20.0468V20.0468ZM15.2108 20.2798C15.1658 20.0998 15.0308 20.3148 15.2108 20.2798V20.2798ZM17.8178 21.9198C18.0678 21.7348 17.5058 21.8967 17.8178 21.9198V21.9198ZM3.92079 12.9898C4.63779 12.7118 3.15279 12.7918 3.92079 12.9898V12.9898ZM14.3178 19.5398C14.3078 19.0748 13.8608 19.6548 14.3178 19.5398V19.5398ZM3.63783 12.3298C4.09783 12.1748 3.21083 12.2268 3.63783 12.3298V12.3298ZM4.97279 12.9768C4.96579 12.8248 4.83279 13.0348 4.97279 12.9768V12.9768ZM21.2778 22.9748C21.8708 22.8547 23.2208 23.2768 23.4378 22.8168C22.7178 22.7998 20.9508 22.3098 20.8678 22.9318L21.0258 22.9568L21.2778 22.9748ZM5.39784 13.0848C5.41084 12.6148 5.03284 13.0668 5.39784 13.0848V13.0848ZM1.88582 10.6468C1.72582 9.75175 1.27782 10.5118 1.88582 10.6468V10.6468ZM2.72279 10.8568C2.73279 10.5698 1.95579 10.5998 2.72279 10.8568V10.8568ZM3.20082 11.0918C3.06282 10.9818 3.09282 11.2348 3.20082 11.0918V11.0918ZM6.21584 13.0248C6.35784 12.8948 5.87784 12.9298 6.21584 13.0248V13.0248ZM2.88283 10.5618C2.80083 9.88475 1.91283 10.4618 2.88283 10.5618V10.5618ZM1.16585 9.44675C1.14085 9.13475 0.997849 9.56475 1.16585 9.44675V9.44675ZM1.42079 9.25475C1.37779 8.88475 1.20079 9.30175 1.42079 9.25475V9.25475ZM2.83284 10.0968C3.43084 9.86175 1.74583 9.61175 2.71083 10.0518L2.83284 10.0968ZM21.7309 21.7698C22.1129 21.4198 21.2459 21.6618 21.7309 21.7698V21.7698ZM24.0128 22.9548C24.1658 22.5018 23.6278 23.0117 24.0128 22.9548V22.9548ZM2.97585 9.35675C3.04085 8.91975 2.50285 9.44475 2.97585 9.35675V9.35675ZM0.967851 8.01175C0.860851 7.39475 0.875792 6.30675 1.90779 6.67475C0.530792 6.94975 2.86283 8.38675 2.56783 7.25175C3.14783 7.27975 3.70084 6.90975 3.39784 7.47175C4.54084 7.34675 5.33082 6.35675 6.43282 6.49475C7.29282 6.37975 8.23084 6.29475 9.15584 5.94975C9.91584 5.89475 10.6478 5.07475 10.2328 4.58975C9.1958 4.50175 8.10785 4.63175 6.96285 4.85975C5.69285 5.12475 4.53781 5.62475 3.25581 5.84175C2.00581 6.00975 3.50584 6.30475 3.14784 6.36975C2.49584 6.59475 3.92582 6.74975 3.06282 6.98675C2.53082 6.88475 1.97584 6.70175 2.20284 6.14175C1.00584 6.29675 -0.0471658 6.79475 0.900834 8.01175H0.967851ZM3.8528 6.54175C4.1328 5.50675 5.35582 7.39175 4.31282 6.67975C4.18782 6.58475 3.9828 6.50975 3.8528 6.54175ZM3.90779 6.03975C4.31279 5.73975 4.12279 6.20975 3.90779 6.03975V6.03975ZM4.42281 6.04975C4.46081 5.57475 5.60079 6.30175 4.6108 6.21975L4.42281 6.04975ZM5.12581 5.76475C5.38281 5.46475 5.20081 6.03175 5.12581 5.76475V5.76475ZM5.3058 5.64475C5.7328 5.12975 7.72784 5.31675 6.26784 5.59475C5.87784 5.29975 5.5778 5.76975 5.3058 5.64475ZM7.91084 5.24475C7.84584 3.83975 9.20584 5.74175 7.91084 5.24475V5.24475ZM8.65083 5.23975C8.92083 4.53175 9.70083 4.95475 8.77583 5.09675C8.79583 5.17175 8.74783 5.46175 8.65083 5.23975ZM2.68581 8.99475C3.49281 8.49975 1.82781 8.56475 2.68581 8.99475V8.99475ZM3.28279 9.15975C3.56579 8.85975 2.66779 9.03675 3.28279 9.15975V9.15975ZM1.52284 7.91175C1.98584 7.55675 0.977844 7.77675 1.52284 7.91175V7.91175ZM25.3608 22.8248C25.3728 22.4118 25.0078 23.0098 25.3608 22.8248V22.8248ZM22.9378 21.1718C23.0078 20.6968 22.6278 21.2118 22.9378 21.1718V21.1718ZM26.0278 22.9848C26.6728 22.9868 27.9828 22.7847 26.5778 22.7847C26.3578 22.8167 25.2958 22.8118 26.0278 22.9848ZM3.80782 8.86975C4.33082 8.83475 4.62583 8.29475 3.70583 8.32475C2.28283 8.17675 4.96084 8.81175 3.52284 8.62975C3.33084 8.75675 3.79582 8.90475 3.80782 8.86975ZM4.26784 9.10175C4.21284 8.76675 4.10584 9.27975 4.26784 9.10175V9.10175ZM4.81282 7.64675C5.03782 7.36675 4.49782 7.57175 4.81282 7.64675V7.64675ZM3.07582 4.74675C4.00782 4.42975 5.28084 4.07475 5.72084 4.90175C5.27284 4.36475 5.54085 3.83175 5.96285 4.62175C6.56085 5.41975 6.86084 4.25975 6.47084 3.99175C6.91284 4.54175 7.41784 4.80175 6.76784 4.02675C7.47584 3.17675 5.3528 4.13975 4.8708 4.12975C4.6408 4.23175 2.47582 4.67975 3.07582 4.74675ZM3.62282 3.70175C4.15582 3.30175 5.46082 3.94175 4.62282 3.30475C4.54082 3.22975 2.78582 3.78675 3.62282 3.70175ZM5.56081 3.78175C6.18281 3.79675 5.29279 2.94675 6.03279 3.33175C5.91079 2.93475 5.17082 2.85975 4.80782 2.70175C4.60282 3.06475 5.22281 3.78675 5.56081 3.78175ZM3.96285 2.02175C4.17785 1.73175 3.58585 2.17175 3.96285 2.02175V2.02175ZM4.75282 2.21175C5.75582 2.07975 4.4978 1.78175 4.5508 2.20175L4.75282 2.21175ZM3.27583 1.05675C2.57083 0.134752 4.60282 1.21175 3.88582 0.246751C3.28282 -0.233249 2.70283 0.786752 3.27583 1.05675ZM12.3278 5.93175C12.6508 5.35975 10.9928 5.15975 12.1108 5.72975C12.2158 5.76475 12.1908 5.97175 12.3278 5.93175Z" fill="white"/>
</svg>
