<svg width="32" height="32" viewBox="0 0 32 32" fill="none" xmlns="http://www.w3.org/2000/svg">
<path d="M28.5714 16.0002H20.5714V18.2859H26.0572C25.6649 19.9811 24.8521 21.5502 23.6936 22.8485C22.5351 24.1468 21.0683 25.1324 19.4286 25.7145L6.28573 12.5716C6.9957 10.5635 8.31154 8.82537 10.0516 7.59709C11.7917 6.36881 13.8701 5.71101 16 5.71449C17.6512 5.72611 19.2766 6.12511 20.7455 6.87939C22.2143 7.63367 23.4856 8.72218 24.4572 10.0573L26.1714 8.57163C24.7454 6.62342 22.7882 5.12735 20.5341 4.26248C18.28 3.3976 15.8244 3.20054 13.4612 3.69488C11.098 4.18923 8.92732 5.35403 7.20886 7.0499C5.49041 8.74578 4.297 10.9009 3.77145 13.2573L18.8572 28.3431C21.6127 27.6483 24.0605 26.0604 25.818 23.8273C27.5755 21.5942 28.5438 18.8418 28.5714 16.0002ZM3.42859 16.1145C3.43222 17.7324 3.7574 19.3334 4.38523 20.8245C5.01306 22.3156 5.93101 23.667 7.08573 24.8002C9.38719 27.1143 12.5079 28.4283 15.7714 28.4573L3.42859 16.1145Z" fill="white"/>
<path d="M16 0C12.8355 0 9.74207 0.938384 7.11088 2.69649C4.4797 4.45459 2.42894 6.95345 1.21793 9.87706C0.00693253 12.8007 -0.309921 16.0177 0.307443 19.1214C0.924806 22.2251 2.44866 25.0761 4.6863 27.3137C6.92394 29.5513 9.77487 31.0752 12.8786 31.6926C15.9823 32.3099 19.1993 31.9931 22.1229 30.7821C25.0466 29.5711 27.5454 27.5203 29.3035 24.8891C31.0616 22.2579 32 19.1645 32 16C31.9876 11.7603 30.298 7.69785 27.3001 4.69995C24.3021 1.70204 20.2397 0.0123619 16 0ZM7.08572 24.9143C4.77161 22.6128 3.45764 19.4922 3.42858 16.2286L15.8857 28.5714C12.5946 28.513 9.44885 27.2056 7.08572 24.9143ZM18.7429 28.2286L3.77144 13.2571C4.29699 10.9007 5.4904 8.74558 7.20885 7.0497C8.92731 5.35383 11.098 4.18902 13.4612 3.69468C15.8244 3.20034 18.28 3.3974 20.5341 4.26227C22.7882 5.12715 24.7454 6.62321 26.1714 8.57143L24.4571 10.0571C23.4856 8.72198 22.2143 7.63347 20.7454 6.87919C19.2766 6.1249 17.6512 5.7259 16 5.71428C13.874 5.72731 11.8031 6.39159 10.0662 7.61762C8.32934 8.84366 7.00993 10.5726 6.28572 12.5714L19.4286 25.7143C21.0683 25.1322 22.5351 24.1466 23.6936 22.8483C24.852 21.55 25.6649 19.9809 26.0571 18.2857H20.5714V16H28.5714C28.556 18.849 27.576 21.6088 25.7911 23.8294C24.0063 26.0501 21.5219 27.6007 18.7429 28.2286Z" fill="#663399"/>
</svg>
