<svg width="32" height="20" viewBox="0 0 32 20" fill="none" xmlns="http://www.w3.org/2000/svg">
<path fill-rule="evenodd" clip-rule="evenodd" d="M30.9184 0.137822C30.9184 0.137822 31.1984 0.131822 31.4084 0.341822L31.4284 0.361822C31.5564 0.481822 31.9444 0.849823 31.9984 2.50982C31.9984 8.31382 29.1884 14.2738 29.1884 14.2738C28.9715 14.7602 28.7319 15.236 28.4704 15.6998C27.5544 17.3038 26.8984 18.0058 26.8984 18.0058C26.8984 18.0058 26.2624 18.7638 25.5484 19.1958C24.7184 19.7258 24.1084 19.7218 24.1084 19.7218L14.4924 19.7258C13.2204 19.5678 11.9124 18.2538 10.6384 16.5698C9.69836 15.2158 9.08036 13.7438 9.08036 13.7438C9.08036 13.7438 4.06036 13.8118 1.73036 10.9558C0.468362 9.51582 0.204362 7.85982 0.118362 7.26382C0.118362 7.24782 0.114362 7.22782 0.110362 7.20582C0.0103618 6.55782 -0.459638 3.45982 1.75236 1.48582C2.78636 0.493822 4.04836 0.209822 4.49236 0.117822C5.23436 -0.0441776 5.82636 -0.00217794 6.29836 0.0298221L6.47836 0.0418221C7.26036 0.111822 14.4584 0.473822 14.4584 0.473822C14.4584 0.473822 17.5224 0.605822 18.9984 0.585822C18.9984 0.585822 19.0044 4.29182 19.0044 6.14582C19.1444 6.20982 19.2844 6.27782 19.4264 6.34582L19.8504 6.54582V0.579822C20.5104 0.575822 21.1724 0.559822 21.8424 0.545822H21.8644C24.9544 0.473822 30.9204 0.137822 30.9204 0.137822H30.9184ZM4.22436 9.77782C4.22436 9.77782 4.78436 10.2978 6.10436 10.7318C6.96436 11.0358 8.29236 11.1938 8.29236 11.1938C8.29236 11.1938 7.39636 8.72582 7.03036 7.23982C6.59036 5.46782 6.23036 2.44382 6.23036 2.44382C6.23036 2.44382 5.35436 2.41382 4.65236 2.60182C3.12036 2.98182 2.69236 4.12782 2.69236 4.12782C2.69236 4.12782 1.92436 5.50382 2.76436 7.75382C3.25236 9.09782 4.22436 9.77982 4.22436 9.77982V9.77782ZM20.3924 16.9918C21.0804 16.9458 21.3904 16.2078 21.3904 16.2078C21.3904 16.2078 23.8704 11.2358 24.1904 10.4518C24.3145 10.1773 24.3467 9.87012 24.2824 9.57582C24.1424 9.04182 23.5024 8.75182 23.5024 8.75182L19.6504 6.88182L19.3204 7.55982L18.9604 8.29782C19.0474 8.38795 19.115 8.49497 19.1591 8.61228C19.2031 8.72959 19.2226 8.85468 19.2164 8.97982C19.2164 8.97982 20.0824 9.35182 20.7024 9.75382C20.7024 9.75382 21.2164 10.0238 21.3424 10.6038C21.4924 11.1498 21.2624 11.5798 21.2104 11.6818L21.2064 11.6878C21.2064 11.6878 20.7744 12.7078 20.5204 13.2358L20.5124 13.2498C20.4184 13.4438 20.3284 13.6278 20.2344 13.8098C20.3745 13.9656 20.4565 14.165 20.4664 14.3743C20.4762 14.5836 20.4135 14.7898 20.2886 14.9581C20.1638 15.1264 19.9846 15.2463 19.7815 15.2976C19.5783 15.3488 19.3637 15.3282 19.174 15.2393C18.9843 15.1504 18.8312 14.9986 18.7406 14.8096C18.65 14.6207 18.6276 14.4063 18.6771 14.2027C18.7265 13.9991 18.8449 13.8189 19.0121 13.6926C19.1793 13.5663 19.385 13.5017 19.5944 13.5098C19.5944 13.5098 20.4144 11.8298 20.5304 11.4438C20.5304 11.4438 20.7224 10.9638 20.6264 10.6838C20.5384 10.5246 20.4065 10.3941 20.2464 10.3078C19.8094 10.0523 19.3565 9.8252 18.8904 9.62782C18.8904 9.62782 18.7384 9.76382 18.5304 9.80782C18.4275 9.83563 18.3205 9.84511 18.2144 9.83582L16.9924 12.3358C17.1429 12.4897 17.2346 12.6915 17.2514 12.9061C17.2682 13.1207 17.2091 13.3344 17.0844 13.5098C16.9562 13.6861 16.7693 13.8108 16.5573 13.8614C16.3454 13.912 16.1223 13.8852 15.9284 13.7858C15.749 13.6912 15.6062 13.5396 15.5222 13.3551C15.4382 13.1705 15.4179 12.9632 15.4644 12.7658C15.513 12.5683 15.6257 12.3924 15.785 12.2657C15.9442 12.1391 16.1409 12.0688 16.3444 12.0658L17.5984 9.49782C17.4894 9.36288 17.4212 9.19973 17.4015 9.02743C17.3818 8.85513 17.4116 8.68078 17.4873 8.52476C17.563 8.36874 17.6815 8.23747 17.829 8.14629C17.9765 8.05511 18.147 8.00778 18.3204 8.00982L18.6904 7.25982L19.0244 6.57782L17.8664 6.01582C17.8664 6.01582 17.3644 5.76582 16.9504 5.87182C16.8718 5.88966 16.7954 5.91581 16.7224 5.94982C16.3444 6.11782 16.1024 6.60982 16.1024 6.60982L13.3344 12.3118C13.3344 12.3118 13.0864 12.8198 13.1984 13.2318C13.2944 13.7358 13.8484 14.0258 13.8484 14.0258L19.5964 16.8258L19.8664 16.9338C19.8664 16.9338 20.0944 17.0138 20.3904 16.9938L20.3924 16.9918Z" fill="white"/>
</svg>
