<svg width="21" height="28" viewBox="0 0 21 28" fill="none" xmlns="http://www.w3.org/2000/svg">
<path fill-rule="evenodd" clip-rule="evenodd" d="M0.277067 15.1504C0.317067 15.9764 1.14207 15.5944 1.51607 15.3364C1.87107 15.0914 1.97507 15.2954 2.00607 14.8114C2.03824 14.4942 2.05126 14.1753 2.04507 13.8564C1.49413 13.8012 0.941433 13.9429 0.485067 14.2564C0.258067 14.4214 -0.165933 14.9464 0.277067 15.1564" fill="#F6D2A2"/>
<path d="M0.706 15.7316C0.624446 15.7331 0.54366 15.7156 0.47 15.6806C0.385839 15.6319 0.316348 15.5614 0.268835 15.4766C0.221322 15.3918 0.197543 15.2958 0.2 15.1986C0.145432 15.1722 0.098457 15.1324 0.0634761 15.0829C0.0284952 15.0334 0.00665417 14.9758 0 14.9156C0.014924 14.7703 0.0612973 14.63 0.135899 14.5045C0.2105 14.3789 0.311541 14.2711 0.432 14.1886C0.903156 13.8628 1.47528 13.7163 2.045 13.7756L2.113 13.7816V13.8496C2.12178 14.0988 2.1141 14.3483 2.09 14.5966C2.08417 14.6692 2.07884 14.7419 2.074 14.8146C2.052 15.1576 1.988 15.2096 1.811 15.2706C1.71803 15.3003 1.63005 15.3437 1.55 15.3996C1.30188 15.5809 1.01119 15.6953 0.706 15.7316ZM1.816 13.9236C1.35671 13.9174 0.907025 14.0552 0.53 14.3176C0.368 14.4356 0.143 14.7116 0.162 14.9016C0.16767 14.9418 0.184422 14.9797 0.210383 15.0109C0.236344 15.0422 0.270489 15.0656 0.309 15.0786L0.352 15.0986V15.1456C0.362 15.3516 0.424 15.4836 0.537 15.5396C0.755 15.6476 1.161 15.4816 1.468 15.2706C1.56008 15.2066 1.66119 15.1567 1.768 15.1226C1.884 15.0826 1.908 15.0736 1.925 14.8046C1.925 14.7316 1.935 14.6586 1.941 14.5846C1.96142 14.3659 1.97009 14.1462 1.967 13.9266C1.91567 13.9246 1.86567 13.9236 1.817 13.9236H1.816Z" fill="black"/>
<path fill-rule="evenodd" clip-rule="evenodd" d="M0.2771 15.1498C0.402651 15.1221 0.517146 15.0577 0.6061 14.9648L0.2771 15.1498Z" fill="#C6B198"/>
<path d="M0.276994 15.2292C0.258976 15.2285 0.24174 15.2217 0.228146 15.2098C0.214553 15.198 0.205421 15.1819 0.202267 15.1641C0.199114 15.1463 0.202129 15.128 0.210811 15.1122C0.219492 15.0964 0.233319 15.0841 0.249994 15.0772L0.302994 15.0582C0.395445 15.0371 0.479412 14.9887 0.543994 14.9192C0.549675 14.9098 0.557279 14.9016 0.566314 14.8952C0.57535 14.8889 0.585616 14.8845 0.596451 14.8824C0.607286 14.8802 0.618449 14.8804 0.629219 14.8828C0.639989 14.8853 0.650127 14.8899 0.658979 14.8965C0.667831 14.9031 0.6752 14.9115 0.680611 14.9212C0.686021 14.9308 0.689353 14.9414 0.69039 14.9524C0.691428 14.9634 0.690149 14.9745 0.686636 14.985C0.683123 14.9955 0.677454 15.0051 0.669994 15.0132C0.58752 15.1081 0.47793 15.1755 0.355994 15.2062L0.304994 15.2242C0.296046 15.2276 0.286555 15.2293 0.276994 15.2292Z" fill="black"/>
<path fill-rule="evenodd" clip-rule="evenodd" d="M2.184 5.3093C-0.978996 4.4203 1.373 0.400297 3.912 2.0523L2.184 5.3093Z" fill="#6AD7E5"/>
<path d="M2.22405 5.39978L2.16305 5.38278C1.78237 5.31804 1.42992 5.14042 1.1514 4.87296C0.872884 4.60549 0.681145 4.26052 0.601046 3.88278C0.563487 3.49466 0.635045 3.10376 0.807659 2.75412C0.980274 2.40447 1.24709 2.10997 1.57805 1.90378C1.93685 1.67731 2.35546 1.56393 2.77951 1.57838C3.20356 1.59282 3.61348 1.73442 3.95605 1.98478L4.01605 2.02378L2.22405 5.39978ZM2.67305 1.73378C2.31444 1.73388 1.96357 1.8381 1.66305 2.03378C1.35721 2.22316 1.11029 2.49411 0.950055 2.81617C0.78982 3.13823 0.722631 3.49862 0.756046 3.85678C0.827908 4.19479 0.997958 4.50407 1.24488 4.74583C1.4918 4.98759 1.80459 5.15107 2.14405 5.21578L3.80905 2.07878C3.4696 1.86112 3.07623 1.74234 2.67305 1.73578V1.73378Z" fill="black"/>
<path fill-rule="evenodd" clip-rule="evenodd" d="M16.234 1.75028C18.734 -0.00772417 20.999 3.95928 18.09 4.95728L16.234 1.75028Z" fill="#6AD7E5"/>
<path d="M18.055 5.05165L16.13 1.72665L16.189 1.68565C16.5092 1.4293 16.8984 1.27406 17.3071 1.23969C17.7158 1.20532 18.1255 1.29338 18.484 1.49265C18.8229 1.69144 19.0999 1.98039 19.2842 2.32733C19.4685 2.67427 19.5529 3.06557 19.528 3.45765C19.4773 3.83126 19.3154 4.18099 19.0634 4.46148C18.8115 4.74197 18.4811 4.94027 18.115 5.03065L18.055 5.05165ZM16.339 1.77265L18.126 4.85965C18.4498 4.77144 18.7406 4.59 18.9621 4.33789C19.1836 4.08578 19.3262 3.77411 19.372 3.44165C19.3945 3.07941 19.316 2.71805 19.1452 2.39779C18.9745 2.07752 18.7183 1.81091 18.405 1.62765C18.0852 1.4439 17.7179 1.35956 17.3499 1.38538C16.982 1.41121 16.63 1.54602 16.339 1.77265Z" fill="black"/>
<path fill-rule="evenodd" clip-rule="evenodd" d="M16.7731 25.3174C17.4091 25.7104 18.5731 26.9004 17.6171 27.4774C16.7011 28.3164 16.1881 26.5564 15.3831 26.3124C15.5377 26.0631 15.7401 25.8468 15.9787 25.6761C16.2172 25.5053 16.4872 25.3834 16.7731 25.3174Z" fill="#F6D2A2"/>
<path d="M17.134 27.7812H17.096C16.735 27.7592 16.435 27.4072 16.145 27.0662C15.946 26.7767 15.6756 26.5436 15.36 26.3892L15.254 26.3572L15.32 26.2672C15.6463 25.7486 16.1642 25.3798 16.761 25.2412H16.79L16.815 25.2562C17.222 25.5082 18.062 26.2442 18.058 26.9102C18.0559 27.0418 18.0183 27.1704 17.9491 27.2823C17.8799 27.3943 17.7818 27.4855 17.665 27.5462C17.5242 27.689 17.3344 27.773 17.134 27.7812ZM15.509 26.2812C15.8055 26.4559 16.0629 26.6897 16.265 26.9682C16.546 27.2982 16.812 27.6102 17.106 27.6282C17.1918 27.628 17.2767 27.6101 17.3553 27.5757C17.4339 27.5413 17.5046 27.4911 17.563 27.4282L17.575 27.4192C17.6702 27.3727 17.7508 27.3009 17.8079 27.2116C17.8651 27.1224 17.8966 27.0192 17.899 26.9132C17.899 26.3812 17.227 25.7132 16.755 25.4132C16.2449 25.5316 15.7992 25.8403 15.509 26.2762V26.2812Z" fill="black"/>
<path d="M17.617 27.5558C17.6025 27.5557 17.5883 27.5517 17.576 27.5441C17.5636 27.5365 17.5536 27.5257 17.547 27.5128C17.5005 27.4151 17.4594 27.315 17.424 27.2128C17.3694 27.0205 17.2716 26.8434 17.138 26.6948C17.1256 26.6798 17.1192 26.6608 17.1199 26.6414C17.1207 26.622 17.1285 26.6036 17.142 26.5896C17.1555 26.5756 17.1737 26.5671 17.193 26.5656C17.2124 26.5642 17.2316 26.57 17.247 26.5818C17.3985 26.7464 17.5097 26.9439 17.572 27.1588C17.6056 27.2541 17.6443 27.3476 17.688 27.4388C17.6974 27.4575 17.699 27.4791 17.6924 27.499C17.6859 27.5189 17.6717 27.5354 17.653 27.5448C17.6421 27.5513 17.6297 27.5551 17.617 27.5558Z" fill="black"/>
<path fill-rule="evenodd" clip-rule="evenodd" d="M5.41407 26.6619C4.66807 26.7769 4.24807 27.4509 3.62607 27.7929C3.04007 28.1429 2.81507 27.6809 2.76307 27.5869C2.67107 27.5449 2.67907 27.6259 2.53707 27.4869C1.99007 26.6249 3.10207 25.9999 3.68007 25.5719C4.48507 25.4089 4.99007 26.1069 5.41407 26.6619Z" fill="#F6D2A2"/>
<path d="M3.22905 28.0004C3.18146 28.0007 3.13404 27.9947 3.08805 27.9824C3.00588 27.9556 2.92991 27.9126 2.86465 27.8559C2.79938 27.7992 2.74613 27.73 2.70805 27.6524H2.69005C2.62405 27.6524 2.57505 27.6384 2.47705 27.5394L2.46605 27.5264C1.94305 26.7004 2.83305 26.0734 3.42305 25.6584C3.49705 25.6064 3.56705 25.5584 3.63005 25.5104L3.64405 25.5004H3.66105C4.49005 25.3324 5.01405 26.0184 5.43405 26.5694L5.55305 26.7244L5.42205 26.7444C5.0006 26.8456 4.61707 27.0656 4.31705 27.3784C4.11521 27.563 3.89507 27.7265 3.66005 27.8664C3.5309 27.9487 3.38209 27.995 3.22905 28.0004ZM2.70205 27.4944C2.7339 27.4945 2.76534 27.5016 2.79405 27.5154L2.81705 27.5264L2.83705 27.5614C2.86522 27.6235 2.90558 27.6794 2.95574 27.7256C3.0059 27.7718 3.06484 27.8074 3.12905 27.8304C3.20788 27.8451 3.28885 27.8438 3.36717 27.8266C3.4455 27.8094 3.51958 27.7767 3.58505 27.7304C3.8114 27.5952 4.02348 27.4374 4.21805 27.2594C4.51382 26.9638 4.87584 26.7431 5.27405 26.6154C4.87405 26.0894 4.41205 25.5214 3.71205 25.6524C3.64641 25.7002 3.57973 25.7466 3.51205 25.7914C2.91205 26.2154 2.16005 26.7434 2.59305 27.4394C2.65505 27.5014 2.67005 27.5004 2.68305 27.5004L2.70205 27.4944Z" fill="black"/>
<path d="M2.76199 27.6652H2.75499C2.73419 27.6634 2.71495 27.6535 2.70146 27.6375C2.68797 27.6216 2.68133 27.601 2.68299 27.5802C2.71528 27.3705 2.80258 27.1731 2.93599 27.0082C2.99889 26.9211 3.0541 26.8288 3.10099 26.7322C3.1104 26.7146 3.12612 26.7012 3.145 26.6947C3.16388 26.6882 3.18451 26.6891 3.20274 26.6972C3.22098 26.7053 3.23547 26.7201 3.24331 26.7384C3.25115 26.7568 3.25175 26.7774 3.24499 26.7962C3.19454 26.9012 3.13498 27.0016 3.06699 27.0962C2.94928 27.2402 2.87136 27.4126 2.84099 27.5962C2.83854 27.6154 2.82915 27.633 2.81459 27.6457C2.80004 27.6584 2.78132 27.6653 2.76199 27.6652Z" fill="black"/>
<path fill-rule="evenodd" clip-rule="evenodd" d="M2.31599 4.19987C1.89899 3.97887 1.59299 3.67987 1.84799 3.19987C2.08399 2.75287 2.52299 2.79987 2.93999 3.02187L2.31599 4.19987ZM17.431 3.77787C17.848 3.55687 18.154 3.25787 17.899 2.77787C17.663 2.33087 17.224 2.37787 16.807 2.59987L17.431 3.77787Z" fill="black"/>
<path fill-rule="evenodd" clip-rule="evenodd" d="M20.3031 15.0459C20.2631 15.8719 19.4381 15.4899 19.0641 15.2319C18.7091 14.9869 18.6051 15.1909 18.5741 14.7069C18.5419 14.3897 18.5289 14.0708 18.5351 13.7519C19.086 13.6967 19.6387 13.8384 20.0951 14.1519C20.3221 14.3169 20.7461 14.8419 20.3031 15.0519" fill="#F6D2A2"/>
<path d="M19.874 15.627C19.5654 15.5927 19.2711 15.4787 19.02 15.296C18.9399 15.2402 18.852 15.1967 18.759 15.167C18.582 15.105 18.518 15.053 18.496 14.711C18.496 14.638 18.486 14.566 18.48 14.493C18.4559 14.2448 18.4482 13.9953 18.457 13.746V13.678L18.525 13.672C19.0947 13.6128 19.6668 13.7593 20.138 14.085C20.2584 14.1676 20.3595 14.2754 20.4341 14.401C20.5087 14.5265 20.5551 14.6668 20.57 14.812C20.5633 14.8723 20.5415 14.9299 20.5065 14.9794C20.4715 15.0289 20.4246 15.0687 20.37 15.095C20.3724 15.1922 20.3487 15.2883 20.3012 15.3731C20.2536 15.4579 20.1841 15.5284 20.1 15.577C20.0293 15.6103 19.9521 15.6273 19.874 15.627ZM18.611 13.827C18.6079 14.0467 18.6166 14.2663 18.637 14.485L18.653 14.705C18.67 14.974 18.694 14.982 18.81 15.023C18.9168 15.0572 19.0179 15.1071 19.11 15.171C19.416 15.383 19.823 15.548 20.041 15.44C20.154 15.384 20.216 15.252 20.226 15.046V14.999L20.269 14.979C20.3075 14.9661 20.3416 14.9427 20.3676 14.9114C20.3936 14.8801 20.4103 14.8423 20.416 14.802C20.434 14.612 20.21 14.336 20.048 14.218C19.6283 13.926 19.121 13.7869 18.611 13.824V13.827Z" fill="black"/>
<path fill-rule="evenodd" clip-rule="evenodd" d="M20.303 15.0463C20.1774 15.0186 20.063 14.9542 19.974 14.8613L20.303 15.0463Z" fill="#C6B198"/>
<path d="M20.303 15.1236C20.2941 15.1252 20.2849 15.1252 20.276 15.1236L20.225 15.1056C20.103 15.075 19.9934 15.0076 19.911 14.9126C19.9035 14.9045 19.8979 14.8949 19.8944 14.8844C19.8908 14.8739 19.8896 14.8628 19.8906 14.8518C19.8916 14.8409 19.895 14.8302 19.9004 14.8206C19.9058 14.8109 19.9132 14.8026 19.922 14.796C19.9309 14.7893 19.941 14.7847 19.9518 14.7822C19.9626 14.7798 19.9737 14.7796 19.9845 14.7818C19.9954 14.7839 20.0056 14.7883 20.0147 14.7946C20.0237 14.801 20.0313 14.8092 20.037 14.8186C20.1016 14.8881 20.1856 14.9365 20.278 14.9576L20.331 14.9766C20.3477 14.9835 20.3615 14.9959 20.3702 15.0117C20.3789 15.0275 20.3819 15.0458 20.3787 15.0635C20.3756 15.0813 20.3664 15.0974 20.3529 15.1093C20.3393 15.1211 20.322 15.1279 20.304 15.1286L20.303 15.1236Z" fill="black"/>
<path fill-rule="evenodd" clip-rule="evenodd" d="M9.97308 0.0791016C13.1391 0.0791016 16.1071 0.532101 17.6541 3.5741C19.0431 6.9831 18.5491 10.6601 18.7611 14.2631C18.9431 17.3571 19.3461 20.9311 17.9111 23.7991C16.4011 26.8151 12.6281 27.5741 9.51908 27.4631C7.07708 27.3761 4.12808 26.5791 2.75008 24.3481C1.13308 21.7311 1.89908 17.8391 2.01608 14.9271C2.15508 11.4781 1.08208 8.0171 2.21608 4.6421C3.39208 1.1421 6.56208 0.349102 9.97408 0.0791016" fill="#6AD7E5"/>
<path d="M10.06 27.55C9.86001 27.55 9.68001 27.55 9.51701 27.54C8.01701 27.486 4.34101 27.071 2.68401 24.388C1.37701 22.272 1.61001 19.347 1.81501 16.766C1.86701 16.117 1.91501 15.503 1.93901 14.923C1.96236 13.6989 1.90992 12.4746 1.78201 11.257C1.44189 9.04224 1.56447 6.78102 2.14201 4.616C2.38127 3.84445 2.77874 3.13126 3.30905 2.52191C3.83936 1.91257 4.49087 1.42047 5.22201 1.077C6.72141 0.42137 8.3315 0.055919 9.96701 0H9.97301C13.064 0 16.143 0.429 17.724 3.538V3.544C18.5672 6.0403 18.9216 8.67563 18.768 11.306C18.773 12.275 18.779 13.278 18.836 14.258C18.853 14.558 18.873 14.858 18.893 15.158C19.077 17.999 19.285 21.22 17.978 23.831C16.349 27.092 12.237 27.55 10.06 27.55ZM9.97601 0.157C6.68201 0.418 3.47601 1.145 2.28901 4.666C1.71923 6.8109 1.59905 9.05044 1.93601 11.244C2.06345 12.4683 2.11488 13.6993 2.09001 14.93C2.06601 15.514 2.01801 16.13 1.96601 16.78C1.76601 19.337 1.53201 22.235 2.81201 24.307C4.43001 26.926 8.04001 27.332 9.51701 27.384C11.439 27.453 16.096 27.237 17.835 23.763C19.123 21.19 18.916 17.992 18.735 15.171L18.678 14.271C18.62 13.287 18.615 12.282 18.61 11.311C18.7625 8.70199 18.4125 6.08797 17.579 3.611C16.04 0.576 13.015 0.158 9.97601 0.157Z" fill="black"/>
<path fill-rule="evenodd" clip-rule="evenodd" d="M10.5321 4.32947C11.1001 7.62947 16.5021 6.76047 15.7261 3.42947C15.0261 0.44147 10.3431 1.26847 10.5321 4.32947Z" fill="white"/>
<path d="M13.0981 6.48457C12.762 6.48583 12.4281 6.43108 12.1101 6.32258C11.6771 6.17935 11.2927 5.91782 11.0006 5.56756C10.7085 5.21729 10.5202 4.79227 10.4571 4.34058V4.33258C10.4172 3.64203 10.6468 2.96294 11.0973 2.43813C11.5479 1.91332 12.1845 1.5837 12.8731 1.51858C13.5115 1.38609 14.1765 1.51018 14.7242 1.86404C15.2719 2.21789 15.6584 2.77307 15.8001 3.40957C15.9173 3.82404 15.9164 4.263 15.7975 4.67698C15.6786 5.09096 15.4464 5.46349 15.1271 5.75257C14.5615 6.2338 13.8407 6.49384 13.0981 6.48457ZM10.6081 4.31958C10.6681 4.7433 10.8452 5.14187 11.1194 5.47046C11.3935 5.79905 11.754 6.04463 12.1601 6.17958C12.644 6.34183 13.1614 6.37739 13.6629 6.28286C14.1645 6.18832 14.6334 5.96685 15.0251 5.63958C15.3246 5.36799 15.5421 5.01797 15.6529 4.62915C15.7637 4.24033 15.7634 3.82825 15.6521 3.43958C15.5169 2.84067 15.1512 2.31912 14.6343 1.98784C14.1173 1.65656 13.4907 1.54222 12.8901 1.66958C12.2411 1.73111 11.6411 2.04135 11.2158 2.53531C10.7904 3.02928 10.5726 3.66866 10.6081 4.31958Z" fill="black"/>
<path fill-rule="evenodd" clip-rule="evenodd" d="M4.07801 4.8631C4.81401 7.7401 9.42001 7.0001 9.24601 4.1181C9.03801 0.662104 3.37301 1.3291 4.07701 4.8631" fill="white"/>
<path d="M6.53499 6.76079C6.06656 6.76528 5.60437 6.65326 5.18998 6.4348C4.89418 6.27419 4.63574 6.05276 4.43167 5.78509C4.2276 5.51742 4.08252 5.20957 4.00598 4.88179C3.89231 4.43392 3.90973 3.96282 4.05617 3.52456C4.2026 3.08631 4.4719 2.69936 4.83198 2.40979C5.26646 2.07849 5.78062 1.86761 6.3226 1.79844C6.86458 1.72927 7.41522 1.80424 7.91898 2.01579C8.32902 2.1949 8.67896 2.48805 8.92716 2.86034C9.17536 3.23264 9.31136 3.66841 9.31899 4.11579C9.34225 4.76076 9.11806 5.39021 8.69232 5.87525C8.26658 6.3603 7.67152 6.66422 7.02899 6.7248C6.8655 6.74954 6.70033 6.76158 6.53499 6.76079ZM4.14998 4.84679C4.30849 5.44976 4.69541 5.96737 5.22884 6.29008C5.76227 6.61279 6.40034 6.71526 7.00799 6.5758C7.61375 6.52002 8.17531 6.23487 8.57776 5.77869C8.98022 5.32251 9.19315 4.72979 9.17299 4.12179C9.16661 3.70108 9.03933 3.29108 8.80634 2.94071C8.57336 2.59034 8.24449 2.3144 7.85899 2.14579C7.3801 1.94447 6.85658 1.87303 6.34127 1.9387C5.82595 2.00436 5.33708 2.20481 4.92399 2.51979C4.58559 2.79275 4.33275 3.15718 4.19553 3.56972C4.05831 3.98226 4.0425 4.42553 4.14998 4.84679Z" fill="black"/>
<path fill-rule="evenodd" clip-rule="evenodd" d="M11.184 8.29354C11.2314 8.74841 11.2367 9.20668 11.2 9.66254C11.09 9.86954 10.875 9.89154 10.69 9.97554C10.5639 9.95573 10.4449 9.90411 10.3443 9.82555C10.2437 9.74699 10.1648 9.64408 10.115 9.52654C10.0874 9.00994 10.1011 8.49196 10.156 7.97754L11.184 8.29354Z" fill="white"/>
<path d="M10.7011 10.057H10.6781C10.5383 10.0349 10.4066 9.97732 10.2954 9.88979C10.1842 9.80226 10.0974 9.6877 10.0431 9.55705V9.53605C10.0097 9.18234 10.0128 8.82614 10.0521 8.47305C10.0651 8.31005 10.0781 8.14205 10.0831 7.97305V7.87305L11.2641 8.23505V8.29305C11.2641 8.43505 11.2761 8.58205 11.2881 8.73705C11.3248 9.04914 11.3221 9.36462 11.2801 9.67605V9.68805L11.2741 9.69905C11.2286 9.77415 11.1685 9.83938 11.0974 9.8909C11.0263 9.94242 10.9456 9.97919 10.8601 9.99905C10.8131 10.016 10.7691 10.031 10.7261 10.051L10.7011 10.057ZM10.1921 9.50605C10.2359 9.60538 10.3033 9.69258 10.3883 9.76016C10.4733 9.82775 10.5734 9.87369 10.6801 9.89405C10.7211 9.87705 10.7631 9.86205 10.8031 9.84705C10.9332 9.82002 11.0483 9.74462 11.1251 9.63605C11.1608 9.34146 11.1608 9.04363 11.1251 8.74905C11.1151 8.61205 11.1051 8.48105 11.1021 8.34905L10.2271 8.08105C10.2201 8.21705 10.2101 8.35205 10.2001 8.48105C10.162 8.82149 10.1586 9.16492 10.1901 9.50605H10.1921Z" fill="black"/>
<path d="M5.34807 5.23576C5.77775 5.23576 6.12607 4.85878 6.12607 4.39376C6.12607 3.92873 5.77775 3.55176 5.34807 3.55176C4.91839 3.55176 4.57007 3.92873 4.57007 4.39376C4.57007 4.85878 4.91839 5.23576 5.34807 5.23576Z" fill="black"/>
<path d="M5.70204 4.79812C5.80311 4.79812 5.88504 4.70231 5.88504 4.58412C5.88504 4.46593 5.80311 4.37012 5.70204 4.37012C5.60097 4.37012 5.51904 4.46593 5.51904 4.58412C5.51904 4.70231 5.60097 4.79812 5.70204 4.79812Z" fill="white"/>
<path d="M11.864 5.0258C12.2865 5.0258 12.629 4.64882 12.629 4.1838C12.629 3.71877 12.2865 3.3418 11.864 3.3418C11.4415 3.3418 11.099 3.71877 11.099 4.1838C11.099 4.64882 11.4415 5.0258 11.864 5.0258Z" fill="black"/>
<path d="M12.212 4.58816C12.3114 4.58816 12.392 4.49235 12.392 4.37416C12.392 4.25597 12.3114 4.16016 12.212 4.16016C12.1126 4.16016 12.032 4.25597 12.032 4.37416C12.032 4.49235 12.1126 4.58816 12.212 4.58816Z" fill="white"/>
<path fill-rule="evenodd" clip-rule="evenodd" d="M8.96106 8.24715C8.62206 9.06915 9.15006 10.7141 10.0711 9.50115C10.0435 8.98455 10.0572 8.46657 10.1121 7.95215L8.96106 8.24715Z" fill="white"/>
<path d="M9.45607 10.0126C9.37659 10.0122 9.29863 9.99083 9.23007 9.95061C9.00941 9.7271 8.85942 9.44359 8.79878 9.13542C8.73814 8.82726 8.76954 8.50805 8.88907 8.21761L8.90407 8.18161L10.1901 7.84961V7.94961C10.1851 8.11961 10.1711 8.28961 10.1581 8.44961C10.1192 8.79201 10.1159 9.13752 10.1481 9.48061V9.51261L10.1291 9.53861C9.86407 9.89961 9.63507 10.0126 9.45607 10.0126ZM9.02007 8.31261C8.92468 8.56481 8.90109 8.83853 8.95193 9.10334C9.00278 9.36815 9.12606 9.61367 9.30807 9.81261C9.54607 9.94861 9.80807 9.71261 9.98907 9.47761C9.9602 9.13433 9.96455 8.78905 10.0021 8.44661C10.0121 8.31761 10.0221 8.18561 10.0291 8.05461L9.02007 8.31261Z" fill="black"/>
<path fill-rule="evenodd" clip-rule="evenodd" d="M9.07707 6.66305C8.91924 6.67789 8.7672 6.73003 8.63349 6.81519C8.49978 6.90034 8.38823 7.01606 8.30804 7.1528C8.22785 7.28955 8.18132 7.4434 8.17228 7.60166C8.16324 7.75993 8.19196 7.91807 8.25607 8.06305C8.69107 8.85105 9.66307 7.99305 10.2691 8.07405C10.9691 8.08805 11.5371 8.81105 12.0961 8.20505C12.7181 7.53105 11.8281 6.87405 11.1321 6.58105L9.07707 6.66305Z" fill="#F6D2A2"/>
<path d="M11.598 8.526C11.3747 8.50846 11.157 8.44766 10.957 8.347C10.7414 8.23989 10.5077 8.17409 10.268 8.153H10.259C10.0136 8.15316 9.77103 8.20495 9.54698 8.305C9.05598 8.475 8.49898 8.667 8.18698 8.105C8.11137 7.9635 8.07298 7.8051 8.07543 7.64469C8.07788 7.48428 8.12108 7.32712 8.20098 7.188C8.28518 7.02413 8.40857 6.88361 8.56018 6.77893C8.71178 6.67426 8.88691 6.60867 9.06998 6.588L11.147 6.5L11.163 6.507C11.68 6.725 12.269 7.124 12.37 7.59C12.3835 7.70252 12.3741 7.81663 12.3422 7.92538C12.3103 8.03414 12.2566 8.13527 12.1844 8.22263C12.1122 8.30999 12.0229 8.38175 11.9221 8.43356C11.8213 8.48537 11.711 8.51614 11.598 8.524V8.526ZM10.275 8C10.5334 8.0212 10.7855 8.09109 11.018 8.206C11.411 8.371 11.718 8.501 12.039 8.156C12.1106 8.09001 12.1644 8.00705 12.1955 7.91477C12.2266 7.8225 12.234 7.72388 12.217 7.628C12.13 7.228 11.575 6.859 11.117 6.664L9.08098 6.745C8.92469 6.76468 8.77551 6.822 8.64627 6.91206C8.51702 7.00211 8.41157 7.1222 8.33898 7.262C8.27171 7.37811 8.23504 7.5094 8.23242 7.64356C8.22979 7.77772 8.2613 7.91035 8.32398 8.029C8.57198 8.478 9.02398 8.323 9.49398 8.159C9.73973 8.05007 10.0062 7.99582 10.275 8Z" fill="#231F20"/>
<path fill-rule="evenodd" clip-rule="evenodd" d="M8.9981 6.62966C8.9511 5.53466 11.0401 5.39966 11.2901 6.31466C11.5401 7.22966 9.1041 7.44266 9.0011 6.63066L8.9981 6.62966Z" fill="black"/>
</svg>
