<svg width="26" height="28" viewBox="0 0 26 28" fill="none" xmlns="http://www.w3.org/2000/svg">
<path d="M25.7245 12.357C25.6782 11.8865 25.6011 11.3465 25.4468 10.7449C25.2731 10.0786 25.03 9.43224 24.7217 8.81651C24.3527 8.0778 23.8998 7.38412 23.3718 6.74921C23.1482 6.47938 22.9013 6.21709 22.6391 5.96255C23.0324 4.39668 22.1608 3.03915 22.1608 3.03915C20.6567 2.94655 19.7002 3.50967 19.3454 3.76421C19.2837 3.74106 19.2297 3.71016 19.168 3.68702C18.9135 3.58677 18.6512 3.48653 18.3735 3.40168C18.0984 3.31539 17.8206 3.23818 17.5404 3.17019C17.2551 3.10074 16.9698 3.0468 16.6766 3.0005C16.6225 2.99285 16.5763 2.9851 16.5223 2.97735C15.8667 0.879457 13.9846 0 13.9846 0C11.8788 1.33438 11.4854 3.20109 11.4854 3.20109C11.4854 3.20109 11.4776 3.23964 11.4622 3.30908C11.3465 3.33998 11.2308 3.37853 11.1151 3.40933C10.9532 3.45563 10.7912 3.51732 10.6369 3.57902C10.4762 3.63998 10.3167 3.70427 10.1586 3.77186C9.83825 3.91213 9.52426 4.06657 9.21759 4.23474C8.91675 4.40443 8.62377 4.58952 8.33823 4.78236L8.26114 4.75146C5.34538 3.64072 2.76146 4.9752 2.76146 4.9752C2.52232 8.07605 3.92615 10.0275 4.20384 10.3824C4.13439 10.5752 4.0727 10.7681 4.011 10.9609C3.79501 11.6628 3.63307 12.3801 3.53282 13.1283C3.51732 13.2363 3.50192 13.3443 3.49418 13.4523C0.79451 14.7867 0 17.5096 0 17.5096C2.24464 20.0936 4.86721 20.2556 4.86721 20.2556L4.87496 20.2479C5.20659 20.8418 5.59227 21.4049 6.02425 21.9371C6.20631 22.1577 6.3967 22.3713 6.59502 22.5774C5.77736 24.9223 6.71076 26.866 6.71076 26.866C9.20984 26.9586 10.8529 25.7708 11.1999 25.5008C11.4483 25.587 11.7006 25.6616 11.9559 25.7245C12.7228 25.924 13.509 26.0404 14.3008 26.0716C14.4936 26.0792 14.6942 26.087 14.8871 26.0792H15.1647L15.2881 26.0716V26.0792C16.4683 27.7609 18.5355 28 18.5355 28C20.0088 26.4495 20.0935 24.9068 20.0935 24.5752V24.4363C20.4021 24.2204 20.6953 23.9889 20.973 23.7344C21.5592 23.2021 22.076 22.5928 22.5079 21.9371L22.6236 21.752C24.2897 21.8446 25.4699 20.7184 25.4699 20.7184C25.1922 18.9829 24.2049 18.1344 23.9967 17.9724C23.9967 17.9724 23.9889 17.9648 23.9735 17.957C23.9581 17.9493 23.9581 17.9416 23.9581 17.9416C23.9504 17.9339 23.935 17.9261 23.9196 17.9185C23.9272 17.8105 23.935 17.7101 23.9427 17.6022C23.9581 17.417 23.9581 17.2242 23.9581 17.0391V16.7459L23.9504 16.6303L23.9427 16.476C23.9427 16.422 23.935 16.3757 23.9272 16.3294C23.9196 16.2831 23.9196 16.2292 23.9118 16.1829L23.8964 16.0363L23.8733 15.8898C23.8424 15.697 23.8116 15.5118 23.7653 15.3189C23.5878 14.5708 23.2947 13.8612 22.9168 13.2209C22.5365 12.5905 22.0603 12.0232 21.5052 11.5394C20.9653 11.0611 20.3558 10.6755 19.7234 10.39C19.0832 10.1047 18.4198 9.9195 17.7564 9.83466C17.4248 9.78836 17.0931 9.77296 16.7614 9.78071H16.5145L16.3911 9.78846C16.3448 9.78846 16.2985 9.79611 16.26 9.79611C16.0919 9.81115 15.9246 9.83433 15.7587 9.86556C15.0953 9.98895 14.4705 10.2281 13.9229 10.5597C13.3752 10.8915 12.897 11.3003 12.5113 11.7631C12.134 12.2159 11.8319 12.7263 11.6165 13.2749C11.4143 13.793 11.2946 14.3395 11.2617 14.8947C11.254 15.0258 11.254 15.1647 11.254 15.2959V15.3961L11.2617 15.5041C11.2694 15.5658 11.2694 15.6353 11.2771 15.697C11.3003 15.9669 11.3542 16.2292 11.4237 16.476C11.5702 16.9774 11.8016 17.4324 12.0869 17.8181C12.3724 18.2038 12.7195 18.5201 13.082 18.7747C13.4446 19.0214 13.8379 19.1989 14.2237 19.3145C14.6094 19.4303 14.9951 19.4766 15.3576 19.4766H15.5581C15.5812 19.4766 15.6044 19.4766 15.6274 19.4688C15.666 19.4688 15.7045 19.4611 15.7432 19.4611C15.7508 19.4611 15.7663 19.4611 15.774 19.4534L15.8125 19.4457C15.8357 19.4457 15.8588 19.438 15.882 19.438C15.9283 19.4303 15.9668 19.4225 16.0131 19.4149C16.0594 19.4071 16.0979 19.3994 16.1365 19.384C16.2213 19.3686 16.2985 19.3377 16.3756 19.3145C16.5299 19.2606 16.6842 19.1988 16.8153 19.1294C16.9542 19.06 17.0775 18.9752 17.2009 18.898C17.2318 18.8748 17.2704 18.8518 17.3013 18.8209C17.4247 18.7206 17.4478 18.5355 17.3476 18.4121C17.2626 18.3041 17.1084 18.2732 16.985 18.3427L16.8924 18.389C16.7853 18.4432 16.6744 18.4896 16.5607 18.5279C16.445 18.5663 16.3217 18.5972 16.1982 18.6204C16.1365 18.628 16.0748 18.6358 16.0054 18.6435C15.9746 18.6435 15.9437 18.6512 15.9051 18.6512H15.7199C15.6814 18.6512 15.6428 18.6512 15.6043 18.6435H15.5581C15.5427 18.6435 15.5195 18.6435 15.5041 18.6358C15.4656 18.628 15.4347 18.628 15.3961 18.6204C15.1107 18.5818 14.8254 18.497 14.5553 18.3735C14.2703 18.2461 14.0074 18.0743 13.7763 17.8644C13.5372 17.6484 13.3289 17.3939 13.1669 17.1008C13.0049 16.8077 12.8892 16.4837 12.8353 16.1443C12.8121 15.9747 12.7967 15.7972 12.8044 15.6275C12.8044 15.5812 12.8121 15.5349 12.8121 15.4886V15.4269C12.8121 15.4038 12.8199 15.3806 12.8199 15.3575C12.8275 15.265 12.843 15.1724 12.8584 15.0799C12.9896 14.3393 13.3597 13.6143 13.9306 13.0666C14.0771 12.9278 14.2313 12.8044 14.3934 12.6887C14.5583 12.572 14.7339 12.4713 14.9179 12.3878C15.1019 12.3024 15.2929 12.2328 15.4887 12.1796C15.6815 12.1256 15.8821 12.0947 16.0903 12.0716C16.1906 12.0639 16.2909 12.0561 16.3989 12.0561H16.638L16.7229 12.0639C16.9465 12.0793 17.1625 12.1102 17.3785 12.1641C17.8105 12.2567 18.2347 12.4188 18.628 12.6347C19.4149 13.0744 20.0859 13.7532 20.4947 14.5708C20.7031 14.9795 20.8495 15.4193 20.919 15.8743C20.9344 15.99 20.9499 16.1058 20.9575 16.2215L20.9653 16.3063L20.973 16.3911V16.7229C20.973 16.7768 20.9653 16.8694 20.9653 16.9234C20.9575 17.0468 20.9421 17.178 20.9267 17.3014C20.9113 17.4248 20.8882 17.5482 20.865 17.6716C20.8412 17.7934 20.8129 17.9144 20.7802 18.0341C20.717 18.2775 20.6397 18.5171 20.5487 18.7515C20.3607 19.2186 20.1173 19.6615 19.8236 20.0705C19.2298 20.8882 18.4198 21.5515 17.4942 21.9757C17.0313 22.184 16.5454 22.3383 16.0441 22.4154C15.7972 22.4617 15.5427 22.4848 15.2881 22.4925H14.9025C14.7659 22.4925 14.6294 22.4847 14.4936 22.4693C13.9537 22.4308 13.4214 22.3305 12.897 22.184C12.3801 22.0374 11.8788 21.8292 11.4005 21.5823C10.4517 21.0732 9.59562 20.379 8.93225 19.5382C8.59999 19.1209 8.31055 18.6713 8.0683 18.1961C7.82972 17.7252 7.63852 17.2316 7.49753 16.7229C7.35863 16.2138 7.27379 15.697 7.23524 15.1724L7.22749 15.0721V14.3856C7.23524 14.1311 7.25839 13.8612 7.28929 13.5989C7.32008 13.3366 7.36638 13.0666 7.42033 12.8044C7.47438 12.5422 7.53607 12.2799 7.61317 12.0176C7.7574 11.5081 7.94051 11.0104 8.16089 10.5289C8.60052 9.58787 9.17139 8.74706 9.85781 8.07605C10.0275 7.90635 10.2049 7.75196 10.39 7.59777C10.5765 7.45028 10.7695 7.31131 10.9686 7.18129C11.1614 7.05015 11.3696 6.9344 11.578 6.82641C11.6811 6.77037 11.7866 6.71889 11.8942 6.67212C12.002 6.62592 12.1103 6.57952 12.2182 6.53332C12.4342 6.44073 12.6578 6.36363 12.8892 6.29418C12.9433 6.27879 13.0049 6.26339 13.0589 6.24024C13.1129 6.22474 13.1746 6.20934 13.2286 6.19394C13.3443 6.16304 13.4601 6.13224 13.5758 6.10909C13.6298 6.0937 13.6915 6.08595 13.7532 6.07055C13.8149 6.05505 13.8689 6.0474 13.9306 6.0319C13.9923 6.02425 14.0463 6.00875 14.1079 6.0011L14.1928 5.9857L14.2854 5.9702C14.3471 5.96255 14.4011 5.9548 14.4628 5.94705C14.5323 5.9394 14.5939 5.93165 14.6633 5.9239C14.7174 5.91625 14.8099 5.9085 14.8639 5.90075C14.9025 5.89311 14.9488 5.89311 14.9873 5.88535L15.0721 5.87771L15.1107 5.86996H15.157C15.2264 5.86221 15.2881 5.86221 15.3576 5.85456L15.4578 5.84681H15.535C15.589 5.84681 15.6507 5.83916 15.7046 5.83916C15.9308 5.83144 16.1573 5.83144 16.3835 5.83916C16.8309 5.85456 17.2705 5.9086 17.6947 5.9857C18.5509 6.14774 19.3532 6.41758 20.0859 6.78011C20.8186 7.13499 21.4667 7.57462 22.0374 8.0529C22.076 8.0837 22.1069 8.11459 22.1454 8.14549C22.1762 8.17629 22.2149 8.20719 22.2457 8.23809C22.3151 8.29968 22.3768 8.36138 22.4463 8.42308C22.5157 8.48488 22.5774 8.54657 22.6391 8.60827C22.7027 8.67068 22.7645 8.73499 22.8242 8.80111C23.0633 9.05565 23.287 9.31018 23.4875 9.57247C23.8603 10.0531 24.1882 10.5669 24.4672 11.1073L24.5135 11.1999L24.5598 11.2925C24.5906 11.3542 24.6215 11.4159 24.6446 11.4777C24.6754 11.5394 24.6986 11.5934 24.7295 11.6551C24.7526 11.7168 24.7834 11.7708 24.8066 11.8325C24.8992 12.0639 24.9918 12.2875 25.0612 12.4958C25.1768 12.8353 25.2617 13.1361 25.3311 13.3983C25.3417 13.4497 25.3716 13.4952 25.4146 13.5253C25.4576 13.5555 25.5106 13.568 25.5625 13.5603C25.6783 13.5526 25.763 13.4601 25.763 13.3443C25.7708 13.0666 25.763 12.735 25.7245 12.357Z" fill="url(#paint0_linear_971_1652)"/>
<defs>
<linearGradient id="paint0_linear_971_1652" x1="12.8816" y1="34.286" x2="12.8816" y2="8.71892" gradientUnits="userSpaceOnUse">
<stop stop-color="#FFF100"/>
<stop offset="1" stop-color="#F05A28"/>
</linearGradient>
</defs>
</svg>
