<svg width="28" height="28" viewBox="0 0 28 28" fill="none" xmlns="http://www.w3.org/2000/svg">
<path d="M25.3062 11.5663C26.6523 11.5016 27.844 12.546 27.9603 13.8934C28.4638 20.4114 22.6059 27.701 14.1997 27.9344C12.8524 27.9719 11.7301 26.9071 11.6927 25.5562C11.6555 24.2051 12.7172 23.0797 14.0645 23.0422C19.6412 22.8873 23.1743 18.0704 22.9857 14.1278C22.9212 12.7779 23.96 11.6311 25.3062 11.5663V11.5663Z" fill="url(#paint0_linear_985_1506)"/>
<path d="M2.46623 11.4268C3.81399 11.4268 4.90648 12.5224 4.90648 13.8739C4.90648 19.5146 9.44201 23.1651 13.9721 23.0534C15.3195 23.0201 16.4385 24.0884 16.4716 25.4393C16.5049 26.7905 15.4395 27.9127 14.0922 27.9461C7.00822 28.1206 0.00170898 22.4491 0.00170898 13.8739C0.00170898 12.5224 1.11848 11.4268 2.46623 11.4268Z" fill="url(#paint1_linear_985_1506)"/>
<path d="M19.2102 14.0658C19.2102 12.6822 20.3389 11.5605 21.7311 11.5605H25.4047C26.7969 11.5605 27.9604 12.6822 27.9604 14.0658C27.9604 15.4495 26.7969 16.5711 25.4047 16.5711H21.7309C20.3389 16.5711 19.2102 15.4495 19.2102 14.0658Z" fill="url(#paint2_linear_985_1506)"/>
<path d="M11.5022 14.0695C11.5022 12.6838 12.6236 11.5605 14.0053 11.5605C15.3872 11.5605 16.5087 12.6838 16.5087 14.0695C16.5087 15.4551 15.3872 16.5784 14.0053 16.5784C12.6236 16.5784 11.5022 15.4551 11.5022 14.0695Z" fill="url(#paint3_linear_985_1506)"/>
<path d="M16.4392 2.34549C16.4951 3.69576 15.4488 4.83583 14.1022 4.89193C8.28936 5.13408 4.74066 9.70275 4.91336 14.0409C4.96717 15.3911 3.94096 16.5297 2.59429 16.5836C1.24763 16.6375 0.0634918 15.5477 0.00968223 14.1973C-0.271834 7.12798 5.61441 0.139408 13.8997 0.00214938C15.2462 -0.053957 16.3832 0.995221 16.439 2.34549H16.4392Z" fill="url(#paint4_linear_985_1506)"/>
<defs>
<linearGradient id="paint0_linear_985_1506" x1="15.1044" y1="33.7924" x2="22.6669" y2="34.7645" gradientUnits="userSpaceOnUse">
<stop stop-color="#1A7D75"/>
<stop offset="1" stop-color="#1A8864"/>
</linearGradient>
<linearGradient id="paint1_linear_985_1506" x1="0.970019" y1="13.2636" x2="-2.87004" y2="23.3602" gradientUnits="userSpaceOnUse">
<stop offset="0.01293" stop-color="#168A81"/>
<stop offset="1" stop-color="#31A97F"/>
</linearGradient>
<linearGradient id="paint2_linear_985_1506" x1="6.5836" y1="14.2378" x2="10.0233" y2="19.4533" gradientUnits="userSpaceOnUse">
<stop stop-color="#27A59B"/>
<stop offset="1" stop-color="#64D8A2"/>
</linearGradient>
<linearGradient id="paint3_linear_985_1506" x1="4.32195" y1="14.5949" x2="11.2808" y2="20.6231" gradientUnits="userSpaceOnUse">
<stop stop-color="#27A59B"/>
<stop offset="1" stop-color="#64D8A2"/>
</linearGradient>
<linearGradient id="paint4_linear_985_1506" x1="34.337" y1="-23.5383" x2="14.1215" y2="-30.3617" gradientUnits="userSpaceOnUse">
<stop stop-color="#27A59B"/>
<stop offset="1" stop-color="#64D8A2"/>
</linearGradient>
</defs>
</svg>
