<svg width="30" height="22" viewBox="0 0 30 22" fill="none" xmlns="http://www.w3.org/2000/svg">
<path d="M27.1489 3.54116V0H23.6076V0.983658H15.345V0H11.8038V0.983658H3.54116V0H0V3.54116H0.983657V7.86924H0V11.4103H0.983657V15.7384H0V19.2797H3.54116V18.2959H11.8038V19.2797H15.345V18.2959H23.6076V19.2797H27.1489V15.7384H26.1651V11.4103H27.1489V7.86924H26.1651V3.54116H27.1489ZM12.5908 0.786921H14.5581V2.75424H12.5908V0.786921ZM0.786922 2.75424V0.786921H2.75424V2.75424H0.786922ZM0.786922 10.6234V8.65616H2.75424V10.6234H0.786922ZM2.75424 18.4926H0.786922V16.5253H2.75424V18.4926ZM14.5581 18.4926H12.5908V16.5253H14.5581V18.4926ZM23.6076 16.7222H15.345V15.7384H11.8038V16.7222H3.54116V15.7384H2.5575V11.4103H3.54116V7.86924H2.5575V3.54116H3.54116V2.5575H11.8038V3.54116H15.345V2.5575H23.6076V3.54116H24.5914V7.86924H23.6076V11.4103H24.5914V15.7384H23.6076V16.7222ZM26.3619 16.5253V18.4926H24.3947V16.5253H26.3619ZM26.3619 8.65616V10.6234H24.3947V8.65616H26.3619ZM24.3947 2.75424V0.786921H26.3619V2.75424H24.3947Z" fill="url(#paint0_linear_971_1685)"/>
<path d="M13.9678 8.26172H13.1809V9.24537H12.1973V10.0323H13.1809V11.016H13.9678V10.0323H14.9515V9.24537H13.9678V8.26172Z" fill="#1960C4"/>
<path fill-rule="evenodd" clip-rule="evenodd" d="M27.74 20.3851H29.9985L26.125 16.5L27.74 20.3851Z" fill="url(#paint1_linear_971_1685)"/>
<path fill-rule="evenodd" clip-rule="evenodd" d="M26.125 16.5V22L27.74 20.3851" fill="url(#paint2_linear_971_1685)"/>
<defs>
<linearGradient id="paint0_linear_971_1685" x1="13.5744" y1="19.2797" x2="13.5744" y2="0" gradientUnits="userSpaceOnUse">
<stop stop-color="#1D40B2"/>
<stop offset="1" stop-color="#1680D6"/>
</linearGradient>
<linearGradient id="paint1_linear_971_1685" x1="26.7369" y1="18.7965" x2="29.3887" y2="18.086" gradientUnits="userSpaceOnUse">
<stop stop-color="white"/>
<stop offset="1" stop-color="#3D3E3F"/>
</linearGradient>
<linearGradient id="paint2_linear_971_1685" x1="25.4341" y1="19.4342" x2="27.3477" y2="18.9214" gradientUnits="userSpaceOnUse">
<stop stop-color="white"/>
<stop offset="1" stop-color="#3D3E3F"/>
</linearGradient>
</defs>
</svg>
