<svg width="16" height="29" viewBox="0 0 16 29" fill="none" xmlns="http://www.w3.org/2000/svg">
<path opacity="0.5" d="M8.72535 0.569841C8.71189 0.622664 8.71189 0.678019 8.72535 0.730841C8.81824 1.27713 8.80908 1.83589 8.69835 2.37884L0.441354 23.8568C0.149616 24.6191 0.172622 25.466 0.505311 26.2112C0.838001 26.9565 1.45312 27.5391 2.21535 27.8308C2.97759 28.1226 3.82449 28.0996 4.56976 27.7669C5.31503 27.4342 5.89762 26.8191 6.18935 26.0568L14.4464 4.57584C14.7462 4.11464 15.1117 3.69961 15.5314 3.34384C15.5707 3.30694 15.6065 3.26643 15.6384 3.22284V3.20984C15.6384 3.19684 15.6514 3.19684 15.6514 3.18284C15.8654 2.63384 14.4854 1.58884 12.5834 0.851841C10.6814 0.114841 8.95335 -0.0331587 8.74135 0.529841C8.73117 0.540681 8.72545 0.554968 8.72535 0.569841V0.569841Z" fill="black"/>
<path d="M8.48432 0.382615C8.47086 0.435438 8.47086 0.490793 8.48432 0.543615C8.57727 1.08989 8.56811 1.64867 8.45732 2.19162L0.203317 23.6686C-0.0884212 24.4308 -0.0654153 25.2778 0.267274 26.023C0.599964 26.7683 1.21508 27.3509 1.97732 27.6426C2.73955 27.9344 3.58645 27.9113 4.33172 27.5787C5.07699 27.246 5.65958 26.6308 5.95132 25.8686L14.2053 4.38862C14.5052 3.92709 14.8707 3.51173 15.2903 3.15562C15.3297 3.11871 15.3655 3.0782 15.3973 3.03462V3.02162C15.3973 3.00862 15.4103 3.00862 15.4103 2.99462C15.6253 2.44562 14.2413 1.39962 12.3413 0.663615C10.4413 -0.0723845 8.71032 -0.220385 8.49632 0.341615C8.49726 0.34883 8.49657 0.356162 8.49433 0.363081C8.49208 0.37 8.48832 0.376331 8.48332 0.381615L8.48432 0.382615Z" fill="url(#paint0_linear_982_1483)"/>
<path d="M11.0833 10.0997L5.12132 25.5847C4.90488 26.1258 4.48405 26.5599 3.94992 26.7931C3.41579 27.0263 2.81132 27.0398 2.26732 26.8307C1.72 26.6189 1.27606 26.2033 1.02879 25.6711C0.781515 25.1388 0.750164 24.5315 0.941323 23.9767L4.74632 14.0767C5.11157 13.5396 5.5923 13.091 6.15332 12.7637C7.09132 12.2147 7.85332 12.3347 8.88632 11.8797C9.71872 11.4196 10.4635 10.8164 11.0863 10.0977L11.0833 10.0997Z" fill="url(#paint1_linear_982_1483)"/>
<path d="M13.9743 2.5468C14.0933 2.2368 13.2384 1.6188 12.0654 1.1658C10.8924 0.712801 9.84135 0.599802 9.72635 0.906802C9.61135 1.2138 10.4624 1.8348 11.6354 2.2878C12.8084 2.7408 13.8563 2.8568 13.9743 2.5468V2.5468Z" fill="#333333"/>
<path opacity="0.3" d="M8.42831 0.542016C8.52053 1.08668 8.51137 1.64368 8.40131 2.18502L0.202314 23.6C-0.0804128 24.3558 -0.0530317 25.1928 0.278494 25.9285C0.610019 26.6642 1.21883 27.2391 1.97231 27.528C2.23501 27.6358 2.51383 27.699 2.79731 27.715C2.27248 27.3139 1.88991 26.7552 1.70563 26.1209C1.52136 25.4866 1.54508 24.8099 1.77331 24.19L9.81331 3.20002C9.09808 2.47085 8.61626 1.54515 8.42931 0.541016L8.42831 0.542016Z" fill="white"/>
<g opacity="0.5">
<path d="M5.79334 14.5972C5.92589 14.5972 6.03335 14.4897 6.03335 14.3572C6.03335 14.2246 5.92589 14.1172 5.79334 14.1172C5.6608 14.1172 5.55334 14.2246 5.55334 14.3572C5.55334 14.4897 5.6608 14.5972 5.79334 14.5972Z" fill="white"/>
<path d="M7.35033 16.4387C7.5486 16.4387 7.70933 16.278 7.70933 16.0797C7.70933 15.8814 7.5486 15.7207 7.35033 15.7207C7.15206 15.7207 6.99133 15.8814 6.99133 16.0797C6.99133 16.278 7.15206 16.4387 7.35033 16.4387Z" fill="white"/>
<path d="M4.96733 18.817C5.34233 18.817 5.64633 18.513 5.64633 18.138C5.64633 17.763 5.34233 17.459 4.96733 17.459C4.59233 17.459 4.28833 17.763 4.28833 18.138C4.28833 18.513 4.59233 18.817 4.96733 18.817Z" fill="white"/>
<path d="M3.87633 19.7532C4.0746 19.7532 4.23533 19.5924 4.23533 19.3942C4.23533 19.1959 4.0746 19.0352 3.87633 19.0352C3.67806 19.0352 3.51733 19.1959 3.51733 19.3942C3.51733 19.5924 3.67806 19.7532 3.87633 19.7532Z" fill="white"/>
<path d="M5.3003 22.3062C5.43285 22.3062 5.5403 22.1987 5.5403 22.0662C5.5403 21.9336 5.43285 21.8262 5.3003 21.8262C5.16775 21.8262 5.0603 21.9336 5.0603 22.0662C5.0603 22.1987 5.16775 22.3062 5.3003 22.3062Z" fill="white"/>
</g>
<defs>
<linearGradient id="paint0_linear_982_1483" x1="3.75512" y1="12.6233" x2="10.7732" y2="13.5964" gradientUnits="userSpaceOnUse">
<stop stop-color="#919191"/>
<stop offset="1" stop-color="white"/>
</linearGradient>
<linearGradient id="paint1_linear_982_1483" x1="3.67074" y1="17.2612" x2="7.96872" y2="17.9745" gradientUnits="userSpaceOnUse">
<stop stop-color="#990000"/>
<stop offset="1" stop-color="#E80000"/>
</linearGradient>
</defs>
</svg>
