<svg width="32" height="32" viewBox="0 0 32 32" fill="none" xmlns="http://www.w3.org/2000/svg">
<path fill-rule="evenodd" clip-rule="evenodd" d="M3.984 0C3.702 0.022 3.425 0.0180176 3.152 0.0930176C2.56488 0.245425 2.01991 0.52883 1.558 0.921997C0.852995 1.51651 0.374454 2.33587 0.203 3.242L0.339 3.47702L1.254 5.00101L2.057 6.336L2.797 7.57101L3.949 9.49301L4.735 10.804L5.881 12.713L7.283 15.055L8.497 17.079L8.551 17.157C8.61 17.176 8.657 17.16 8.705 17.148L10.305 16.766L12.902 16.146L14.257 15.822L16.881 15.195L19.534 14.559L20.875 14.238L23.471 13.62L26.298 12.946L26.451 12.905L26.409 12.822L25.638 11.732L24.875 10.653L24.061 9.50201L23.281 8.39902L22.51 7.30902L21.712 6.18201L20.931 5.08002L20.519 4.49899C20.4561 4.4102 20.4068 4.31246 20.373 4.20901C20.291 3.95601 20.384 3.788 20.532 3.664C20.6266 3.58365 20.7369 3.52404 20.856 3.48901C21.0211 3.43795 21.1886 3.39521 21.358 3.36099C21.698 3.29699 22.04 3.242 22.381 3.186L23.537 2.99701C23.781 2.95701 24.025 2.91502 24.268 2.87302L25.262 2.70599L26.227 2.54501L27.281 2.37302L28.011 2.25L28.845 2.112C29.192 2.056 29.538 1.999 29.885 1.944C30.091 1.912 30.297 1.90102 30.502 1.96002C30.656 2.00402 30.796 2.076 30.927 2.168L31.107 2.29401C31.125 2.25201 31.099 2.22999 31.087 2.20599C30.8313 1.68444 30.4684 1.22274 30.022 0.851013C29.6078 0.50254 29.1285 0.239781 28.612 0.0780029C28.306 -0.0189971 27.99 0.0260142 27.668 0.00201416L3.984 0ZM13.672 31.32C13.657 31.32 13.643 31.208 13.626 31.178C13.251 30.538 12.872 29.851 12.501 29.209C12.035 28.399 11.572 27.587 11.112 26.774C10.621 25.904 10.134 25.032 9.646 24.161L8.259 21.674L7.425 20.169L7.351 20.054L7.215 20.081L6.412 20.29C6.04 20.388 5.667 20.488 5.295 20.585L2.785 21.236C1.933 21.457 1.047 21.679 0.195 21.899C0.144 21.912 0.25 21.917 0 21.925V27.212C0.103 27.376 0.093 27.298 0.1 27.352C0.12 27.509 0.152 27.667 0.18 27.822C0.284187 28.3936 0.51256 28.9353 0.849 29.409C1.17459 29.8812 1.59504 30.2803 2.08351 30.581C2.57198 30.8816 3.11775 31.0771 3.686 31.155L3.996 31.237" fill="#FD4F31"/>
<path fill-rule="evenodd" clip-rule="evenodd" d="M0.994 19.0052L3.949 18.3032C4.381 18.2012 4.814 18.1002 5.246 17.9972C5.462 17.9452 5.679 17.8962 5.894 17.8382C6.084 17.7872 6.108 17.7232 6.01 17.5512C5.868 17.3022 5.723 17.0552 5.58 16.8062L4.314 14.6262L3.048 12.4462L1.76 10.2282L0.657 8.33024C0.497 8.05724 0.305 7.78323 0.145 7.50923C0.115 7.46023 0.25 7.40022 0 7.37422V19.2232C0 19.2152 0.113 19.2082 0.152 19.1992L0.994 19.0052ZM31.306 27.4752L30.148 27.8892L27.512 28.8342L26.048 29.3612L23.061 30.4252C22.483 30.6302 21.906 30.8842 21.329 31.0912C21.172 31.1472 21.016 31.3202 20.859 31.3202H27.482L27.624 31.2382C27.793 31.2312 27.959 31.1812 28.124 31.1512C28.7943 31.0249 29.4226 30.7334 29.952 30.3032C30.363 29.9728 30.7074 29.5673 30.967 29.1082C31.238 28.6342 31.4 28.1212 31.477 27.5832C31.484 27.5362 31.498 27.4842 31.459 27.4362C31.404 27.4312 31.356 27.4572 31.306 27.4752ZM30.737 18.5822L29.861 17.3842L28.655 15.7282C28.492 15.5042 28.327 15.2822 28.167 15.0552C28.119 14.9872 28.065 14.9692 27.99 14.9892L27.947 15.0012L25.728 15.5402L24.403 15.8612L21.81 16.4912L19.245 17.1142L16.58 17.7602L13.958 18.3972L11.422 19.0132L10.082 19.3382C10.017 19.3542 9.946 19.3582 9.876 19.4112L9.936 19.5252L11.059 21.4642C11.484 22.1952 11.909 22.9272 12.335 23.6572L13.743 26.0662C14.013 26.5282 14.28 26.9892 14.553 27.4492C14.855 27.9602 15.158 28.4702 15.466 28.9782C15.558 29.1302 15.663 29.2752 15.768 29.4182C15.839 29.5141 15.928 29.5953 16.03 29.6572C16.0804 29.689 16.1365 29.7104 16.1953 29.7202C16.254 29.73 16.3141 29.7279 16.372 29.7142C16.435 29.7002 16.496 29.6802 16.556 29.6592L16.779 29.5762L19.206 28.7472L21.102 28.1042L22.985 27.4682L24.853 26.8372L26.763 26.1912L29.108 25.3942L31.371 24.6312C31.417 24.6162 31.468 24.6092 31.506 24.5592L31.511 24.4492C31.511 22.8852 31.511 21.3212 31.513 19.7572C31.5143 19.6784 31.4885 19.6014 31.44 19.5392C31.203 19.2222 30.971 18.9012 30.737 18.5822ZM30.607 3.84825C30.432 3.62525 30.209 3.55523 29.935 3.62623C29.815 3.65823 29.693 3.67724 29.571 3.70024L28.375 3.91722C27.792 4.02322 27.209 4.13024 26.625 4.23524C26.163 4.31824 25.701 4.39924 25.238 4.48024L23.384 4.80522C23.3059 4.81668 23.2287 4.83374 23.153 4.85624C23.043 4.89124 23.012 4.95924 23.062 5.06224C23.102 5.14624 23.153 5.22623 23.208 5.30223C23.592 5.83023 23.978 6.35824 24.363 6.88524L25.956 9.06623L27.306 10.9112L28.366 12.3602L28.436 12.4442L31.504 11.6862L31.511 11.5272C31.511 9.39923 31.511 7.27123 31.513 5.14323C31.5158 5.05452 31.4863 4.96782 31.43 4.89924C31.172 4.57424 30.92 4.24424 30.664 3.91624L30.608 3.84825H30.607ZM31.433 14.1582C30.969 14.2692 30.503 14.3752 30.028 14.5012C30.078 14.5902 31.382 16.3502 31.458 16.4332L31.505 16.4602L31.51 16.3522V15.6122C31.51 15.1822 31.512 14.7522 31.51 14.3222C31.51 14.2702 31.525 14.2142 31.49 14.1612L31.433 14.1582Z" fill="#FD4F31"/>
</svg>
