<svg width="13" height="26" viewBox="0 0 13 26" fill="none" xmlns="http://www.w3.org/2000/svg">
<path d="M0.763797 7.21355C0.874798 7.21352 0.984449 7.1892 1.08505 7.14229L12.4955 1.83673C12.8777 1.659 13.0434 1.20514 12.8657 0.822989C12.6881 0.44084 12.2341 0.275084 11.852 0.452767L0.441684 5.75833C0.0594344 5.93601 -0.106322 6.38987 0.0714113 6.77207C0.200681 7.05006 0.4762 7.21355 0.763848 7.21355H0.763797ZM11.8521 3.69613L0.441684 9.00159C0.0594344 9.17927 -0.106322 9.63308 0.0714113 10.0152C0.20063 10.2933 0.476099 10.4568 0.763848 10.4568C0.871589 10.4568 0.980998 10.4339 1.0851 10.3855L12.4955 5.08004C12.8777 4.90231 13.0435 4.44845 12.8658 4.0663C12.6881 3.68415 12.2341 3.5184 11.8521 3.69608V3.69613ZM11.8521 6.96668L0.441684 12.2721C0.0594344 12.4498 -0.106322 12.9036 0.0714113 13.2858C0.20063 13.5639 0.476099 13.7274 0.763848 13.7274C0.871589 13.7274 0.980998 13.7045 1.0851 13.656L12.4955 8.35059C12.8777 8.17286 13.0435 7.719 12.8658 7.33685C12.6881 6.9547 12.2341 6.78895 11.8521 6.96663V6.96668ZM0.763797 3.97938C0.871791 3.97938 0.981504 3.95634 1.08586 3.90772L6.34594 1.45488C6.72799 1.2768 6.89314 0.822736 6.71505 0.440739C6.53686 0.058742 6.08285 -0.106357 5.70085 0.0716285L0.440775 2.52447C0.058828 2.7026 -0.106423 3.15666 0.071664 3.53861C0.201186 3.8163 0.476453 3.97938 0.763797 3.97938V3.97938ZM11.8491 10.2112L7.81551 12.1074C7.68442 12.169 7.57358 12.2667 7.49594 12.389C7.4183 12.5113 7.37707 12.6532 7.37706 12.798V16.6071H5.61459V13.7635C5.61459 13.3421 5.27297 13.0005 4.85151 13.0005C4.42999 13.0005 4.08837 13.3421 4.08837 13.7635V16.6071H2.99468C2.66994 16.6071 2.42429 16.9009 2.48185 17.2206L2.73928 18.6494C2.76093 18.7697 2.82415 18.8785 2.91789 18.9568C3.01163 19.0352 3.12993 19.0781 3.25211 19.0781H5.92958L3.09353 19.5931C2.99397 19.6111 2.90566 19.668 2.84804 19.7512C2.79042 19.8344 2.7682 19.937 2.78628 20.0366C2.80225 20.1245 2.84852 20.2039 2.91703 20.2612C2.98553 20.3185 3.07195 20.35 3.16125 20.3501C3.18394 20.3501 3.20688 20.3481 3.22993 20.3439L9.73459 19.1627C9.83182 19.1451 9.91834 19.0902 9.97575 19.0098C10.1105 18.9334 10.2092 18.7989 10.2342 18.6366L10.4549 17.2076C10.5036 16.8919 10.2594 16.6071 9.93992 16.6071H8.90328V13.2825L12.4985 11.5924C12.8799 11.4131 13.0437 10.9586 12.8644 10.5772C12.6852 10.1959 12.2307 10.0319 11.8491 10.2112H11.8491ZM9.59825 20.3562L3.09358 21.5372C2.99402 21.5553 2.90571 21.6121 2.84808 21.6953C2.79045 21.7785 2.76822 21.8811 2.78628 21.9807C2.80223 22.0686 2.84848 22.1481 2.917 22.2054C2.98551 22.2626 3.07194 22.2941 3.16125 22.2942C3.18384 22.2942 3.20683 22.2922 3.22982 22.288L9.73454 21.1069C9.78384 21.098 9.8309 21.0794 9.87302 21.0523C9.91514 21.0252 9.95151 20.99 9.98004 20.9488C10.0086 20.9077 10.0287 20.8613 10.0393 20.8123C10.0499 20.7633 10.0508 20.7127 10.0418 20.6634C10.0041 20.4562 9.80575 20.3179 9.59825 20.3562V20.3562ZM9.59825 22.3731L3.09358 23.5539C3.04428 23.5629 2.99722 23.5814 2.95509 23.6086C2.91297 23.6357 2.8766 23.6709 2.84806 23.712C2.81952 23.7532 2.79938 23.7996 2.78878 23.8486C2.77818 23.8976 2.77733 23.9482 2.78628 23.9975C2.80223 24.0853 2.84848 24.1648 2.917 24.2221C2.98551 24.2794 3.07194 24.3109 3.16125 24.311C3.18384 24.311 3.20683 24.309 3.22982 24.3047L9.73454 23.1237C9.78384 23.1148 9.8309 23.0962 9.87302 23.0691C9.91514 23.042 9.95151 23.0068 9.98004 22.9656C10.0086 22.9244 10.0287 22.878 10.0393 22.8291C10.0499 22.7801 10.0508 22.7295 10.0418 22.6802C10.0041 22.4729 9.80575 22.3347 9.59825 22.373V22.3731ZM8.82031 24.4073L3.96906 25.2432C3.87023 25.2613 3.78254 25.3177 3.72502 25.4001C3.66751 25.4825 3.64482 25.5842 3.66188 25.6832C3.67893 25.7822 3.73436 25.8705 3.81612 25.9289C3.89788 25.9873 3.99938 26.0111 4.09858 25.9951L8.94988 25.1594C9.04962 25.1422 9.13845 25.0861 9.19683 25.0034C9.25521 24.9207 9.27835 24.8183 9.26118 24.7185C9.2254 24.511 9.02841 24.3723 8.82031 24.4073V24.4073Z" fill="#E54537"/>
</svg>
