<svg width="43" height="28" viewBox="0 0 43 28" fill="none" xmlns="http://www.w3.org/2000/svg">
<path d="M41.2389 0C40.5867 0.0210856 40.787 0.20935 39.3848 0.555755C37.7995 0.719213 36.2306 1.01545 34.6948 1.44135C30.1238 3.35863 29.2065 9.91172 25.0557 12.2582C21.9486 14.0129 18.8159 14.1529 15.9979 15.0355C13.9544 15.7355 12.0675 16.8284 10.4434 18.2526C9.1406 19.3746 9.10746 20.3611 7.74594 21.7709C6.29103 23.277 1.96096 21.7965 0 24.1008C0.632567 24.7394 0.903667 24.9186 2.15525 24.753C1.8977 25.2424 0.378034 25.6566 0.674738 26.372C0.98801 27.1251 4.66292 27.6417 8.00348 25.619C9.55929 24.6792 10.7988 23.3252 13.2222 23.0029C16.7009 22.8159 20.1892 23.0822 23.5993 23.7951C22.9663 25.2251 22.1292 26.5558 21.1142 27.7456C20.8461 28.0348 21.6519 28.0664 22.5721 27.8962C24.0035 27.6162 25.3845 27.1222 26.6687 26.4308C28.2035 25.5376 28.4354 23.2468 30.318 22.7513C31.0025 23.5593 31.9659 24.0801 33.0167 24.2104C34.0676 24.3408 35.129 24.071 35.9901 23.4547C34.4373 23.0149 34.008 19.709 34.5321 18.2511C35.0292 16.8715 35.5202 14.665 36.0202 12.8426C36.5579 10.8847 36.7552 8.41615 37.4058 7.42062C38.2432 6.31061 39.2554 5.34413 40.403 4.559C40.973 4.15272 41.4325 3.61058 41.74 2.98173C42.0474 2.35289 42.1931 1.65725 42.1636 0.957888C42.1546 0.334357 41.8323 -0.0135547 41.2389 0.00602473V0Z" fill="#002B64"/>
<path d="M1.34787 26.239C3.29961 26.5767 5.30817 26.2867 7.08465 25.4107C8.73808 24.3904 10.4477 23.4642 12.2054 22.6364C15.0249 21.7328 18.1154 22.6364 21.1292 22.8187C21.8562 22.8689 22.5863 22.8578 23.3115 22.7855C24.4336 22.0957 24.411 19.5143 25.5029 19.2778C25.4337 22.1864 24.3476 24.9788 22.4334 27.1698C23.8512 26.9358 25.1899 26.3578 26.3323 25.4863C27.4748 24.6148 28.3861 23.4765 28.9865 22.171C29.3968 21.3792 29.7491 20.5588 30.0408 19.7161C30.5092 20.076 30.2441 21.1695 30.4791 21.7614C32.7383 20.5053 34.023 17.6406 34.8784 14.7429C35.8665 11.3888 36.2716 7.994 36.9102 7.00147C37.5778 6.12037 38.4119 5.3789 39.3652 4.81911C39.8968 4.5411 40.3582 4.14575 40.7143 3.663C41.0705 3.18026 41.3122 2.62278 41.421 2.03281C40.3667 1.93491 40.1167 1.68941 39.9601 1.15625C39.4786 1.41641 38.9379 1.54718 38.3907 1.53579C37.9133 1.55085 37.3876 1.53579 36.746 1.59453C31.44 2.13974 30.7653 7.98798 27.3645 11.3044C27.1135 11.5476 26.8468 11.774 26.5662 11.9822C25.3317 12.8372 23.9878 13.5221 22.5705 14.0184C20.3957 14.8498 18.3278 14.9086 16.287 15.6255C14.7874 16.1537 13.3608 16.8698 12.0413 17.7566C11.74 17.9675 11.4388 18.1828 11.1768 18.4012C10.5312 18.9545 9.9727 19.6019 9.52004 20.3215C9.05238 21.0733 8.50775 21.7745 7.89494 22.4135C6.76686 23.5205 2.55427 22.7358 1.07075 23.769C0.910989 23.8749 0.778808 24.0174 0.685181 24.1847C1.49396 24.5522 2.04068 24.3263 2.96543 24.4302C3.08743 25.3143 1.04514 25.8384 1.34636 26.2451L1.34787 26.239Z" fill="#C49A6C"/>
<path d="M34.9808 3.78918C35.1771 3.95561 35.4198 4.05758 35.676 4.08124C35.9323 4.10491 36.1896 4.04912 36.413 3.92145C36.6364 3.79379 36.8151 3.60043 36.9248 3.36767C37.0345 3.1349 37.0699 2.87401 37.0261 2.62044C35.8589 2.52254 35.1827 2.91865 34.9808 3.78918ZM40.2176 2.27252C39.8414 2.88161 39.6397 3.58236 39.6347 4.29825C39.6347 4.48199 39.4962 4.59947 39.4931 4.32385C39.4905 3.58837 39.6911 2.86647 40.073 2.23788C40.2055 1.99691 40.2914 2.09631 40.2176 2.27252ZM40.0158 2.10836C39.5368 2.7522 39.2262 3.50545 39.1121 4.29975C39.094 4.48199 38.9464 4.60097 38.969 4.31331C39.0773 3.49903 39.388 2.7249 39.8727 2.06167C40.0323 1.83876 40.1061 1.9457 40.0158 2.10836ZM39.8335 1.90503C39.2161 2.5584 38.762 3.34852 38.5081 4.21089C38.475 4.39012 38.3184 4.49103 38.3575 4.21089C38.6126 3.33004 39.0689 2.52054 39.6904 1.8463C39.8727 1.63243 39.9359 1.74539 39.8335 1.90503ZM39.6694 1.67159C38.9537 2.37934 38.3806 3.21784 37.981 4.14161C37.9223 4.31481 37.7536 4.39313 37.8379 4.12354C38.235 3.17744 38.8143 2.31871 39.5428 1.59628C39.7462 1.40651 39.7944 1.52851 39.6694 1.67309V1.67159Z" fill="#002B64"/>
</svg>
