<svg width="24" height="24" viewBox="0 0 24 24" fill="none" xmlns="http://www.w3.org/2000/svg">
<path d="M12.0817 0.000750002C7.04697 -0.0345001 2.33996 3.12601 0.636703 8.15252C-1.48805 14.4308 1.87871 21.2385 8.15172 23.3633C14.43 25.4881 21.2377 22.1213 23.3625 15.8483C25.0898 10.746 23.1907 5.29726 19.0507 2.289L19.1797 4.83601C21.2415 7.11676 22.059 10.3478 21.0307 13.3868C19.4955 17.9175 14.4375 20.301 9.72972 18.7065C5.02271 17.1128 2.44871 12.1478 3.98396 7.61252C5.01596 4.56976 7.64097 2.49151 10.68 1.94475L12.3202 0.00375001C12.2422 3.49247e-10 12.1605 0 12.078 0L12.0817 0.000750002ZM15.609 1.095C15.5662 1.0951 15.5237 1.10298 15.4837 1.11825H15.48C15.44 1.13709 15.4033 1.16215 15.3712 1.1925C15.2272 1.3335 14.715 2.02125 14.715 2.02125L13.602 3.39901L12.3007 4.98526L10.0657 7.76327C10.0657 7.76327 9.04272 9.04052 9.26997 10.614C9.49572 12.189 10.6642 12.954 11.574 13.263C12.48 13.5668 13.875 13.6688 15.012 12.5558C16.1482 11.4458 16.1092 9.80552 16.1092 9.80552L16.023 6.24676L15.9532 4.19551L15.906 2.4225C15.906 2.4225 15.9142 1.56675 15.8872 1.3635C15.8792 1.32735 15.8674 1.29216 15.852 1.2585L15.8437 1.2465L15.84 1.2345C15.8156 1.19427 15.7819 1.16052 15.7417 1.1361C15.7014 1.11169 15.6559 1.09733 15.609 1.09425V1.095Z" fill="white"/>
</svg>
