<svg width="26" height="32" viewBox="0 0 26 32" fill="none" xmlns="http://www.w3.org/2000/svg">
<path d="M1.91796 10.1296C2.97638 10.1296 3.83475 9.25843 3.83475 8.18256C3.83475 7.10669 2.97638 6.23438 1.91796 6.23438C0.859533 6.23438 0 7.10669 0 8.18256C0 9.25843 0.858369 10.1296 1.91796 10.1296ZM1.91796 15.5846C2.97638 15.5846 3.83475 14.7122 3.83475 13.6364C3.83475 12.5605 2.97638 11.6882 1.91796 11.6882C0.859533 11.6882 0 12.5605 0 13.6364C0 14.7122 0.858369 15.5846 1.91796 15.5846Z" fill="#509EE3"/>
<path opacity="0.2" d="M7.28569 10.1296C8.34411 10.1296 9.20364 9.25729 9.20364 8.18142C9.20364 7.10555 8.34527 6.23438 7.28569 6.23438C6.22727 6.23438 5.3689 7.10555 5.3689 8.18142C5.3689 9.25729 6.22727 10.1296 7.28569 10.1296Z" fill="#509EE3"/>
<path d="M7.28685 15.6376C8.34527 15.6376 9.20364 14.7653 9.20364 13.6894C9.20364 12.6135 8.34527 11.7412 7.28685 11.7412C6.22843 11.7412 5.3689 12.6135 5.3689 13.6894C5.3689 14.7653 6.22727 15.6376 7.28685 15.6376Z" fill="#509EE3"/>
<path opacity="0.2" d="M12.6545 10.1294C13.714 10.1294 14.5736 9.25826 14.5736 8.18239C14.5736 7.10652 13.714 6.23421 12.6545 6.23421C11.596 6.23421 10.7377 7.10652 10.7377 8.18239C10.7377 9.25826 11.596 10.1294 12.6556 10.1294H12.6545ZM12.6545 3.89636C13.714 3.89636 14.5736 3.02405 14.5736 1.94818C14.5736 0.872312 13.714 0 12.6545 0C11.596 0 10.7377 0.872312 10.7377 1.94818C10.7377 3.02405 11.596 3.89636 12.6556 3.89636H12.6545ZM12.6545 15.6379C13.7129 15.6379 14.5724 14.7656 14.5724 13.6897C14.5724 12.6138 13.714 11.7415 12.6545 11.7415C11.596 11.7415 10.7377 12.6138 10.7377 13.6897C10.7377 14.7656 11.596 15.6379 12.6545 15.6379ZM18.0233 10.1294C19.0818 10.1294 19.9413 9.25826 19.9413 8.18239C19.9413 7.10652 19.0829 6.23421 18.0233 6.23421C16.9649 6.23421 16.1065 7.10652 16.1065 8.18239C16.1065 9.25826 16.9649 10.1294 18.0233 10.1294Z" fill="#509EE3"/>
<path d="M23.3923 10.1296C24.4507 10.1296 25.3091 9.25729 25.3091 8.18142C25.3091 7.10555 24.4507 6.23438 23.3923 6.23438C22.3339 6.23438 21.4744 7.10555 21.4744 8.18142C21.4744 9.25729 22.3327 10.1296 23.3923 10.1296ZM18.0234 15.6369C19.0819 15.6369 19.9402 14.7646 19.9402 13.6887C19.9402 12.6128 19.0819 11.7417 18.0234 11.7417C16.965 11.7417 16.1055 12.6128 16.1055 13.6887C16.1055 14.7646 16.9638 15.6369 18.0234 15.6369ZM23.3923 15.638C24.4507 15.638 25.3103 14.7657 25.3103 13.6899C25.3103 12.614 24.4519 11.7417 23.3923 11.7417C22.3339 11.7417 21.4755 12.614 21.4755 13.6899C21.4755 14.7657 22.3339 15.638 23.3923 15.638ZM1.91796 21.0383C2.97638 21.0383 3.83475 20.1672 3.83475 19.0913C3.83475 18.0155 2.97638 17.1431 1.91796 17.1431C0.859533 17.1431 0 18.0155 0 19.0913C0 20.1672 0.858369 21.0383 1.91796 21.0383Z" fill="#509EE3"/>
<path opacity="0.2" d="M7.28685 21.0915C8.34527 21.0915 9.20364 20.2192 9.20364 19.1433C9.20364 18.0675 8.34527 17.1963 7.28685 17.1963C6.22843 17.1963 5.3689 18.0675 5.3689 19.1433C5.3689 20.2192 6.22727 21.0915 7.28685 21.0915Z" fill="#509EE3"/>
<path d="M12.6545 21.0917C13.7129 21.0917 14.5724 20.2194 14.5724 19.1435C14.5724 18.0676 13.714 17.1953 12.6545 17.1953C11.596 17.1953 10.7377 18.0676 10.7377 19.1435C10.7377 20.2194 11.596 21.0917 12.6545 21.0917Z" fill="#509EE3"/>
<path opacity="0.2" d="M18.0233 21.0917C19.0817 21.0917 19.9401 20.2194 19.9401 19.1435C19.9401 18.0676 19.0817 17.1953 18.0233 17.1953C16.9649 17.1953 16.1053 18.0676 16.1053 19.1435C16.1053 20.2194 16.9637 21.0917 18.0233 21.0917Z" fill="#509EE3"/>
<path d="M23.3923 21.0915C24.4507 21.0915 25.3103 20.2192 25.3103 19.1433C25.3103 18.0675 24.4519 17.1963 23.3923 17.1963C22.3339 17.1963 21.4755 18.0675 21.4755 19.1433C21.4755 20.2192 22.3339 21.0915 23.3923 21.0915ZM1.91796 26.493C2.97638 26.493 3.83475 25.6207 3.83475 24.5448C3.83475 23.4689 2.97638 22.5966 1.91796 22.5966C0.859533 22.5966 0 23.4689 0 24.5448C0 25.6207 0.858369 26.493 1.91796 26.493Z" fill="#509EE3"/>
<path opacity="0.2" d="M7.28685 26.5458C8.34527 26.5458 9.20364 25.6735 9.20364 24.5976C9.20364 23.5217 8.34527 22.6494 7.28685 22.6494C6.22843 22.6494 5.3689 23.5217 5.3689 24.5976C5.3689 25.6735 6.22727 26.5458 7.28685 26.5458ZM12.6546 26.5446C13.713 26.5446 14.5725 25.6735 14.5725 24.5976C14.5725 23.5217 13.7142 22.6494 12.6546 22.6494C11.5961 22.6494 10.7378 23.5217 10.7378 24.5976C10.7378 25.6735 11.5961 26.5446 12.6546 26.5446ZM12.6546 31.9996C13.713 31.9996 14.5725 31.1272 14.5725 30.0514C14.5725 28.9755 13.7142 28.1032 12.6546 28.1032C11.5961 28.1032 10.7378 28.9755 10.7378 30.0514C10.7378 31.1272 11.5961 31.9996 12.6546 31.9996ZM18.0234 26.5446C19.0819 26.5446 19.9402 25.6735 19.9402 24.5976C19.9402 23.5217 19.0819 22.6494 18.0234 22.6494C16.965 22.6494 16.1055 23.5217 16.1055 24.5976C16.1055 25.6735 16.9639 26.5446 18.0234 26.5446Z" fill="#509EE3"/>
<path d="M23.3923 26.5458C24.4507 26.5458 25.3102 25.6735 25.3102 24.5976C25.3102 23.5217 24.4507 22.6494 23.3923 22.6494C22.3338 22.6494 21.4755 23.5217 21.4755 24.5976C21.4755 25.6735 22.3338 26.5458 23.3923 26.5458Z" fill="#509EE3"/>
</svg>
