<svg width="32" height="31" viewBox="0 0 32 31" fill="none" xmlns="http://www.w3.org/2000/svg">
<path fill-rule="evenodd" clip-rule="evenodd" d="M7.64735 5.09084C7.34327 5.0899 7.04035 5.12744 6.74622 5.20252V5.2416H6.78984C7.0005 5.55097 7.23537 5.84406 7.49238 6.11828C7.66916 6.46002 7.82298 6.80063 7.99862 7.14237L8.04224 7.09882C8.20531 6.97288 8.33295 6.80882 8.41324 6.62194C8.49353 6.43505 8.52387 6.23143 8.50142 6.03005C8.40528 5.88584 8.31715 5.73672 8.23739 5.58334C8.10538 5.37003 7.81954 5.26282 7.64391 5.09195" fill="white"/>
<path fill-rule="evenodd" clip-rule="evenodd" d="M29.4527 23.7289C28.0047 23.63 26.5517 23.8341 25.1916 24.3275C24.8621 24.456 24.3363 24.456 24.2904 24.8613C24.4672 25.0322 24.4879 25.3081 24.6428 25.5459C24.9435 26.0412 25.3299 26.4821 25.785 26.8492C26.2442 27.191 26.7034 27.5316 27.1913 27.8309C28.0465 28.3457 29.0142 28.6439 29.8476 29.1565C30.332 29.4558 30.8142 29.84 31.2986 30.1616C31.5397 30.3325 31.6924 30.6083 32 30.72V30.6552C31.9096 30.4179 31.7978 30.1888 31.6659 29.9706C31.4467 29.7584 31.2263 29.5652 31.0059 29.3519C30.362 28.5236 29.5916 27.796 28.7215 27.1943C28.0178 26.723 26.4795 26.0775 26.196 25.2958L26.1512 25.2522C26.6661 25.1812 27.1736 25.0661 27.6677 24.9083C28.4138 24.7162 29.0946 24.7597 29.8625 24.5732C30.2149 24.4872 30.8521 24.2739 30.8521 24.2739V23.9389C30.4595 23.5592 30.1782 23.051 29.765 22.6926C28.6407 21.7378 27.4425 20.8686 26.1811 20.0927C25.5072 19.6694 24.6382 19.3969 23.9208 19.0362C23.6614 18.9089 23.232 18.8463 23.0748 18.6342C22.7179 18.1249 22.4192 17.5793 22.1839 17.007C21.5417 15.8041 20.9478 14.5773 20.4035 13.3294C20.0828 12.5062 19.7129 11.7018 19.2957 10.9205C17.2826 7.5908 14.3769 4.85617 10.8894 3.00923C10.0094 2.59485 9.0738 2.30311 8.11018 2.14261C7.56606 2.12027 7.02423 2.07895 6.48125 2.05885C6.13074 1.83545 5.79735 1.58762 5.48369 1.3173C4.24162 0.552306 1.05034 -1.0916 0.13658 1.08501C-0.44887 2.45977 1.00672 3.81108 1.50607 4.50907C1.92713 5.00122 2.29812 5.53195 2.61384 6.09379C2.76651 6.45339 2.81014 6.83422 2.95822 7.21057C3.27687 8.17671 3.65523 9.12323 4.09124 10.045C4.32443 10.5005 4.59307 10.9381 4.8948 11.3538C5.07043 11.5873 5.37349 11.6889 5.43892 12.0742C5.19818 12.5776 5.02977 13.1108 4.93842 13.6589C4.55896 14.8247 4.41931 16.0518 4.52745 17.2701C4.63558 18.4885 4.98938 19.6741 5.56864 20.7594C5.91302 21.2876 6.74184 22.4502 7.8496 22.0057C8.8265 21.626 8.60954 20.421 8.89193 19.3657C8.95622 19.1099 8.91374 18.9424 9.04346 18.7738V18.9792C9.04346 18.9792 9.59792 20.1642 9.87342 20.7661C10.6227 21.8706 11.5534 22.8478 12.6285 23.6586C13.0537 24.0198 13.3963 24.4638 13.6341 24.9619V25.3449H14.1243C14.114 25.1722 14.0648 25.0038 13.9801 24.8517C13.8954 24.6996 13.7772 24.5675 13.6341 24.4649C13.2321 24.0624 12.864 23.6292 12.5332 23.1694C11.6347 21.9244 10.8422 20.6101 10.1639 19.2395C9.81947 18.5694 9.52904 17.8345 9.25353 17.1656C9.12726 16.9076 9.12726 16.5179 8.91489 16.3838C8.52275 16.8352 8.18247 17.3269 7.90011 17.8502C7.55733 18.9078 7.35782 20.0044 7.30662 21.1123C7.22282 21.1346 7.26415 21.1123 7.22282 21.1547C6.54669 20.9816 6.31365 20.2703 6.05881 19.6672C5.40048 17.8072 5.33407 15.7974 5.86825 13.9001C6.01519 13.4478 6.6523 12.0228 6.39745 11.5906C6.27003 11.1785 5.84644 10.9429 5.61456 10.6179C5.31853 10.1807 5.0638 9.71831 4.85347 9.23642C4.34953 8.03476 4.09468 6.69462 3.54597 5.48403C3.24222 4.9018 2.88855 4.34554 2.48871 3.82113C2.04643 3.29729 1.65629 2.73376 1.32355 2.13814C1.21794 1.90026 1.06986 1.51162 1.2386 1.25253C1.24999 1.18056 1.28517 1.11416 1.33882 1.06338C1.39247 1.0126 1.46166 0.980204 1.53592 0.9711C1.80913 0.734341 2.59318 1.03587 2.86753 1.16542C3.60492 1.44783 4.30729 1.81009 4.96138 2.24535C5.25755 2.46201 5.9555 3.01035 5.9555 3.01035H6.16213C6.86467 3.15888 7.65445 3.05167 8.31566 3.24487C9.42897 3.60592 10.4914 4.10116 11.4782 4.71903C14.3868 6.5228 16.7512 9.04507 18.3303 12.0284C18.5943 12.5187 18.7057 12.9687 18.9468 13.4802C19.4059 14.53 19.9799 15.6021 20.4391 16.6228C20.8442 17.6327 21.368 18.5936 22.0003 19.4863C22.3286 19.933 23.6476 20.1697 24.2411 20.4043C24.7565 20.5777 25.2622 20.7772 25.7563 21.0017C26.5037 21.4485 27.2487 21.9633 27.9524 22.4536C28.3025 22.7104 29.4011 23.2442 29.4676 23.672" fill="white"/>
</svg>
