<svg width="29" height="28" viewBox="0 0 29 28" fill="none" xmlns="http://www.w3.org/2000/svg">
<path d="M16.5516 0C16.3483 0 16.1595 0.0435928 15.9853 0.10168C16.3555 0.348413 16.5588 0.675085 16.6604 1.04535C16.6677 1.09619 16.6822 1.13254 16.6895 1.18327C16.6967 1.22686 16.704 1.27045 16.704 1.31393C16.7331 1.95278 16.5371 2.03261 16.399 2.41012C16.1885 2.89656 16.2466 3.41924 16.5007 3.84023C16.5225 3.89107 16.5516 3.94916 16.5878 4C16.312 2.16328 17.8437 1.88745 18.1268 1.31393C18.1486 0.813111 17.7348 0.479082 17.4081 0.246843C17.096 0.0579774 16.8129 0 16.5516 0ZM18.86 0.413748C18.831 0.580762 18.8527 0.537169 18.8455 0.624355C18.8383 0.682442 18.8383 0.755024 18.831 0.813111C18.8165 0.871088 18.802 0.929175 18.7802 0.987263C18.7657 1.04546 18.7439 1.10344 18.7222 1.16152C18.6931 1.21961 18.6714 1.27045 18.6423 1.32843C18.6205 1.35753 18.606 1.38663 18.5842 1.41561L18.5407 1.48095C18.5044 1.53179 18.4681 1.58263 18.4318 1.62611C18.3882 1.6697 18.3519 1.72054 18.3011 1.75678V1.76403C18.2575 1.80037 18.214 1.84397 18.1632 1.8802C18.0108 1.99638 17.8365 2.08345 17.6767 2.19238C17.626 2.22862 17.5752 2.25771 17.5316 2.30131C17.4807 2.33754 17.4371 2.37378 17.3937 2.41748C17.3428 2.46096 17.3066 2.50456 17.263 2.5554C17.2267 2.59888 17.1832 2.64983 17.1541 2.70056C17.1178 2.7514 17.0816 2.80213 17.0525 2.85297C17.0234 2.91117 17.0016 2.9619 16.9725 3.01987C16.9508 3.07807 16.9291 3.12891 16.9146 3.18689C16.8927 3.25222 16.8782 3.31031 16.8637 3.3684C16.8565 3.3975 16.8565 3.43373 16.8492 3.46283C16.8419 3.49182 16.8419 3.52092 16.8347 3.54991C16.8347 3.60799 16.8274 3.67333 16.8274 3.73142C16.8274 3.77501 16.8274 3.81849 16.8347 3.86208C16.8347 3.92017 16.842 3.97826 16.8565 4.04359C16.8637 4.10168 16.8782 4.15966 16.8927 4.21774C16.9146 4.27594 16.9291 4.33392 16.9509 4.39201C16.9653 4.42824 16.9872 4.46459 17.0016 4.49369L15.3321 3.84759C15.0532 3.76818 14.7724 3.69554 14.49 3.62974L14.0326 3.52092C13.597 3.43373 13.1542 3.3684 12.7114 3.32491C12.6969 3.32491 12.6896 3.31756 12.6752 3.31756C12.2434 3.27407 11.8096 3.25226 11.3756 3.25222C11.0562 3.25222 10.7368 3.26672 10.4247 3.28846C9.98177 3.31756 9.53904 3.37565 9.09608 3.44823C8.98726 3.46283 8.87834 3.48457 8.76952 3.50642C8.54442 3.54991 8.32667 3.60075 8.11617 3.65159L7.78939 3.73866C7.68058 3.78226 7.5789 3.8331 7.47733 3.87658L7.23773 3.98551C7.22324 3.99275 7.20863 3.99275 7.20149 4C7.1288 4.03624 7.06347 4.06533 6.99813 4.10157C6.98064 4.10751 6.96364 4.11482 6.94729 4.12342C6.86746 4.15966 6.78764 4.20325 6.7223 4.2396C6.67146 4.26134 6.62062 4.29033 6.57714 4.31207C6.55607 4.32542 6.53426 4.33755 6.5118 4.34841C6.44647 4.38465 6.38114 4.42099 6.32294 4.45734C6.26288 4.49034 6.20474 4.52671 6.14879 4.56627C6.09795 4.6025 6.04722 4.6316 6.00362 4.66784C5.99638 4.67508 5.98913 4.67508 5.98177 4.68233C5.93829 4.71143 5.88745 4.74767 5.84386 4.78401L5.82936 4.79851L5.72054 4.88558C5.70594 4.89294 5.69145 4.90743 5.67695 4.91468C5.64072 4.94367 5.60437 4.98002 5.56802 5.00911C5.56078 5.0235 5.54628 5.03086 5.53904 5.0381C5.49544 5.0817 5.45185 5.11793 5.40837 5.16152C5.40101 5.16152 5.40101 5.16877 5.39387 5.17602C5.35028 5.21225 5.30669 5.25585 5.2632 5.29944C5.25585 5.30669 5.25585 5.31393 5.2486 5.31393C5.21236 5.35017 5.17613 5.38652 5.13978 5.43011C5.12529 5.4446 5.10355 5.4591 5.08894 5.47359C5.05271 5.51718 5.00911 5.56078 4.96552 5.60426C4.95827 5.61886 4.94378 5.62611 4.93642 5.64061C4.87845 5.69869 4.82761 5.75678 4.76952 5.81487L4.74778 5.83661C4.6316 5.96003 4.50818 6.08345 4.37751 6.19238C4.24879 6.30725 4.11298 6.41393 3.9709 6.5118C3.83014 6.61052 3.68482 6.70256 3.53541 6.78764C3.38725 6.86889 3.23455 6.94159 3.07807 7.00538C2.92364 7.07101 2.76615 7.12916 2.60613 7.17964C2.30131 7.24498 1.98902 7.3684 1.72054 7.39014C1.66235 7.39014 1.59712 7.40463 1.53904 7.41188C1.47835 7.42564 1.41784 7.44017 1.35753 7.45547L1.18327 7.52081C1.12518 7.54255 1.0672 7.57165 1.00911 7.60064C0.958274 7.63687 0.900187 7.66597 0.849347 7.70232C0.798507 7.73855 0.747776 7.78215 0.704184 7.82574C0.653344 7.86197 0.602504 7.91281 0.559021 7.95641C0.515428 8.00725 0.471835 8.05084 0.435599 8.10157C0.399363 8.15966 0.35577 8.2105 0.326672 8.26848C0.290436 8.31942 0.25409 8.3774 0.224992 8.43549C0.196003 8.50082 0.167014 8.55891 0.145163 8.62435C0.122265 8.68684 0.100483 8.74974 0.0798287 8.813C0.0653344 8.87109 0.05084 8.92918 0.0435928 8.98726C0.0435928 8.99451 0.0362359 9.00176 0.0362359 9.009C0.0217415 9.07434 0.0217415 9.16152 0.0144943 9.20501C0.00724717 9.25585 0 9.29944 0 9.35017C0 9.37927 0 9.4155 0.00724717 9.4446C0.0144943 9.49544 0.0217415 9.53904 0.0363457 9.58252C0.05084 9.62611 0.0653344 9.66959 0.0871857 9.71319V9.72044C0.108927 9.76403 0.137916 9.80762 0.167014 9.8511C0.196003 9.8947 0.225102 9.93829 0.261447 9.98177C0.297683 10.018 0.341166 10.0617 0.384759 10.0979C0.428352 10.1415 0.471945 10.1778 0.522675 10.2141C0.696936 10.3665 0.740529 10.4174 0.965521 10.5335C1.00176 10.5553 1.0381 10.5698 1.0817 10.5916C1.08894 10.5916 1.09619 10.5989 1.10344 10.5989C1.10344 10.6134 1.10344 10.6206 1.11079 10.6351C1.11804 10.6933 1.13254 10.7513 1.14703 10.8094C1.16152 10.8747 1.18327 10.9328 1.20512 10.9836C1.22686 11.0272 1.24135 11.0707 1.2632 11.1143C1.27045 11.1288 1.2777 11.1434 1.28495 11.1505C1.31404 11.2087 1.34314 11.2595 1.37213 11.3103L1.48095 11.4627C1.51718 11.5063 1.56078 11.5572 1.60437 11.6007C1.64796 11.6442 1.69156 11.6806 1.74229 11.7241C1.74229 11.7241 1.74964 11.7314 1.75678 11.7314C1.80037 11.7677 1.84397 11.8039 1.88745 11.833C1.93829 11.8692 1.98913 11.8983 2.04722 11.9274C2.09806 11.9564 2.15614 11.9855 2.21412 12.0072C2.25771 12.029 2.30855 12.0435 2.35939 12.0581C2.36664 12.0653 2.37389 12.0653 2.38838 12.0726C2.41748 12.0798 2.45372 12.0871 2.48282 12.0943C2.46096 12.4863 2.45372 12.8566 2.5118 12.9873C2.57714 13.1324 2.89656 12.6897 3.21599 12.1815C3.1725 12.6823 3.14352 13.2703 3.21599 13.4446C3.29582 13.6261 3.73142 13.0598 4.10893 12.4355C9.25596 11.245 13.9528 14.8021 14.4465 19.8257C14.352 19.0417 13.3866 18.6061 12.9438 18.7151C12.7259 19.2522 12.3558 19.9419 11.7605 20.3702C11.8112 19.8911 11.7895 19.3974 11.6878 18.9183C11.5282 19.5861 11.216 20.2105 10.7876 20.7477C10.0981 20.7985 9.40848 20.4646 9.04535 19.9637C9.01636 19.9419 9.00911 19.8983 8.98737 19.8692C8.96552 19.8185 8.94378 19.7677 8.92918 19.7168C8.90803 19.6681 8.89341 19.6169 8.88569 19.5644C8.87844 19.5136 8.87845 19.4627 8.87845 19.4046V19.2958C8.88569 19.245 8.90019 19.1941 8.91468 19.1433C8.92917 19.0926 8.94378 19.0417 8.96552 18.9909C8.99462 18.94 9.01636 18.8892 9.0526 18.8385C9.17602 18.49 9.17602 18.2069 8.95103 18.0399C8.90744 18.0114 8.86126 17.9871 8.81311 17.9674C8.78401 17.96 8.74778 17.9454 8.71868 17.9383C8.69694 17.9309 8.68244 17.9237 8.66059 17.9164C8.60986 17.9019 8.55902 17.8874 8.50818 17.8802C8.45864 17.8658 8.40734 17.8585 8.35577 17.8584C8.30493 17.8511 8.24684 17.8439 8.196 17.8439C8.15977 17.8439 8.12353 17.8511 8.08708 17.8511C8.0291 17.8511 7.97826 17.8585 7.92742 17.873C7.87658 17.8802 7.82574 17.8874 7.77501 17.9019C7.72417 17.9164 7.67333 17.931 7.62249 17.9528C7.57176 17.9745 7.52806 17.9964 7.47733 18.0181C7.43373 18.0399 7.39025 18.069 7.33941 18.0907C5.64796 19.1942 6.65697 21.7785 7.81124 22.5263C7.37565 22.6061 6.9328 22.7006 6.80949 22.7949L6.79499 22.8094C7.10706 22.9982 7.43373 23.1579 7.77501 23.2958C8.2396 23.4482 8.73328 23.5861 8.95103 23.6442V23.6515C9.55248 23.7748 10.1675 23.8187 10.7804 23.7821C13.9964 23.557 16.6316 21.1107 17.1107 17.8874C17.1252 17.9528 17.1398 18.0109 17.1543 18.0762C17.176 18.2069 17.2051 18.3448 17.2196 18.4827V18.4901C17.2341 18.5554 17.2414 18.6207 17.2487 18.6788V18.7078C17.256 18.7731 17.2632 18.8385 17.2632 18.8966C17.2704 18.9764 17.2777 19.0562 17.2777 19.1362V19.2522C17.2777 19.2886 17.2849 19.3322 17.2849 19.3684C17.2849 19.412 17.2777 19.4556 17.2777 19.4991V19.6007C17.2777 19.6516 17.2705 19.6952 17.2705 19.7459C17.2705 19.775 17.2705 19.804 17.2631 19.8403C17.2631 19.8911 17.2558 19.9419 17.2558 20C17.2486 20.0217 17.2486 20.0436 17.2486 20.0653C17.2414 20.1234 17.2341 20.1743 17.2267 20.2322C17.2267 20.2541 17.2267 20.2758 17.2195 20.2977C17.2123 20.3702 17.1978 20.4356 17.1905 20.5082V20.5227C17.176 20.588 17.1614 20.6607 17.1469 20.726V20.7478L17.1033 20.9438C17.1033 20.951 17.0961 20.9655 17.0961 20.9728C17.0816 21.0381 17.0671 21.1034 17.0452 21.1689V21.1906C17.0235 21.2632 17.0018 21.3285 16.9873 21.3939C16.9799 21.4011 16.9799 21.4084 16.9799 21.4084L16.9146 21.6261C16.8856 21.6988 16.8638 21.7641 16.8347 21.8367C16.8058 21.9092 16.7839 21.9819 16.7549 22.0472C16.7258 22.1198 16.6967 22.1851 16.6678 22.2577H16.6605C16.6315 22.323 16.6024 22.3956 16.566 22.461C16.5601 22.4785 16.5529 22.4955 16.5443 22.5118C16.5371 22.5192 16.5371 22.5263 16.5298 22.5337C16.058 23.4846 15.361 24.3194 14.49 24.9728C14.4318 25.009 14.3738 25.0527 14.3157 25.0962C14.3012 25.1107 14.2795 25.118 14.2648 25.1324C14.214 25.1688 14.1633 25.2051 14.1052 25.2414L14.1269 25.2849H14.1342L14.4391 25.2414H14.4464C14.6352 25.2124 14.8239 25.176 15.0126 25.1398C15.0635 25.1325 15.1216 25.118 15.1723 25.1035C15.2086 25.0962 15.2376 25.0889 15.274 25.0817C15.3248 25.0744 15.3756 25.06 15.4264 25.0526C15.47 25.0381 15.5136 25.0309 15.557 25.0164C16.2831 24.8421 16.9873 24.6025 17.6623 24.3194C16.5081 25.8947 14.9618 27.1651 13.1542 28C13.989 27.9419 14.8239 27.804 15.6297 27.5718C18.5553 26.7078 21.0163 24.7405 22.49 22.0908C22.1908 23.7716 21.5239 25.3656 20.5371 26.7586C21.2406 26.2946 21.8907 25.7541 22.4753 25.147C24.1016 23.4483 25.1687 21.2922 25.5317 18.9764C25.7793 20.1253 25.8503 21.3053 25.7422 22.4756C30.9835 15.1651 26.1778 7.58625 24.1669 5.58988C24.1595 5.57538 24.1524 5.56813 24.1524 5.55364C24.1451 5.56089 24.1451 5.56089 24.1451 5.56813C24.1451 5.56078 24.1451 5.56078 24.1378 5.55364C24.1378 5.64072 24.1306 5.72779 24.1233 5.81498C24.1016 5.98188 24.0797 6.14165 24.0507 6.30142C24.0145 6.46107 23.9709 6.62073 23.9273 6.7805C23.8756 6.93765 23.8175 7.0926 23.753 7.24498C23.6863 7.39544 23.6137 7.54321 23.5353 7.68793C23.4555 7.82585 23.3684 7.97101 23.274 8.10168C23.1806 8.23669 23.0813 8.36748 22.9764 8.49369C22.8674 8.62435 22.7513 8.74053 22.6351 8.8567C22.5668 8.91924 22.4966 8.97973 22.4246 9.0381C22.3664 9.08894 22.3157 9.13254 22.2576 9.18338C22.1269 9.28495 21.9963 9.37938 21.8511 9.46645C21.7132 9.55353 21.5679 9.64072 21.4229 9.7133C21.2702 9.78588 21.1178 9.85121 20.9654 9.91655C20.8107 9.97495 20.6532 10.0258 20.4936 10.069C20.3331 10.1122 20.1708 10.1485 20.0071 10.1779C19.8402 10.207 19.6733 10.2215 19.5136 10.236C19.3974 10.2432 19.2812 10.2505 19.165 10.2505C18.9981 10.2505 18.8311 10.236 18.6715 10.2215C18.5044 10.2069 18.3374 10.1851 18.1778 10.1488C18.0109 10.1198 17.8511 10.0763 17.6913 10.0255H17.6841C17.8439 10.0109 18.0036 9.99638 18.1633 9.96728C18.3271 9.93871 18.4894 9.9024 18.6497 9.85846C18.8093 9.81532 18.9668 9.76445 19.1214 9.70605C19.2812 9.64785 19.4336 9.57538 19.5789 9.50269C19.7313 9.43022 19.8692 9.35028 20.0144 9.2632C20.1523 9.16877 20.2903 9.07434 20.421 8.97277C20.551 8.87166 20.6747 8.76256 20.7911 8.6461C20.9146 8.53717 21.0235 8.41386 21.1324 8.29033C21.2385 8.16321 21.3402 8.03247 21.4372 7.89832C21.4517 7.87658 21.4663 7.84759 21.4808 7.82585C21.5534 7.70967 21.626 7.5935 21.6913 7.47733C21.7712 7.33338 21.8439 7.18559 21.9092 7.03448C21.9748 6.88258 22.0329 6.72757 22.0833 6.57C22.1342 6.41737 22.1705 6.25771 22.2068 6.09806C22.2359 5.93115 22.265 5.77138 22.2793 5.61162C22.2938 5.44471 22.3084 5.27781 22.3084 5.11804C22.3084 5.00187 22.3012 4.88569 22.2939 4.76952C22.2795 4.60261 22.2577 4.44285 22.2358 4.28308C22.2072 4.11934 22.1709 3.95705 22.127 3.79675C22.0761 3.64434 22.0254 3.48457 21.9673 3.33216C21.9091 3.17975 21.8366 3.02723 21.764 2.88207C21.6841 2.73691 21.6043 2.59163 21.5172 2.45383C21.4245 2.31775 21.3276 2.18457 21.2267 2.05446C21.1175 1.92924 21.0061 1.80581 20.8928 1.6842C20.8317 1.62193 20.7687 1.56144 20.7041 1.5028C20.3788 1.2502 20.0421 1.01277 19.695 0.791259C19.6481 0.764217 19.5996 0.740017 19.5498 0.718788C19.3103 0.566268 19.0853 0.486439 18.8602 0.413857L18.86 0.413748Z" fill="#E0234E"/>
</svg>
