<svg width="31" height="14" viewBox="0 0 31 14" fill="none" xmlns="http://www.w3.org/2000/svg">
<path d="M15.3958 0C12.194 0 9.50144 2.19693 8.68011 5.14409C7.96542 3.56772 6.38329 2.44669 4.54851 2.44669C3.34368 2.45425 2.19041 2.93656 1.3389 3.78897C0.487385 4.64139 0.00629762 5.79516 0 7C0.00604797 8.20492 0.487055 9.35884 1.33862 10.2113C2.19019 11.0638 3.3436 11.546 4.54851 11.5533C6.38425 11.5533 7.96061 10.4323 8.68011 8.8511C9.50144 11.8031 12.1931 14 15.3958 14C18.5773 14 21.2546 11.829 22.0941 8.90106C22.8194 10.4524 24.3756 11.5533 26.1864 11.5533C27.392 11.547 28.5465 11.0653 29.3991 10.2127C30.2516 9.36016 30.7334 8.20567 30.7397 7C30.7334 5.79433 30.2516 4.63984 29.3991 3.78729C28.5465 2.93474 27.392 2.45299 26.1864 2.44669C24.3756 2.44669 22.8194 3.54851 22.0893 5.09894C21.2546 2.17099 18.5773 0 15.3958 0ZM15.3958 2.67243C17.7973 2.67243 19.7185 4.59366 19.7185 7C19.7185 9.40634 17.7973 11.3276 15.3958 11.3276C14.8268 11.3301 14.2629 11.2199 13.7367 11.0033C13.2105 10.7868 12.7324 10.4681 12.33 10.0657C11.9277 9.66336 11.609 9.18529 11.3924 8.65909C11.1759 8.1329 11.0657 7.56902 11.0682 7C11.0682 4.59366 12.9894 2.67243 15.3958 2.67243ZM4.54851 5.11816C5.60423 5.11816 6.43036 5.94428 6.43036 7C6.43036 8.05571 5.60423 8.88184 4.54851 8.88184C4.30101 8.88416 4.05553 8.83703 3.82649 8.74321C3.59745 8.64939 3.38945 8.51077 3.2147 8.33548C3.03995 8.16019 2.90197 7.95177 2.80885 7.72244C2.71573 7.49311 2.66935 7.24749 2.67243 7C2.67243 5.94428 3.4976 5.11816 4.54851 5.11816ZM26.1864 5.11816C27.243 5.11816 28.0682 5.94428 28.0682 7C28.0682 8.05571 27.243 8.88184 26.1864 8.88184C25.939 8.88351 25.6939 8.83594 25.4651 8.74188C25.2364 8.64783 25.0286 8.50918 24.854 8.33403C24.6794 8.15887 24.5414 7.95071 24.448 7.72168C24.3547 7.49264 24.3078 7.24732 24.3103 7C24.3103 5.94428 25.1364 5.11816 26.1864 5.11816Z" fill="#3880C3"/>
</svg>
