<svg width="25" height="28" viewBox="0 0 25 28" fill="none" xmlns="http://www.w3.org/2000/svg">
<path d="M12.2066 0H12.2716C12.6047 0.158663 12.9292 0.334912 13.2436 0.528L24.1016 6.774C24.2416 6.84874 24.356 6.96383 24.4298 7.10434C24.5036 7.24484 24.5335 7.40429 24.5156 7.562C24.5076 11.951 24.5156 16.339 24.5106 20.726C24.4635 20.9354 24.3356 21.1176 24.1546 21.233C20.306 23.449 16.457 25.6637 12.6076 27.877C12.5143 27.9481 12.4019 27.9896 12.2848 27.9962C12.1677 28.0028 12.0513 27.9742 11.9506 27.914C8.09729 25.7047 4.24762 23.4913 0.401625 21.274C0.276632 21.2149 0.171939 21.1201 0.100752 21.0016C0.0295654 20.8831 -0.00492724 20.7461 0.00162474 20.608V7.445C-0.00780643 7.3075 0.023977 7.17031 0.0929128 7.05096C0.161849 6.93162 0.264805 6.83553 0.388625 6.775C4.00329 4.69633 7.61796 2.61633 11.2326 0.535C11.5546 0.351 11.8706 0.156 12.2066 0" fill="url(#paint0_linear_986_1519)"/>
<path d="M5.02567 8.53758V19.3966C5.02105 19.597 5.05643 19.7964 5.12975 19.9831C5.20306 20.1697 5.31284 20.3399 5.45267 20.4836C5.72069 20.7483 6.07138 20.9132 6.44626 20.9507C6.82113 20.9882 7.19753 20.896 7.51267 20.6896C7.72362 20.5462 7.89631 20.3535 8.0157 20.1281C8.1351 19.9028 8.19757 19.6516 8.19767 19.3966C8.19767 16.7766 8.19267 14.1566 8.19767 11.5366C10.5863 14.3966 12.98 17.2526 15.3787 20.1046C15.7119 20.4422 16.1246 20.6907 16.5789 20.8273C17.0332 20.964 17.5145 20.9843 17.9787 20.8866C18.3064 20.822 18.6049 20.654 18.8301 20.4072C19.0552 20.1604 19.1953 19.8479 19.2297 19.5156C19.235 15.8216 19.235 12.1279 19.2297 8.43458C19.1952 8.04034 19.0143 7.67332 18.7225 7.40594C18.4308 7.13856 18.0494 6.99023 17.6537 6.99023C17.2579 6.99023 16.8766 7.13856 16.5848 7.40594C16.293 7.67332 16.1121 8.04034 16.0777 8.43458C16.0777 11.0966 16.0617 13.7556 16.0777 16.4166C13.7317 13.6506 11.4147 10.8606 9.07767 8.08458C8.76957 7.68951 8.36167 7.38375 7.89604 7.19883C7.4304 7.01392 6.92387 6.95653 6.42867 7.03258C6.05353 7.07434 5.70577 7.2491 5.44838 7.52519C5.191 7.80128 5.04104 8.16044 5.02567 8.53758V8.53758Z" fill="white"/>
<defs>
<linearGradient id="paint0_linear_986_1519" x1="12.2603" y1="0" x2="12.2603" y2="27.9971" gradientUnits="userSpaceOnUse">
<stop stop-color="#019639"/>
<stop offset="1" stop-color="#00732B"/>
</linearGradient>
</defs>
</svg>
