<svg width="29" height="32" viewBox="0 0 29 32" fill="none" xmlns="http://www.w3.org/2000/svg">
<g clip-path="url(#clip0_988_1530)">
<path d="M14.175 31.9406C13.7349 31.9406 13.3241 31.8232 12.9426 31.6178L9.03986 29.2997C8.453 28.9769 8.74643 28.8595 8.92249 28.8008C9.71473 28.5367 9.86145 28.4781 10.683 28.0085C10.7712 27.9498 10.8885 27.9791 10.9765 28.0378L13.9696 29.8278C14.087 29.8865 14.2337 29.8865 14.3217 29.8278L26.03 23.0495C26.1473 22.9908 26.206 22.8734 26.206 22.7267V9.19911C26.206 9.0524 26.1473 8.93503 26.03 8.87635L14.3217 2.12722C14.2044 2.06854 14.0577 2.06854 13.9696 2.12722L2.26139 8.87646C2.14402 8.93514 2.08534 9.08185 2.08534 9.19922V22.7267C2.08534 22.8441 2.14402 22.9908 2.26139 23.0495L5.45995 24.898C7.19127 25.7783 8.27684 24.7513 8.27684 23.7243V10.3728C8.27684 10.1968 8.42366 10.0207 8.62906 10.0207H10.1256C10.3017 10.0207 10.4778 10.1674 10.4778 10.3728V23.7242C10.4778 26.0424 9.21591 27.3922 7.01511 27.3922C6.34023 27.3922 5.81206 27.3922 4.31559 26.6586L1.2344 24.898C0.471495 24.4578 0.00201416 23.6362 0.00201416 22.7559V9.22857C0.00201416 8.34829 0.471495 7.5267 1.2344 7.08645L12.9426 0.308097C13.6762 -0.102699 14.6738 -0.102699 15.4074 0.308097L27.1156 7.08645C27.8786 7.52659 28.348 8.34818 28.348 9.22857V22.756C28.348 23.6363 27.8786 24.4579 27.1156 24.898L15.4074 31.6766C15.026 31.8527 14.5858 31.9407 14.175 31.9407V31.9406ZM17.7843 22.6386C12.6491 22.6386 11.5928 20.2912 11.5928 18.2958C11.5928 18.1197 11.7395 17.9436 11.9449 17.9436H13.4707C13.6467 17.9436 13.7936 18.061 13.7936 18.2371C14.0283 19.7922 14.7032 20.5552 17.8136 20.5552C20.2785 20.5552 21.3349 19.9977 21.3349 18.6773C21.3349 17.9143 21.0415 17.3568 17.1974 16.9752C13.999 16.6525 12.0036 15.9482 12.0036 13.3954C12.0036 11.0185 13.9989 9.61002 17.3441 9.61002C21.1001 9.61002 22.9488 10.9011 23.1835 13.7181C23.1835 13.8061 23.1542 13.8941 23.0955 13.9822C23.0368 14.0409 22.9488 14.0995 22.8608 14.0995H21.3349C21.1881 14.0995 21.0415 13.9822 21.0121 13.8355C20.66 12.2216 19.7503 11.6935 17.3441 11.6935C14.6446 11.6935 14.3217 12.6324 14.3217 13.3366C14.3217 14.1877 14.7032 14.4517 18.3418 14.9211C21.9511 15.3906 23.653 16.0656 23.653 18.5892C23.6237 21.1714 21.511 22.6386 17.7843 22.6386V22.6386Z" fill="#539E43"/>
</g>
<defs>
<clipPath id="clip0_988_1530">
<rect width="28.35" height="32" fill="white"/>
</clipPath>
</defs>
</svg>
