<svg width="51" height="16" viewBox="0 0 51 16" fill="none" xmlns="http://www.w3.org/2000/svg">
<path fill-rule="evenodd" clip-rule="evenodd" d="M44.232 16.0004C45.4339 16.0015 46.6091 15.6462 47.6091 14.9794C48.609 14.3126 49.3888 13.3642 49.8497 12.2542C50.3107 11.1443 50.4322 9.92251 50.1988 8.7435C49.9654 7.56448 49.3876 6.48116 48.5385 5.63051C47.6894 4.77986 46.6072 4.2001 45.4286 3.96454C44.25 3.72898 43.028 3.8482 41.9172 4.30712C40.8064 4.76604 39.8566 5.54405 39.1879 6.54278C38.5193 7.5415 38.1618 8.71607 38.1607 9.91796C38.16 10.716 38.3164 11.5063 38.6211 12.2439C38.9259 12.9815 39.3729 13.6518 39.9366 14.2166C40.5004 14.7814 41.1699 15.2296 41.9069 15.5357C42.6439 15.8418 43.434 15.9997 44.232 16.0004ZM44.232 13.5071C44.9407 13.5082 45.6339 13.2991 46.2238 12.9062C46.8137 12.5134 47.2739 11.9544 47.5462 11.3001C47.8184 10.6457 47.8905 9.92527 47.7533 9.22993C47.6161 8.53458 47.2758 7.89553 46.7754 7.39359C46.2751 6.89164 45.6371 6.54935 44.9422 6.41C44.2472 6.27064 43.5266 6.34048 42.8714 6.61069C42.2162 6.88089 41.6558 7.33933 41.2611 7.92801C40.8664 8.5167 40.6552 9.20921 40.6541 9.91796C40.6533 10.3886 40.7453 10.8547 40.9247 11.2897C41.1041 11.7248 41.3675 12.1202 41.6997 12.4535C42.0319 12.7868 42.4266 13.0514 42.8611 13.2321C43.2956 13.4129 43.7614 13.5063 44.232 13.5071Z" fill="white"/>
<path fill-rule="evenodd" clip-rule="evenodd" d="M31.3571 16.0004C32.559 16.0015 33.7342 15.6462 34.7342 14.9794C35.7341 14.3126 36.5139 13.3642 36.9748 12.2542C37.4358 11.1443 37.5573 9.92251 37.3239 8.7435C37.0905 7.56448 36.5127 6.48116 35.6636 5.63051C34.8146 4.77986 33.7323 4.2001 32.5537 3.96454C31.3751 3.72898 30.1532 3.8482 29.0423 4.30712C27.9315 4.76604 26.9817 5.54405 26.3131 6.54278C25.6444 7.5415 25.2869 8.71607 25.2858 9.91796C25.2843 11.5287 25.9224 13.0741 27.0598 14.2146C28.1972 15.3551 29.7408 15.9975 31.3515 16.0004H31.3571ZM31.3571 13.5071C32.0659 13.5082 32.759 13.2991 33.3489 12.9062C33.9389 12.5134 34.399 11.9544 34.6713 11.3001C34.9435 10.6457 35.0156 9.92527 34.8784 9.22993C34.7412 8.53458 34.4009 7.89553 33.9006 7.39359C33.4002 6.89164 32.7622 6.54935 32.0673 6.41C31.3724 6.27064 30.6517 6.34048 29.9965 6.61069C29.3413 6.88089 28.7809 7.33933 28.3862 7.92801C27.9915 8.5167 27.7803 9.20921 27.7792 9.91796C27.7785 10.3886 27.8704 10.8547 28.0498 11.2897C28.2292 11.7248 28.4926 12.1202 28.8248 12.4535C29.1571 12.7868 29.5517 13.0514 29.9862 13.2321C30.4207 13.4129 30.8865 13.5063 31.3571 13.5071Z" fill="white"/>
<path fill-rule="evenodd" clip-rule="evenodd" d="M24.738 9.87841V9.92313C24.738 11.2915 24.2757 12.6198 23.4261 13.6925C22.5765 14.7652 21.3895 15.5195 20.0575 15.8329C18.7255 16.1464 17.3266 16.0007 16.0878 15.4194C14.849 14.8382 13.8429 13.8555 13.2326 12.6307C12.6223 11.406 12.4437 10.0109 12.7257 8.67192C13.0077 7.3329 13.7338 6.12842 14.7862 5.2538C15.8386 4.37919 17.1556 3.88575 18.5236 3.85351C19.8916 3.82126 21.2304 4.25211 22.3229 5.07617V1.20755C22.3229 0.887286 22.4501 0.580141 22.6765 0.353682C22.903 0.127223 23.2102 0 23.5304 0C23.8507 0 24.1578 0.127223 24.3843 0.353682C24.6107 0.580141 24.738 0.887286 24.738 1.20755V9.87841ZM18.6611 13.5066C19.3698 13.5099 20.0636 13.303 20.6548 12.912C21.2459 12.521 21.7078 11.9635 21.9821 11.31C22.2564 10.6565 22.3307 9.93628 22.1957 9.24051C22.0607 8.54474 21.7224 7.90463 21.2236 7.40113C20.7248 6.89763 20.0879 6.55335 19.3934 6.41183C18.6989 6.27031 17.9781 6.3379 17.322 6.60605C16.6659 6.87421 16.1041 7.33088 15.7076 7.91833C15.3111 8.50578 15.0977 9.19762 15.0944 9.90636C15.0921 10.377 15.1827 10.8434 15.3607 11.279C15.5388 11.7146 15.8009 12.1109 16.1321 12.4452C16.4633 12.7795 16.8571 13.0453 17.291 13.2275C17.7249 13.4096 18.1905 13.5044 18.6611 13.5066Z" fill="white"/>
<path fill-rule="evenodd" clip-rule="evenodd" d="M6.07687 15.9887C7.27876 15.9887 8.45366 15.6323 9.453 14.9646C10.4523 14.2968 11.2312 13.3478 11.6912 12.2374C12.1511 11.1269 12.2715 9.90509 12.037 8.72629C11.8025 7.5475 11.2237 6.4647 10.3739 5.61484C9.524 4.76497 8.44121 4.18621 7.26241 3.95173C6.08361 3.71725 4.86175 3.83759 3.75135 4.29754C2.64095 4.75748 1.69187 5.53637 1.02414 6.53571C0.356402 7.53504 0 8.70994 0 9.91183C0 11.5235 0.64024 13.0692 1.77987 14.2088C2.91951 15.3485 4.46518 15.9887 6.07687 15.9887ZM6.02096 13.5177C6.73066 13.5177 7.42438 13.3069 8.01416 12.9122C8.60394 12.5174 9.06322 11.9564 9.33378 11.3003C9.60434 10.6442 9.67398 9.92256 9.53389 9.22682C9.3938 8.53109 9.05028 7.89261 8.54687 7.39235C8.04347 6.89209 7.40286 6.55257 6.70626 6.41684C6.00966 6.2811 5.28845 6.35527 4.63405 6.62993C3.97965 6.90459 3.42154 7.36737 3.03049 7.95961C2.63943 8.55185 2.43303 9.24687 2.43746 9.95656C2.44336 10.9031 2.82352 11.8088 3.49492 12.476C4.16631 13.1432 5.07442 13.5177 6.02096 13.5177Z" fill="#875A7B"/>
</svg>
