<svg width="28" height="28" viewBox="0 0 28 28" fill="none" xmlns="http://www.w3.org/2000/svg">
<g clip-path="url(#clip0_971_1696)">
<path d="M16.3333 17.4067H9.45C8.4467 17.4067 7.8633 18.025 7.8633 18.9117C7.8633 19.705 8.4 20.265 9.17 20.265C10.0683 20.265 10.5817 19.6467 10.6283 18.76H12.6233C12.5183 20.93 11.165 22.085 9.1467 22.085C7.2567 22.085 5.845 20.8017 5.845 18.8883C5.845 16.8933 7.3267 15.505 9.555 15.505H16.3683C18.6667 15.505 20.4167 13.8133 20.4167 11.5383C20.4167 9.24 18.8533 7.6183 16.625 7.6183C14.42 7.6183 12.635 9.2283 12.635 12.2033V14.1517H10.6167V12.2033C10.6167 8.26 13.1483 5.705 16.66 5.705C20.0083 5.705 22.4467 8.1083 22.4467 11.515C22.47 14.9217 19.8567 17.4067 16.3333 17.4067ZM14 28C21.8283 28 28 21.805 28 14C28 6.195 21.8283 0 14 0C6.1717 0 0 6.2183 0 14C0 21.805 6.1717 28 14 28Z" fill="#169CEE"/>
</g>
<defs>
<clipPath id="clip0_971_1696">
<rect width="28" height="28" fill="white"/>
</clipPath>
</defs>
</svg>
