<svg width="35" height="18" viewBox="0 0 35 18" fill="none" xmlns="http://www.w3.org/2000/svg">
<path d="M17.1174 18C26.5711 18 34.2348 13.9706 34.2348 9C34.2348 4.02944 26.5711 0 17.1174 0C7.66371 0 0 4.02944 0 9C0 13.9706 7.66371 18 17.1174 18Z" fill="url(#paint0_radial_971_1667)"/>
<path d="M17.1174 17.3307C26.2018 17.3307 33.5661 13.6006 33.5661 8.99932C33.5661 4.39804 26.2018 0.667969 17.1174 0.667969C8.03299 0.667969 0.66864 4.39804 0.66864 8.99932C0.66864 13.6006 8.03299 17.3307 17.1174 17.3307Z" fill="#6181B6"/>
<path d="M20.4473 11.7012L21.263 7.5021C21.4502 6.55262 21.2898 5.84386 20.8083 5.40255C20.3403 4.97462 19.5379 4.76065 18.3611 4.76065H16.9435L17.3447 2.67447C17.3581 2.59423 17.3447 2.51399 17.2912 2.44713C17.2377 2.38026 17.1709 2.35352 17.0906 2.35352H15.1382C15.0045 2.35352 14.8975 2.44713 14.8707 2.56748L14.0015 7.02068C13.9213 6.51251 13.734 6.08457 13.4131 5.73687C12.838 5.0816 11.9421 4.74728 10.7251 4.74728H6.96732C6.83359 4.74728 6.7266 4.84089 6.69986 4.96124L4.948 14.0014C4.93463 14.0816 4.948 14.1618 5.00149 14.2287C5.05498 14.2956 5.12185 14.3223 5.20209 14.3223H7.16791C7.30164 14.3223 7.40862 14.2287 7.43537 14.1083L7.8633 11.9286H9.32096C10.0832 11.9286 10.7385 11.8483 11.2333 11.6878C11.7548 11.514 12.2229 11.2332 12.6374 10.8453C12.9718 10.5378 13.2526 10.1901 13.4666 9.81563L13.1189 11.621C13.1055 11.7012 13.1189 11.7815 13.1724 11.8483C13.2259 11.9152 13.2927 11.9419 13.373 11.9419H15.3254C15.4591 11.9419 15.5661 11.8483 15.5929 11.728L16.5557 6.77996H17.893C18.4681 6.77996 18.6285 6.88695 18.682 6.94044C18.7221 6.98056 18.8024 7.14103 18.7088 7.63583L17.9331 11.6343C17.9198 11.7146 17.9331 11.7948 17.9866 11.8617C18.0401 11.9286 18.107 11.9553 18.1872 11.9553H20.1932C20.3135 11.9152 20.4205 11.8216 20.4473 11.7012ZM11.4071 8.22424C11.2868 8.85277 11.0594 9.30745 10.7251 9.56154C10.3908 9.81563 9.8425 9.94936 9.12036 9.94936H8.25112L8.87965 6.7131H10.003C10.8321 6.7131 11.1664 6.88695 11.3002 7.03405C11.474 7.24802 11.5141 7.66258 11.4071 8.22424ZM28.792 5.73687C28.2169 5.0816 27.321 4.74728 26.104 4.74728H22.3195C22.1857 4.74728 22.0788 4.84089 22.052 4.96124L20.3002 13.988C20.2868 14.0682 20.3002 14.1485 20.3536 14.2153C20.4071 14.2822 20.474 14.3089 20.5542 14.3089H22.5201C22.6538 14.3089 22.7608 14.2153 22.7875 14.095L23.2155 11.9152H24.6731C25.4354 11.9152 26.0906 11.8349 26.5854 11.6745C27.107 11.5006 27.575 11.2198 27.9896 10.832C28.3373 10.511 28.6315 10.15 28.8455 9.76213C29.0594 9.37432 29.2199 8.94638 29.3135 8.47833C29.5409 7.31488 29.367 6.40552 28.792 5.73687ZM26.7459 8.22424C26.6256 8.85277 26.3982 9.30745 26.0639 9.56154C25.7296 9.81563 25.1813 9.94936 24.4591 9.94936H23.5899L24.2184 6.7131H25.3418C26.1709 6.7131 26.5052 6.88695 26.6389 7.03405C26.8262 7.24802 26.8663 7.66258 26.7459 8.22424Z" fill="white"/>
<path d="M10.003 6.44576C10.7519 6.44576 11.2467 6.57949 11.5007 6.86032C11.7548 7.14115 11.8083 7.60921 11.6746 8.27786C11.5409 8.97325 11.2734 9.48142 10.8856 9.77563C10.4978 10.0698 9.90936 10.2169 9.12036 10.2169H7.93016L8.66568 6.44576H10.003ZM5.21545 14.0416H7.18128L7.64933 11.6478H9.33432C10.0832 11.6478 10.685 11.5676 11.1664 11.4071C11.6478 11.2467 12.0758 10.9926 12.477 10.6181C12.8113 10.3105 13.0788 9.97622 13.2793 9.61515C13.4799 9.25408 13.627 8.85289 13.7073 8.41158C13.9212 7.34175 13.7608 6.51262 13.2392 5.91084C12.7177 5.30906 11.8886 5.01485 10.7519 5.01485H6.96731L5.21545 14.0416ZM15.1516 2.62109H17.104L16.636 5.01485H18.3744C19.471 5.01485 20.2199 5.20207 20.6345 5.58989C21.049 5.97771 21.1694 6.59286 21.0089 7.44873L20.1932 11.6478H18.214L18.9896 7.64933C19.0832 7.19464 19.0431 6.88707 18.896 6.72659C18.7489 6.56612 18.4146 6.47251 17.9198 6.47251H16.3551L15.3522 11.6478H13.3997L15.1516 2.62109ZM25.3418 6.44576C26.0906 6.44576 26.5854 6.57949 26.8395 6.86032C27.0936 7.14115 27.1471 7.60921 27.0134 8.27786C26.8796 8.97325 26.6122 9.48142 26.2244 9.77563C25.8366 10.0698 25.2481 10.2169 24.4591 10.2169H23.2689L24.0045 6.44576H25.3418ZM20.5542 14.0416H22.5201L22.9881 11.6478H24.6731C25.422 11.6478 26.0238 11.5676 26.5052 11.4071C26.9866 11.2467 27.4146 10.9926 27.8158 10.6181C28.1501 10.3105 28.4175 9.97622 28.6181 9.61515C28.8187 9.25408 28.9658 8.85289 29.0461 8.41158C29.26 7.34175 29.0996 6.51262 28.578 5.91084C28.0565 5.30906 27.2273 5.01485 26.0906 5.01485H22.3061L20.5542 14.0416Z" fill="#000004"/>
<defs>
<radialGradient id="paint0_radial_971_1667" cx="0" cy="0" r="1" gradientUnits="userSpaceOnUse" gradientTransform="translate(10.2773 3.16505) scale(22.4793)">
<stop stop-color="white"/>
<stop offset="0.5" stop-color="#4C6B97"/>
<stop offset="1" stop-color="#231F20"/>
</radialGradient>
</defs>
</svg>
