<svg width="28" height="28" viewBox="0 0 28 28" fill="none" xmlns="http://www.w3.org/2000/svg">
<path d="M27.0867 16.7726C26.9235 16.2782 26.4959 15.9339 25.9429 15.8512C25.6822 15.8123 25.3836 15.8289 25.0302 15.9018C24.4142 16.0288 23.9573 16.0772 23.6238 16.0866C24.8826 13.9613 25.9061 11.5378 26.4954 9.25638C27.4482 5.56744 26.939 3.8869 26.344 3.12676C24.7694 1.11475 22.4721 0.0338735 19.7006 0.000800731C18.2221 -0.0172776 16.9242 0.274634 16.2471 0.484556C15.6167 0.373321 14.9388 0.311216 14.2276 0.299731C12.8944 0.278463 11.7164 0.569099 10.7099 1.16643C10.1527 0.977988 9.25832 0.712343 8.22551 0.542832C5.79642 0.144045 3.83864 0.45478 2.40663 1.46642C0.672594 2.69128 -0.131254 4.81942 0.0174136 7.79171C0.0646299 8.7354 0.592517 11.6067 1.4237 14.3297C1.90139 15.8949 2.41077 17.1946 2.9377 18.1931C3.68498 19.6091 4.48457 20.4429 5.38221 20.7424C5.88532 20.91 6.79945 21.0274 7.7609 20.2266C7.88277 20.3742 8.04537 20.5209 8.26114 20.6571C8.53518 20.8299 8.87027 20.9711 9.20493 21.0548C10.411 21.3563 11.5407 21.2809 12.5044 20.8583C12.5104 21.0297 12.515 21.1935 12.5188 21.3349C12.5252 21.5643 12.5316 21.7892 12.54 21.9996C12.5971 23.4218 12.6938 24.5277 12.9805 25.3014C12.9963 25.344 13.0174 25.4088 13.0398 25.4776C13.1828 25.9156 13.422 26.6487 14.0305 27.2228C14.6605 27.8176 15.4227 28 16.1207 28C16.4708 28 16.8049 27.9541 17.0978 27.8913C18.1421 27.6675 19.3282 27.3265 20.1861 26.1049C20.9973 24.95 21.3916 23.2105 21.463 20.4697C21.4723 20.3922 21.4808 20.3182 21.4889 20.2477L21.506 20.1028L21.6971 20.1197L21.7463 20.1229C22.8099 20.1714 24.1105 19.9459 24.9093 19.5749C25.5404 19.282 27.563 18.2142 27.0867 16.7726Z" fill="black"/>
<path d="M25.2681 17.0532C22.1055 17.7056 21.888 16.6348 21.888 16.6348C25.2272 11.68 26.6231 5.39052 25.4186 3.8512C22.1322 -0.347758 16.4433 1.63809 16.3484 1.68956L16.3178 1.69509C15.693 1.56536 14.9938 1.48815 14.2078 1.47528C12.7768 1.45189 11.6913 1.85046 10.8675 2.47512C10.8675 2.47512 0.719208 -1.70565 1.19127 7.73315C1.29165 9.74113 4.06934 22.9267 7.38235 18.9441C8.59328 17.4877 9.76338 16.2563 9.76338 16.2563C10.3444 16.6424 11.0401 16.8393 11.7694 16.7686L11.8261 16.7205C11.8085 16.9013 11.8165 17.0782 11.8488 17.2876C10.9953 18.2411 11.2461 18.4085 9.53995 18.7598C7.81347 19.1156 8.82766 19.749 9.48986 19.9147C10.2926 20.1153 12.1498 20.3997 13.4047 18.643L13.3547 18.8435C13.689 19.1113 13.9238 20.5857 13.8845 21.9223C13.8451 23.2588 13.8189 24.1765 14.0823 24.8932C14.3459 25.61 14.6085 27.2227 16.8515 26.7421C18.7256 26.3404 19.6968 25.2997 19.8319 23.5635C19.9278 22.3293 20.1448 22.5118 20.1584 21.4082L20.3325 20.8859C20.5332 19.2128 20.3644 18.673 21.519 18.9241L21.7997 18.9487C22.6494 18.9873 23.7618 18.812 24.4146 18.5086C25.8202 17.8563 26.654 16.767 25.2679 17.0532H25.2681Z" fill="#336791"/>
<path d="M11.4615 8.63163C11.1765 8.59196 10.9184 8.62865 10.7878 8.72755C10.7144 8.78317 10.6916 8.84761 10.6855 8.89196C10.6691 9.00947 10.7514 9.13942 10.802 9.20641C10.9452 9.39613 11.1542 9.52651 11.3612 9.55522C11.3912 9.55947 11.421 9.56139 11.4507 9.56139C11.7958 9.56139 12.1096 9.29266 12.1373 9.09433C12.1718 8.84591 11.8112 8.68033 11.4615 8.63174M20.903 8.6395C20.8758 8.44478 20.5293 8.38927 20.2005 8.435C19.8721 8.48073 19.5537 8.62897 19.5803 8.82411C19.6016 8.97586 19.8756 9.23491 20.2 9.23491C20.2274 9.23491 20.2551 9.23311 20.2829 9.22917C20.4995 9.19918 20.6583 9.06168 20.7338 8.98246C20.8487 8.86165 20.9153 8.72702 20.903 8.6395Z" fill="white"/>
<path d="M26.3204 16.9783C26.1998 16.6136 25.8117 16.4963 25.1668 16.6295C23.2521 17.0246 22.5664 16.7509 22.3413 16.5851C23.8296 14.3179 25.0539 11.5772 25.7144 9.02018C26.0273 7.80893 26.2001 6.68403 26.2142 5.76714C26.2298 4.76082 26.0584 4.02131 25.7049 3.56956C24.2797 1.74843 22.1879 0.771564 19.6559 0.744766C17.9152 0.725198 16.4445 1.17067 16.1594 1.29594C15.5589 1.14664 14.9044 1.05497 14.1918 1.04327C12.885 1.02211 11.7555 1.33497 10.8203 1.97271C10.4141 1.82149 9.36423 1.46109 8.08035 1.25426C5.86076 0.896943 4.09695 1.16769 2.83827 2.05938C1.33639 3.12345 0.643032 5.0255 0.777343 7.71258C0.822539 8.6166 1.33767 11.3977 2.15055 14.0611C3.22058 17.5666 4.38376 19.551 5.60756 19.9593C5.7508 20.007 5.91595 20.0404 6.09812 20.0404C6.54455 20.0404 7.09189 19.8392 7.66136 19.1546C8.35595 18.3213 9.07445 17.5083 9.81598 16.7166C10.2971 16.9748 10.8256 17.119 11.3661 17.1334C11.3672 17.1476 11.3686 17.1617 11.3699 17.1757C11.2768 17.2867 11.1857 17.3993 11.0966 17.5134C10.722 17.9888 10.6441 18.0878 9.43846 18.3361C9.09551 18.4069 8.18468 18.5946 8.17128 19.2331C8.15681 19.9307 9.248 20.2236 9.37232 20.2547C9.80556 20.3632 10.223 20.4167 10.621 20.4167C11.589 20.4167 12.441 20.0985 13.1218 19.4829C13.1008 21.9698 13.2045 24.4204 13.5031 25.167C13.7477 25.7783 14.3451 27.2721 16.2323 27.272C16.5092 27.272 16.814 27.2397 17.1493 27.1679C19.1189 26.7457 19.9742 25.8751 20.305 23.956C20.4821 22.9303 20.7859 20.4811 20.9288 19.1673C21.2304 19.2614 21.6187 19.3045 22.0384 19.3044C22.9138 19.3044 23.924 19.1184 24.5575 18.8244C25.2691 18.4939 26.5533 17.6829 26.3204 16.9783ZM21.6301 8.10073C21.6236 8.48857 21.5702 8.84067 21.5136 9.20819C21.4527 9.60347 21.3897 10.0121 21.3739 10.5082C21.3583 10.991 21.4186 11.493 21.4768 11.9784C21.5947 12.9589 21.7156 13.9683 21.2476 14.9643C21.1698 14.8266 21.1006 14.6842 21.0402 14.538C20.982 14.397 20.8557 14.1705 20.6807 13.857C20.0003 12.6366 18.4067 9.77872 19.2225 8.61256C19.4655 8.26546 20.0821 7.90857 21.6301 8.10073ZM19.7537 1.53011C22.0225 1.5802 23.8171 2.42892 25.0877 4.05257C26.0622 5.29795 24.9891 10.9647 21.8825 15.8534C21.8513 15.8136 21.8199 15.774 21.7883 15.7346L21.749 15.6854C22.5517 14.3597 22.3948 13.0479 22.255 11.885C22.1976 11.4077 22.1434 10.9569 22.1572 10.5334C22.1715 10.0847 22.2308 9.69971 22.2882 9.32751C22.3587 8.86885 22.4305 8.39424 22.4107 7.83477C22.4255 7.77607 22.4315 7.70673 22.4237 7.62442C22.3732 7.08792 21.7607 5.48225 20.5122 4.02896C19.8293 3.23405 18.8333 2.34449 17.4735 1.7445C18.0584 1.62327 18.8582 1.51022 19.7537 1.53011ZM7.05872 18.6535C6.43129 19.4079 5.99805 19.2633 5.85555 19.2158C4.92717 18.9062 3.84992 16.9439 2.90017 13.8323C2.07835 11.1399 1.5981 8.43253 1.56003 7.67334C1.44007 5.27233 2.02209 3.59902 3.29002 2.69978C5.3535 1.2365 8.74606 2.11234 10.1093 2.55653C10.0897 2.57589 10.0693 2.59397 10.0499 2.61364C7.8129 4.87279 7.86597 8.73263 7.8715 8.9686C7.87128 9.05963 7.87894 9.18852 7.88936 9.36579C7.92786 10.015 7.99953 11.2233 7.80812 12.5916C7.63031 13.8632 8.02229 15.1077 8.88335 16.0062C8.97172 16.0982 9.0646 16.1858 9.16165 16.2686C8.77839 16.6791 7.94541 17.5869 7.05872 18.6535ZM9.4492 15.4639C8.75521 14.7397 8.44001 13.7325 8.58431 12.7001C8.78637 11.2547 8.71182 9.99577 8.67173 9.31943C8.66609 9.22478 8.66109 9.14183 8.65822 9.07643C8.98501 8.78665 10.4994 7.97525 11.5795 8.22271C12.0723 8.33554 12.3726 8.67116 12.4974 9.24839C13.1436 12.237 12.5829 13.4825 12.1325 14.4836C12.0396 14.6898 11.9519 14.8847 11.877 15.0863L11.819 15.2422C11.672 15.6363 11.5352 16.0028 11.4505 16.3507C10.7127 16.3486 9.99496 16.0334 9.4492 15.4638V15.4639ZM9.56246 19.4943C9.34701 19.4405 9.15325 19.3471 9.03957 19.2695C9.13453 19.2249 9.30351 19.164 9.59659 19.1036C11.0149 18.8117 11.234 18.6056 11.7123 17.9983C11.8219 17.859 11.9462 17.7012 12.1184 17.5089L12.1186 17.5087C12.375 17.2216 12.4923 17.2703 12.705 17.3585C12.8774 17.4298 13.0453 17.6459 13.1134 17.8837C13.1456 17.996 13.1817 18.2091 13.0634 18.375C12.0642 19.774 10.6081 19.7561 9.56246 19.4943ZM16.9851 26.4015C15.25 26.7733 14.6357 25.888 14.2308 24.8759C13.9695 24.2226 13.8411 21.2762 13.9322 18.0224C13.9334 17.9792 13.9272 17.9374 13.9153 17.898C13.9046 17.8203 13.8884 17.7435 13.8668 17.6681C13.7313 17.1947 13.4011 16.7986 13.005 16.6345C12.8476 16.5693 12.5588 16.4496 12.2117 16.5384C12.2857 16.2334 12.4141 15.889 12.5533 15.516L12.6116 15.3592C12.6774 15.1823 12.7599 14.9991 12.8471 14.8051C13.3185 13.7579 13.9641 12.3234 13.2634 9.08281C13.001 7.86901 12.1245 7.27626 10.7958 7.41397C9.99932 7.49639 9.27055 7.81776 8.90707 8.00205C8.8289 8.04161 8.75744 8.07989 8.69066 8.11711C8.79211 6.89417 9.17537 4.60864 10.6091 3.16258C11.5118 2.25229 12.714 1.80267 14.1788 1.82691C17.065 1.87413 18.9158 3.35528 19.9603 4.5896C20.8604 5.65314 21.3477 6.72455 21.5422 7.30242C20.0795 7.15364 19.0846 7.44236 18.5804 8.16337C17.4832 9.73172 19.1806 12.7757 19.9963 14.2386C20.1459 14.5067 20.275 14.7385 20.3157 14.8369C20.5813 15.4807 20.9252 15.9106 21.1763 16.2243C21.2533 16.3204 21.3279 16.4137 21.3847 16.4951C20.9417 16.6229 20.1459 16.918 20.2185 18.3931C20.16 19.1332 19.7441 22.5985 19.5328 23.8228C19.2538 25.4403 18.6586 26.0427 16.9851 26.4016V26.4015ZM24.2275 18.1136C23.7745 18.3238 23.0164 18.4815 22.2962 18.5155C21.5008 18.5527 21.0958 18.4263 21.0005 18.3486C20.9559 17.4294 21.298 17.3333 21.6601 17.2317C21.7169 17.2157 21.7725 17.2001 21.8261 17.1814C21.8593 17.2085 21.8958 17.2354 21.9358 17.2618C22.5751 17.6837 23.7155 17.7293 25.3254 17.3969L25.343 17.3934C25.1259 17.5964 24.7543 17.8689 24.2275 18.1136Z" fill="white"/>
</svg>
