<svg width="24" height="28" viewBox="0 0 24 28" fill="none" xmlns="http://www.w3.org/2000/svg">
<path d="M16.8291 19.753L17.8223 23.1684L18.1041 23.1817C18.2869 23.1817 18.4156 23.2298 18.4156 23.4127C18.4156 23.7167 18.4313 24.0583 18.4604 24.3565C18.7079 24.5667 19.0093 24.8037 19.2378 25.0339C20.0934 24.5356 20.901 23.9592 21.6503 23.3119C20.3215 21.7888 18.6761 20.5742 16.8291 19.753ZM14.8869 19.7189L16.0532 19.4364C15.7582 19.3255 15.4608 19.2213 15.1593 19.1305C14.7842 19.0175 14.4059 18.9153 14.0227 18.8339C13.5054 18.7239 12.9823 18.6431 12.4559 18.5918C12.7534 19.525 13.0789 20.4491 13.4319 21.3628C13.4174 21.5412 13.408 21.7199 13.4039 21.8988C14.2303 22.0618 15.0428 22.345 15.7941 22.6773L14.8869 19.7189Z" fill="#525353"/>
<path d="M3.16455 25.0346C3.3503 25.1428 3.53793 25.2485 3.72868 25.3493C3.79543 25.0287 3.90218 24.5845 3.93443 24.2546C3.68693 24.4647 3.39305 24.8043 3.16455 25.0346ZM15.7746 22.6485C15.0145 22.3118 14.2194 22.0606 13.4039 21.8995C12.6784 21.756 11.9407 21.6837 11.2012 21.6836C10.4472 21.6836 9.71118 21.7588 8.99843 21.8995C8.17218 22.0623 7.31005 22.3095 6.55905 22.6416L6.47918 23.1392H15.9234L15.7746 22.6485Z" fill="black"/>
<path d="M3.9052 24.3487C3.93445 24.0504 3.95558 23.7846 3.95558 23.4804C3.95558 23.2977 4.08095 23.1806 4.26382 23.1806L4.5637 23.1701L5.57357 19.7529C3.72649 20.5741 2.081 21.7888 0.752075 23.3119C1.50136 23.9592 2.30898 24.5356 3.16458 25.0339C3.39306 24.8035 3.63128 24.5828 3.87857 24.3727" fill="#525353"/>
<path d="M18.5826 24.9565C18.6474 25.2815 18.662 25.3462 18.6737 25.3486C18.8639 25.2476 19.052 25.1426 19.2379 25.0339C19.0069 24.8009 18.7662 24.5778 18.5164 24.3652L18.5826 24.9565Z" fill="black"/>
<path d="M15.7746 22.6479L15.9235 23.1386H17.8552L16.8291 19.7531C16.5737 19.64 16.3149 19.5344 16.0532 19.4365L14.887 19.719L15.7746 22.6479Z" fill="#AA9678"/>
<path d="M4.58105 23.8223C4.59118 23.8152 4.60143 23.808 4.61143 23.8008H4.58243C4.58218 23.8079 4.58143 23.8152 4.58105 23.8223Z" fill="#C4B6A1"/>
<path d="M17.8199 23.8008H17.7908L17.8211 23.8223C17.8209 23.8152 17.8201 23.8079 17.8199 23.8008Z" fill="#AA9678"/>
<path d="M17.7866 23.752L11.1874 23.7595L11.2011 27.2015C13.6571 27.2015 15.9831 26.6466 18.0628 25.6576C17.927 25.0611 17.9134 24.4186 17.8913 23.7933C17.8813 23.7861 17.7866 23.752 17.7866 23.752Z" fill="#AA9678"/>
<path d="M11.1906 23.7737C11.1906 23.7737 4.55497 23.7653 4.54485 23.7724C4.52285 24.3978 4.39385 25.1398 4.3396 25.6575C6.41922 26.6465 8.74522 27.2014 11.2012 27.2014L11.205 23.7848L11.1906 23.7737Z" fill="#C4B6A1"/>
<path d="M11.2012 23.4697H11.2013V23.8009H11.2012V23.4697Z" fill="#786453"/>
<path d="M16.1505 21.221L16.1538 21.2313L16.1505 21.221C16.1505 21.221 15.9882 21.0923 15.7823 20.8555C15.9882 21.0923 16.1505 21.221 16.1505 21.221Z" fill="#AA9678"/>
<path d="M21.0394 6.74512V6.74587V6.74512ZM21.6833 11.3517L21.6834 11.347L21.6833 11.3517Z" fill="white"/>
<path d="M21.6835 11.3462L21.6833 11.3418L21.6835 11.3462Z" fill="#BBBCBD"/>
<path d="M21.6654 11.0974C21.6659 11.1017 21.6672 11.1054 21.6677 11.1097C21.668 11.1123 21.6688 11.1147 21.6692 11.1172V11.1182C21.6768 11.1793 21.6797 11.2432 21.681 11.3076C21.6813 11.3194 21.6833 11.3306 21.6833 11.3423L21.6834 11.3467L21.6833 11.3514C21.6832 11.3642 21.681 11.3761 21.6809 11.3887C21.6801 11.4508 21.6762 11.5128 21.6693 11.5744V11.5753L21.6675 11.5844C21.667 11.5893 21.6655 11.5937 21.6649 11.5984C21.6565 11.6622 21.6445 11.7254 21.629 11.7878L21.6288 11.7887V11.7888L21.631 11.7863L21.6319 11.7834V11.7836L22.0507 11.3452L21.6285 10.9033L21.6287 10.9042C21.6444 10.9658 21.6564 11.0306 21.6654 11.0974Z" fill="#676A6A"/>
<path d="M21.6649 11.5983C21.666 11.59 21.6681 11.5827 21.6692 11.5743C21.6766 11.5143 21.6794 11.4517 21.6809 11.3885C21.681 11.3743 21.6832 11.3609 21.6832 11.3465C21.6832 11.3332 21.6812 11.3207 21.681 11.3074C21.6803 11.2441 21.6763 11.1809 21.6691 11.118C21.6681 11.1108 21.6662 11.1044 21.6654 11.0973C21.6569 11.0322 21.6446 10.9677 21.6286 10.904C21.6231 10.8825 21.6155 10.8634 21.6091 10.8427C21.5713 10.7174 21.5196 10.6068 21.4584 10.5149C21.4349 10.48 21.4093 10.4466 21.3816 10.4149C21.3563 10.3869 21.3286 10.3612 21.2989 10.338C21.2879 10.3297 21.2762 10.3238 21.265 10.3165C21.2305 10.2939 21.1932 10.2758 21.154 10.2629C21.117 10.2506 21.0784 10.244 21.0394 10.2432C21.0001 10.2432 20.9621 10.2514 20.9247 10.2629C20.8855 10.2758 20.8481 10.2938 20.8136 10.3165C20.8026 10.3238 20.7909 10.3295 20.78 10.3379C20.7285 10.3781 20.6833 10.4256 20.6458 10.479C20.637 10.4908 20.6285 10.5028 20.6204 10.515C20.5591 10.6069 20.5074 10.7175 20.4696 10.8428L20.4649 10.8578C20.4481 10.9153 20.4351 10.9758 20.4242 11.0379C20.421 11.0569 20.4166 11.0752 20.414 11.0947C20.404 11.1642 20.3989 11.2367 20.3976 11.3109C20.3975 11.3212 20.3959 11.3309 20.3959 11.3412H20.3984C20.3984 11.9507 20.6867 12.4447 21.0424 12.4447C21.1036 12.4447 21.1625 12.4287 21.2186 12.4013C21.2523 12.3848 21.284 12.3647 21.3134 12.3414C21.3255 12.3317 21.3369 12.3199 21.3485 12.3089C21.3769 12.2824 21.4039 12.2524 21.4295 12.219C21.4472 12.1957 21.4647 12.1723 21.481 12.1462C21.4914 12.1295 21.5009 12.1115 21.5105 12.0938C21.5285 12.0605 21.5455 12.0259 21.5609 11.9892C21.5666 11.9759 21.5725 11.963 21.5777 11.9494C21.5974 11.8983 21.6145 11.8443 21.629 11.7877C21.6444 11.7273 21.6559 11.6638 21.6649 11.5983ZM21.0625 11.1997C20.9291 11.1997 20.821 11.0143 20.821 10.7858C20.821 10.5574 20.9291 10.372 21.0625 10.372C21.1959 10.372 21.3039 10.5574 21.3039 10.7858C21.3039 11.0143 21.1959 11.1997 21.0625 11.1997Z" fill="black"/>
<path d="M21.0625 10.3721C20.9292 10.3721 20.821 10.5574 20.821 10.7858C20.821 11.0143 20.9292 11.1997 21.0625 11.1997C21.1959 11.1997 21.3039 11.0143 21.3039 10.7858C21.3039 10.5574 21.1959 10.3721 21.0625 10.3721Z" fill="white"/>
<path d="M20.4697 10.8429C20.5075 10.7176 20.5592 10.607 20.6205 10.5151C20.6287 10.5026 20.6371 10.491 20.6459 10.4791C20.6833 10.4256 20.7285 10.3781 20.7801 10.338C20.791 10.3296 20.8027 10.3239 20.8137 10.3166C20.8482 10.2939 20.8856 10.2758 20.9249 10.263C20.9621 10.2513 21.0002 10.2433 21.0395 10.2433C21.0787 10.2433 21.1169 10.2513 21.1541 10.263C21.1933 10.276 21.2306 10.294 21.2651 10.3166C21.2764 10.3239 21.288 10.3298 21.299 10.3381C21.3277 10.3601 21.3552 10.3861 21.3817 10.415C21.4094 10.4467 21.435 10.4801 21.4585 10.515C21.5197 10.6069 21.5714 10.7175 21.6092 10.8428V10.843L21.0395 8.2334L20.4696 10.8429H20.4697Z" fill="#909393"/>
<path d="M13.4885 11.3217C13.4878 11.2692 13.4844 11.2173 13.4785 11.1663C13.4784 11.1657 13.4782 11.1649 13.4782 11.1642C13.4722 11.1143 13.4639 11.0647 13.453 11.0157L13.452 11.0119C13.4413 10.9641 13.4283 10.9168 13.4129 10.8702L13.4117 10.8671C13.3964 10.8209 13.3788 10.7755 13.3589 10.7311C13.3587 10.7302 13.358 10.7293 13.3577 10.7283C13.1989 10.3749 12.9108 10.0958 12.5525 9.94831L12.5482 9.94669C12.461 9.91113 12.3707 9.88389 12.2784 9.86531C12.276 9.86494 12.2738 9.86481 12.2714 9.86431C12.1762 9.84551 12.0794 9.83601 11.9823 9.83594C11.8849 9.83594 11.7903 9.84594 11.6982 9.86356L11.6884 9.86506C11.5968 9.88331 11.5084 9.91006 11.4235 9.94406L11.4168 9.94669C11.331 9.98151 11.2486 10.0242 11.1707 10.0743C11.0928 10.1246 11.0197 10.1817 10.9524 10.2448L10.9508 10.2499L10.9452 10.2512C10.8374 10.3537 10.7453 10.4713 10.6715 10.6004L10.6688 10.6051C10.6463 10.6447 10.6259 10.6859 10.6072 10.7279C10.6052 10.7324 10.6027 10.7367 10.6008 10.7412C10.5837 10.7801 10.5689 10.8203 10.5552 10.8608C10.5525 10.8688 10.549 10.8763 10.5465 10.8842C10.5345 10.9221 10.5248 10.9609 10.5155 10.9998C10.5132 11.0111 10.5095 11.0218 10.5072 11.0329C10.4992 11.0714 10.4937 11.1108 10.4885 11.1503C10.487 11.1624 10.4844 11.1741 10.4832 11.1862C10.4675 11.3359 10.4744 11.4871 10.5037 11.6347C10.5039 11.6366 10.504 11.6387 10.5045 11.6407C10.5234 11.7348 10.5512 11.8256 10.5868 11.9124C10.5873 11.9137 10.5875 11.9149 10.5882 11.9161C10.6603 12.0905 10.7644 12.2499 10.8952 12.3861C10.9977 12.4929 11.1157 12.5846 11.2454 12.6578L11.2473 12.6589C11.2878 12.6817 11.3297 12.7022 11.3723 12.7212C11.3758 12.7227 11.3792 12.7247 11.3828 12.7262C11.4223 12.7434 11.4632 12.7583 11.5043 12.7722C11.5113 12.7746 11.518 12.7776 11.525 12.7798C11.563 12.7919 11.6023 12.8017 11.6415 12.8107C11.6522 12.8132 11.6624 12.8167 11.6732 12.8189C11.7113 12.8268 11.7505 12.8322 11.79 12.8373C11.8019 12.8387 11.8137 12.8414 11.8258 12.8427C12.1778 12.8798 12.5317 12.7915 12.825 12.5934C12.9855 12.485 13.1238 12.3468 13.2323 12.1863C13.4004 11.9374 13.4901 11.6438 13.4898 11.3434C13.4898 11.3398 13.4893 11.3364 13.4893 11.3331C13.4892 11.3292 13.4887 11.3256 13.4885 11.3217ZM11.9823 11.1451C11.9079 11.1451 11.8343 11.1304 11.7656 11.1019C11.6969 11.0735 11.6344 11.0317 11.5819 10.9791C11.5293 10.9266 11.4876 10.8641 11.4591 10.7954C11.4307 10.7267 11.416 10.6531 11.416 10.5787C11.416 10.5043 11.4307 10.4307 11.4592 10.362C11.4876 10.2933 11.5294 10.2308 11.582 10.1783C11.6345 10.1257 11.697 10.084 11.7657 10.0555C11.8344 10.0271 11.908 10.0124 11.9824 10.0124C12.1326 10.0125 12.2766 10.0721 12.3828 10.1784C12.489 10.2846 12.5487 10.4286 12.5487 10.5788C12.5486 10.729 12.489 10.873 12.3828 10.9792C12.2765 11.0854 12.1325 11.1451 11.9823 11.1451Z" fill="black"/>
<path d="M11.9823 10.0127C11.8321 10.0127 11.6881 10.0724 11.5819 10.1785C11.4757 10.2847 11.416 10.4288 11.416 10.5789C11.416 10.7291 11.4757 10.8732 11.5819 10.9793C11.6881 11.0855 11.8321 11.1452 11.9823 11.1452C12.1324 11.1452 12.2765 11.0855 12.3827 10.9793C12.4889 10.8732 12.5485 10.7291 12.5485 10.5789C12.5485 10.4288 12.4889 10.2847 12.3827 10.1785C12.2765 10.0724 12.1324 10.0127 11.9823 10.0127Z" fill="white"/>
<path d="M10.9452 10.2516L10.9508 10.2504L10.9524 10.2453L11.9907 7.07001V6.32689L11.9905 6.31852C11.4045 6.19719 10.8077 6.13562 10.2093 6.13477C10.0062 6.13477 9.80465 6.14339 9.6044 6.15702C9.57527 6.15902 9.54603 6.16077 9.51678 6.16302C8.47465 6.24214 7.4484 6.51377 6.49815 6.94752C5.68328 7.31964 4.92615 7.80977 4.24553 8.39089V8.39102L4.2444 8.39202C4.06229 8.54796 3.88589 8.71044 3.71553 8.87914C3.68353 8.91039 3.65103 8.94139 3.6194 8.97314C3.45836 9.13556 3.30257 9.30311 3.15228 9.47552C3.11965 9.51314 3.08753 9.55152 3.05528 9.58952C2.9036 9.76746 2.75761 9.95018 2.61753 10.1374C2.6059 10.1531 2.59503 10.1696 2.58353 10.1854C2.45065 10.3669 2.32326 10.5523 2.20153 10.7414C2.17765 10.7783 2.15315 10.8146 2.12978 10.8519C2.03103 11.0085 1.93915 11.1694 1.8479 11.3306H6.57753L10.9452 10.2516Z" fill="#BBBCBD"/>
<path d="M14.9381 9.89423C14.9477 9.77036 14.9556 9.64661 14.962 9.52261C14.9706 9.35486 14.9765 9.18686 14.9797 9.01898C14.9822 8.88861 14.9818 8.75811 14.9812 8.62773C14.9812 8.59011 14.9821 8.55248 14.9817 8.51473C14.9778 8.1781 14.9654 7.84162 14.9446 7.50561L14.9417 7.50373L14.9405 7.50136C14.8155 7.42956 14.6904 7.35806 14.5651 7.28686L14.5563 7.28186L14.4585 7.22648L14.4567 7.22548L14.3888 7.18748L14.3755 7.17998C14.3591 7.17089 14.3426 7.16193 14.3261 7.15311C14.1087 7.04027 13.8869 6.93606 13.6612 6.84073C13.1233 6.61361 12.3988 6.41448 11.9907 6.31836V7.06986L13.0198 10.2502L13.021 10.2529C13.1272 10.3541 13.2186 10.4705 13.2918 10.5987V10.5989C13.3158 10.6409 13.3378 10.6842 13.3577 10.7286C13.3582 10.7296 13.3587 10.7305 13.359 10.7314C13.3788 10.7756 13.3963 10.821 13.4117 10.8674L13.413 10.8705C13.4282 10.9169 13.4413 10.9641 13.4521 11.0122L13.4531 11.016C13.4638 11.0646 13.4722 11.1142 13.4782 11.1645C13.4782 11.1652 13.4785 11.166 13.4786 11.1666C13.4845 11.2176 13.4878 11.2695 13.4886 11.322L13.4925 11.3305H14.7526C14.8371 10.868 14.8979 10.4015 14.9347 9.93286C14.9356 9.91998 14.9371 9.90711 14.9381 9.89423Z" fill="#E3DDDB"/>
<path d="M16.586 8.76953C16.5851 8.77091 16.5845 8.77253 16.5837 8.77391L16.586 8.76966" fill="#FCB03F"/>
<path d="M10.9524 10.2456C11.0201 10.1821 11.0935 10.1249 11.1715 10.0747C11.2492 10.0248 11.3313 9.98219 11.4168 9.94744C11.419 9.94644 11.4214 9.94581 11.4235 9.94481C11.5092 9.91038 11.5979 9.88393 11.6884 9.86581L11.6981 9.86431C11.7918 9.84614 11.8869 9.83689 11.9823 9.83669C12.0813 9.83669 12.1778 9.84669 12.2714 9.86506C12.2738 9.86556 12.276 9.86569 12.2784 9.86606C12.3722 9.8849 12.464 9.91269 12.5525 9.94906C12.7261 10.0206 12.8849 10.1238 13.0209 10.2533L13.0198 10.2507L11.9906 7.07031L10.9524 10.2456Z" fill="#909393"/>
<path d="M10.5868 11.9132C10.5508 11.8255 10.5233 11.7345 10.5046 11.6415C10.5041 11.6395 10.504 11.6373 10.5037 11.6355C10.4744 11.4878 10.4675 11.3366 10.4832 11.187C10.4845 11.1748 10.4871 11.1632 10.4886 11.1511C10.4937 11.1116 10.4992 11.0722 10.5072 11.0337C10.5096 11.0226 10.5132 11.0118 10.5156 11.0006C10.5248 10.9617 10.5346 10.9228 10.5466 10.885C10.5492 10.8771 10.5525 10.8696 10.5552 10.8616C10.569 10.8211 10.5837 10.7808 10.6008 10.742C10.6027 10.7375 10.6052 10.7332 10.6072 10.7287C10.626 10.6867 10.6463 10.6455 10.6688 10.6058L10.6716 10.6012C10.7453 10.4721 10.8375 10.3544 10.9452 10.252L6.57759 11.331H6.56921L10.8952 12.3868C10.7645 12.2507 10.6603 12.0913 10.5882 11.9168C10.5876 11.9157 10.5873 11.9145 10.5868 11.9132Z" fill="#676A6A"/>
<path d="M20.414 11.0949C20.4167 11.0754 20.4209 11.0571 20.4242 11.0381C20.4351 10.976 20.4481 10.9155 20.4649 10.858C20.4667 10.8515 20.4675 10.8441 20.4695 10.8378L21.0394 8.22826L21.0392 6.74038C20.5736 6.35576 20.075 6.14551 19.5559 6.14551C18.8999 6.14551 18.2882 6.50776 17.8309 6.95513C17.3304 7.44476 16.9436 8.06076 16.6309 8.68238C16.6165 8.71101 16.6017 8.73851 16.5875 8.76726C16.6839 8.85076 16.7792 8.93538 16.8734 9.02151C17.0861 9.21679 17.2951 9.41604 17.5004 9.61913C17.5961 9.71363 17.6901 9.81013 17.7844 9.90626C17.8844 10.0081 17.9845 10.1098 18.083 10.2133C18.2631 10.4025 18.4407 10.5941 18.6157 10.788C18.7659 10.9537 18.9145 11.1208 19.0614 11.2894L19.0616 11.2896C19.0862 11.3154 19.1035 11.3339 19.1101 11.3414H20.3954C20.3954 11.331 20.3975 11.3215 20.3976 11.3111C20.3989 11.2369 20.404 11.1644 20.414 11.0949ZM16.5874 8.77413L16.586 8.77026L16.5837 8.77451L16.5894 8.78001C16.5888 8.77803 16.5881 8.77607 16.5874 8.77413Z" fill="#E3DDDB"/>
<path d="M1.073 12.9728L1.0845 12.944C1.25708 12.4962 1.45609 12.0591 1.6805 11.6349C1.71525 11.5689 1.74925 11.5026 1.78525 11.4373C1.80513 11.4011 1.82763 11.3666 1.84788 11.3306C1.93913 11.1694 2.031 11.0085 2.12975 10.8519C2.15313 10.8145 2.17762 10.7782 2.2015 10.7414C2.32323 10.5523 2.45062 10.3668 2.5835 10.1854C2.595 10.1696 2.60588 10.1531 2.6175 10.1374C2.75758 9.95017 2.90357 9.76745 3.05525 9.5895C3.0875 9.5515 3.1195 9.51325 3.15225 9.4755C3.30255 9.30309 3.45834 9.13555 3.61938 8.97313C3.65113 8.94138 3.6835 8.91038 3.7155 8.87913C3.88586 8.71043 4.06227 8.54795 4.24438 8.392L4.2455 8.39087C4.96438 5.98287 7.28563 4.50313 9.88825 4.50313C10.9358 4.50313 11.9775 4.805 12.8702 5.35112C13.786 5.91125 14.4104 6.4585 14.8951 7.41512L14.9024 7.4295C14.9146 7.45375 14.9284 7.477 14.9404 7.5015L14.9416 7.50387L14.9445 7.50575C15.3516 7.75763 15.7394 8.03945 16.1046 8.34888C16.2275 8.45257 16.348 8.55902 16.4661 8.66813C16.5051 8.70388 16.5453 8.73787 16.5838 8.77425C16.5845 8.77275 16.5851 8.77125 16.586 8.76988C16.5864 8.76884 16.5868 8.76784 16.5874 8.76688C16.6006 8.73975 16.6136 8.71212 16.627 8.68538C16.9937 6.37075 18.159 5.10863 19.3633 5.10863C20.271 5.10863 20.9309 5.64988 21.4292 7.10688L21.4344 7.1225L21.4356 7.12425C21.5826 7.28456 21.7198 7.45353 21.8465 7.63025L21.8462 7.63013C21.8489 7.63363 21.8516 7.63688 21.8543 7.6405L21.8541 7.64038L21.8543 7.6405C21.8614 7.66162 21.8675 7.68338 21.8744 7.7045V7.70438L21.8556 7.6285C20.3575 3.19325 16.1625 0 11.2215 0C5.024 0 0 5.024 0 11.2215C0 12.4432 0.19525 13.6195 0.55775 14.714L0.55925 14.7076C0.686697 14.1173 0.858432 13.5373 1.073 12.9728Z" fill="#525353"/>
<path d="M22.0233 11.3453L21.6319 11.7831V11.783L21.6311 11.7859C21.6162 11.8435 21.5979 11.8973 21.5778 11.9491C21.5726 11.9628 21.5667 11.9756 21.5609 11.9889C21.5459 12.0246 21.5291 12.0595 21.5106 12.0935C21.5009 12.1113 21.4914 12.1293 21.4811 12.1459C21.4648 12.1719 21.4473 12.1955 21.4296 12.2188C21.4051 12.2509 21.378 12.281 21.3486 12.3086C21.3369 12.3195 21.3257 12.3314 21.3134 12.3411C21.2841 12.3645 21.2523 12.3845 21.2187 12.401C21.1626 12.4284 21.1037 12.4444 21.0424 12.4444C20.6868 12.4444 20.3984 11.9504 20.3984 11.3409H19.1063L19.1071 11.3419C19.3498 11.6225 19.5888 11.9063 19.8238 12.1934C20.0497 12.4694 20.2728 12.7477 20.4931 13.0283L20.5256 13.0694C20.7343 13.3358 20.9411 13.6038 21.1461 13.8731L21.2058 13.9511C21.4235 14.2377 21.6398 14.5253 21.8547 14.814C22.2328 13.6946 22.4315 12.5224 22.4432 11.3409L22.0799 11.3271L22.0233 11.3453Z" fill="white"/>
<path d="M9.51686 6.16262C9.54611 6.16037 9.57535 6.15862 9.60448 6.15662C9.80579 6.14235 10.0075 6.13493 10.2094 6.13437C10.8179 6.13437 11.4124 6.19949 11.9906 6.31812H11.9907C12.3989 6.41424 13.1234 6.61337 13.6612 6.84049C13.8869 6.93582 14.1087 7.04003 14.3261 7.15287L14.3755 7.17974L14.3889 7.18724C14.409 7.19849 14.431 7.21062 14.4567 7.22524L14.4585 7.22624L14.5564 7.28162L14.5651 7.28662C14.7034 7.36499 14.8564 7.45287 14.9149 7.48637L14.9299 7.49499L14.9405 7.50112C14.9285 7.47662 14.9147 7.45337 14.9025 7.42912L14.8952 7.41474C14.4105 6.45812 13.6642 5.63762 12.7485 5.07749C11.8557 4.53137 10.814 4.22949 9.76636 4.22949C7.16386 4.22949 4.96448 5.98249 4.24561 8.39049C4.92623 7.80937 5.68335 7.31924 6.49823 6.94712C7.44848 6.51337 8.47473 6.24174 9.51686 6.16262Z" fill="black"/>
<path d="M21.8543 7.64099L21.8542 7.64087L21.8543 7.64099C21.8517 7.63737 21.8489 7.63412 21.8463 7.63062L21.8466 7.63074C21.7198 7.45402 21.5826 7.28505 21.4357 7.12474L21.4321 7.12037C21.3695 7.05238 21.3048 6.9863 21.2382 6.92224C21.2136 6.89862 21.1881 6.87799 21.1632 6.85537C21.1221 6.81799 21.0812 6.77937 21.0394 6.74512V8.23374L21.6093 10.8435V10.8434C21.6156 10.8636 21.6231 10.8826 21.6286 10.9036L22.0233 11.346L22.0272 11.3416H22.4403C22.4408 11.3034 22.4432 11.2656 22.4432 11.2272V11.2266C22.443 10.0299 22.251 8.84086 21.8744 7.70487V7.70499C21.8676 7.68387 21.8614 7.66212 21.8543 7.64099Z" fill="#BBBCBD"/>
<path d="M17.831 6.95475C18.2884 6.50738 18.9 6.14513 19.556 6.14513C20.0751 6.14513 20.5737 6.35537 21.0394 6.74L21.0395 6.7445V6.74525V6.7445C21.0812 6.77875 21.1221 6.81738 21.1632 6.85475C21.1881 6.87738 21.2136 6.898 21.2382 6.92163C21.3048 6.98569 21.3695 7.05176 21.4321 7.11975L21.4357 7.12413C21.4354 7.12358 21.435 7.12307 21.4346 7.12263L21.4345 7.1225L21.4294 7.10675C20.931 5.64975 20.1269 4.70312 19.2194 4.70312C18.015 4.70312 16.9939 6.37063 16.6271 8.68525L16.631 8.682C16.9437 8.06038 17.3305 7.44438 17.831 6.95475ZM16.2036 21.1805C16.2036 21.1805 16.0415 21.052 15.8356 20.8151C15.7398 20.7056 15.6505 20.5905 15.5682 20.4705C15.542 20.4323 15.516 20.3925 15.4901 20.3515C15.4122 20.2284 15.3501 20.0785 15.2816 19.9304C15.2024 19.7589 15.2021 19.6448 15.1566 19.485C15.1231 19.3674 15.0965 19.2479 15.077 19.1271C15.0454 18.9318 15.0327 18.7339 15.0391 18.5361C15.0426 18.422 15.0544 18.3039 15.0715 18.1836C15.0885 18.0642 15.1117 17.9457 15.1411 17.8288C15.2319 17.4659 15.3887 17.0794 15.6335 16.6714L15.6957 16.5316C15.7757 16.3984 15.7935 16.4043 15.8695 16.2759C16.94 14.4692 17.5175 13.1031 17.235 10.9996C17.204 10.7841 17.1688 10.5693 17.1295 10.3551C17.1049 10.5103 17.0788 10.6653 17.0514 10.82C17.0407 10.868 17.0116 10.9201 17.0006 10.9528C16.5356 12.329 15.8036 13.3414 14.7504 14.4845C14.6037 14.643 14.4553 14.7999 14.3051 14.9551C14.0368 15.2324 13.7658 15.507 13.492 15.7789C13.378 15.8923 13.2617 16.0072 13.1435 16.1245C13.0349 16.232 12.8997 16.4619 12.7385 16.6313C12.639 16.9099 12.5259 17.2241 12.4302 17.5546C12.3871 17.5382 12.346 17.5236 12.3021 17.5066C10.2561 16.7153 8.88623 15.6579 8.88623 15.6579C8.88623 15.6579 9.94023 17.0303 11.716 18.3185C11.8792 18.4368 12.0486 18.5465 12.2234 18.647C12.1501 19.8065 12.6616 20.9196 14.9705 21.2516C15.3609 21.3078 15.7606 21.3051 16.1632 21.2598C16.1592 21.2478 16.1857 21.248 16.1836 21.2414C16.1814 21.2346 16.2051 21.2169 16.2051 21.2169" fill="black"/>
<path d="M14.9686 18.1964C17.0183 18.5272 20.0519 18.4729 23.2012 16.9984C23.2771 16.9629 23.3607 17.0564 23.4366 17.0192C23.4366 17.0192 21.2842 19.2176 18.7137 20.4604C18.6386 20.4967 18.5644 20.5353 18.4886 20.5698C18.2402 20.6833 17.9876 20.7822 17.7339 20.8734C17.2366 21.0522 16.7326 21.1878 16.2322 21.2504C16.2092 21.2534 16.1862 21.2578 16.1632 21.2603C16.16 21.2509 16.1569 21.2414 16.1538 21.2319L16.1504 21.2216C16.1504 21.2216 15.9882 21.0929 15.7823 20.8561C15.6864 20.7466 15.5972 20.6315 15.5151 20.5114C15.4003 20.3448 15.2999 20.1688 15.2149 19.9852C15.1431 19.8302 15.0835 19.6698 15.0366 19.5056C14.9484 19.1973 14.9087 18.8772 14.9189 18.5567C14.9232 18.4387 14.934 18.321 14.9513 18.2042L14.9686 18.1964Z" fill="#9F2254"/>
<path d="M13.4994 15.8625C13.7733 15.5907 14.0444 15.3161 14.3127 15.0387C14.4628 14.8835 14.6112 14.7266 14.7579 14.5681C15.811 13.425 16.5842 12.3552 17.0493 10.979C17.0602 10.9464 17.0712 10.9034 17.0818 10.855L17.0868 10.8326C17.0977 10.7812 17.1083 10.7241 17.1189 10.6597C17.1232 10.6154 17.2623 10.5259 17.2662 10.4842C17.1495 9.88498 16.8808 9.25498 16.5874 8.77398C16.5881 8.77592 16.5888 8.77788 16.5894 8.77986L16.5838 8.77436C16.5453 8.73798 16.5052 8.70398 16.4662 8.66823C16.3481 8.55913 16.2275 8.45268 16.1047 8.34898C15.7394 8.03959 15.3516 7.75777 14.9445 7.50586C14.965 7.84261 14.9782 8.17899 14.9817 8.51499C14.9822 8.55274 14.9812 8.59036 14.9812 8.62799C14.9818 8.75836 14.9822 8.88886 14.9797 9.01923C14.9764 9.18719 14.9705 9.35509 14.9619 9.52286C14.9555 9.64686 14.9477 9.77061 14.938 9.89448C14.937 9.90736 14.9355 9.92024 14.9347 9.93311C14.8979 10.4018 14.8371 10.8683 14.7525 11.3307L14.6045 12.0306C14.2954 13.2839 13.6675 14.4206 13.1513 15.5944C13.0144 15.9056 12.8845 16.2204 12.7707 16.541L12.7384 16.6315C12.8739 16.4885 13.0115 16.3473 13.1509 16.2081C13.2693 16.091 13.3855 15.9759 13.4994 15.8625Z" fill="#FCB03F"/>
<path d="M6.72587 22.6025C7.477 22.2703 8.17212 22.0617 8.99837 21.8988C8.99426 21.7199 8.98492 21.5412 8.97037 21.3628C9.32334 20.4491 9.64882 19.525 9.94637 18.5918C9.41999 18.6431 8.89692 18.7239 8.37962 18.8339C7.99625 18.9153 7.618 19.0175 7.24287 19.1305C6.9415 19.2213 6.64412 19.3255 6.34912 19.4364L7.5155 19.7189L6.577 22.6647L6.72587 22.6025Z" fill="#525353"/>
<path d="M21.146 13.8731C20.9411 13.6037 20.7343 13.3358 20.5255 13.0694L20.493 13.0282C20.2701 12.7442 20.0442 12.4625 19.8154 12.1831C19.5831 11.8995 19.3469 11.6191 19.107 11.3419C19.0919 11.3242 19.0768 11.3064 19.0614 11.2889C18.8637 11.0618 18.6631 10.8374 18.4594 10.6157C18.3352 10.4802 18.2098 10.3459 18.083 10.2127C17.9843 10.1096 17.8847 10.0073 17.7844 9.90573C17.6902 9.8096 17.5962 9.7131 17.5004 9.6186C17.2951 9.41557 17.0861 9.21633 16.8734 9.02098C16.7792 8.93493 16.6839 8.85013 16.5874 8.7666C16.5869 8.76757 16.5864 8.76857 16.586 8.7696C16.7888 9.35235 17.0202 9.94235 17.136 10.5501C17.1662 10.7082 17.191 10.862 17.2113 11.0122C17.4938 13.1156 16.8198 14.489 15.7494 16.2956C15.671 16.4276 15.5923 16.5595 15.5133 16.6911C15.2685 17.0994 15.1118 17.4857 15.0209 17.8486C14.9916 17.9656 14.9684 18.0841 14.9513 18.2035C17.0504 18.5422 20.2069 18.6054 23.4365 17.0185C23.4365 17.0185 22.8032 16.0876 21.8502 14.808C21.6368 14.5213 21.422 14.2357 21.2058 13.9511C21.186 13.925 21.1659 13.899 21.146 13.8731Z" fill="#DF0067"/>
<path d="M6.46557 23.1913L7.51557 19.719L6.34919 19.4365C6.08794 19.5346 5.82907 19.6393 5.57357 19.753L4.53369 23.1913L5.69457 23.2094L6.46557 23.1913Z" fill="#AA9678"/>
<path d="M7.2037 21.6896C7.3062 21.7289 7.41045 21.7644 7.51445 21.8008C8.70573 22.2189 9.9592 22.4322 11.2217 22.4317C12.6579 22.4325 14.0808 22.1567 15.4127 21.6194C15.4812 21.5919 15.5483 21.5617 15.6161 21.5328C15.726 21.4861 15.8351 21.4378 15.9435 21.3877C16.0402 21.3427 16.137 21.2981 16.2322 21.2504C16.2092 21.2534 16.1862 21.2578 16.1632 21.2603C15.7606 21.3057 15.3608 21.3083 14.9705 21.2522C12.6616 20.9202 12.1501 19.8071 12.2233 18.6476C12.0486 18.547 11.8792 18.4374 11.716 18.3191C9.9402 17.0308 8.8862 15.6584 8.8862 15.6584C8.8862 15.6584 10.2561 16.7158 12.3021 17.5072C12.346 17.5242 12.3871 17.5388 12.4302 17.5552C12.5258 17.2247 12.639 16.9104 12.7385 16.6318L12.7707 16.5413C12.8846 16.2207 13.0145 15.9059 13.1513 15.5947C13.6676 14.4209 14.2955 13.2842 14.6046 12.0309L14.7526 11.3311H13.4898L13.4897 11.3312L13.4898 11.3337L13.4893 11.3339C13.4893 11.3373 13.4898 11.3407 13.4898 11.3443C13.4901 11.6447 13.4004 11.9383 13.2323 12.1872C13.0685 12.4293 12.8382 12.6189 12.5691 12.7332C12.3347 12.8324 12.0789 12.8704 11.8258 12.8436C11.8137 12.8423 11.8021 12.8397 11.7901 12.8382C11.7506 12.8331 11.7113 12.8277 11.6732 12.8198C11.6625 12.8174 11.6522 12.8141 11.6416 12.8116C11.6023 12.8026 11.5631 12.7928 11.5251 12.7807C11.5181 12.7783 11.5113 12.7754 11.5043 12.7731C11.4632 12.7592 11.4223 12.7443 11.3828 12.7271C11.3792 12.7256 11.3758 12.7237 11.3723 12.7221C11.3297 12.7032 11.288 12.6825 11.2473 12.6598L11.2455 12.6587C11.1161 12.5857 10.9981 12.4941 10.8952 12.3869L6.5692 11.3311H1.84795C1.8277 11.3671 1.8052 11.4016 1.78533 11.4377C1.74933 11.5031 1.71533 11.5694 1.68058 11.6353C1.56455 11.8545 1.45533 12.0771 1.35308 12.3031C1.25746 12.5142 1.16792 12.7281 1.08458 12.9444L1.07308 12.9732C0.858508 13.5378 0.686772 14.1177 0.559326 14.7081C1.30258 16.9751 2.7487 18.9231 4.63908 20.2961C4.69408 20.3359 4.75208 20.3714 4.80783 20.4104C5.12772 20.635 5.45913 20.8428 5.8007 21.0328C6.25251 21.2841 6.72132 21.5036 7.2037 21.6896Z" fill="white"/>
<path d="M18.5236 24.3728C18.4934 24.0727 18.4777 23.7714 18.4766 23.4698C18.4766 23.382 18.4418 23.2978 18.3797 23.2357C18.3176 23.1736 18.2334 23.1387 18.1456 23.1387H4.25664C4.16883 23.1387 4.08462 23.1736 4.02253 23.2357C3.96044 23.2978 3.92555 23.382 3.92551 23.4698C3.92551 23.7738 3.90764 24.0745 3.87851 24.3728C3.84614 24.7006 3.79611 25.0264 3.72864 25.3488C3.93001 25.4553 4.13301 25.5589 4.33951 25.6572C4.47761 25.0546 4.55847 24.4402 4.58101 23.8224C4.58139 23.8153 4.58214 23.808 4.58239 23.8009H17.8199C17.8201 23.808 17.8209 23.8153 17.8211 23.8224C17.8438 24.4402 17.9247 25.0546 18.0628 25.6572C18.2685 25.5587 18.4722 25.4559 18.6736 25.3488C18.6062 25.0264 18.5561 24.7006 18.5236 24.3728Z" fill="#8B7460"/>
</svg>
