<svg width="24" height="29" viewBox="0 0 24 29" fill="none" xmlns="http://www.w3.org/2000/svg">
<path fill-rule="evenodd" clip-rule="evenodd" d="M20.711 22.2136L8.24001 25.9316C8.15313 25.9579 8.06089 25.9613 7.97232 25.9413C7.88374 25.9214 7.80186 25.8788 7.73466 25.8177C7.66746 25.7567 7.61724 25.6792 7.58891 25.593C7.56058 25.5067 7.5551 25.4146 7.57301 25.3256L12.029 3.81457C12.0479 3.7267 12.0938 3.64694 12.1603 3.5865C12.2268 3.52607 12.3106 3.48799 12.3998 3.47761C12.4891 3.46724 12.5794 3.4851 12.658 3.52868C12.7366 3.57225 12.7995 3.63936 12.838 3.72057L21.087 21.3816C21.124 21.4601 21.1435 21.5457 21.1442 21.6325C21.1449 21.7193 21.1267 21.8052 21.091 21.8843C21.0552 21.9634 21.0027 22.0338 20.9371 22.0907C20.8715 22.1475 20.7944 22.1894 20.711 22.2136V22.2136ZM22.85 21.3356L13.301 0.886566C13.1836 0.634345 12.9998 0.418872 12.7691 0.263298C12.5385 0.107725 12.2698 0.0179317 11.992 0.0035665C11.7142 -0.0155434 11.4364 0.042407 11.1894 0.171034C10.9424 0.299661 10.7357 0.493974 10.592 0.732567L0.237013 17.6516C0.0790521 17.9077 -0.00309653 18.2033 8.92636e-05 18.5042C0.00327506 18.8051 0.0916649 19.0989 0.255014 19.3516L5.31901 27.2606C5.50983 27.5561 5.79126 27.7819 6.12116 27.9042C6.45106 28.0264 6.81168 28.0385 7.14901 27.9386L21.849 23.5556C22.071 23.4909 22.2764 23.3789 22.451 23.2272C22.6255 23.0755 22.7651 22.8878 22.8602 22.677C22.9552 22.4662 23.0034 22.2373 23.0015 22.0061C22.9996 21.7748 22.9476 21.5468 22.849 21.3376L22.85 21.3356Z" fill="#D2D2D2"/>
</svg>
