<svg width="21" height="32" viewBox="0 0 21 32" fill="none" xmlns="http://www.w3.org/2000/svg">
<g clip-path="url(#clip0_978_1405)">
<path d="M10.3446 31.8827V23.8789C10.3446 23.8703 10.347 23.8619 10.3514 23.8545C10.3559 23.8471 10.3622 23.841 10.3698 23.8369L20.6641 17.8983C20.6716 17.8943 20.6779 17.8882 20.6822 17.8808C20.6865 17.8734 20.6887 17.8649 20.6885 17.8563V15.581C20.6888 15.5725 20.6868 15.5641 20.6827 15.5567C20.6786 15.5492 20.6726 15.543 20.6653 15.5387C20.6579 15.5344 20.6496 15.5322 20.6411 15.5322C20.6326 15.5323 20.6243 15.5346 20.617 15.539L10.4169 21.4238C10.4096 21.4283 10.4013 21.4306 10.3928 21.4307C10.3843 21.4307 10.3759 21.4285 10.3686 21.4242C10.3612 21.4199 10.3552 21.4137 10.3511 21.4062C10.3471 21.3987 10.3451 21.3903 10.3454 21.3818V19.1049C10.3454 19.0881 10.3538 19.0721 10.3689 19.0637L20.6641 13.1251C20.6714 13.1208 20.6775 13.1146 20.6817 13.1073C20.686 13.0999 20.6883 13.0916 20.6885 13.0831V10.8078C20.6882 10.7995 20.6859 10.7914 20.6817 10.7842C20.6775 10.7771 20.6716 10.7711 20.6644 10.7669C20.6573 10.7627 20.6492 10.7604 20.6409 10.7602C20.6326 10.76 20.6244 10.7619 20.617 10.7657L10.4169 16.6498C10.4096 16.6544 10.4013 16.6569 10.3928 16.6571C10.3842 16.6573 10.3757 16.6552 10.3683 16.6509C10.3609 16.6467 10.3548 16.6405 10.3506 16.633C10.3464 16.6256 10.3443 16.6171 10.3446 16.6086V14.3324C10.3446 14.3156 10.3538 14.2997 10.3698 14.2912L20.6641 8.35523C20.6716 8.35111 20.6778 8.34501 20.6821 8.33761C20.6864 8.33021 20.6886 8.32177 20.6885 8.31321V6.00768C20.688 5.99113 20.6834 5.97496 20.6752 5.96058C20.667 5.94621 20.6554 5.93408 20.6413 5.92525L10.3925 0.0128472C10.378 0.0044337 10.3617 0 10.345 0C10.3283 0 10.3119 0.0044337 10.2975 0.0128472L8.34825 1.1377C8.34087 1.14175 8.33472 1.14772 8.33043 1.15497C8.32614 1.16222 8.32388 1.17049 8.32388 1.17891C8.32388 1.18733 8.32614 1.1956 8.33043 1.20285C8.33472 1.2101 8.34087 1.21606 8.34825 1.22012L18.5484 7.10408C18.5554 7.10847 18.5611 7.11455 18.565 7.12175C18.569 7.12895 18.5711 7.13703 18.5711 7.14525C18.5711 7.15347 18.569 7.16155 18.565 7.16875C18.5611 7.17595 18.5554 7.18203 18.5484 7.18642L16.5991 8.31063C16.5692 8.32679 16.5332 8.32679 16.5033 8.31063L6.25532 2.39976C6.24 2.39092 6.22263 2.38627 6.20494 2.38627C6.18725 2.38627 6.16988 2.39092 6.15456 2.39976L4.21104 3.52315C4.20368 3.52721 4.19754 3.53318 4.19327 3.54042C4.189 3.54766 4.18674 3.55591 4.18674 3.56432C4.18674 3.57273 4.189 3.58098 4.19327 3.58823C4.19754 3.59547 4.20368 3.60143 4.21104 3.60549L14.4095 9.49034C14.4171 9.49433 14.4234 9.50032 14.4279 9.50765C14.4323 9.51499 14.4346 9.52339 14.4346 9.53196C14.4346 9.54053 14.4323 9.54893 14.4279 9.55626C14.4234 9.5636 14.4171 9.56958 14.4095 9.57357L12.4603 10.6977C12.4449 10.7065 12.4275 10.7112 12.4098 10.7112C12.3921 10.7112 12.3747 10.7065 12.3594 10.6977L2.11811 4.78513C2.10278 4.77628 2.08539 4.77162 2.06769 4.77162C2.04999 4.77162 2.03259 4.77628 2.01726 4.78513L0.00158691 5.95143V25.9712C0.00158691 25.988 0.00999095 26.0048 0.025991 26.0124L1.99876 27.1508C2.00602 27.1552 2.01435 27.1576 2.02285 27.1576C2.03135 27.1577 2.03972 27.1555 2.04704 27.1511C2.05437 27.1468 2.0604 27.1406 2.06447 27.1332C2.06855 27.1257 2.07053 27.1173 2.07019 27.1088V7.22844C2.07001 7.22002 2.0721 7.21169 2.07624 7.20435C2.08037 7.197 2.08641 7.1909 2.09371 7.18669C2.10101 7.18248 2.10931 7.18031 2.11774 7.1804C2.12617 7.1805 2.13442 7.18285 2.14163 7.18723L4.11609 8.32582C4.12951 8.33422 4.13872 8.35014 4.13872 8.36784V28.3573C4.13872 28.3741 4.1472 28.3909 4.16231 28.3993L6.13516 29.5387C6.14256 29.5429 6.15094 29.5452 6.15947 29.5452C6.168 29.5452 6.17639 29.5429 6.18378 29.5387C6.19118 29.5344 6.19733 29.5283 6.20162 29.5209C6.2059 29.5136 6.20818 29.5052 6.20821 29.4966V9.61382C6.20788 9.60532 6.20986 9.59689 6.21393 9.58943C6.21801 9.58197 6.22403 9.57575 6.23136 9.57144C6.23869 9.56713 6.24705 9.56489 6.25555 9.56495C6.26406 9.56501 6.27238 9.56738 6.27965 9.5718L8.2525 10.7095C8.25987 10.7138 8.266 10.7199 8.27026 10.7273C8.27453 10.7346 8.27679 10.743 8.27682 10.7515V30.7442C8.2768 30.7526 8.27886 30.7608 8.28281 30.7681C8.28676 30.7755 8.29248 30.7817 8.29945 30.7863L10.2782 31.9231C10.2853 31.9265 10.2931 31.9281 10.3009 31.9277C10.3087 31.9272 10.3163 31.9249 10.323 31.9208C10.3297 31.9167 10.3352 31.911 10.3391 31.9042C10.3431 31.8974 10.3452 31.8898 10.3454 31.8819L10.3446 31.8827V31.8827Z" fill="#300D4F"/>
</g>
<defs>
<clipPath id="clip0_978_1405">
<rect width="20.69" height="32" fill="white"/>
</clipPath>
</defs>
</svg>
