<svg width="31" height="31" viewBox="0 0 31 31" fill="none" xmlns="http://www.w3.org/2000/svg">
<path d="M14.9488 0.000295842C13.78 0.00158728 12.6133 0.100275 11.4608 0.295309C8.3728 0.835309 7.81182 1.9663 7.81182 4.0523V6.8073H15.1098V7.7253H5.0728C2.9518 7.7253 1.09481 8.98831 0.513812 11.3903C-0.156188 14.1433 -0.186188 15.8613 0.513812 18.7363C1.03281 20.8763 2.27181 22.4003 4.39281 22.4003H6.90181V19.0983C6.90181 16.7123 8.9858 14.6083 11.4608 14.6083H18.7508C20.7798 14.6083 22.3998 12.9533 22.3998 10.9353V4.0533C22.3998 2.0943 20.7308 0.622309 18.7508 0.295309C17.4938 0.0925385 16.2221 -0.00614321 14.9488 0.000295842ZM11.0018 2.2163C11.3579 2.22987 11.6949 2.3809 11.9421 2.63766C12.1892 2.89441 12.3273 3.23693 12.3273 3.59331C12.3273 3.94969 12.1892 4.29222 11.9421 4.54897C11.6949 4.80572 11.3579 4.95672 11.0018 4.9703C10.8218 4.97017 10.6436 4.93456 10.4774 4.86553C10.3111 4.7965 10.1601 4.6954 10.033 4.56798C9.90587 4.44057 9.80511 4.28936 9.73644 4.12298C9.66777 3.95659 9.63257 3.77831 9.63283 3.59832C9.63178 3.41763 9.66637 3.23849 9.73464 3.07119C9.8029 2.90389 9.90349 2.75171 10.0307 2.62334C10.1578 2.49497 10.309 2.39292 10.4757 2.32308C10.6423 2.25324 10.8211 2.21695 11.0018 2.2163Z" fill="url(#paint0_linear_970_1467)"/>
<path d="M23.4668 8.00101V11.186C23.4668 13.655 21.3408 15.733 18.9168 15.733H11.6418C9.64875 15.733 7.99976 17.413 7.99976 19.379V26.209C7.99976 28.153 9.71575 29.296 11.6418 29.854C13.9468 30.521 16.1578 30.642 18.9168 29.854C20.7498 29.33 22.5578 28.278 22.5578 26.209V23.475H15.2838V22.564H26.1998C28.3168 22.564 29.1058 21.11 29.8418 18.927C30.6028 16.68 30.5698 14.519 29.8418 11.637C29.3188 9.56202 28.3198 8 26.1998 8H23.4668V8.00101ZM19.3748 25.298C20.1298 25.298 20.7418 25.907 20.7418 26.66C20.742 27.023 20.5982 27.3713 20.3419 27.6283C20.0856 27.8854 19.7378 28.0302 19.3748 28.031C19.0123 28.031 18.6648 27.887 18.4085 27.6308C18.1522 27.3745 18.0083 27.0269 18.0083 26.6645C18.0083 26.3021 18.1522 25.9545 18.4085 25.6982C18.6648 25.442 19.0123 25.298 19.3748 25.298Z" fill="url(#paint1_linear_970_1467)"/>
<defs>
<linearGradient id="paint0_linear_970_1467" x1="-0.732189" y1="0.862297" x2="15.9638" y2="15.2383" gradientUnits="userSpaceOnUse">
<stop stop-color="#5A9FD4"/>
<stop offset="1" stop-color="#306998"/>
</linearGradient>
<linearGradient id="paint1_linear_970_1467" x1="22.5928" y1="24.067" x2="16.6898" y2="15.662" gradientUnits="userSpaceOnUse">
<stop stop-color="#FFD43B"/>
<stop offset="1" stop-color="#FFE873"/>
</linearGradient>
</defs>
</svg>
