<svg width="24" height="24" viewBox="0 0 24 24" fill="none" xmlns="http://www.w3.org/2000/svg">
<path d="M22.9479 9.56612H15.2987C15.1726 9.56691 15.0476 9.54267 14.931 9.49478C14.8143 9.4469 14.7084 9.37633 14.6192 9.28718C14.53 9.19802 14.4595 9.09205 14.4116 8.97541C14.3637 8.85877 14.3395 8.73379 14.3403 8.60771V0.958525C14.3403 0.832937 14.3154 0.708586 14.2672 0.592629C14.219 0.476672 14.1483 0.371399 14.0592 0.282869C13.9701 0.194338 13.8644 0.124299 13.7482 0.0767816C13.6319 0.0292643 13.5074 0.00520745 13.3818 0.00599553H10.5186C10.3931 0.00519508 10.2685 0.0292428 10.1523 0.0767546C10.036 0.124266 9.9303 0.194304 9.84121 0.282835C9.75213 0.371367 9.68143 0.476644 9.63319 0.592607C9.58495 0.70857 9.56013 0.832929 9.56014 0.958525V8.60771C9.56094 8.73379 9.53669 8.85877 9.4888 8.97541C9.44092 9.09205 9.37036 9.19802 9.2812 9.28718C9.19204 9.37633 9.08607 9.4469 8.96944 9.49478C8.8528 9.54267 8.72781 9.56691 8.60173 9.56612H5.73854C5.61246 9.56691 5.48747 9.54267 5.37083 9.49478C5.2542 9.4469 5.14823 9.37633 5.05907 9.28718C4.96991 9.19802 4.89935 9.09205 4.85147 8.97541C4.80358 8.85877 4.77933 8.73379 4.78013 8.60771V0.958525C4.78093 0.832435 4.75669 0.70744 4.70882 0.59079C4.66094 0.474141 4.59037 0.36816 4.50122 0.278995C4.41206 0.18983 4.30609 0.119255 4.18944 0.0713657C4.0728 0.0234763 3.9478 -0.000774947 3.82171 1.88763e-05H0.952454C0.826877 2.87924e-05 0.702542 0.0248694 0.586602 0.0731114C0.470661 0.121353 0.365404 0.192045 0.276886 0.281118C0.188368 0.370192 0.118337 0.475889 0.0708208 0.592129C0.023305 0.708369 -0.000757337 0.832857 1.82838e-05 0.958431V22.9539C-0.000762873 23.08 0.0234939 23.205 0.071382 23.3216C0.11927 23.4382 0.189837 23.5442 0.278989 23.6334C0.368142 23.7225 0.474107 23.7931 0.59074 23.841C0.707373 23.8889 0.832352 23.9131 0.958431 23.9123H22.9478C23.0739 23.9131 23.1989 23.8889 23.3156 23.841C23.4322 23.7931 23.5382 23.7225 23.6273 23.6334C23.7165 23.5442 23.7871 23.4383 23.835 23.3216C23.8829 23.205 23.9071 23.08 23.9064 22.9539V10.5426C23.9096 10.415 23.8871 10.288 23.8403 10.1693C23.7935 10.0506 23.7233 9.94244 23.6339 9.85136C23.5445 9.76028 23.4377 9.6881 23.3199 9.6391C23.2021 9.59009 23.0756 9.56528 22.9479 9.56612ZM19.1023 17.6887C19.1031 17.8772 19.0667 18.064 18.9951 18.2383C18.9235 18.4127 18.8181 18.5712 18.6851 18.7048C18.5521 18.8384 18.394 18.9444 18.22 19.0167C18.0459 19.089 17.8592 19.1262 17.6707 19.1262H15.7539C15.5654 19.1262 15.3788 19.089 15.2047 19.0167C15.0306 18.9444 14.8725 18.8384 14.7395 18.7048C14.6065 18.5713 14.5012 18.4127 14.4296 18.2384C14.358 18.064 14.3215 17.8772 14.3223 17.6887V15.7778C14.3215 15.5893 14.358 15.4025 14.4296 15.2282C14.5012 15.0538 14.6065 14.8953 14.7395 14.7617C14.8725 14.6281 15.0306 14.5221 15.2047 14.4498C15.3788 14.3775 15.5654 14.3403 15.7539 14.3403H17.6706C17.8592 14.3403 18.0458 14.3775 18.2199 14.4498C18.394 14.5221 18.552 14.6281 18.6851 14.7617C18.8181 14.8952 18.9234 15.0538 18.995 15.2281C19.0666 15.4025 19.103 15.5893 19.1022 15.7778V17.6887H19.1023Z" fill="#FF6600"/>
</svg>
