<svg width="31" height="28" viewBox="0 0 31 28" fill="none" xmlns="http://www.w3.org/2000/svg">
<path d="M15.3125 16.7811C16.8227 16.7811 18.0469 15.5232 18.0469 13.9716C18.0469 12.42 16.8227 11.1621 15.3125 11.1621C13.8023 11.1621 12.5781 12.42 12.5781 13.9716C12.5781 15.5232 13.8023 16.7811 15.3125 16.7811Z" fill="#36ADE1"/>
<path d="M15.3125 20.4145C12.0259 20.4962 8.74759 20.041 5.6 19.0659C4.14599 18.5924 2.78987 17.8463 1.60016 16.8655C1.14617 16.5305 0.76811 16.0985 0.491905 15.5992C0.215701 15.0999 0.0478949 14.5451 0 13.9729C0 12.1153 1.98625 10.2947 5.31344 9.10347C8.54518 8.04794 11.9218 7.53638 15.3125 7.58859C18.658 7.54056 21.9893 8.04288 25.1803 9.0765C26.5806 9.53519 27.8908 10.2452 29.05 11.1735C29.4962 11.4929 29.8686 11.9093 30.1408 12.3931C30.413 12.8768 30.5783 13.4162 30.625 13.9729C30.625 15.9036 28.4047 17.8601 24.8281 19.0761C21.7415 20.0193 18.5323 20.4707 15.3125 20.4145ZM15.3125 8.93265C12.0686 8.8881 8.8384 9.37442 5.74328 10.3734C2.68078 11.4713 1.30813 12.9727 1.30813 13.9695C1.30813 15.0124 2.78359 16.652 6.02328 17.7904C9.03445 18.7185 12.1697 19.1506 15.3125 19.0704C18.3929 19.127 21.4637 18.6988 24.418 17.8005C27.7812 16.6554 29.3125 15.0135 29.3125 13.9729C29.2573 13.6158 29.1307 13.2743 28.9405 12.97C28.7504 12.6658 28.5009 12.4053 28.2078 12.2052C27.1707 11.3816 26.0003 10.7524 24.7505 10.3464C21.6978 9.36167 18.5117 8.88441 15.3125 8.93265Z" fill="#36ADE1"/>
<path d="M9.10006 27.9842C8.58983 27.9963 8.08561 27.8691 7.63881 27.6156C6.07256 26.6874 5.53006 24.0105 6.18741 20.4537C6.91217 17.0498 8.16797 13.7888 9.90616 10.7969C11.5366 7.79531 13.624 5.08113 16.0891 2.75721C17.1754 1.73984 18.4285 0.928272 19.7904 0.360143C20.283 0.122953 20.8203 0 21.3643 0C21.9083 0 22.4456 0.122953 22.9382 0.360143C24.5668 1.32436 25.106 4.27771 24.3458 8.06828C23.5987 11.2875 22.3755 14.3699 20.719 17.2081C19.1459 20.1742 17.1242 22.8648 14.7296 25.1792C13.6039 26.2365 12.2975 27.0705 10.8763 27.6392C10.3074 27.8562 9.70683 27.9728 9.10006 27.9842ZM11.0393 11.4644C9.38126 14.3293 8.17766 17.4472 7.47366 20.7009C6.86881 23.9768 7.44959 25.9468 8.29397 26.448C9.16897 26.9683 11.293 26.475 13.8721 24.16C16.1581 21.9426 18.0877 19.3672 19.5891 16.5294C21.1761 13.816 22.3494 10.8689 23.0683 7.7907C23.7837 4.22264 23.1657 2.03797 22.2885 1.51878C21.9597 1.38935 21.6084 1.33141 21.2567 1.34862C20.9051 1.36584 20.5607 1.45784 20.2454 1.6188C19.0331 2.13276 17.9187 2.86243 16.9532 3.77424C14.598 6.00025 12.6041 8.59864 11.0469 11.4711L11.0393 11.4644Z" fill="#36ADE1"/>
<path d="M21.5217 27.9999C20.0396 27.9999 18.1573 27.0784 16.1973 25.3466C13.689 23.0016 11.5663 20.2552 9.91152 17.2137C8.19513 14.263 6.94928 11.0492 6.22121 7.69402C5.90545 6.21789 5.84694 4.69594 6.0484 3.19882C6.09497 2.64345 6.25956 2.10533 6.53056 1.62243C6.80155 1.13952 7.17236 0.723578 7.61683 0.403933C9.24324 -0.563658 12.0028 0.430904 14.8192 2.99991C17.1604 5.27244 19.1487 7.90046 20.7145 10.7923C22.4298 13.6741 23.6887 16.8176 24.4442 20.1053C24.7735 21.6355 24.8243 23.2152 24.594 24.7645C24.5392 25.3359 24.3648 25.8883 24.0828 26.3839C23.8007 26.8795 23.4177 27.3066 22.96 27.6358C22.5204 27.8861 22.024 28.0118 21.5217 27.9999ZM11.0436 16.5372C12.6311 19.4438 14.6587 22.0723 17.0504 24.324C19.5103 26.4985 21.4615 26.966 22.3004 26.4592C23.1754 25.9366 23.8207 23.8037 23.1557 20.3525C22.4272 17.2136 21.2197 14.2131 19.5781 11.4621C18.0838 8.69433 16.1861 6.17786 13.9507 4.00009C11.2995 1.58167 9.14918 1.04113 8.27308 1.56257C8.00002 1.79057 7.77594 2.07426 7.61498 2.39574C7.45402 2.71722 7.35968 3.06949 7.33793 3.43032C7.16403 4.76549 7.22068 6.12171 7.50527 7.43667C8.2056 10.6453 9.40046 13.7183 11.0446 16.5394L11.0436 16.5372Z" fill="#36ADE1"/>
</svg>
