<svg width="33" height="28" viewBox="0 0 33 28" fill="none" xmlns="http://www.w3.org/2000/svg">
<g clip-path="url(#clip0_971_1567)">
<path d="M31.3069 21.502C29.5681 22.4083 20.5607 26.1118 18.6431 27.1115C16.7255 28.1114 15.6602 28.1017 14.1453 27.3775C12.6305 26.6534 3.04506 22.7815 1.31835 21.9561C0.455441 21.5437 0.00158691 21.1955 0.00158691 20.8666V17.5733C0.00158691 17.5733 12.4807 14.8567 14.4953 14.1339C16.5098 13.4111 17.2087 13.385 18.9231 14.013C20.6377 14.6412 30.889 16.4908 32.5834 17.1113L32.5826 20.3581C32.5829 20.6836 32.1919 21.0407 31.3069 21.502Z" fill="#912626"/>
<path d="M31.3062 18.2285C29.5675 19.1344 20.5604 22.838 18.6428 23.8376C16.7253 24.8376 15.66 24.8278 14.1452 24.1036C12.6303 23.38 3.04529 19.5074 1.3187 18.6826C-0.407878 17.8572 -0.444023 17.2892 1.25201 16.6251C2.94805 15.9607 12.4805 12.2208 14.4954 11.498C16.5098 10.7755 17.2087 10.7492 18.9231 11.3774C20.6376 12.0054 29.5909 15.5691 31.2851 16.1896C32.9798 16.8108 33.0449 17.3223 31.3062 18.2285Z" fill="#C6302B"/>
<path d="M31.3069 16.1728C29.5681 17.0792 20.5607 20.7826 18.6431 21.7827C16.7255 22.7822 15.6602 22.7725 14.1453 22.0484C12.6304 21.3246 3.04506 17.4523 1.31835 16.6269C0.455441 16.2146 0.00158691 15.8668 0.00158691 15.5378V12.2442C0.00158691 12.2442 12.4807 9.52764 14.4953 8.80486C16.5098 8.08208 17.2087 8.05586 18.9231 8.68395C20.6378 9.31204 30.8892 11.1612 32.5834 11.7819L32.5826 15.029C32.5829 15.3544 32.1919 15.7116 31.3069 16.1728Z" fill="#912626"/>
<path d="M31.3062 12.8993C29.5675 13.8055 20.5604 17.5089 18.6428 18.5089C16.7253 19.5085 15.66 19.4987 14.1452 18.7745C12.6303 18.0508 3.04529 14.1784 1.3187 13.3534C-0.407878 12.5283 -0.444023 11.9602 1.25201 11.2958C2.94805 10.6318 12.4806 6.89166 14.4954 6.16901C16.5098 5.44635 17.2087 5.42013 18.9231 6.04823C20.6376 6.67619 29.5909 10.2397 31.2851 10.8604C32.9798 11.4815 33.0449 11.9931 31.3062 12.8993Z" fill="#C6302B"/>
<path d="M31.3069 10.6472C29.5681 11.5533 20.5607 15.257 18.6431 16.2571C16.7255 17.2567 15.6602 17.2469 14.1453 16.5227C12.6304 15.7989 3.04506 11.9265 1.31835 11.1015C0.455441 10.6888 0.00158691 10.3409 0.00158691 10.0123V6.7185C0.00158691 6.7185 12.4807 4.00212 14.4953 3.27947C16.5098 2.55656 17.2087 2.53059 18.9231 3.15856C20.6378 3.78665 30.8892 5.63579 32.5834 6.2565L32.5826 9.50349C32.5829 9.82867 32.1919 10.1858 31.3069 10.6472Z" fill="#912626"/>
<path d="M31.3063 7.3728C29.5676 8.27898 20.5605 11.9826 18.6429 12.9822C16.7254 13.9818 15.6601 13.972 14.1453 13.2482C12.6305 12.524 3.04534 8.65189 1.31889 7.82678C-0.40782 7.0018 -0.443838 6.43353 1.25207 5.76929C2.94811 5.10518 12.4807 1.36553 14.4954 0.642616C16.5099 -0.0801658 17.2088 -0.106129 18.9231 0.521961C20.6376 1.15005 29.591 4.71356 31.2851 5.33427C32.9799 5.95485 33.0449 6.46662 31.3063 7.3728Z" fill="#C6302B"/>
<path d="M20.274 4.16936L17.4728 4.46018L16.8457 5.96912L15.8329 4.2853L12.5982 3.99461L15.0118 3.12419L14.2876 1.78809L16.5474 2.67187L18.6777 1.97441L18.1019 3.35596L20.274 4.16936ZM16.6785 11.4898L11.4505 9.32149L18.9417 8.17158L16.6785 11.4898ZM9.43027 5.00809C11.6416 5.00809 13.4343 5.70299 13.4343 6.56005C13.4343 7.41736 11.6416 8.11214 9.43027 8.11214C7.21891 8.11214 5.42627 7.41723 5.42627 6.56005C5.42627 5.70299 7.21891 5.00809 9.43027 5.00809Z" fill="white"/>
<path d="M23.5846 4.58118L28.0183 6.33322L23.5884 8.0836L23.5846 4.58105" fill="#621B1C"/>
<path d="M18.6794 6.5223L23.5845 4.58203L23.5884 8.08445L23.1074 8.27256L18.6794 6.5223Z" fill="#9A2928"/>
</g>
<defs>
<clipPath id="clip0_971_1567">
<rect width="32.585" height="28" fill="white"/>
</clipPath>
</defs>
</svg>
