<svg width="25" height="28" viewBox="0 0 25 28" fill="none" xmlns="http://www.w3.org/2000/svg">
<path d="M23.261 21.5927C23.513 24.8278 23.513 26.3445 23.513 28H16.0265C16.0265 27.6395 16.0335 27.3093 16.0393 26.9757C16.0603 25.935 16.0813 24.8512 15.9122 22.6613C15.6905 19.4565 14.3092 18.7437 11.7705 18.7437H0.00116672V12.9103H12.1298C15.3358 12.9103 16.9388 11.9362 16.9388 9.35317C16.9388 7.08283 15.3358 5.70733 12.1298 5.70733H0V0H13.4645C20.7223 0 24.3297 3.42767 24.3297 8.904C24.3297 13.0002 21.791 15.6707 18.3633 16.1163C21.2567 16.6962 22.9483 18.3435 23.261 21.5927ZM0 28V23.6518H7.91467C9.2365 23.6518 9.5235 24.6318 9.5235 25.2175V28H0Z" fill="white"/>
</svg>
