<svg width="27" height="24" viewBox="0 0 27 24" fill="none" xmlns="http://www.w3.org/2000/svg">
<path d="M0.448089 0.535069C1.83939 0.0339794 4.59412 -0.549019 7.7187 1.01395C8.56208 1.4831 9.34108 2.05959 10.0362 2.72901C11.1326 2.53094 12.2618 2.43091 13.4081 2.43091C16.8389 2.43091 20.0915 3.33002 22.5671 4.96202C23.8485 5.80803 24.8676 6.81105 25.5948 7.94405C26.404 9.20693 26.8151 10.564 26.8141 12.02C26.8141 13.4361 26.404 14.7951 25.5939 16.0571C24.8667 17.1911 23.8474 18.1931 22.5662 19.0391C20.0915 20.671 16.8389 21.5692 13.4071 21.5692C12.2608 21.5692 11.1315 21.4691 10.0353 21.2711C9.34012 21.9405 8.56112 22.517 7.71776 22.9862C4.59203 24.5491 1.83844 23.9661 0.447147 23.4641C-0.00995054 23.2991 -0.150096 22.7191 0.186966 22.3702C1.1682 21.3542 2.7916 19.3452 2.39253 17.5191C0.841294 15.9303 0 14.0142 0 11.9811C0 9.98611 0.841189 8.07005 2.39358 6.48006C2.79265 4.65408 1.16924 2.64605 0.188013 1.63005C-0.150096 1.28105 -0.00890314 0.700039 0.448089 0.535069ZM13.2681 5.1051C7.24862 5.1051 2.36855 8.26309 2.36855 12.1582C2.36855 13.8551 3.29468 15.4131 4.83912 16.6302C5.27422 18.0173 5.01927 19.5812 4.07491 21.3212C4.02987 21.4053 3.98798 21.4892 3.94189 21.5722C4.75207 21.5052 5.57127 21.2822 6.40041 20.8753C7.03188 20.519 7.61595 20.0845 8.13883 19.5822L9.08109 18.6732C10.3704 19.0202 11.7847 19.2122 13.2681 19.2122C19.2874 19.2122 24.1675 16.0552 24.1684 12.1582C24.1684 8.26309 19.2874 5.1051 13.2681 5.1051ZM8.05283 10.5372C8.94 10.5372 9.65917 11.2532 9.65917 12.1362C9.65917 13.0191 8.94 13.7353 8.05283 13.7353C7.16566 13.7353 6.4465 13.0193 6.4465 12.1362C6.4465 11.2532 7.16566 10.5373 8.05283 10.5373V10.5372ZM13.224 10.5372C14.1112 10.5372 14.8304 11.2532 14.8304 12.1362C14.8304 13.0191 14.1112 13.7353 13.2241 13.7353C12.3369 13.7353 11.6176 13.0193 11.6176 12.1362C11.6176 11.2532 12.3368 10.5373 13.2241 10.5373L13.224 10.5372ZM18.3951 10.5372C19.2813 10.5372 20.0015 11.2532 20.0015 12.1362C20.0015 13.0191 19.2823 13.7353 18.3952 13.7353C17.5081 13.7353 16.7888 13.0193 16.7888 12.1362C16.7888 11.2532 17.508 10.5373 18.3952 10.5373L18.3951 10.5372Z" fill="#F5455C"/>
</svg>
