<svg width="36" height="15" viewBox="0 0 36 15" fill="none" xmlns="http://www.w3.org/2000/svg">
<path d="M26.8907 3.62254V14.9704H24.7663V10.5805C24.1815 11.2393 23.2268 11.5822 22.2117 11.5822C19.9865 11.5486 18.4604 9.90824 18.4604 7.45446C18.4604 4.98052 20.047 3.36035 22.2588 3.36035C23.4352 3.36035 24.4504 3.82422 24.968 4.60405L25.1092 3.62254H26.8907ZM24.726 7.4948C24.726 6.16371 23.8789 5.30321 22.6688 5.30321C21.4588 5.30321 20.6453 6.18388 20.6453 7.47463C20.6453 8.76539 21.4386 9.65278 22.6823 9.65278C23.8857 9.65278 24.726 8.82589 24.726 7.4948Z" fill="white"/>
<path d="M4.34285 0.0673828C6.7294 0.0673828 8.36974 1.37831 8.38318 3.40183H6.07058C6.05041 2.52116 5.29075 1.9699 4.22184 1.9699C3.24033 1.9699 2.59496 2.46738 2.59496 3.23377C2.59496 4.06066 3.30084 4.32284 4.04705 4.49763L5.82184 4.92788C7.60335 5.32452 8.67226 6.43376 8.67226 8.08754C8.67226 10.2455 6.97814 11.5968 4.40336 11.5968C1.86218 11.5968 0.134454 10.2859 0 8.14132H2.3126C2.36638 9.12283 3.19327 9.69426 4.42352 9.69426C5.61344 9.69426 6.30587 9.17662 6.30587 8.32956C6.30587 7.54973 5.70083 7.26065 5.04201 7.08586L3.21344 6.63544C1.27731 6.18502 0.27563 5.09595 0.27563 3.5094C0.282353 1.39847 1.90252 0.0673828 4.34285 0.0673828Z" fill="white"/>
<path d="M13.7278 11.589C11.274 11.589 9.65381 9.91508 9.65381 7.4613C9.65381 4.95374 11.3278 3.36719 13.6807 3.36719C15.9933 3.36719 17.5328 4.92013 17.5328 7.07811C17.5328 7.41424 17.5059 7.75038 17.4454 8.07979H11.7782C11.832 9.13525 12.5916 9.84113 13.7278 9.84113C14.5546 9.84113 15.2135 9.4781 15.4555 8.90668H17.5462C17.2034 10.5201 15.6639 11.589 13.7278 11.589ZM15.3345 6.64786C15.3009 5.69996 14.595 5.12853 13.6067 5.12853C12.5849 5.12853 11.8454 5.7134 11.7916 6.64786H15.3345Z" fill="white"/>
<path d="M31.4489 3.62838L34.8304 2.72754L36.0001 5.8267L32.6925 6.77459L31.4489 3.62838Z" fill="#FBA018"/>
<path d="M36.0001 5.82918L31.4489 9.45942V3.63086L33.1967 5.82918H36.0001Z" fill="#E84100"/>
<path d="M36.0001 5.82856V0L31.4489 3.63025H34.2522L36.0001 5.82856Z" fill="#AAEACD"/>
</svg>
