<svg width="15" height="24" viewBox="0 0 15 24" fill="none" xmlns="http://www.w3.org/2000/svg">
<path d="M10.1928 0.149448C9.23379 0.35218 8.78927 0.508129 7.99401 0.913611C5.83402 2.04424 4.31351 4.12618 3.84566 6.598C3.66631 7.57268 3.7287 9.12439 4.00161 10.1069C4.32131 11.2609 4.84374 12.2199 5.81062 13.4208C6.35645 14.107 6.55918 14.4891 6.73853 15.1596C7.10498 16.5789 6.48122 18.1929 5.24921 19.0116C4.63321 19.417 4.09518 19.573 3.11269 19.6354C2.44211 19.6822 2.13801 19.7368 1.90407 19.8616C0.609698 20.5322 0.289999 22.1697 1.24908 23.2613C1.69354 23.7681 2.12241 23.9474 2.98794 23.9942C4.14196 24.0489 5.64689 23.7136 6.80872 23.1442C8.47744 22.3178 9.95105 20.7192 10.6296 18.996C11.0818 17.8575 11.1675 17.3585 11.1675 16.0174C11.1675 14.9102 11.1442 14.684 10.9647 13.9978C10.6762 12.914 10.1851 11.9705 9.3351 10.8164C8.52424 9.74038 8.32144 9.33492 8.18104 8.57076C7.95493 7.32316 8.51636 5.9196 9.56122 5.12426C10.2552 4.60183 11.0271 4.36011 12.0331 4.36011C13.0155 4.36011 13.7174 3.90005 14.1228 2.97995C14.2476 2.69144 14.2709 2.5121 14.2476 2.06764C14.1852 1.16313 13.7563 0.53933 12.9531 0.180648C12.6022 0.0168992 12.4308 -0.0065013 11.7056 0.00129874C11.2143 0.00129874 10.5905 0.0636819 10.1928 0.149448Z" fill="#8C52FF"/>
<path d="M11.3544 5.06066C10.4499 5.21661 9.56878 5.88719 9.14775 6.73711C8.94512 7.16598 8.92163 7.27514 8.92163 8.02371C8.92163 8.74889 8.94512 8.89704 9.13215 9.2869C9.58438 10.2616 10.5279 10.94 11.5495 11.0413C12.8906 11.1661 14.0211 10.5111 14.6373 9.27132C14.8243 8.88924 14.8478 8.75667 14.8478 8.06269C14.8478 7.37651 14.8243 7.22836 14.6373 6.8307C14.3721 6.27707 14.1303 5.96517 13.6313 5.59089C13.0231 5.13864 12.1419 4.92811 11.3544 5.06066Z" fill="#5E17EB"/>
<path d="M2.4578 12.9383C1.10882 13.1723 0.0873628 14.3029 0.0093796 15.6674C-0.0374034 16.4473 0.0873631 16.954 0.461645 17.5387C1.03086 18.4043 1.92757 18.88 2.99583 18.88C3.83016 18.88 4.37599 18.6695 4.96861 18.1237C5.72495 17.4218 6.06025 16.5798 5.96668 15.5973C5.81073 13.8895 4.17326 12.6498 2.4578 12.9383Z" fill="#8C52FF"/>
<path d="M6.08516 13.7805L6.1149 13.756C5.14022 11.6118 8.25914 9.46745 10.4035 12.5863C10.4349 12.6319 10.467 12.6753 10.4997 12.7168C10.2157 12.1086 9.83817 11.4994 9.3352 10.8164C8.52434 9.74038 8.32154 9.33492 8.18131 8.57076C7.95519 7.32316 8.51663 5.9196 9.56149 5.12426C10.2554 4.60183 11.0274 4.36011 12.0332 4.36011C13.0158 4.36011 13.7174 3.90005 14.1229 2.97995C14.2477 2.69144 14.2712 2.51209 14.2477 2.06764C14.1853 1.16313 13.7565 0.53933 12.9534 0.180631C12.6025 0.0168821 12.4309 -0.00650075 11.7057 0.00129928C11.2144 0.00129928 10.5907 0.0636649 10.193 0.149448C9.23389 0.35218 8.78937 0.50813 7.99411 0.913611C5.8342 2.04424 4.31368 4.12618 3.84583 6.59798C3.6665 7.57268 3.72886 9.12439 4.00178 10.1069C4.32148 11.2609 4.84391 12.22 5.8108 13.4209C5.91375 13.5503 6.00448 13.6687 6.08516 13.7805Z" fill="#5E17EB"/>
</svg>
