<svg width="26" height="28" viewBox="0 0 26 28" fill="none" xmlns="http://www.w3.org/2000/svg">
<path d="M4.30287 2.92263C4.30287 2.92263 4.20954 3.0708 4.2982 3.29013C4.35187 3.42546 4.5152 3.58879 4.69486 3.76145C4.69486 3.76145 6.579 5.60009 6.80999 5.86608C7.85414 7.07123 8.30797 8.2577 8.34997 9.89451C8.37563 10.9445 8.1738 11.8685 7.68148 12.943C6.79949 14.8668 4.93986 16.9889 2.06991 19.3478L2.4899 19.2078C2.76173 19.006 3.12922 18.789 3.99721 18.3142C5.99567 17.2222 8.23913 16.2166 10.9959 15.1806C14.9613 13.6908 21.4841 11.942 25.1963 11.3738L25.5825 11.3143L25.5242 11.221C25.1835 10.6937 24.9525 10.3682 24.6725 10.0228C23.8594 9.01602 22.8735 8.19471 21.6661 7.51922C20.0071 6.5894 17.8546 5.86725 15.1328 5.32592C14.2832 5.16616 13.4311 5.02031 12.5767 4.88843C11.0484 4.65405 9.52238 4.40515 7.99881 4.14178C7.50298 4.05428 6.76216 3.93062 6.271 3.82445C5.89224 3.74397 5.518 3.6435 5.14986 3.52346C4.83719 3.40096 4.39737 3.28196 4.30287 2.92263ZM5.39485 3.98311C5.39835 3.98078 5.46835 4.00295 5.55468 4.03211C5.71335 4.08578 5.92334 4.14878 6.16834 4.21761C6.33867 4.26428 6.5265 4.31561 6.72716 4.36577C6.98149 4.43111 7.19265 4.48711 7.19499 4.49061C7.22299 4.5221 7.65114 5.88825 7.79698 6.41207C7.85297 6.61273 7.89497 6.77957 7.89147 6.78307C7.85081 6.73248 7.81562 6.67773 7.78648 6.61973C7.29182 5.74942 6.50667 4.86393 5.60018 4.15111C5.52971 4.09764 5.46122 4.0416 5.39485 3.98311ZM7.48315 4.55944C7.55989 4.56677 7.63595 4.58003 7.71064 4.5991C8.4328 4.75777 9.72311 5.00743 10.5514 5.14743C10.6903 5.17076 10.8034 5.19409 10.8034 5.20226C10.7696 5.2326 10.731 5.25705 10.6891 5.27459C10.5503 5.34459 9.98677 5.68175 9.79894 5.80775C9.36989 6.08953 8.96765 6.41015 8.59729 6.76557C8.5226 6.84217 8.44597 6.91686 8.36747 6.98956C8.34743 6.93759 8.33144 6.88416 8.31963 6.82973C8.12152 6.11914 7.86797 5.42519 7.56131 4.75427C7.53052 4.69152 7.50287 4.62727 7.47848 4.56177C7.47848 4.5606 7.47848 4.55944 7.48315 4.55944ZM11.1546 5.25709C11.1779 5.26526 11.2246 5.40876 11.3051 5.72842C11.491 6.48219 11.5513 7.26147 11.4836 8.03488L11.4696 8.07921L11.2514 8.00921C10.6471 7.8199 10.0396 7.64098 9.42911 7.47255C9.20852 7.4161 8.99054 7.34992 8.77579 7.27422C8.77579 7.24856 9.29961 6.72473 9.52478 6.52524C9.95527 6.14491 11.1138 5.24426 11.1546 5.25709ZM11.4462 5.29909C11.4591 5.28742 13.2009 5.58842 13.9919 5.74008C14.5822 5.85325 15.435 6.03175 15.4863 6.05391C15.512 6.06324 15.4233 6.11224 15.1398 6.24057C14.0199 6.74457 13.1892 7.19722 12.3632 7.74905C12.1462 7.89371 11.9654 8.01271 11.9619 8.01271C11.9572 8.01271 11.9549 7.89138 11.9549 7.74438C11.9549 6.9394 11.7927 6.12624 11.4987 5.43909C11.4769 5.39416 11.4593 5.34729 11.4462 5.29909ZM15.9495 6.19041C15.9623 6.20324 15.9052 6.5474 15.8562 6.7504C15.7022 7.38039 15.2938 8.31837 14.7899 9.19919C14.7369 9.29854 14.6777 9.3944 14.6125 9.48618C14.5238 9.44858 14.4383 9.4037 14.357 9.35202C13.8647 9.06386 13.307 8.79203 12.6946 8.53887C12.5849 8.49578 12.4768 8.44909 12.3702 8.39887C12.3422 8.3732 13.7037 7.47139 14.4259 7.03856C15.0033 6.69207 15.9332 6.17408 15.9495 6.19041ZM16.2715 6.24057C16.31 6.24057 17.0823 6.45057 17.4813 6.57074C18.4765 6.86823 19.6244 7.28706 20.3688 7.62538L20.6779 7.76538L20.4598 7.81555C18.6386 8.23554 17.0765 8.71736 15.5738 9.32752C15.449 9.37885 15.3405 9.42085 15.3323 9.42085C15.3535 9.34592 15.3829 9.27354 15.4198 9.20502C15.8725 8.24487 16.1642 7.23689 16.24 6.38174C16.247 6.30357 16.261 6.24057 16.2715 6.24057ZM8.59496 8.00454C8.60663 7.99288 9.19462 8.13054 9.51545 8.22037C9.99727 8.3557 11.0228 8.6987 11.0228 8.72553C11.0228 8.7302 10.9096 8.82936 10.7719 8.94486C10.1762 9.44574 9.5991 9.96836 9.04179 10.5117C8.92647 10.6272 8.8066 10.7381 8.68246 10.8442C8.67429 10.8442 8.67079 10.8173 8.67546 10.7858C8.77229 10.073 8.75129 9.15836 8.61713 8.22737C8.60388 8.15416 8.59608 8.08007 8.5938 8.00571L8.59496 8.00454ZM20.9731 8.01621C20.9812 8.02554 20.7001 8.46537 20.5251 8.7162C20.2684 9.08252 19.8986 9.56318 19.0539 10.626L17.941 12.0283C17.8393 12.1602 17.7347 12.2897 17.6271 12.4168C17.6236 12.4168 17.5688 12.3398 17.507 12.2465C17.0301 11.5348 16.4524 10.8962 15.792 10.3507C15.6885 10.264 15.5835 10.1792 15.477 10.0963C15.4455 10.0752 15.4166 10.0505 15.3907 10.0228C15.3907 10.0112 16.1105 9.70318 16.66 9.47918C17.7245 9.0513 18.8057 8.666 19.9009 8.3242C20.4166 8.16671 20.9649 8.00921 20.9731 8.01621ZM21.2974 8.10137C21.3824 8.13013 21.4635 8.16931 21.5389 8.21804C22.5676 8.80737 23.519 9.52216 24.3715 10.346C24.5978 10.5677 25.1497 11.1428 25.1415 11.1475L24.718 11.1813C22.933 11.3155 20.6511 11.6946 18.4531 12.2231C18.3038 12.2581 18.1755 12.2885 18.1661 12.2885C18.158 12.2885 18.3213 12.1251 18.529 11.9245C19.8204 10.6843 20.4084 9.90151 21.1014 8.50153C21.2041 8.29387 21.2916 8.11304 21.2951 8.10254H21.2974V8.10137ZM11.8616 9.06969C11.9211 9.08136 12.4717 9.33802 12.8871 9.54568C13.2662 9.73585 13.8414 10.0427 13.8705 10.0695C13.874 10.073 13.6722 10.178 13.4202 10.304C12.6726 10.6752 11.9416 11.0789 11.2292 11.5138C11.0251 11.6386 10.8559 11.7401 10.8501 11.7401C10.8326 11.7401 10.8384 11.725 10.9528 11.5173C11.3467 10.7825 11.6365 9.99641 11.8137 9.18169C11.8301 9.10936 11.8487 9.06502 11.8616 9.06852V9.06969ZM11.3074 9.16769C11.3191 9.17936 11.1767 9.70435 11.0858 9.98434C10.8392 10.721 10.5126 11.4283 10.1116 12.0936L10.0066 12.2651L9.76977 12.0353C9.53933 11.8004 9.27315 11.6036 8.98112 11.452C8.90884 11.4193 8.84005 11.3795 8.77579 11.333C8.77579 11.298 9.49911 10.6412 10.0568 10.1687C10.4569 9.83034 11.2981 9.15719 11.3074 9.16769ZM14.6767 10.5537L14.8832 10.6878C15.358 10.9958 15.9192 11.41 16.3473 11.7658C16.5877 11.9665 17.0531 12.3841 17.1488 12.4845L17.2001 12.5393L16.8571 12.635C15.1034 13.1133 13.3712 13.6676 11.6656 14.2963C11.5424 14.3435 11.4179 14.387 11.2922 14.4269C11.2677 14.4269 11.2432 14.4491 11.6807 14.0466C12.8007 13.0165 13.7889 11.8813 14.5274 10.7777L14.6767 10.5537ZM13.7912 10.7753C13.8017 10.7858 13.2172 11.6036 12.8707 12.0656C12.4554 12.6175 11.7157 13.5414 11.2071 14.1423C11.0772 14.3007 10.9426 14.4551 10.8034 14.6054C10.7918 14.6089 10.7859 14.5471 10.7848 14.4503C10.7848 13.9369 10.6541 13.3886 10.4254 12.9243C10.3286 12.7283 10.3123 12.6816 10.3321 12.663C10.4114 12.5906 11.6469 11.886 12.4251 11.4695C12.9606 11.1825 13.7819 10.7648 13.7912 10.7753ZM8.4363 12.0878C8.77533 12.2502 9.09342 12.4532 9.38361 12.6921C9.39295 12.698 9.28212 12.789 9.13862 12.8928C8.73613 13.1833 8.12364 13.6441 7.77014 13.9264C7.39682 14.2239 7.38398 14.2333 7.42598 14.1679C7.70598 13.7398 7.84597 13.4983 7.99297 13.188C8.1248 12.9126 8.2543 12.586 8.34763 12.3013C8.36689 12.2261 8.39716 12.1542 8.43746 12.0878H8.4363ZM9.8631 13.2078C9.88294 13.2043 9.90977 13.2405 10.0253 13.4119C10.2668 13.7736 10.4523 14.2543 10.5001 14.6463L10.5094 14.7314L9.9296 14.9554C9.03895 15.2978 8.15744 15.6634 7.28598 16.0521C7.10515 16.1361 6.78666 16.2877 6.57783 16.3927C6.369 16.4977 6.19867 16.5794 6.19867 16.5747C6.19867 16.5701 6.32934 16.4709 6.49033 16.3554C7.75848 15.4337 8.85279 14.4258 9.67761 13.4166C9.76511 13.3093 9.84561 13.216 9.85611 13.209C9.85826 13.2077 9.86064 13.2069 9.8631 13.2066V13.2078ZM9.20512 13.3711C9.22262 13.3874 8.73729 13.9358 8.41063 14.2694C7.62148 15.0803 6.73784 15.7936 5.77868 16.3939C5.65268 16.4744 5.53835 16.5456 5.52202 16.5549C5.49518 16.5712 5.53135 16.5292 5.97234 16.0486C6.25 15.7464 6.46233 15.4956 6.705 15.1817C6.81685 15.0199 6.96056 14.8825 7.12732 14.7781C7.75381 14.3254 9.18878 13.3536 9.20512 13.3699V13.3711ZM10.3706 0.000185037C10.2773 -0.0114814 8.77112 0.531009 7.80398 0.923002C6.49383 1.45616 5.47535 1.96598 4.84769 2.40698C4.61437 2.57031 4.32037 2.86547 4.27837 2.97863C4.26182 3.02465 4.25353 3.07323 4.25387 3.12213L4.8232 3.65879L6.17417 4.09045L9.39295 4.66677L13.0714 5.29909L13.1087 4.9841L13.076 4.97826L12.5919 4.90127L12.4927 4.7286C11.9927 3.84649 11.5345 2.94134 11.1196 2.01615C10.8775 1.46012 10.6709 0.889254 10.5013 0.307013C10.4219 0.023518 10.4138 0.00601827 10.3706 0.000185037ZM10.2994 0.217181H10.3053C10.3088 0.220681 10.3251 0.339679 10.3426 0.479677C10.4149 1.07233 10.5479 1.64632 10.7556 2.26464C10.9119 2.7313 10.9143 2.70447 10.7276 2.65197C10.2959 2.53181 8.35697 2.19931 6.95466 2.00448C6.81542 1.98672 6.67656 1.96611 6.53816 1.94265C6.52067 1.92515 7.54965 1.38616 8.00581 1.17266C8.59029 0.902002 10.1839 0.239347 10.2994 0.217181ZM6.21384 2.11648L6.37833 2.17248C7.27899 2.47814 9.53528 2.9098 10.7824 3.01247C10.9224 3.02413 11.0414 3.03696 11.0449 3.04046C11.0484 3.04396 10.9283 3.10813 10.7789 3.1828C10.1781 3.48379 9.51544 3.85128 9.05695 4.13828C8.92279 4.22228 8.80029 4.28994 8.78279 4.28878C8.7165 4.27945 8.65038 4.26894 8.58446 4.25728L8.41646 4.23044L7.99064 3.81628C7.24282 3.09296 6.6595 2.53297 6.43317 2.32298L6.21384 2.11648ZM6.04701 2.24948L6.64316 2.9938C6.97216 3.40212 7.30115 3.80928 7.37348 3.89678C7.44698 3.98428 7.50298 4.05778 7.49948 4.06011C7.48315 4.07295 6.63616 3.90845 6.187 3.80462C5.8709 3.73743 5.55826 3.65489 5.25019 3.55729L5.01686 3.48262L5.01802 3.42546C5.02152 3.13963 5.38202 2.7173 5.99334 2.28681L6.04701 2.24948ZM11.1242 3.26329C11.1417 3.26446 11.1616 3.30063 11.2141 3.41612C11.3587 3.73345 11.8091 4.5921 11.9176 4.75777C11.9526 4.8126 12.0109 4.8161 11.4124 4.71927C9.97744 4.48827 9.51194 4.41011 9.51194 4.40077C9.54117 4.37541 9.57375 4.35421 9.60878 4.33777C10.0665 4.08092 10.499 3.78131 10.9003 3.44296L11.1044 3.27146C11.1114 3.26563 11.1184 3.26213 11.1242 3.26329ZM16.1513 13.0725L10.5421 14.9018L5.66551 17.0554L4.30054 17.417C3.57726 18.1009 2.82689 18.7555 2.05124 19.3793C1.64827 19.7127 1.27616 20.0817 0.93943 20.4818C0.552104 20.9648 0.248776 21.4781 0.118112 21.8736C-0.115218 22.5853 -0.00205289 23.3063 0.450606 23.9713C1.0281 24.8206 2.17724 25.6839 3.51305 26.2719C4.19554 26.5705 5.34469 26.9579 6.208 27.1749C7.64648 27.5389 10.4243 27.9332 11.9549 27.9915C12.2652 28.0032 12.6782 28.0032 12.6981 27.9892C12.7307 27.967 12.9699 27.5167 13.2464 26.9509C14.1867 25.0306 14.8669 23.2293 15.2332 21.6916C15.4548 20.7595 15.6275 19.5182 15.7395 18.0459C15.774 17.2943 15.7802 16.5416 15.7582 15.7896C15.7291 15.1223 15.6578 14.4575 15.5447 13.7993C15.5299 13.7422 15.5251 13.683 15.5307 13.6243C15.547 13.6126 15.5995 13.5951 16.289 13.3944L16.1513 13.0725ZM14.868 13.8249C14.9205 13.8249 15.0547 15.1246 15.0908 15.9482C15.0978 16.1244 15.0967 16.2364 15.0862 16.2364C15.0535 16.2364 14.3687 15.8339 13.8822 15.5294C13.4231 15.2402 12.9711 14.9399 12.5266 14.6288C12.4857 14.5961 12.4904 14.5949 12.8369 14.4759C13.426 14.2729 14.8249 13.8249 14.8692 13.8249H14.868ZM12.0121 14.7618C12.0471 14.7618 12.1462 14.8166 12.3796 14.9624C13.2545 15.5107 14.4399 16.1699 14.9462 16.3916C15.1048 16.4616 15.1223 16.4336 14.7595 16.6797C13.9872 17.2047 13.0259 17.7204 11.8464 18.2454C11.719 18.3036 11.5903 18.3589 11.4602 18.411C11.4689 18.3317 11.4857 18.2535 11.5104 18.1777C11.7962 17.1219 11.9572 16.0544 11.9619 15.1981C11.9642 14.7758 11.9642 14.7734 12.0051 14.7629H12.0121V14.7618ZM11.4241 14.9869C11.4486 15.0126 11.4311 15.9599 11.4007 16.2189C11.3119 16.9481 11.1485 17.6662 10.9131 18.362C10.8968 18.3819 10.3169 17.816 10.1244 17.592C9.81963 17.2464 9.55758 16.8652 9.34395 16.4569C9.24828 16.2679 9.09429 15.8922 9.10829 15.8817C9.17362 15.8351 11.4077 14.9718 11.4241 14.9869ZM8.65329 16.0789C8.65796 16.0789 8.66263 16.0801 8.66496 16.0836C8.69083 16.1327 8.71268 16.1838 8.73029 16.2364C8.91026 16.6844 9.14624 17.1077 9.43261 17.4964C9.7781 17.9538 10.1763 18.3689 10.6191 18.733C10.6459 18.7564 10.6541 18.7517 9.96344 19.013C9.07927 19.3464 8.1869 19.6576 7.28715 19.9463C6.90566 20.07 6.5825 20.1738 6.56966 20.1797C6.53116 20.1925 6.54283 20.1692 6.65483 19.9953C7.15299 19.2183 7.90664 17.697 8.32897 16.6214C8.4013 16.4347 8.4713 16.2481 8.48413 16.2061C8.50163 16.1454 8.5203 16.1244 8.57746 16.0987C8.6009 16.0864 8.62684 16.0797 8.65329 16.0789ZM7.80398 16.4289C7.81564 16.4394 7.60098 16.8932 7.38865 17.305C6.93856 18.1755 6.45083 19.026 5.92684 19.8542L5.71451 20.1902C5.69351 20.2217 5.68418 20.2112 5.61885 20.0805C5.46633 19.7692 5.35645 19.4388 5.29219 19.0982C5.23219 18.6785 5.24007 18.2519 5.31552 17.8347C5.37035 17.5699 5.36802 17.5757 5.49285 17.5127C6.03184 17.2362 7.78648 16.4137 7.80398 16.4289ZM15.1165 16.7264V16.9061C15.1045 18.0754 15.0051 19.2422 14.819 20.3967C14.0497 20.1746 13.3071 19.8687 12.6047 19.4843C12.1917 19.258 11.5956 18.8929 11.6131 18.8754C11.6166 18.8707 11.7927 18.7785 12.0027 18.6689C12.8357 18.2372 13.6302 17.7705 14.322 17.3085C14.581 17.1359 14.9695 16.8547 15.0558 16.7789L15.1165 16.7264ZM4.6027 17.9782C4.6202 17.9782 4.61553 18.0109 4.5887 18.166C4.56557 18.3169 4.54961 18.4687 4.54087 18.621C4.50587 19.2417 4.60737 19.699 4.91419 20.3243C5.00053 20.4993 5.06819 20.644 5.06469 20.6463C5.03319 20.6732 2.22974 21.4933 1.34776 21.7348L0.840266 21.8748C0.808766 21.8841 0.806433 21.8771 0.816932 21.8048C0.913764 21.183 1.38859 20.3675 2.05124 19.6815C2.49224 19.2265 2.84456 18.9558 3.44539 18.614C3.82723 18.395 4.21306 18.183 4.6027 17.9782ZM11.2164 19.1623C11.2187 19.16 11.3226 19.2148 11.4462 19.2872C12.3527 19.811 13.6162 20.3022 14.693 20.5483L14.791 20.5717L14.6569 20.6452C14.0945 20.9578 12.2407 21.729 10.3473 22.4383C10.1475 22.5129 9.94797 22.5884 9.74877 22.6646C9.71849 22.6795 9.6863 22.6901 9.65311 22.6961C9.65311 22.6915 9.73127 22.5421 9.82694 22.3625C10.3589 21.3685 10.8886 20.161 11.1616 19.3233C11.1884 19.2382 11.2129 19.1658 11.2164 19.1623ZM10.5421 19.384C10.5219 19.4513 10.4973 19.5171 10.4686 19.5812C10.0382 20.5976 9.54696 21.5872 8.99745 22.5445C8.90416 22.7155 8.80612 22.884 8.70346 23.0496C8.69763 23.0496 8.57046 22.9726 8.4188 22.8804C7.52048 22.3298 6.72483 21.6531 6.20217 20.994L6.12751 20.9006L6.51483 20.7945C7.78447 20.4549 9.02818 20.0248 10.2364 19.5077C10.4021 19.4377 10.5398 19.3805 10.5421 19.384ZM14.7304 20.8458C14.7315 20.8458 14.7327 20.847 14.7327 20.8493C14.7327 20.9426 14.5192 21.8153 14.3407 22.4476C14.1914 22.9761 14.0654 23.3903 13.8332 24.1241C13.774 24.3221 13.7086 24.5182 13.6372 24.7121C12.4397 24.5074 11.2667 24.1786 10.1373 23.7309C9.88406 23.6318 9.63533 23.5217 9.39178 23.4008C9.38478 23.3926 9.64028 23.2724 9.95877 23.1324C11.8896 22.2913 13.8892 21.3323 14.5729 20.9205C14.6206 20.8866 14.6739 20.8614 14.7304 20.8458ZM5.06236 21.176C5.07286 21.1865 4.5327 21.9588 3.77905 23.0146L3.09423 23.9748C2.98106 24.1369 2.8084 24.3924 2.7104 24.5441L2.5319 24.8194L2.34291 24.6596C2.05995 24.4113 1.79594 24.1422 1.55309 23.8546C1.18909 23.4008 0.94293 22.9236 0.844932 22.485C0.8006 22.282 0.798266 22.1793 0.841432 22.1665C1.59253 21.9853 2.34464 21.8083 3.09773 21.6356L4.61437 21.2798C4.85819 21.2215 5.06002 21.1748 5.06236 21.176ZM5.60485 21.3836L5.74135 21.5365C6.31143 22.1837 6.98378 22.7331 7.73164 23.1628C7.81318 23.2033 7.88956 23.2534 7.95914 23.3121C6.28015 23.9208 4.59624 24.5158 2.90756 25.0971C2.87864 25.0798 2.8506 25.0611 2.82356 25.0411L2.7454 24.9851L2.8679 24.8077C3.26456 24.2326 3.76388 23.6003 4.85703 22.2855L5.60485 21.3836ZM8.98812 23.8021C8.99162 23.7986 9.18062 23.8651 9.41045 23.9514C9.96227 24.1579 10.3951 24.2921 10.9819 24.4391C11.7017 24.6199 12.7436 24.8007 13.3595 24.8521C13.4529 24.8591 13.5019 24.8707 13.4879 24.8801C13.4587 24.8987 12.8346 25.1064 12.3761 25.2511C10.5782 25.798 8.77526 26.328 6.96749 26.8412C6.92666 26.8494 6.78433 26.812 6.78433 26.7945C6.78433 26.784 6.88583 26.6557 7.00949 26.5075C7.62637 25.7689 8.20126 24.9961 8.73146 24.1929C8.81656 24.0623 8.90211 23.9321 8.98812 23.8021ZM8.23913 23.8231C8.24497 23.8289 7.94397 24.3108 7.41548 25.1437C7.19149 25.4949 6.93832 25.8962 6.85199 26.0327C6.76449 26.1704 6.63733 26.3804 6.56966 26.4994L6.44483 26.7152L6.38183 26.6989C6.23017 26.658 5.15802 26.2789 4.87569 26.1669C4.53869 26.0337 4.20921 25.8822 3.88871 25.7131C3.55155 25.5311 3.12456 25.2604 3.15722 25.2499L4.44637 24.8976C6.30367 24.3913 7.33148 24.1008 8.00464 23.8896C8.1318 23.8511 8.2368 23.8208 8.23797 23.8231H8.23913ZM13.5159 25.0609H13.5229C13.5404 25.1052 12.8521 27.0092 12.6012 27.6135C12.5441 27.7489 12.5242 27.7827 12.4939 27.7804C11.9356 27.7098 11.3783 27.6321 10.8221 27.547C9.76511 27.386 7.99531 27.0769 7.54848 26.9754L7.44465 26.952L8.07814 26.8097C9.43611 26.504 10.0883 26.3396 10.7498 26.1366C11.6024 25.8741 12.4358 25.5529 13.244 25.1752C13.3325 25.1322 13.4232 25.094 13.5159 25.0609Z" fill="white"/>
</svg>
