<svg width="25" height="28" viewBox="0 0 25 28" fill="none" xmlns="http://www.w3.org/2000/svg">
<path d="M2.247 25.201L0 0H24.69L22.44 25.197L12.33 28L2.247 25.201Z" fill="#E44F26"/>
<path d="M12.345 25.8575L20.515 23.5926L22.437 2.06055H12.345V25.8575Z" fill="#F1662A"/>
<path d="M12.345 11.4074H8.25497L7.97297 8.24237H12.345V5.15137H4.59497L4.66897 5.98137L5.42797 14.4984H12.345V11.4074ZM12.345 19.4344L12.331 19.4384L8.88897 18.5094L8.66897 16.0444H5.56597L5.99897 20.8964L12.331 22.6544L12.345 22.6504V19.4344Z" fill="#EBEBEB"/>
<path d="M12.334 11.4074V14.4984H16.14L15.782 18.5074L12.334 19.4374V22.6534L18.671 20.8964L18.717 20.3744L19.443 12.2374L19.519 11.4074H12.334ZM12.334 5.15137V8.24237H19.8L19.862 7.54837L20.003 5.98137L20.077 5.15137H12.334Z" fill="white"/>
</svg>
