<svg width="27" height="27" viewBox="0 0 27 27" fill="none" xmlns="http://www.w3.org/2000/svg">
<path fill-rule="evenodd" clip-rule="evenodd" d="M26.4021 0.000118359H8.64709V8.98013H17.3181C17.6281 8.98013 17.9381 9.18712 17.9381 9.49612V18.1671H26.9181V0.619137C26.9344 0.543281 26.9331 0.464686 26.9142 0.389431C26.8953 0.314176 26.8593 0.244257 26.8091 0.185116C26.7595 0.125733 26.6971 0.0782846 26.6266 0.0462609C26.5562 0.0142372 26.4794 -0.00153947 26.4021 0.000118359Z" fill="#8E75FF"/>
<path opacity="0.4" fill-rule="evenodd" clip-rule="evenodd" d="M8.64717 0V8.98001H0.286148C0.228476 8.97556 0.173204 8.95506 0.126571 8.92084C0.0799392 8.88661 0.0438291 8.84003 0.0222928 8.78635C0.000756556 8.73266 -0.00533654 8.67403 0.00471468 8.61707C0.0147659 8.5601 0.040538 8.50709 0.079147 8.46402L8.64717 0ZM18.3501 26.632C18.3098 26.6482 18.2664 26.6556 18.223 26.6537C18.1795 26.6518 18.137 26.6406 18.0982 26.621C18.0589 26.6017 18.0242 26.5742 17.9965 26.5404C17.9687 26.5066 17.9485 26.4673 17.9371 26.425V18.167H26.9182L18.3501 26.529V26.632Z" fill="#8E75FF"/>
<path opacity="0.4" d="M8.64711 8.98145H17.6281C17.8341 8.98145 17.9381 8.98144 17.9381 9.18744V18.1684H9.16311C9.04671 18.1694 8.93331 18.1316 8.84078 18.061C8.74825 17.9904 8.68185 17.891 8.65209 17.7784C8.63392 17.703 8.63224 17.6246 8.64711 17.5484V8.98145Z" fill="#8E75FF"/>
</svg>
