<svg width="24" height="28" viewBox="0 0 24 28" fill="none" xmlns="http://www.w3.org/2000/svg">
<path d="M21.8134 3.70529C19.2134 -0.0167108 14.0784 -1.1197 10.3654 1.2463L3.84539 5.40231C2.96429 5.95635 2.20855 6.68821 1.62653 7.55108C1.04451 8.41395 0.64903 9.38881 0.465383 10.4133C0.154243 12.1388 0.427687 13.9188 1.24239 15.4713C0.684109 16.3177 0.303421 17.2685 0.123388 18.2663C-0.0627072 19.3113 -0.0380863 20.3829 0.195806 21.4183C0.429699 22.4536 0.868145 23.4318 1.48539 24.2953C4.08539 28.0173 9.22039 29.1193 12.9324 26.7543L19.4534 22.5983C20.3345 22.0443 21.0902 21.3124 21.6722 20.4495C22.2543 19.5867 22.6497 18.6118 22.8334 17.5873C23.1445 15.8618 22.8711 14.0818 22.0564 12.5293C22.6147 11.6829 22.9954 10.7321 23.1754 9.73431C23.3615 8.68932 23.3369 7.61768 23.103 6.58233C22.8691 5.54699 22.4306 4.5688 21.8134 3.70529" fill="#FF3E00"/>
<path d="M9.72836 24.6448C8.7023 24.9111 7.61926 24.8564 6.62526 24.4881C5.63125 24.1197 4.7741 23.4554 4.16937 22.5848C3.79795 22.0655 3.53406 21.4773 3.39325 20.8546C3.25243 20.2319 3.23751 19.5874 3.34936 18.9588C3.38736 18.7528 3.43937 18.5488 3.50537 18.3498L3.62837 17.9758L3.96237 18.2208C4.73385 18.7878 5.59662 19.2187 6.51336 19.4948L6.75537 19.5688L6.73336 19.8108C6.70336 20.1548 6.79637 20.4978 6.99637 20.7798C7.17798 21.0426 7.43596 21.2432 7.73539 21.3544C8.03482 21.4657 8.36122 21.4822 8.67036 21.4018C8.81136 21.3638 8.94637 21.3038 9.07037 21.2248L15.5914 17.0698C15.7511 16.9695 15.8882 16.8369 15.9937 16.6805C16.0993 16.5242 16.171 16.3475 16.2044 16.1618C16.238 15.9723 16.2335 15.7781 16.1911 15.5904C16.1487 15.4027 16.0692 15.2254 15.9574 15.0688C15.7754 14.8062 15.5171 14.6059 15.2176 14.4948C14.918 14.3837 14.5915 14.3673 14.2824 14.4478C14.1409 14.4858 14.006 14.5452 13.8824 14.6238L11.3944 16.2098C10.9854 16.4698 10.5384 16.6658 10.0704 16.7908C9.04434 17.0583 7.96089 17.0042 6.96664 16.6357C5.97239 16.2673 5.11531 15.6023 4.51136 14.7308C4.14048 14.2113 3.87668 13.6233 3.73536 13.0008C3.59516 12.3779 3.58054 11.7334 3.69236 11.1048C3.80238 10.4887 4.03997 9.9024 4.3899 9.38353C4.73984 8.86466 5.19438 8.42468 5.72436 8.09181L12.2444 3.93681C12.6544 3.67581 13.1014 3.47981 13.5694 3.35381C14.5957 3.08737 15.679 3.1421 16.6732 3.51064C17.6674 3.87917 18.5247 4.5438 19.1294 5.41481C19.5001 5.93439 19.7635 6.5227 19.9041 7.14531C20.0448 7.76792 20.0598 8.4123 19.9484 9.04079C19.9103 9.2471 19.8582 9.45058 19.7924 9.6498L19.6694 10.0238L19.3354 9.77879C18.5638 9.21166 17.7011 8.78047 16.7844 8.5038L16.5424 8.4308L16.5644 8.1888C16.5939 7.84456 16.5007 7.50097 16.3014 7.2188C16.119 6.95685 15.8609 6.75696 15.5617 6.64595C15.2625 6.53494 14.9364 6.51814 14.6274 6.59779C14.4859 6.63581 14.351 6.69515 14.2274 6.77379L7.70636 10.9298C7.5469 11.0301 7.41012 11.1626 7.30475 11.3188C7.19937 11.4749 7.12771 11.6514 7.09436 11.8368C7.06054 12.0262 7.06489 12.2204 7.10713 12.4081C7.14937 12.5958 7.22866 12.7732 7.34036 12.9298C7.52243 13.1923 7.78064 13.3927 8.08015 13.504C8.37966 13.6152 8.70607 13.6319 9.01536 13.5518C9.15636 13.5138 9.29136 13.4538 9.41536 13.3758L11.9034 11.7898C12.3123 11.5291 12.7588 11.3328 13.2274 11.2078C14.2535 10.9416 15.3366 10.9964 16.3307 11.365C17.3247 11.7335 18.1818 12.398 18.7864 13.2688C19.1574 13.7881 19.421 14.3761 19.5619 14.9986C19.7027 15.6211 19.7178 16.2654 19.6064 16.8938C19.4954 17.5098 19.2573 18.096 18.9073 18.6149C18.5572 19.1338 18.1029 19.5741 17.5734 19.9078L11.0534 24.0628C10.6434 24.3238 10.1974 24.5198 9.72836 24.6448Z" fill="white"/>
</svg>
