<svg width="15" height="15" viewBox="0 0 15 15" fill="none" xmlns="http://www.w3.org/2000/svg">
<path d="M0.0256688 2.53758V13.3966C0.0210507 13.597 0.0564334 13.7964 0.129749 13.9831C0.203065 14.1697 0.312843 14.3399 0.452669 14.4836C0.72069 14.7483 1.07138 14.9132 1.44626 14.9507C1.82113 14.9882 2.19753 14.896 2.51267 14.6896C2.72362 14.5462 2.89631 14.3535 3.0157 14.1281C3.1351 13.9028 3.19757 13.6516 3.19767 13.3966C3.19767 10.7766 3.19267 8.15658 3.19767 5.53658C5.58634 8.39658 7.98 11.2526 10.3787 14.1046C10.7119 14.4422 11.1246 14.6907 11.5789 14.8273C12.0332 14.964 12.5145 14.9843 12.9787 14.8866C13.3064 14.822 13.6049 14.654 13.8301 14.4072C14.0552 14.1604 14.1953 13.8479 14.2297 13.5156C14.235 9.82158 14.235 6.12792 14.2297 2.43458C14.1952 2.04034 14.0143 1.67332 13.7225 1.40594C13.4308 1.13856 13.0494 0.990234 12.6537 0.990234C12.2579 0.990234 11.8766 1.13856 11.5848 1.40594C11.293 1.67332 11.1121 2.04034 11.0777 2.43458C11.0777 5.09658 11.0617 7.75558 11.0777 10.4166C8.73167 7.65058 6.41467 4.86058 4.07767 2.08458C3.76957 1.68951 3.36167 1.38375 2.89604 1.19883C2.4304 1.01392 1.92387 0.956526 1.42867 1.03258C1.05353 1.07434 0.705765 1.2491 0.448385 1.52519C0.191005 1.80128 0.0410412 2.16044 0.0256688 2.53758V2.53758Z" fill="white"/>
</svg>
