<svg width="25" height="28" viewBox="0 0 25 28" fill="none" xmlns="http://www.w3.org/2000/svg">
<path d="M12.2066 0H12.2716C12.6047 0.158663 12.9292 0.334912 13.2436 0.528L24.1016 6.774C24.2416 6.84874 24.356 6.96383 24.4298 7.10434C24.5036 7.24484 24.5335 7.40429 24.5156 7.562C24.5076 11.951 24.5156 16.339 24.5106 20.726C24.4635 20.9354 24.3356 21.1176 24.1546 21.233C20.306 23.449 16.457 25.6637 12.6076 27.877C12.5143 27.9481 12.4019 27.9896 12.2848 27.9962C12.1677 28.0028 12.0513 27.9742 11.9506 27.914C8.09729 25.7047 4.24762 23.4913 0.401625 21.274C0.276632 21.2149 0.171939 21.1201 0.100752 21.0016C0.0295654 20.8831 -0.00492724 20.7461 0.00162474 20.608V7.445C-0.00780643 7.3075 0.023977 7.17031 0.0929128 7.05096C0.161849 6.93162 0.264805 6.83553 0.388625 6.775C4.00329 4.69633 7.61796 2.61633 11.2326 0.535C11.5546 0.351 11.8706 0.156 12.2066 0" fill="url(#paint0_linear_979_1443)"/>
<defs>
<linearGradient id="paint0_linear_979_1443" x1="12.2603" y1="0" x2="12.2603" y2="27.9971" gradientUnits="userSpaceOnUse">
<stop stop-color="#019639"/>
<stop offset="1" stop-color="#00732B"/>
</linearGradient>
</defs>
</svg>
