<svg width="29" height="28" viewBox="0 0 29 28" fill="none" xmlns="http://www.w3.org/2000/svg">
<path d="M27.0125 2.94887L21.2465 0.172872C20.9208 0.0158703 20.5544 -0.0359405 20.1981 0.0246221C19.8417 0.0851847 19.513 0.255121 19.2575 0.510872L0.38247 17.7189C0.153461 17.9267 0.0163773 18.2169 0.00137443 18.5258C-0.0136284 18.8347 0.0946786 19.1369 0.30247 19.3659C0.32747 19.3929 0.35247 19.4189 0.37947 19.4429L1.92047 20.8429C2.12183 21.0261 2.38103 21.1331 2.65303 21.1451C2.92504 21.1572 3.19268 21.0736 3.40947 20.9089L26.1445 3.66887C26.3162 3.53856 26.5209 3.45878 26.7355 3.43849C26.9501 3.4182 27.1661 3.45822 27.3592 3.55404C27.5523 3.64987 27.7148 3.79769 27.8285 3.98086C27.9421 4.16404 28.0024 4.37531 28.0025 4.59087V4.52387C28.0025 4.19477 27.9095 3.87236 27.7344 3.59374C27.5593 3.31511 27.309 3.09158 27.0125 2.94887Z" fill="#0065A9"/>
<path d="M27.0125 24.8891L21.2465 27.6661C20.9207 27.8226 20.5545 27.8742 20.1982 27.8137C19.8419 27.7531 19.5132 27.5835 19.2575 27.3281L0.38247 10.1191C0.153461 9.91129 0.0163773 9.62103 0.00137443 9.31216C-0.0136284 9.00329 0.0946786 8.70111 0.30247 8.47209C0.32747 8.44509 0.35247 8.41909 0.37947 8.39509L1.92047 6.99509C2.12204 6.81105 2.38182 6.70363 2.6545 6.69157C2.92718 6.67951 3.19544 6.76357 3.41247 6.92909L26.1445 24.1691C26.3162 24.2994 26.5209 24.3792 26.7355 24.3995C26.9501 24.4198 27.1661 24.3797 27.3592 24.2839C27.5523 24.1881 27.7148 24.0403 27.8285 23.8571C27.9421 23.6739 28.0024 23.4627 28.0025 23.2471V23.3191C28.0014 23.6473 27.908 23.9686 27.7329 24.2462C27.5578 24.5239 27.3082 24.7467 27.0125 24.8891Z" fill="#007ACC"/>
<path d="M21.2464 27.6661C20.9207 27.8227 20.5544 27.8743 20.1981 27.8137C19.8418 27.7532 19.5131 27.5835 19.2574 27.3281C19.401 27.4699 19.5833 27.5661 19.7813 27.6047C19.9793 27.6433 20.1844 27.6226 20.3707 27.5452C20.557 27.4677 20.7164 27.3371 20.8287 27.1695C20.9411 27.0019 21.0015 26.8049 21.0024 26.6031V1.23513C21.0026 1.03242 20.9426 0.834218 20.83 0.665636C20.7174 0.497053 20.5574 0.365675 20.3701 0.288142C20.1828 0.21061 19.9767 0.190413 19.7779 0.230109C19.5791 0.269805 19.3966 0.367608 19.2534 0.51113C19.5089 0.255471 19.8376 0.0855242 20.1939 0.0247933C20.5502 -0.0359376 20.9166 0.0155481 21.2424 0.17213L27.0074 2.94413C27.3049 3.08613 27.5562 3.30935 27.7322 3.58803C27.9083 3.86671 28.0019 4.1895 28.0024 4.51913V23.3191C28.0025 23.6485 27.9095 23.9712 27.7342 24.25C27.5589 24.5289 27.3083 24.7525 27.0114 24.8951L21.2464 27.6661Z" fill="#1F9CF0"/>
</svg>
