<svg width="32" height="32" viewBox="0 0 32 32" fill="none" xmlns="http://www.w3.org/2000/svg">
<path fill-rule="evenodd" clip-rule="evenodd" d="M16 0C7.1776 0 0 7.1776 0 16C0 24.8224 7.1776 32 16 32C24.8224 32 32 24.8224 32 16C32 7.1776 24.8224 0 16 0ZM16 31.2672C7.5824 31.2672 0.7344 24.4176 0.7344 16C0.7344 7.5824 7.5824 0.7328 16 0.7328C24.4176 0.7328 31.2672 7.5808 31.2672 16C31.2672 24.416 24.4192 31.2672 16 31.2672ZM2.2752 16C2.27487 18.5775 3.00029 21.1031 4.36841 23.2875C5.73654 25.472 7.69208 27.2271 10.0112 28.352L3.4624 10.416C2.67814 12.1731 2.27359 14.0759 2.2752 16ZM25.2672 15.3088C25.2672 13.6128 24.656 12.4384 24.1344 11.5232C23.4384 10.392 22.7856 9.4352 22.7856 8.304C22.7856 7.0432 23.7424 5.8688 25.0896 5.8688C25.152 5.8688 25.2096 5.8752 25.2688 5.88C22.7416 3.55657 19.4329 2.26864 16 2.272C13.7251 2.27087 11.4857 2.83581 9.48353 3.91593C7.48139 4.99604 5.77949 6.55737 4.5312 8.4592C4.8544 8.4688 5.1584 8.4752 5.416 8.4752C6.8512 8.4752 9.0736 8.3008 9.0736 8.3008C9.8128 8.2576 9.9008 9.344 9.1616 9.432C9.1616 9.432 8.4176 9.52 7.5904 9.5632L12.5888 24.4304L15.592 15.4224L13.4544 9.5632C12.7152 9.52 12.0144 9.432 12.0144 9.432C11.2752 9.3888 11.3616 8.2576 12.1024 8.3008C12.1024 8.3008 14.368 8.4768 15.7168 8.4768C17.152 8.4768 19.3744 8.3008 19.3744 8.3008C20.1152 8.2576 20.2016 9.344 19.4624 9.432C19.4624 9.432 18.7184 9.52 17.8912 9.5632L22.8512 24.3168L24.2224 19.7424C24.8144 17.8432 25.2656 16.48 25.2656 15.3056M16.2416 17.1984L12.1232 29.1664C14.8881 29.9819 17.8396 29.9052 20.5584 28.9472C20.52 28.8867 20.4868 28.823 20.4592 28.7568L16.2416 17.1984ZM28.0448 9.4128C28.104 9.8512 28.1376 10.32 28.1376 10.824C28.1376 12.216 27.8768 13.7824 27.0928 15.7408L22.9008 27.8624C24.9771 26.6554 26.7001 24.9246 27.8976 22.8429C29.0951 20.7612 29.7252 18.4016 29.7248 16C29.7286 13.6983 29.1507 11.433 28.0448 9.4144" fill="white"/>
</svg>
