<svg width="30" height="32" viewBox="0 0 30 32" fill="none" xmlns="http://www.w3.org/2000/svg">
<path d="M25.8932 0C28.0654 1.10692 29.9312 4.01168 29.8377 7.95328C29.5538 12.8099 26.0325 16.9955 22.2012 20.8519C21.9867 16.1489 20.9641 13.1518 19.3674 8.93711C17.8599 4.68987 22.2672 0.135942 25.8932 0V0Z" fill="url(#paint0_linear_979_1423)"/>
<path d="M14.1428 20.6869C15.3093 19.2359 16.1361 17.9438 16.713 16.7764C20.6651 18.8427 19.7326 18.4568 21.6387 20.6584C21.6451 20.727 21.6512 20.7953 21.6569 20.8634C21.815 23.916 19.5882 30.973 10.8197 31.9402C10.2128 27.1982 12.186 23.1534 14.1428 20.6869V20.6869Z" fill="url(#paint1_linear_979_1423)"/>
<path d="M0.0317117 2.94834C6.2793 0.476052 13.0032 3.00861 16.885 8.28522C17.2625 8.79904 17.6187 9.32823 17.9525 9.87144C18.5591 13.7436 18.0965 15.894 16.9159 17.0339C16.1396 16.6422 15.3114 16.2949 14.4272 15.9737C12.3717 15.227 10.4745 14.7328 7.76508 13.9305C1.33145 12.1747 -0.25512 6.65813 0.0317117 2.94834Z" fill="url(#paint2_linear_979_1423)"/>
<path d="M17.7137 9.49219C17.7547 9.55584 17.7952 9.61902 17.8352 9.68314L17.8844 9.7622C17.9847 9.92325 18.083 10.0852 18.1799 10.2492L18.1963 10.2765L18.2223 10.3209L18.246 10.3619L18.3154 10.481L18.3202 10.4897L18.4142 10.6546L18.4171 10.6594C18.4852 10.7795 18.5522 10.9001 18.6181 11.0214L18.6263 11.0368L18.6996 11.1728L18.7016 11.1763L18.7821 11.3275L18.8052 11.3719L18.8501 11.4583L18.9049 11.5647L18.9581 11.668C19.012 11.7749 19.0655 11.882 19.1181 11.989L19.1316 12.0155C19.2263 12.2095 19.3187 12.4046 19.4088 12.6007L19.4773 12.7507L19.484 12.7656L19.5279 12.863L19.579 12.9783L19.6079 13.0449L19.6543 13.1514L19.6874 13.228L19.7574 13.3929L19.7622 13.4045L19.8369 13.5838L19.846 13.6055C19.9257 13.7993 20.0028 13.9932 20.0775 14.1882L20.0847 14.2062L20.1464 14.3697L20.1503 14.3787L20.186 14.4752C20.2255 14.5822 20.2646 14.6894 20.3031 14.7967L20.3181 14.8388C20.3605 14.9587 20.4024 15.0793 20.4429 15.1993L20.4559 15.2374C20.494 15.3502 20.5306 15.463 20.5673 15.5758L20.5852 15.6313L20.5895 15.6442L20.6473 15.827L20.6496 15.8352L20.7032 16.0097L20.7567 16.1895L20.7583 16.1934L20.8026 16.3452L20.8166 16.3945L20.8435 16.4885C20.8739 16.5969 20.9038 16.7049 20.9327 16.8134L20.9545 16.8943L20.9964 17.0543L20.9983 17.0622C21.0494 17.2588 21.0975 17.4555 21.1434 17.6517L21.1477 17.672L21.1525 17.6927C21.2123 17.9516 21.2673 18.2096 21.3179 18.4666L21.3228 18.4921C21.4002 18.8872 21.467 19.2843 21.5233 19.6829L21.5243 19.6882C21.5417 19.8096 21.5576 19.9306 21.5725 20.0517L21.5787 20.1037L21.599 20.2768V20.2772L21.6163 20.4374L21.6221 20.4904L21.6346 20.6172L21.6395 20.6682L21.6414 20.689L21.6568 20.863C20.2766 19.0855 18.6278 17.8604 16.6493 16.9021C18.246 13.7453 18.0218 11.4959 17.7137 9.49219" fill="url(#paint3_linear_979_1423)"/>
<defs>
<linearGradient id="paint0_linear_979_1423" x1="24.4523" y1="0" x2="24.4523" y2="20.8519" gradientUnits="userSpaceOnUse">
<stop stop-color="#73B723"/>
<stop offset="1" stop-color="#D8EE61"/>
</linearGradient>
<linearGradient id="paint1_linear_979_1423" x1="20.0055" y1="20.757" x2="9.63318" y2="28.5118" gradientUnits="userSpaceOnUse">
<stop stop-color="#98C9EA"/>
<stop offset="0.68865" stop-color="#026FB2"/>
<stop offset="1" stop-color="#086EB6"/>
</linearGradient>
<linearGradient id="paint2_linear_979_1423" x1="8.28295e-08" y1="2.94557" x2="13.4233" y2="14.9911" gradientUnits="userSpaceOnUse">
<stop stop-color="#D73721"/>
<stop offset="1" stop-color="#F7D768"/>
</linearGradient>
<linearGradient id="paint3_linear_979_1423" x1="18.1997" y1="13.0164" x2="22.5998" y2="14.7786" gradientUnits="userSpaceOnUse">
<stop stop-color="#D4C883"/>
<stop offset="1" stop-color="#A1D1A7"/>
</linearGradient>
</defs>
</svg>
