<svg width="24" height="24" viewBox="0 0 24 24" fill="none" xmlns="http://www.w3.org/2000/svg">
<path fill-rule="evenodd" clip-rule="evenodd" d="M16.325 14.8988L21.705 20.2788C21.8941 20.468 22.0003 20.7246 22.0002 20.9921C22.0001 21.2597 21.8937 21.5162 21.7045 21.7053C21.5153 21.8944 21.2587 22.0006 20.9912 22.0005C20.7236 22.0004 20.4671 21.894 20.278 21.7048L14.898 16.3248C13.2897 17.5705 11.2673 18.1567 9.24214 17.9641C7.21699 17.7716 5.34124 16.8148 3.99649 15.2884C2.65174 13.762 1.939 11.7806 2.00326 9.74729C2.06753 7.71403 2.90396 5.78161 4.34242 4.34315C5.78087 2.9047 7.71329 2.06826 9.74656 2.004C11.7798 1.93974 13.7612 2.65248 15.2876 3.99723C16.814 5.34198 17.7708 7.21772 17.9634 9.24288C18.1559 11.2681 17.5697 13.2905 16.324 14.8988H16.325ZM10 15.9998C11.5913 15.9998 13.1174 15.3676 14.2427 14.2424C15.3679 13.1172 16 11.5911 16 9.99975C16 8.40845 15.3679 6.88233 14.2427 5.75711C13.1174 4.63189 11.5913 3.99975 10 3.99975C8.40871 3.99975 6.88259 4.63189 5.75737 5.75711C4.63215 6.88233 4.00001 8.40845 4.00001 9.99975C4.00001 11.5911 4.63215 13.1172 5.75737 14.2424C6.88259 15.3676 8.40871 15.9998 10 15.9998Z" fill="#CCCCCC"/>
</svg>
