<svg viewBox="0 0 20 20" fill="none" xmlns="http://www.w3.org/2000/svg">
<rect width="20" height="20" fill="#FFFAE8"/>
<path d="M9.99903 11.4158L7.19412 9.93316L2.32522 7.35983C2.32074 7.3554 2.31189 7.3554 2.30741 7.3554C2.12965 7.27092 1.94741 7.44874 2.01407 7.6265L4.49498 13.9541L4.4954 13.9554C4.49807 13.9616 4.50031 13.9678 4.50298 13.9741C4.60479 14.2101 4.82698 14.3558 5.06879 14.4132C5.08922 14.4176 5.10383 14.4216 5.12836 14.4265C5.15284 14.432 5.18703 14.4394 5.21636 14.4416C5.22116 14.4421 5.22564 14.4421 5.23055 14.4425H5.23412C5.23764 14.443 5.24122 14.443 5.24479 14.4434H5.24964C5.25279 14.4438 5.25631 14.4438 5.25946 14.4438H5.26522C5.26879 14.4443 5.27231 14.4443 5.27588 14.4443C8.41784 14.7869 11.5877 14.7869 14.7297 14.4443C14.7675 14.4443 14.8044 14.4425 14.8399 14.439L14.8737 14.435C14.875 14.4345 14.8768 14.4345 14.8781 14.4341C14.8857 14.4332 14.8932 14.4318 14.9008 14.4305C14.9119 14.4292 14.923 14.427 14.9341 14.4247C14.9564 14.4198 14.9664 14.4163 14.9966 14.4059C15.0268 14.3956 15.0768 14.3774 15.1081 14.3623C15.1395 14.3472 15.1612 14.3327 15.1875 14.3163C15.2199 14.296 15.2514 14.2743 15.2821 14.2515C15.2956 14.2411 15.3048 14.2345 15.3145 14.2252L15.3092 14.2221L9.99903 11.4158Z" fill="#FF4B4B"/>
<path d="M17.6809 7.35996H17.6764L12.8057 9.93329L15.5133 13.9658L17.988 7.62662V7.61772C18.0502 7.43105 17.8591 7.2622 17.6809 7.35996" fill="#7D353B"/>
<path d="M10.2586 6.13636C10.1341 5.95455 9.863 5.95455 9.743 6.13636L7.19409 9.93326L9.999 11.4159L15.3146 14.2252C15.348 14.1925 15.3747 14.1607 15.403 14.127C15.4444 14.0766 15.4813 14.0226 15.5132 13.9657L12.8057 9.93326L10.2586 6.13636V6.13636Z" fill="#BD4043"/>
</svg>