<svg viewBox="0 0 20 20" fill="none" xmlns="http://www.w3.org/2000/svg">
<path d="M0 0H20V20H0V0Z" fill="#F9F9F9"/>
<path d="M16.9537 5.07466L10.3772 16.8346C10.2414 17.0774 9.89253 17.0788 9.75472 16.8372L3.04783 5.07575C2.89766 4.81249 3.12281 4.49355 3.42119 4.54692L10.0047 5.72364C10.0468 5.73114 10.0898 5.73107 10.1317 5.72342L16.5776 4.54856C16.875 4.49437 17.1012 4.81085 16.9537 5.07466V5.07466Z" fill="url(#paint0_linear_2946_10)"/>
<path d="M13.1408 3.00345L8.27404 3.95709C8.23516 3.96471 8.19991 3.98504 8.17383 4.01487C8.14776 4.04471 8.13234 4.08237 8.13 4.12192L7.83064 9.17812C7.82899 9.20585 7.83383 9.23358 7.84477 9.25911C7.85572 9.28465 7.87246 9.30728 7.89368 9.32521C7.9149 9.34314 7.94 9.35588 7.967 9.36241C7.994 9.36895 8.02215 9.3691 8.04922 9.36285L9.40422 9.05015C9.53098 9.02089 9.64555 9.13256 9.61947 9.26004L9.21691 11.2314C9.18984 11.364 9.31436 11.4775 9.44392 11.4381L10.2809 11.1838C10.4106 11.1445 10.5353 11.2582 10.5078 11.391L9.86808 14.4875C9.82804 14.6812 10.0857 14.7868 10.1931 14.6207L10.2649 14.5098L14.2306 6.59544C14.2971 6.46293 14.1825 6.31183 14.037 6.33994L12.6422 6.60911C12.5112 6.63438 12.3997 6.51232 12.4366 6.38413L13.347 3.22838C13.384 3.09987 13.272 2.97775 13.1409 3.00345H13.1408Z" fill="url(#paint1_linear_2946_10)"/>
<defs>
<linearGradient id="paint0_linear_2946_10" x1="2.88408" y1="5.49572" x2="9.97679" y2="15.1282" gradientUnits="userSpaceOnUse">
<stop stop-color="#41D1FF"/>
<stop offset="1" stop-color="#BD34FE"/>
</linearGradient>
<linearGradient id="paint1_linear_2946_10" x1="10.6149" y1="3.26238" x2="12.074" y2="13.2715" gradientUnits="userSpaceOnUse">
<stop stop-color="#FFEA83"/>
<stop offset="0.083" stop-color="#FFDD35"/>
<stop offset="1" stop-color="#FFA800"/>
</linearGradient>
</defs>
</svg>
