<svg viewBox="0 0 20 20" fill="none" xmlns="http://www.w3.org/2000/svg">
<path d="M0 0H20V20H0V0Z" fill="#BFF1EE"/>
<path d="M17 10.3076C17.0012 9.73954 16.8268 9.18497 16.5005 8.71993C16.1742 8.25489 15.7121 7.90213 15.1775 7.71001C15.2871 7.13762 15.2692 6.54811 15.125 5.98345C14.9808 5.41879 14.7138 4.89287 14.3432 4.44313C13.9726 3.99339 13.5073 3.6309 12.9806 3.38146C12.4539 3.13203 11.8787 3.00178 11.2959 3C10.6697 2.99925 10.0522 3.1475 9.49458 3.43249C8.93694 3.71749 8.4551 4.13105 8.08885 4.63904C7.7781 4.39902 7.40629 4.25091 7.01563 4.21151C6.62496 4.17211 6.23107 4.243 5.87865 4.41613C5.52623 4.58926 5.22939 4.8577 5.02181 5.19099C4.81423 5.52429 4.70422 5.90909 4.70427 6.30174C4.70515 6.55198 4.74919 6.80019 4.83445 7.03546C4.298 7.22738 3.83389 7.58026 3.50555 8.04588C3.17721 8.5115 3.00065 9.06715 3 9.6369C2.99935 10.2066 3.17465 10.7627 3.50193 11.2291C3.82921 11.6954 4.29252 12.0494 4.82853 12.2425C4.65632 13.1259 4.79143 14.0417 5.21143 14.8377C5.63143 15.6338 6.31106 16.2623 7.13748 16.6188C7.9639 16.9754 8.88742 17.0386 9.7547 16.7979C10.622 16.5572 11.3809 16.0272 11.9054 15.2957C12.2705 15.5859 12.723 15.7444 13.1894 15.7454C13.7464 15.7453 14.2806 15.5239 14.6745 15.13C15.0684 14.7361 15.2898 14.2019 15.29 13.6449C15.2891 13.3946 15.245 13.1464 15.1598 12.9111C15.6961 12.7176 16.1601 12.3642 16.4892 11.8987C16.8182 11.4331 16.9965 10.8777 17 10.3076Z" fill="white"/>
<path d="M8.50304 9.00575L11.5681 10.4022L14.6568 7.69215C14.7025 7.46827 14.7243 7.24017 14.7219 7.01169C14.7224 6.27408 14.4867 5.55569 14.0493 4.96178C13.6119 4.36787 12.9957 3.92965 12.2912 3.71133C11.5866 3.49302 10.8307 3.50608 10.1341 3.74861C9.43746 3.99114 8.83684 4.45038 8.42021 5.05905L7.90542 7.72766L8.50304 9.00575Z" fill="#FED10A"/>
<path d="M5.33148 12.2485C5.28583 12.4764 5.26402 12.7084 5.2664 12.9408C5.2673 13.6814 5.50543 14.4023 5.94588 14.9978C6.38634 15.5933 7.00595 16.032 7.71391 16.2497C8.42187 16.4674 9.18094 16.4526 9.87986 16.2074C10.5788 15.9623 11.1808 15.4997 11.5977 14.8875L12.1066 12.2307L11.4261 10.929L8.3492 9.52661L5.33148 12.2485Z" fill="#24BBB1"/>
<path d="M5.31373 6.94689L7.4143 7.44393L7.87583 5.05934C7.59089 4.84116 7.2428 4.72141 6.88394 4.71809C6.52508 4.71477 6.17484 4.82806 5.88591 5.04092C5.59698 5.25378 5.38497 5.55471 5.28179 5.89843C5.1786 6.24215 5.18981 6.61009 5.31373 6.94689Z" fill="#EF5098"/>
<path d="M5.1303 7.44946C4.67583 7.5986 4.27876 7.88493 3.99373 8.26904C3.7087 8.65316 3.54973 9.11617 3.5387 9.59436C3.52767 10.0725 3.66512 10.5424 3.93214 10.9392C4.19915 11.3361 4.5826 11.6404 5.02971 11.8104L7.97642 9.14767L7.43797 7.99384L5.1303 7.44946Z" fill="#17A8E0"/>
<path d="M12.1302 14.8875C12.4154 15.103 12.7625 15.2205 13.12 15.2225C13.4774 15.2245 13.8259 15.1109 14.1134 14.8986C14.4009 14.6862 14.6121 14.3866 14.7154 14.0444C14.8186 13.7022 14.8085 13.3358 14.6864 12.9999L12.5918 12.5088L12.1302 14.8875Z" fill="#93C83E"/>
<path d="M12.5563 11.9587L14.8639 12.4971C15.3184 12.348 15.7155 12.0617 16.0005 11.6775C16.2855 11.2934 16.4445 10.8304 16.4555 10.3522C16.4665 9.87404 16.3291 9.40419 16.0621 9.00735C15.7951 8.6105 15.4116 8.30616 14.9645 8.13623L11.9468 10.7812L12.5563 11.9587Z" fill="#0779A1"/>
</svg>
